<?xml version="1.0" encoding="UTF-8" standalone="no"?><!DOCTYPE svg PUBLIC "-//W3C//DTD SVG 1.1//EN" "http://www.w3.org/Graphics/SVG/1.1/DTD/svg11.dtd"><!-- Generated by graphviz version 2.40.1 (20161225.0304)
 --><!-- Title: __crate__ Pages: 1 --><svg xmlns="http://www.w3.org/2000/svg" xmlns:xlink="http://www.w3.org/1999/xlink" width="1098pt" height="455pt" viewBox="0.00 0.00 1098.00 455.20">
<g id="graph0" class="graph" transform="scale(1 1) rotate(0) translate(4 451.2)">
<title>__crate__</title>
<polygon fill="#ffffff" stroke="transparent" points="-4,4 -4,-451.2 1094,-451.2 1094,4 -4,4"/>
<g id="clust1" class="cluster">
<title>cluster_Mir_0_3</title>
<polygon fill="none" stroke="#000000" points="8,-8 8,-439.2 902,-439.2 902,-8 8,-8"/>
<text text-anchor="start" x="333.2203" y="-422.6" font-family="Courier, monospace" font-size="14.00" fill="#000000">fn main() -&gt; ()</text>
<text text-anchor="start" x="333.2203" y="-405.8" font-family="Courier, monospace" font-size="14.00" fill="#000000">let mut _1: i32;</text>
<text text-anchor="start" x="333.2203" y="-389" font-family="Courier, monospace" font-size="14.00" fill="#000000">let mut _2: i32;</text>
<text text-anchor="start" x="333.2203" y="-372.2" font-family="Courier, monospace" font-size="14.00" fill="#000000">let mut _3: (i32, bool);</text>
<text text-anchor="start" x="333.2203" y="-355.4" font-family="Courier, monospace" font-size="14.00" fill="#000000">debug x =&gt; const 10_i32;</text>
<text text-anchor="start" x="333.2203" y="-338.6" font-family="Courier, monospace" font-size="14.00" fill="#000000">debug y =&gt; const 11_i32;</text>
<text text-anchor="start" x="333.2203" y="-321.8" font-family="Courier, monospace" font-size="14.00" fill="#000000">debug x =&gt; const "a string?";</text>
<text text-anchor="start" x="333.2203" y="-305" font-family="Courier, monospace" font-size="14.00" fill="#000000">debug z =&gt; _1;</text>
</g>
<g id="clust2" class="cluster">
<title>cluster_Mir_0_4</title>
<polygon fill="none" stroke="#000000" points="910,-189.8 910,-304.6 1082,-304.6 1082,-189.8 910,-189.8"/>
<text text-anchor="start" x="924.6119" y="-288" font-family="Courier, monospace" font-size="14.00" fill="#000000">fn _TRUE() -&gt; i32</text>
</g>
<!-- bb0__0_3 -->
<g id="node1" class="node">
<title>bb0__0_3</title>
<polygon fill="#c0c0c0" stroke="transparent" points="24,-262.8 24,-284.8 886,-284.8 886,-262.8 24,-262.8"/>
<polygon fill="none" stroke="#000000" points="24,-262.8 24,-284.8 886,-284.8 886,-262.8 24,-262.8"/>
<text text-anchor="start" x="450.8007" y="-269.2" font-family="Courier, monospace" font-size="14.00" fill="#000000">0</text>
<polygon fill="none" stroke="#000000" points="24,-206.8 24,-262.8 886,-262.8 886,-206.8 24,-206.8"/>
<text text-anchor="start" x="27" y="-247.2" font-family="Courier, monospace" font-size="14.00" fill="#000000">_1 = const 10_i32</text>
<text text-anchor="start" x="27" y="-230.4" font-family="Courier, monospace" font-size="14.00" fill="#000000">_2 = _1</text>
<text text-anchor="start" x="27" y="-213.6" font-family="Courier, monospace" font-size="14.00" fill="#000000">_3 = CheckedAdd(_2, const 1_i32)</text>
<polygon fill="none" stroke="#000000" points="24,-184.8 24,-206.8 886,-206.8 886,-184.8 24,-184.8"/>
<text text-anchor="start" x="26.6714" y="-191.2" font-family="Courier, monospace" font-size="14.00" fill="#000000">assert(!move (_3.1: bool), "attempt to compute `{} + {}`, which would overflow", move _2, const 1_i32)</text>
</g>
<!-- bb1__0_3 -->
<g id="node2" class="node">
<title>bb1__0_3</title>
<polygon fill="#c0c0c0" stroke="transparent" points="364,-64 364,-86 546,-86 546,-64 364,-64"/>
<polygon fill="none" stroke="#000000" points="364,-64 364,-86 546,-86 546,-64 364,-64"/>
<text text-anchor="start" x="450.8007" y="-70.4" font-family="Courier, monospace" font-size="14.00" fill="#000000">1</text>
<polygon fill="none" stroke="#000000" points="364,-42 364,-64 546,-64 546,-42 364,-42"/>
<text text-anchor="start" x="367" y="-48.4" font-family="Courier, monospace" font-size="14.00" fill="#000000">_1 = move (_3.0: i32)</text>
<polygon fill="none" stroke="#000000" points="364,-20 364,-42 546,-42 546,-20 364,-20"/>
<text text-anchor="start" x="367" y="-26.4" font-family="Courier, monospace" font-size="14.00" fill="#000000">return</text>
</g>
<!-- bb0__0_3&#45;&gt;bb1__0_3 -->
<g id="edge1" class="edge">
<title>bb0__0_3-&gt;bb1__0_3</title>
<path fill="none" stroke="#000000" d="M455,-180.7462C455,-155.1943 455,-124.9666 455,-100.3311"/>
<polygon fill="#000000" stroke="#000000" points="458.5001,-100.1454 455,-90.1454 451.5001,-100.1454 458.5001,-100.1454"/>
<text text-anchor="middle" x="484.3951" y="-131.2" font-family="Courier, monospace" font-size="14.00" fill="#000000">success</text>
</g>
<!-- bb0__0_4 -->
<g id="node3" class="node">
<title>bb0__0_4</title>
<polygon fill="#c0c0c0" stroke="transparent" points="926,-245.8 926,-267.8 1066,-267.8 1066,-245.8 926,-245.8"/>
<polygon fill="none" stroke="#000000" points="926,-245.8 926,-267.8 1066,-267.8 1066,-245.8 926,-245.8"/>
<text text-anchor="start" x="991.8007" y="-252.2" font-family="Courier, monospace" font-size="14.00" fill="#000000">0</text>
<polygon fill="none" stroke="#000000" points="926,-223.8 926,-245.8 1066,-245.8 1066,-223.8 926,-223.8"/>
<text text-anchor="start" x="929" y="-230.2" font-family="Courier, monospace" font-size="14.00" fill="#000000">_0 = const 1_i32</text>
<polygon fill="none" stroke="#000000" points="926,-201.8 926,-223.8 1066,-223.8 1066,-201.8 926,-201.8"/>
<text text-anchor="start" x="929" y="-208.2" font-family="Courier, monospace" font-size="14.00" fill="#000000">return</text>
</g>
</g>
</svg>