<?xml version="1.0" encoding="UTF-8" standalone="no"?><!DOCTYPE svg PUBLIC "-//W3C//DTD SVG 1.1//EN" "http://www.w3.org/Graphics/SVG/1.1/DTD/svg11.dtd"><!-- Generated by graphviz version 2.40.1 (20161225.0304)
 --><!-- Title: __crate__ Pages: 1 --><svg xmlns="http://www.w3.org/2000/svg" xmlns:xlink="http://www.w3.org/1999/xlink" width="1956pt" height="2017pt" viewBox="0.00 0.00 1956.00 2016.80">
<g id="graph0" class="graph" transform="scale(1 1) rotate(0) translate(4 2012.8)">
<title>__crate__</title>
<polygon fill="#ffffff" stroke="transparent" points="-4,4 -4,-2012.8 1952,-2012.8 1952,4 -4,4"/>
<g id="clust1" class="cluster">
<title>cluster_Mir_0_3</title>
<polygon fill="none" stroke="#000000" points="8,-8 8,-2000.8 1278,-2000.8 1278,-8 8,-8"/>
<text text-anchor="start" x="290.2588" y="-1984.2" font-family="Courier, monospace" font-size="14.00" fill="#000000">fn main() -&gt; ()</text>
<text text-anchor="start" x="290.2588" y="-1967.4" font-family="Courier, monospace" font-size="14.00" fill="#000000">let _1: std::vec::Vec&lt;i32&gt;;</text>
<text text-anchor="start" x="290.2588" y="-1950.6" font-family="Courier, monospace" font-size="14.00" fill="#000000">let mut _2: std::boxed::Box&lt;[i32]&gt;;</text>
<text text-anchor="start" x="290.2588" y="-1933.8" font-family="Courier, monospace" font-size="14.00" fill="#000000">let mut _3: usize;</text>
<text text-anchor="start" x="290.2588" y="-1917" font-family="Courier, monospace" font-size="14.00" fill="#000000">let mut _4: usize;</text>
<text text-anchor="start" x="290.2588" y="-1900.2" font-family="Courier, monospace" font-size="14.00" fill="#000000">let mut _5: *mut u8;</text>
<text text-anchor="start" x="290.2588" y="-1883.4" font-family="Courier, monospace" font-size="14.00" fill="#000000">let mut _6: std::boxed::Box&lt;[i32; 4]&gt;;</text>
<text text-anchor="start" x="290.2588" y="-1866.6" font-family="Courier, monospace" font-size="14.00" fill="#000000">let _7: std::vec::Vec&lt;i32&gt;;</text>
<text text-anchor="start" x="290.2588" y="-1849.8" font-family="Courier, monospace" font-size="14.00" fill="#000000">let mut _8: std::iter::Map&lt;std::slice::Iter&lt;'_, i32&gt;, [closure@maps.rs:5:14: 5:17]&gt;;</text>
<text text-anchor="start" x="290.2588" y="-1833" font-family="Courier, monospace" font-size="14.00" fill="#000000">let mut _9: std::slice::Iter&lt;'_, i32&gt;;</text>
<text text-anchor="start" x="290.2588" y="-1816.2" font-family="Courier, monospace" font-size="14.00" fill="#000000">let mut _10: &amp;[i32];</text>
<text text-anchor="start" x="290.2588" y="-1799.4" font-family="Courier, monospace" font-size="14.00" fill="#000000">let _11: &amp;[i32];</text>
<text text-anchor="start" x="290.2588" y="-1782.6" font-family="Courier, monospace" font-size="14.00" fill="#000000">let mut _12: &amp;std::vec::Vec&lt;i32&gt;;</text>
<text text-anchor="start" x="290.2588" y="-1765.8" font-family="Courier, monospace" font-size="14.00" fill="#000000">let mut _13: *const [i32; 4];</text>
<text text-anchor="start" x="290.2588" y="-1749" font-family="Courier, monospace" font-size="14.00" fill="#000000">let mut _14: *const ();</text>
<text text-anchor="start" x="290.2588" y="-1732.2" font-family="Courier, monospace" font-size="14.00" fill="#000000">let mut _15: usize;</text>
<text text-anchor="start" x="290.2588" y="-1715.4" font-family="Courier, monospace" font-size="14.00" fill="#000000">let mut _16: usize;</text>
<text text-anchor="start" x="290.2588" y="-1698.6" font-family="Courier, monospace" font-size="14.00" fill="#000000">let mut _17: usize;</text>
<text text-anchor="start" x="290.2588" y="-1681.8" font-family="Courier, monospace" font-size="14.00" fill="#000000">let mut _18: usize;</text>
<text text-anchor="start" x="290.2588" y="-1665" font-family="Courier, monospace" font-size="14.00" fill="#000000">let mut _19: bool;</text>
<text text-anchor="start" x="290.2588" y="-1648.2" font-family="Courier, monospace" font-size="14.00" fill="#000000">debug numbers =&gt; _1;</text>
<text text-anchor="start" x="290.2588" y="-1631.4" font-family="Courier, monospace" font-size="14.00" fill="#000000">debug result =&gt; _7;</text>
</g>
<g id="clust2" class="cluster">
<title>cluster_Mir_0_4</title>
<polygon fill="none" stroke="#000000" points="1286,-1303.4 1286,-1645.3 1940,-1645.3 1940,-1303.4 1286,-1303.4"/>
<text text-anchor="start" x="1293.8532" y="-1628.7" font-family="Courier, monospace" font-size="14.00" fill="#000000">fn main::{closure#0}(_1: &amp;mut [closure@maps.rs:5:14: 5:17], _2: &amp;i32) -&gt; i32</text>
<text text-anchor="start" x="1293.8532" y="-1611.9" font-family="Courier, monospace" font-size="14.00" fill="#000000">debug n =&gt; _2;</text>
</g>
<!-- bb0__0_3 -->
<g id="node1" class="node">
<title>bb0__0_3</title>
<polygon fill="#c0c0c0" stroke="transparent" points="622,-1588.7 622,-1610.7 1064,-1610.7 1064,-1588.7 622,-1588.7"/>
<polygon fill="none" stroke="#000000" points="622,-1588.7 622,-1610.7 1064,-1610.7 1064,-1588.7 622,-1588.7"/>
<text text-anchor="start" x="838.8007" y="-1595.1" font-family="Courier, monospace" font-size="14.00" fill="#000000">0</text>
<polygon fill="none" stroke="#000000" points="622,-1549.7 622,-1588.7 1064,-1588.7 1064,-1549.7 622,-1549.7"/>
<text text-anchor="start" x="625" y="-1573.1" font-family="Courier, monospace" font-size="14.00" fill="#000000">_3 = SizeOf([i32; 4])</text>
<text text-anchor="start" x="625" y="-1556.3" font-family="Courier, monospace" font-size="14.00" fill="#000000">_4 = AlignOf([i32; 4])</text>
<polygon fill="none" stroke="#000000" points="622,-1527.7 622,-1549.7 1064,-1549.7 1064,-1527.7 622,-1527.7"/>
<text text-anchor="start" x="624.6364" y="-1534.1" font-family="Courier, monospace" font-size="14.00" fill="#000000">_5 = alloc::alloc::exchange_malloc(move _3, move _4)</text>
</g>
<!-- bb1__0_3 -->
<g id="node2" class="node">
<title>bb1__0_3</title>
<polygon fill="#c0c0c0" stroke="transparent" points="425,-1407.4 425,-1429.4 1262,-1429.4 1262,-1407.4 425,-1407.4"/>
<polygon fill="none" stroke="#000000" points="425,-1407.4 425,-1429.4 1262,-1429.4 1262,-1407.4 425,-1407.4"/>
<text text-anchor="start" x="839.3007" y="-1413.8" font-family="Courier, monospace" font-size="14.00" fill="#000000">1</text>
<polygon fill="none" stroke="#000000" points="425,-1267.4 425,-1407.4 1262,-1407.4 1262,-1267.4 425,-1267.4"/>
<text text-anchor="start" x="428" y="-1391.8" font-family="Courier, monospace" font-size="14.00" fill="#000000">_6 = ShallowInitBox(move _5, [i32; 4])</text>
<text text-anchor="start" x="428" y="-1375" font-family="Courier, monospace" font-size="14.00" fill="#000000">_13 = (((_6.0: std::ptr::Unique&lt;[i32; 4]&gt;).0: std::ptr::NonNull&lt;[i32; 4]&gt;).0: *const [i32; 4])</text>
<text text-anchor="start" x="428" y="-1358.2" font-family="Courier, monospace" font-size="14.00" fill="#000000">_14 = _13 as *const () (PtrToPtr)</text>
<text text-anchor="start" x="428" y="-1341.4" font-family="Courier, monospace" font-size="14.00" fill="#000000">_15 = _14 as usize (Transmute)</text>
<text text-anchor="start" x="428" y="-1324.6" font-family="Courier, monospace" font-size="14.00" fill="#000000">_16 = AlignOf(i32)</text>
<text text-anchor="start" x="428" y="-1307.8" font-family="Courier, monospace" font-size="14.00" fill="#000000">_17 = Sub(_16, const 1_usize)</text>
<text text-anchor="start" x="428" y="-1291" font-family="Courier, monospace" font-size="14.00" fill="#000000">_18 = BitAnd(_15, _17)</text>
<text text-anchor="start" x="428" y="-1274.2" font-family="Courier, monospace" font-size="14.00" fill="#000000">_19 = Eq(_18, const 0_usize)</text>
<polygon fill="none" stroke="#000000" points="425,-1245.4 425,-1267.4 1262,-1267.4 1262,-1245.4 425,-1245.4"/>
<text text-anchor="start" x="427.7693" y="-1251.8" font-family="Courier, monospace" font-size="14.00" fill="#000000">assert(_19, "misaligned pointer dereference: address must be a multiple of {} but is {}", _16, _15)</text>
</g>
<!-- bb0__0_3&#45;&gt;bb1__0_3 -->
<g id="edge1" class="edge">
<title>bb0__0_3-&gt;bb1__0_3</title>
<path fill="none" stroke="#000000" d="M843,-1524.0822C843,-1501.1344 843,-1472.2752 843,-1444.1552"/>
<polygon fill="#000000" stroke="#000000" points="846.5001,-1443.8409 843,-1433.8409 839.5001,-1443.841 846.5001,-1443.8409"/>
<text text-anchor="middle" x="868.1958" y="-1474.6" font-family="Courier, monospace" font-size="14.00" fill="#000000">return</text>
</g>
<!-- bb11__0_3 -->
<g id="node12" class="node">
<title>bb11__0_3</title>
<polygon fill="#c0c0c0" stroke="transparent" points="655,-1124.1 655,-1146.1 1206,-1146.1 1206,-1124.1 655,-1124.1"/>
<polygon fill="none" stroke="#000000" points="655,-1124.1 655,-1146.1 1206,-1146.1 1206,-1124.1 655,-1124.1"/>
<text text-anchor="start" x="922.1014" y="-1130.5" font-family="Courier, monospace" font-size="14.00" fill="#000000">11</text>
<polygon fill="none" stroke="#000000" points="655,-1085.1 655,-1124.1 1206,-1124.1 1206,-1085.1 655,-1085.1"/>
<text text-anchor="start" x="658" y="-1108.5" font-family="Courier, monospace" font-size="14.00" fill="#000000">(*_13) = [const 3_i32, const 6_i32, const 9_i32, const 12_i32]</text>
<text text-anchor="start" x="658" y="-1091.7" font-family="Courier, monospace" font-size="14.00" fill="#000000">_2 = move _6 as std::boxed::Box&lt;[i32]&gt; (PointerCoercion(Unsize))</text>
<polygon fill="none" stroke="#000000" points="655,-1063.1 655,-1085.1 1206,-1085.1 1206,-1063.1 655,-1063.1"/>
<text text-anchor="start" x="657.5455" y="-1069.5" font-family="Courier, monospace" font-size="14.00" fill="#000000">_1 = slice::&lt;impl [i32]&gt;::into_vec::&lt;std::alloc::Global&gt;(move _2)</text>
</g>
<!-- bb1__0_3&#45;&gt;bb11__0_3 -->
<g id="edge2" class="edge">
<title>bb1__0_3-&gt;bb11__0_3</title>
<path fill="none" stroke="#000000" d="M879.0142,-1241.2378C889.3726,-1213.5798 900.3149,-1184.3627 909.3955,-1160.1165"/>
<polygon fill="#000000" stroke="#000000" points="912.6779,-1161.3313 912.9075,-1150.7389 906.1225,-1158.8762 912.6779,-1161.3313"/>
<text text-anchor="middle" x="927.3951" y="-1191.8" font-family="Courier, monospace" font-size="14.00" fill="#000000">success</text>
</g>
<!-- bb2__0_3 -->
<g id="node3" class="node">
<title>bb2__0_3</title>
<polygon fill="#c0c0c0" stroke="transparent" points="801,-942.8 801,-964.8 1159,-964.8 1159,-942.8 801,-942.8"/>
<polygon fill="none" stroke="#000000" points="801,-942.8 801,-964.8 1159,-964.8 1159,-942.8 801,-942.8"/>
<text text-anchor="start" x="975.8007" y="-949.2" font-family="Courier, monospace" font-size="14.00" fill="#000000">2</text>
<polygon fill="none" stroke="#000000" points="801,-920.8 801,-942.8 1159,-942.8 1159,-920.8 801,-920.8"/>
<text text-anchor="start" x="804" y="-927.2" font-family="Courier, monospace" font-size="14.00" fill="#000000">_12 = &amp;_1</text>
<polygon fill="none" stroke="#000000" points="801,-898.8 801,-920.8 1159,-920.8 1159,-898.8 801,-898.8"/>
<text text-anchor="start" x="803.6294" y="-905.2" font-family="Courier, monospace" font-size="14.00" fill="#000000">_11 = &lt;Vec&lt;i32&gt; as Deref&gt;::deref(move _12)</text>
</g>
<!-- bb3__0_3 -->
<g id="node4" class="node">
<title>bb3__0_3</title>
<polygon fill="#c0c0c0" stroke="transparent" points="784,-778 784,-800 1176,-800 1176,-778 784,-778"/>
<polygon fill="none" stroke="#000000" points="784,-778 784,-800 1176,-800 1176,-778 784,-778"/>
<text text-anchor="start" x="975.8007" y="-784.4" font-family="Courier, monospace" font-size="14.00" fill="#000000">3</text>
<polygon fill="none" stroke="#000000" points="784,-756 784,-778 1176,-778 1176,-756 784,-756"/>
<text text-anchor="start" x="787" y="-762.4" font-family="Courier, monospace" font-size="14.00" fill="#000000">_10 = _11</text>
<polygon fill="none" stroke="#000000" points="784,-734 784,-756 1176,-756 1176,-734 784,-734"/>
<text text-anchor="start" x="786.8322" y="-740.4" font-family="Courier, monospace" font-size="14.00" fill="#000000">_9 = core::slice::&lt;impl [i32]&gt;::iter(move _10)</text>
</g>
<!-- bb2__0_3&#45;&gt;bb3__0_3 -->
<g id="edge3" class="edge">
<title>bb2__0_3-&gt;bb3__0_3</title>
<path fill="none" stroke="#000000" d="M980,-894.4043C980,-870.6998 980,-839.8273 980,-814.4099"/>
<polygon fill="#000000" stroke="#000000" points="983.5001,-814.2476 980,-804.2477 976.5001,-814.2477 983.5001,-814.2476"/>
<text text-anchor="middle" x="1005.1958" y="-845.2" font-family="Courier, monospace" font-size="14.00" fill="#000000">return</text>
</g>
<!-- bb9__0_3 -->
<g id="node10" class="node">
<title>bb9__0_3</title>
<polygon fill="#add8e6" stroke="transparent" points="1039,-184.8 1039,-206.8 1137,-206.8 1137,-184.8 1039,-184.8"/>
<polygon fill="none" stroke="#000000" points="1039,-184.8 1039,-206.8 1137,-206.8 1137,-184.8 1039,-184.8"/>
<text text-anchor="start" x="1041.8077" y="-191.2" font-family="Courier, monospace" font-size="14.00" fill="#000000">9 (cleanup)</text>
<polygon fill="none" stroke="#000000" points="1039,-162.8 1039,-184.8 1137,-184.8 1137,-162.8 1039,-162.8"/>
<text text-anchor="start" x="1042" y="-169.2" font-family="Courier, monospace" font-size="14.00" fill="#000000">drop(_1)</text>
</g>
<!-- bb2__0_3&#45;&gt;bb9__0_3 -->
<g id="edge4" class="edge">
<title>bb2__0_3-&gt;bb9__0_3</title>
<path fill="none" stroke="#000000" d="M1167.1094,-907.2914C1222.6696,-894.6754 1269,-876.1388 1269,-849.4 1269,-849.4 1269,-849.4 1269,-657.7 1269,-552.9202 1226,-530.6798 1226,-425.9 1226,-425.9 1226,-425.9 1226,-256.2 1226,-221.0638 1190.2743,-203.1984 1155.1777,-194.1249"/>
<polygon fill="#000000" stroke="#000000" points="1155.863,-190.6904 1145.3255,-191.7918 1154.2499,-197.5021 1155.863,-190.6904"/>
<text text-anchor="middle" x="1274.1958" y="-537.6" font-family="Courier, monospace" font-size="14.00" fill="#000000">unwind</text>
</g>
<!-- bb4__0_3 -->
<g id="node5" class="node">
<title>bb4__0_3</title>
<polygon fill="#c0c0c0" stroke="transparent" points="24,-613.2 24,-635.2 1222,-635.2 1222,-613.2 24,-613.2"/>
<polygon fill="none" stroke="#000000" points="24,-613.2 24,-635.2 1222,-635.2 1222,-613.2 24,-613.2"/>
<text text-anchor="start" x="618.8007" y="-619.6" font-family="Courier, monospace" font-size="14.00" fill="#000000">4</text>
<polygon fill="none" stroke="#000000" points="24,-591.2 24,-613.2 1222,-613.2 1222,-591.2 24,-591.2"/>
<text text-anchor="start" x="26.6994" y="-597.6" font-family="Courier, monospace" font-size="14.00" fill="#000000">_8 = &lt;std::slice::Iter&lt;'_, i32&gt; as Iterator&gt;::map::&lt;i32, [closure@maps.rs:5:14: 5:17]&gt;(move _9, const ZeroSized: [closure@maps.rs:5:14: 5:17])</text>
</g>
<!-- bb3__0_3&#45;&gt;bb4__0_3 -->
<g id="edge5" class="edge">
<title>bb3__0_3-&gt;bb4__0_3</title>
<path fill="none" stroke="#000000" d="M894.0353,-729.9653C832.374,-703.4009 750.3498,-668.0639 692.7445,-643.2468"/>
<polygon fill="#000000" stroke="#000000" points="693.9274,-639.9455 683.3586,-639.2032 691.1578,-646.3743 693.9274,-639.9455"/>
<text text-anchor="middle" x="832.1958" y="-680.4" font-family="Courier, monospace" font-size="14.00" fill="#000000">return</text>
</g>
<!-- bb3__0_3&#45;&gt;bb9__0_3 -->
<g id="edge6" class="edge">
<title>bb3__0_3-&gt;bb9__0_3</title>
<path fill="none" stroke="#000000" d="M1121.823,-729.9056C1167.2157,-710.5991 1212.5269,-681.7833 1239,-639.2 1251.2019,-619.5726 1248.3883,-608.3183 1239,-587.2 1229.0291,-564.7712 1212.9283,-569.6837 1198,-550.2 1162.6201,-504.0236 1157,-484.0721 1157,-425.9 1157,-425.9 1157,-425.9 1157,-256.2 1157,-241.4936 1149.3371,-228.6596 1139.1186,-218.0833"/>
<polygon fill="#000000" stroke="#000000" points="1141.3878,-215.4131 1131.6987,-211.1267 1136.6,-220.5197 1141.3878,-215.4131"/>
<text text-anchor="middle" x="1190.1958" y="-466.2" font-family="Courier, monospace" font-size="14.00" fill="#000000">unwind</text>
</g>
<!-- bb5__0_3 -->
<g id="node6" class="node">
<title>bb5__0_3</title>
<polygon fill="#c0c0c0" stroke="transparent" points="141,-470.4 141,-492.4 1062,-492.4 1062,-470.4 141,-470.4"/>
<polygon fill="none" stroke="#000000" points="141,-470.4 141,-492.4 1062,-492.4 1062,-470.4 141,-470.4"/>
<text text-anchor="start" x="597.3007" y="-476.8" font-family="Courier, monospace" font-size="14.00" fill="#000000">5</text>
<polygon fill="none" stroke="#000000" points="141,-448.4 141,-470.4 1062,-470.4 1062,-448.4 141,-448.4"/>
<text text-anchor="start" x="143.7763" y="-454.8" font-family="Courier, monospace" font-size="14.00" fill="#000000">_7 = &lt;Map&lt;std::slice::Iter&lt;'_, i32&gt;, [closure@maps.rs:5:14: 5:17]&gt; as Iterator&gt;::collect::&lt;Vec&lt;i32&gt;&gt;(move _8)</text>
</g>
<!-- bb4__0_3&#45;&gt;bb5__0_3 -->
<g id="edge7" class="edge">
<title>bb4__0_3-&gt;bb5__0_3</title>
<path fill="none" stroke="#000000" d="M618.9649,-587.0083C615.4915,-564.4633 610.4444,-531.7026 606.5835,-506.6422"/>
<polygon fill="#000000" stroke="#000000" points="609.9915,-505.7761 605.0096,-496.4257 603.0731,-506.842 609.9915,-505.7761"/>
<text text-anchor="middle" x="638.1958" y="-537.6" font-family="Courier, monospace" font-size="14.00" fill="#000000">return</text>
</g>
<!-- bb4__0_3&#45;&gt;bb9__0_3 -->
<g id="edge8" class="edge">
<title>bb4__0_3-&gt;bb9__0_3</title>
<path fill="none" stroke="#000000" d="M942.1469,-587.1901C1023.2888,-576.1875 1088,-561.3 1088,-541.8 1088,-541.8 1088,-541.8 1088,-256.2 1088,-244.8336 1088,-232.4494 1088,-221.2348"/>
<polygon fill="#000000" stroke="#000000" points="1091.5001,-220.9123 1088,-210.9124 1084.5001,-220.9124 1091.5001,-220.9123"/>
<text text-anchor="middle" x="1113.1958" y="-394.8" font-family="Courier, monospace" font-size="14.00" fill="#000000">unwind</text>
</g>
<!-- bb6__0_3 -->
<g id="node7" class="node">
<title>bb6__0_3</title>
<polygon fill="#c0c0c0" stroke="transparent" points="598,-327.6 598,-349.6 671,-349.6 671,-327.6 598,-327.6"/>
<polygon fill="none" stroke="#000000" points="598,-327.6 598,-349.6 671,-349.6 671,-327.6 598,-327.6"/>
<text text-anchor="start" x="630.3007" y="-334" font-family="Courier, monospace" font-size="14.00" fill="#000000">6</text>
<polygon fill="none" stroke="#000000" points="598,-305.6 598,-327.6 671,-327.6 671,-305.6 598,-305.6"/>
<text text-anchor="start" x="600.9056" y="-312" font-family="Courier, monospace" font-size="14.00" fill="#000000">drop(_7)</text>
</g>
<!-- bb5__0_3&#45;&gt;bb6__0_3 -->
<g id="edge9" class="edge">
<title>bb5__0_3-&gt;bb6__0_3</title>
<path fill="none" stroke="#000000" d="M607.0527,-444.2083C612.2859,-421.5626 619.9011,-388.6099 625.7022,-363.507"/>
<polygon fill="#000000" stroke="#000000" points="629.1441,-364.157 627.9857,-353.6257 622.3239,-362.5808 629.1441,-364.157"/>
<text text-anchor="middle" x="644.1958" y="-394.8" font-family="Courier, monospace" font-size="14.00" fill="#000000">return</text>
</g>
<!-- bb5__0_3&#45;&gt;bb9__0_3 -->
<g id="edge10" class="edge">
<title>bb5__0_3-&gt;bb9__0_3</title>
<path fill="none" stroke="#000000" d="M822.5161,-444.3868C860.4957,-433.9368 888,-419.3455 888,-399 888,-399 888,-399 888,-256.2 888,-227.3162 962.9218,-207.0421 1021.0531,-195.6587"/>
<polygon fill="#000000" stroke="#000000" points="1021.7873,-199.0819 1030.9557,-193.7724 1020.4774,-192.2055 1021.7873,-199.0819"/>
<text text-anchor="middle" x="913.1958" y="-323.4" font-family="Courier, monospace" font-size="14.00" fill="#000000">unwind</text>
</g>
<!-- bb7__0_3 -->
<g id="node8" class="node">
<title>bb7__0_3</title>
<polygon fill="#c0c0c0" stroke="transparent" points="598,-184.8 598,-206.8 671,-206.8 671,-184.8 598,-184.8"/>
<polygon fill="none" stroke="#000000" points="598,-184.8 598,-206.8 671,-206.8 671,-184.8 598,-184.8"/>
<text text-anchor="start" x="630.3007" y="-191.2" font-family="Courier, monospace" font-size="14.00" fill="#000000">7</text>
<polygon fill="none" stroke="#000000" points="598,-162.8 598,-184.8 671,-184.8 671,-162.8 598,-162.8"/>
<text text-anchor="start" x="600.9056" y="-169.2" font-family="Courier, monospace" font-size="14.00" fill="#000000">drop(_1)</text>
</g>
<!-- bb6__0_3&#45;&gt;bb7__0_3 -->
<g id="edge11" class="edge">
<title>bb6__0_3-&gt;bb7__0_3</title>
<path fill="none" stroke="#000000" d="M634,-301.4083C634,-278.8633 634,-246.1026 634,-221.0422"/>
<polygon fill="#000000" stroke="#000000" points="637.5001,-220.8256 634,-210.8257 630.5001,-220.8257 637.5001,-220.8256"/>
<text text-anchor="middle" x="659.1958" y="-252" font-family="Courier, monospace" font-size="14.00" fill="#000000">return</text>
</g>
<!-- bb6__0_3&#45;&gt;bb9__0_3 -->
<g id="edge12" class="edge">
<title>bb6__0_3-&gt;bb9__0_3</title>
<path fill="none" stroke="#000000" d="M678.5607,-307.0291C727.7183,-285.0237 809.6022,-250.3831 883,-228.8 928.3935,-215.4517 980.5411,-204.315 1020.8811,-196.5852"/>
<polygon fill="#000000" stroke="#000000" points="1021.6968,-199.9931 1030.8713,-194.6942 1020.3948,-193.1152 1021.6968,-199.9931"/>
<text text-anchor="middle" x="847.1958" y="-252" font-family="Courier, monospace" font-size="14.00" fill="#000000">unwind</text>
</g>
<!-- bb8__0_3 -->
<g id="node9" class="node">
<title>bb8__0_3</title>
<polygon fill="#c0c0c0" stroke="transparent" points="606,-42 606,-64 662,-64 662,-42 606,-42"/>
<polygon fill="none" stroke="#000000" points="606,-42 606,-64 662,-64 662,-42 606,-42"/>
<text text-anchor="start" x="629.8007" y="-48.4" font-family="Courier, monospace" font-size="14.00" fill="#000000">8</text>
<polygon fill="none" stroke="#000000" points="606,-20 606,-42 662,-42 662,-20 606,-20"/>
<text text-anchor="start" x="608.8042" y="-26.4" font-family="Courier, monospace" font-size="14.00" fill="#000000">return</text>
</g>
<!-- bb7__0_3&#45;&gt;bb8__0_3 -->
<g id="edge13" class="edge">
<title>bb7__0_3-&gt;bb8__0_3</title>
<path fill="none" stroke="#000000" d="M634,-158.6083C634,-136.0633 634,-103.3026 634,-78.2422"/>
<polygon fill="#000000" stroke="#000000" points="637.5001,-78.0256 634,-68.0257 630.5001,-78.0257 637.5001,-78.0256"/>
<text text-anchor="middle" x="659.1958" y="-109.2" font-family="Courier, monospace" font-size="14.00" fill="#000000">return</text>
</g>
<!-- bb10__0_3 -->
<g id="node11" class="node">
<title>bb10__0_3</title>
<polygon fill="#add8e6" stroke="transparent" points="1035,-42 1035,-64 1141,-64 1141,-42 1035,-42"/>
<polygon fill="none" stroke="#000000" points="1035,-42 1035,-64 1141,-64 1141,-42 1035,-42"/>
<text text-anchor="start" x="1037.6084" y="-48.4" font-family="Courier, monospace" font-size="14.00" fill="#000000">10 (cleanup)</text>
<polygon fill="none" stroke="#000000" points="1035,-20 1035,-42 1141,-42 1141,-20 1035,-20"/>
<text text-anchor="start" x="1038" y="-26.4" font-family="Courier, monospace" font-size="14.00" fill="#000000">resume</text>
</g>
<!-- bb9__0_3&#45;&gt;bb10__0_3 -->
<g id="edge14" class="edge">
<title>bb9__0_3-&gt;bb10__0_3</title>
<path fill="none" stroke="#000000" d="M1088,-158.6083C1088,-136.0633 1088,-103.3026 1088,-78.2422"/>
<polygon fill="#000000" stroke="#000000" points="1091.5001,-78.0256 1088,-68.0257 1084.5001,-78.0257 1091.5001,-78.0256"/>
<text text-anchor="middle" x="1113.1958" y="-109.2" font-family="Courier, monospace" font-size="14.00" fill="#000000">return</text>
</g>
<!-- bb11__0_3&#45;&gt;bb2__0_3 -->
<g id="edge15" class="edge">
<title>bb11__0_3-&gt;bb2__0_3</title>
<path fill="none" stroke="#000000" d="M943.1369,-1059.5675C950.3401,-1034.6013 959.2538,-1003.7065 966.5115,-978.5511"/>
<polygon fill="#000000" stroke="#000000" points="969.897,-979.4426 969.3063,-968.8642 963.1713,-977.5021 969.897,-979.4426"/>
<text text-anchor="middle" x="983.1958" y="-1010" font-family="Courier, monospace" font-size="14.00" fill="#000000">return</text>
</g>
<!-- bb0__0_4 -->
<g id="node13" class="node">
<title>bb0__0_4</title>
<polygon fill="#c0c0c0" stroke="transparent" points="1417,-1569.7 1417,-1591.7 1809,-1591.7 1809,-1569.7 1417,-1569.7"/>
<polygon fill="none" stroke="#000000" points="1417,-1569.7 1417,-1591.7 1809,-1591.7 1809,-1569.7 1417,-1569.7"/>
<text text-anchor="start" x="1608.8007" y="-1576.1" font-family="Courier, monospace" font-size="14.00" fill="#000000">0</text>
<polygon fill="none" stroke="#000000" points="1417,-1547.7 1417,-1569.7 1809,-1569.7 1809,-1547.7 1417,-1547.7"/>
<text text-anchor="start" x="1419.8322" y="-1554.1" font-family="Courier, monospace" font-size="14.00" fill="#000000">_0 = &lt;&amp;i32 as Mul&lt;i32&gt;&gt;::mul(_2, const 10_i32)</text>
</g>
<!-- bb1__0_4 -->
<g id="node14" class="node">
<title>bb1__0_4</title>
<polygon fill="#c0c0c0" stroke="transparent" points="1585,-1337.4 1585,-1359.4 1641,-1359.4 1641,-1337.4 1585,-1337.4"/>
<polygon fill="none" stroke="#000000" points="1585,-1337.4 1585,-1359.4 1641,-1359.4 1641,-1337.4 1585,-1337.4"/>
<text text-anchor="start" x="1608.8007" y="-1343.8" font-family="Courier, monospace" font-size="14.00" fill="#000000">1</text>
<polygon fill="none" stroke="#000000" points="1585,-1315.4 1585,-1337.4 1641,-1337.4 1641,-1315.4 1585,-1315.4"/>
<text text-anchor="start" x="1587.8042" y="-1321.8" font-family="Courier, monospace" font-size="14.00" fill="#000000">return</text>
</g>
<!-- bb0__0_4&#45;&gt;bb1__0_4 -->
<g id="edge16" class="edge">
<title>bb0__0_4-&gt;bb1__0_4</title>
<path fill="none" stroke="#000000" d="M1613,-1543.5038C1613,-1501.9155 1613,-1420.6827 1613,-1373.572"/>
<polygon fill="#000000" stroke="#000000" points="1616.5001,-1373.5004 1613,-1363.5005 1609.5001,-1373.5005 1616.5001,-1373.5004"/>
<text text-anchor="middle" x="1638.1958" y="-1474.6" font-family="Courier, monospace" font-size="14.00" fill="#000000">return</text>
</g>
</g>
</svg>