<?xml version="1.0" encoding="UTF-8" standalone="no"?><!DOCTYPE svg PUBLIC "-//W3C//DTD SVG 1.1//EN" "http://www.w3.org/Graphics/SVG/1.1/DTD/svg11.dtd"><!-- Generated by graphviz version 2.40.1 (20161225.0304)
 --><!-- Title: __crate__ Pages: 1 --><svg xmlns="http://www.w3.org/2000/svg" xmlns:xlink="http://www.w3.org/1999/xlink" width="1821pt" height="774pt" viewBox="0.00 0.00 1821.00 774.40">
<g id="graph0" class="graph" transform="scale(1 1) rotate(0) translate(4 770.4)">
<title>__crate__</title>
<polygon fill="#ffffff" stroke="transparent" points="-4,4 -4,-770.4 1817,-770.4 1817,4 -4,4"/>
<g id="clust1" class="cluster">
<title>cluster_Mir_0_20</title>
<polygon fill="none" stroke="#000000" points="8,-8 8,-758.4 626,-758.4 626,-8 8,-8"/>
<text text-anchor="start" x="182.6224" y="-741.8" font-family="Courier, monospace" font-size="14.00" fill="#000000">fn main() -&gt; ()</text>
<text text-anchor="start" x="182.6224" y="-725" font-family="Courier, monospace" font-size="14.00" fill="#000000">let _1: IpAddrKind;</text>
<text text-anchor="start" x="182.6224" y="-708.2" font-family="Courier, monospace" font-size="14.00" fill="#000000">let _2: IpAddrKind;</text>
<text text-anchor="start" x="182.6224" y="-691.4" font-family="Courier, monospace" font-size="14.00" fill="#000000">let _3: IpAddr;</text>
<text text-anchor="start" x="182.6224" y="-674.6" font-family="Courier, monospace" font-size="14.00" fill="#000000">let mut _4: std::string::String;</text>
<text text-anchor="start" x="182.6224" y="-657.8" font-family="Courier, monospace" font-size="14.00" fill="#000000">let _5: IpAddr;</text>
<text text-anchor="start" x="182.6224" y="-641" font-family="Courier, monospace" font-size="14.00" fill="#000000">debug _four =&gt; _1;</text>
<text text-anchor="start" x="182.6224" y="-624.2" font-family="Courier, monospace" font-size="14.00" fill="#000000">debug _six =&gt; _2;</text>
<text text-anchor="start" x="182.6224" y="-607.4" font-family="Courier, monospace" font-size="14.00" fill="#000000">debug loopback =&gt; _3;</text>
<text text-anchor="start" x="182.6224" y="-590.6" font-family="Courier, monospace" font-size="14.00" fill="#000000">debug home =&gt; _5;</text>
</g>
<g id="clust2" class="cluster">
<title>cluster_Mir_0_10</title>
<polygon fill="none" stroke="#000000" points="634,-483.9 634,-598.7 1145,-598.7 1145,-483.9 634,-483.9"/>
<text text-anchor="start" x="641.7413" y="-582.1" font-family="Courier, monospace" font-size="14.00" fill="#000000">fn IpAddr::V4(_1: i32, _2: i32, _3: i32, _4: i32) -&gt; IpAddr</text>
</g>
<g id="clust3" class="cluster">
<title>cluster_Mir_0_16</title>
<polygon fill="none" stroke="#000000" points="1153,-483.9 1153,-598.7 1572,-598.7 1572,-483.9 1153,-483.9"/>
<text text-anchor="start" x="1160.9336" y="-582.1" font-family="Courier, monospace" font-size="14.00" fill="#000000">fn IpAddr::V6(_1: std::string::String) -&gt; IpAddr</text>
</g>
<g id="clust4" class="cluster">
<title>cluster_Mir_0_19</title>
<polygon fill="none" stroke="#000000" points="1580,-483.9 1580,-598.7 1805,-598.7 1805,-483.9 1580,-483.9"/>
<text text-anchor="start" x="1587.5175" y="-582.1" font-family="Courier, monospace" font-size="14.00" fill="#000000">fn IpAddr::V0() -&gt; IpAddr</text>
</g>
<!-- bb0__0_20 -->
<g id="node1" class="node">
<title>bb0__0_20</title>
<polygon fill="#c0c0c0" stroke="transparent" points="121,-547.9 121,-569.9 513,-569.9 513,-547.9 121,-547.9"/>
<polygon fill="none" stroke="#000000" points="121,-547.9 121,-569.9 513,-569.9 513,-547.9 121,-547.9"/>
<text text-anchor="start" x="312.8007" y="-554.3" font-family="Courier, monospace" font-size="14.00" fill="#000000">0</text>
<polygon fill="none" stroke="#000000" points="121,-508.9 121,-547.9 513,-547.9 513,-508.9 121,-508.9"/>
<text text-anchor="start" x="124" y="-532.3" font-family="Courier, monospace" font-size="14.00" fill="#000000">_1 = IpAddrKind::V4</text>
<text text-anchor="start" x="124" y="-515.5" font-family="Courier, monospace" font-size="14.00" fill="#000000">_2 = IpAddrKind::V6</text>
<polygon fill="none" stroke="#000000" points="121,-486.9 121,-508.9 513,-508.9 513,-486.9 121,-486.9"/>
<text text-anchor="start" x="123.8322" y="-493.3" font-family="Courier, monospace" font-size="14.00" fill="#000000">_4 = &lt;String as From&lt;&amp;str&gt;&gt;::from(const "::1")</text>
</g>
<!-- bb1__0_20 -->
<g id="node2" class="node">
<title>bb1__0_20</title>
<polygon fill="#c0c0c0" stroke="transparent" points="25,-366.1 25,-388.1 610,-388.1 610,-366.1 25,-366.1"/>
<polygon fill="none" stroke="#000000" points="25,-366.1 25,-388.1 610,-388.1 610,-366.1 25,-366.1"/>
<text text-anchor="start" x="313.3007" y="-372.5" font-family="Courier, monospace" font-size="14.00" fill="#000000">1</text>
<polygon fill="none" stroke="#000000" points="25,-327.1 25,-366.1 610,-366.1 610,-327.1 25,-327.1"/>
<text text-anchor="start" x="28" y="-350.5" font-family="Courier, monospace" font-size="14.00" fill="#000000">_3 = IpAddr::V6(move _4)</text>
<text text-anchor="start" x="28" y="-333.7" font-family="Courier, monospace" font-size="14.00" fill="#000000">_5 = IpAddr::V4(const 127_i32, const 0_i32, const 0_i32, const 1_i32)</text>
<polygon fill="none" stroke="#000000" points="25,-305.1 25,-327.1 610,-327.1 610,-305.1 25,-305.1"/>
<text text-anchor="start" x="28" y="-311.5" font-family="Courier, monospace" font-size="14.00" fill="#000000">drop(_5)</text>
</g>
<!-- bb0__0_20&#45;&gt;bb1__0_20 -->
<g id="edge1" class="edge">
<title>bb0__0_20-&gt;bb1__0_20</title>
<path fill="none" stroke="#000000" d="M317,-483.0242C317,-458.7095 317,-428.6448 317,-402.9779"/>
<polygon fill="#000000" stroke="#000000" points="320.5001,-402.6459 317,-392.6459 313.5001,-402.646 320.5001,-402.6459"/>
<text text-anchor="middle" x="342.1958" y="-433.8" font-family="Courier, monospace" font-size="14.00" fill="#000000">return</text>
</g>
<!-- bb2__0_20 -->
<g id="node3" class="node">
<title>bb2__0_20</title>
<polygon fill="#c0c0c0" stroke="transparent" points="225,-184.8 225,-206.8 298,-206.8 298,-184.8 225,-184.8"/>
<polygon fill="none" stroke="#000000" points="225,-184.8 225,-206.8 298,-206.8 298,-184.8 225,-184.8"/>
<text text-anchor="start" x="257.3007" y="-191.2" font-family="Courier, monospace" font-size="14.00" fill="#000000">2</text>
<polygon fill="none" stroke="#000000" points="225,-162.8 225,-184.8 298,-184.8 298,-162.8 225,-162.8"/>
<text text-anchor="start" x="227.9056" y="-169.2" font-family="Courier, monospace" font-size="14.00" fill="#000000">drop(_3)</text>
</g>
<!-- bb1__0_20&#45;&gt;bb2__0_20 -->
<g id="edge2" class="edge">
<title>bb1__0_20-&gt;bb2__0_20</title>
<path fill="none" stroke="#000000" d="M301.2519,-301.4585C292.4202,-275.8624 281.5628,-244.3955 273.3509,-220.5956"/>
<polygon fill="#000000" stroke="#000000" points="276.5774,-219.216 270.0071,-210.9045 269.9603,-221.4992 276.5774,-219.216"/>
<text text-anchor="middle" x="313.1958" y="-252" font-family="Courier, monospace" font-size="14.00" fill="#000000">return</text>
</g>
<!-- bb4__0_20 -->
<g id="node5" class="node">
<title>bb4__0_20</title>
<polygon fill="#add8e6" stroke="transparent" points="332,-184.8 332,-206.8 430,-206.8 430,-184.8 332,-184.8"/>
<polygon fill="none" stroke="#000000" points="332,-184.8 332,-206.8 430,-206.8 430,-184.8 332,-184.8"/>
<text text-anchor="start" x="334.8077" y="-191.2" font-family="Courier, monospace" font-size="14.00" fill="#000000">4 (cleanup)</text>
<polygon fill="none" stroke="#000000" points="332,-162.8 332,-184.8 430,-184.8 430,-162.8 332,-162.8"/>
<text text-anchor="start" x="335" y="-169.2" font-family="Courier, monospace" font-size="14.00" fill="#000000">drop(_3)</text>
</g>
<!-- bb1__0_20&#45;&gt;bb4__0_20 -->
<g id="edge3" class="edge">
<title>bb1__0_20-&gt;bb4__0_20</title>
<path fill="none" stroke="#000000" d="M334.9979,-301.4585C345.1363,-275.7482 357.6104,-244.1145 367.0102,-220.2773"/>
<polygon fill="#000000" stroke="#000000" points="370.2937,-221.4913 370.7062,-210.9045 363.7817,-218.9233 370.2937,-221.4913"/>
<text text-anchor="middle" x="380.1958" y="-252" font-family="Courier, monospace" font-size="14.00" fill="#000000">unwind</text>
</g>
<!-- bb3__0_20 -->
<g id="node4" class="node">
<title>bb3__0_20</title>
<polygon fill="#c0c0c0" stroke="transparent" points="233,-42 233,-64 289,-64 289,-42 233,-42"/>
<polygon fill="none" stroke="#000000" points="233,-42 233,-64 289,-64 289,-42 233,-42"/>
<text text-anchor="start" x="256.8007" y="-48.4" font-family="Courier, monospace" font-size="14.00" fill="#000000">3</text>
<polygon fill="none" stroke="#000000" points="233,-20 233,-42 289,-42 289,-20 233,-20"/>
<text text-anchor="start" x="235.8042" y="-26.4" font-family="Courier, monospace" font-size="14.00" fill="#000000">return</text>
</g>
<!-- bb2__0_20&#45;&gt;bb3__0_20 -->
<g id="edge4" class="edge">
<title>bb2__0_20-&gt;bb3__0_20</title>
<path fill="none" stroke="#000000" d="M261,-158.6083C261,-136.0633 261,-103.3026 261,-78.2422"/>
<polygon fill="#000000" stroke="#000000" points="264.5001,-78.0256 261,-68.0257 257.5001,-78.0257 264.5001,-78.0256"/>
<text text-anchor="middle" x="286.1958" y="-109.2" font-family="Courier, monospace" font-size="14.00" fill="#000000">return</text>
</g>
<!-- bb5__0_20 -->
<g id="node6" class="node">
<title>bb5__0_20</title>
<polygon fill="#add8e6" stroke="transparent" points="332,-42 332,-64 430,-64 430,-42 332,-42"/>
<polygon fill="none" stroke="#000000" points="332,-42 332,-64 430,-64 430,-42 332,-42"/>
<text text-anchor="start" x="334.8077" y="-48.4" font-family="Courier, monospace" font-size="14.00" fill="#000000">5 (cleanup)</text>
<polygon fill="none" stroke="#000000" points="332,-20 332,-42 430,-42 430,-20 332,-20"/>
<text text-anchor="start" x="335" y="-26.4" font-family="Courier, monospace" font-size="14.00" fill="#000000">resume</text>
</g>
<!-- bb4__0_20&#45;&gt;bb5__0_20 -->
<g id="edge5" class="edge">
<title>bb4__0_20-&gt;bb5__0_20</title>
<path fill="none" stroke="#000000" d="M381,-158.6083C381,-136.0633 381,-103.3026 381,-78.2422"/>
<polygon fill="#000000" stroke="#000000" points="384.5001,-78.0256 381,-68.0257 377.5001,-78.0257 384.5001,-78.0256"/>
<text text-anchor="middle" x="406.1958" y="-109.2" font-family="Courier, monospace" font-size="14.00" fill="#000000">return</text>
</g>
<!-- bb0__0_10 -->
<g id="node7" class="node">
<title>bb0__0_10</title>
<polygon fill="#c0c0c0" stroke="transparent" points="672,-539.9 672,-561.9 1106,-561.9 1106,-539.9 672,-539.9"/>
<polygon fill="none" stroke="#000000" points="672,-539.9 672,-561.9 1106,-561.9 1106,-539.9 672,-539.9"/>
<text text-anchor="start" x="884.8007" y="-546.3" font-family="Courier, monospace" font-size="14.00" fill="#000000">0</text>
<polygon fill="none" stroke="#000000" points="672,-517.9 672,-539.9 1106,-539.9 1106,-517.9 672,-517.9"/>
<text text-anchor="start" x="675" y="-524.3" font-family="Courier, monospace" font-size="14.00" fill="#000000">_0 = IpAddr::V4(move _1, move _2, move _3, move _4)</text>
<polygon fill="none" stroke="#000000" points="672,-495.9 672,-517.9 1106,-517.9 1106,-495.9 672,-495.9"/>
<text text-anchor="start" x="675" y="-502.3" font-family="Courier, monospace" font-size="14.00" fill="#000000">return</text>
</g>
<!-- bb0__0_16 -->
<g id="node8" class="node">
<title>bb0__0_16</title>
<polygon fill="#c0c0c0" stroke="transparent" points="1259,-539.9 1259,-561.9 1466,-561.9 1466,-539.9 1259,-539.9"/>
<polygon fill="none" stroke="#000000" points="1259,-539.9 1259,-561.9 1466,-561.9 1466,-539.9 1259,-539.9"/>
<text text-anchor="start" x="1358.3007" y="-546.3" font-family="Courier, monospace" font-size="14.00" fill="#000000">0</text>
<polygon fill="none" stroke="#000000" points="1259,-517.9 1259,-539.9 1466,-539.9 1466,-517.9 1259,-517.9"/>
<text text-anchor="start" x="1262" y="-524.3" font-family="Courier, monospace" font-size="14.00" fill="#000000">_0 = IpAddr::V6(move _1)</text>
<polygon fill="none" stroke="#000000" points="1259,-495.9 1259,-517.9 1466,-517.9 1466,-495.9 1259,-495.9"/>
<text text-anchor="start" x="1262" y="-502.3" font-family="Courier, monospace" font-size="14.00" fill="#000000">return</text>
</g>
<!-- bb0__0_19 -->
<g id="node9" class="node">
<title>bb0__0_19</title>
<polygon fill="#c0c0c0" stroke="transparent" points="1627,-539.9 1627,-561.9 1758,-561.9 1758,-539.9 1627,-539.9"/>
<polygon fill="none" stroke="#000000" points="1627,-539.9 1627,-561.9 1758,-561.9 1758,-539.9 1627,-539.9"/>
<text text-anchor="start" x="1688.3007" y="-546.3" font-family="Courier, monospace" font-size="14.00" fill="#000000">0</text>
<polygon fill="none" stroke="#000000" points="1627,-517.9 1627,-539.9 1758,-539.9 1758,-517.9 1627,-517.9"/>
<text text-anchor="start" x="1630" y="-524.3" font-family="Courier, monospace" font-size="14.00" fill="#000000">_0 = IpAddr::V0</text>
<polygon fill="none" stroke="#000000" points="1627,-495.9 1627,-517.9 1758,-517.9 1758,-495.9 1627,-495.9"/>
<text text-anchor="start" x="1630" y="-502.3" font-family="Courier, monospace" font-size="14.00" fill="#000000">return</text>
</g>
</g>
</svg>