<?xml version="1.0" encoding="UTF-8" standalone="no"?><!DOCTYPE svg PUBLIC "-//W3C//DTD SVG 1.1//EN" "http://www.w3.org/Graphics/SVG/1.1/DTD/svg11.dtd"><!-- Generated by graphviz version 2.40.1 (20161225.0304)
 --><!-- Title: Mir_0_3 Pages: 1 --><svg xmlns="http://www.w3.org/2000/svg" xmlns:xlink="http://www.w3.org/1999/xlink" width="399pt" height="401pt" viewBox="0.00 0.00 399.00 400.60">
<g id="graph0" class="graph" transform="scale(1 1) rotate(0) translate(4 396.6)">
<title>Mir_0_3</title>
<polygon fill="#ffffff" stroke="transparent" points="-4,4 -4,-396.6 395,-396.6 395,4 -4,4"/>
<text text-anchor="start" x="44.3252" y="-75.4" font-family="Courier, monospace" font-size="14.00" fill="#000000">fn main() -&gt; ()</text>
<text text-anchor="start" x="44.3252" y="-58.6" font-family="Courier, monospace" font-size="14.00" fill="#000000">let _1: ();</text>
<text text-anchor="start" x="44.3252" y="-41.8" font-family="Courier, monospace" font-size="14.00" fill="#000000">let mut _2: std::fmt::Arguments&lt;'_&gt;;</text>
<text text-anchor="start" x="44.3252" y="-25" font-family="Courier, monospace" font-size="14.00" fill="#000000">let mut _3: &amp;[&amp;str];</text>
<text text-anchor="start" x="44.3252" y="-8.2" font-family="Courier, monospace" font-size="14.00" fill="#000000">let mut _4: &amp;[&amp;str; 1];</text>
<!-- bb0__0_3 -->
<g id="node1" class="node">
<title>bb0__0_3</title>
<polygon fill="#c0c0c0" stroke="transparent" points="8.5,-366.1 8.5,-388.1 383.5,-388.1 383.5,-366.1 8.5,-366.1"/>
<polygon fill="none" stroke="#000000" points="8.5,-366.1 8.5,-388.1 383.5,-388.1 383.5,-366.1 8.5,-366.1"/>
<text text-anchor="start" x="191.8007" y="-372.5" font-family="Courier, monospace" font-size="14.00" fill="#000000">0</text>
<polygon fill="none" stroke="#000000" points="8.5,-327.1 8.5,-366.1 383.5,-366.1 383.5,-327.1 8.5,-327.1"/>
<text text-anchor="start" x="11.5" y="-350.5" font-family="Courier, monospace" font-size="14.00" fill="#000000">_4 = const _</text>
<text text-anchor="start" x="11.5" y="-333.7" font-family="Courier, monospace" font-size="14.00" fill="#000000">_3 = _4 as &amp;[&amp;str] (PointerCoercion(Unsize))</text>
<polygon fill="none" stroke="#000000" points="8.5,-305.1 8.5,-327.1 383.5,-327.1 383.5,-305.1 8.5,-305.1"/>
<text text-anchor="start" x="11.5" y="-311.5" font-family="Courier, monospace" font-size="14.00" fill="#000000">_2 = Arguments::&lt;'_&gt;::new_const(move _3)</text>
</g>
<!-- bb1__0_3 -->
<g id="node2" class="node">
<title>bb1__0_3</title>
<polygon fill="#c0c0c0" stroke="transparent" points="109.5,-222.8 109.5,-244.8 282.5,-244.8 282.5,-222.8 109.5,-222.8"/>
<polygon fill="none" stroke="#000000" points="109.5,-222.8 109.5,-244.8 282.5,-244.8 282.5,-222.8 109.5,-222.8"/>
<text text-anchor="start" x="191.8007" y="-229.2" font-family="Courier, monospace" font-size="14.00" fill="#000000">1</text>
<polygon fill="none" stroke="#000000" points="109.5,-200.8 109.5,-222.8 282.5,-222.8 282.5,-200.8 109.5,-200.8"/>
<text text-anchor="start" x="112.014" y="-207.2" font-family="Courier, monospace" font-size="14.00" fill="#000000">_1 = _print(move _2)</text>
</g>
<!-- bb0__0_3&#45;&gt;bb1__0_3 -->
<g id="edge1" class="edge">
<title>bb0__0_3-&gt;bb1__0_3</title>
<path fill="none" stroke="#000000" d="M195.5,-301.5211C195.5,-287.525 195.5,-272.3194 195.5,-259.0372"/>
<polygon fill="#000000" stroke="#000000" points="199.0001,-258.8573 195.5,-248.8574 192.0001,-258.8574 199.0001,-258.8573"/>
<text text-anchor="middle" x="220.6958" y="-271" font-family="Courier, monospace" font-size="14.00" fill="#000000">return</text>
</g>
<!-- bb2__0_3 -->
<g id="node3" class="node">
<title>bb2__0_3</title>
<polygon fill="#c0c0c0" stroke="transparent" points="167.5,-118 167.5,-140 223.5,-140 223.5,-118 167.5,-118"/>
<polygon fill="none" stroke="#000000" points="167.5,-118 167.5,-140 223.5,-140 223.5,-118 167.5,-118"/>
<text text-anchor="start" x="191.3007" y="-124.4" font-family="Courier, monospace" font-size="14.00" fill="#000000">2</text>
<polygon fill="none" stroke="#000000" points="167.5,-96 167.5,-118 223.5,-118 223.5,-96 167.5,-96"/>
<text text-anchor="start" x="170.3042" y="-102.4" font-family="Courier, monospace" font-size="14.00" fill="#000000">return</text>
</g>
<!-- bb1__0_3&#45;&gt;bb2__0_3 -->
<g id="edge2" class="edge">
<title>bb1__0_3-&gt;bb2__0_3</title>
<path fill="none" stroke="#000000" d="M195.5,-196.6249C195.5,-183.8705 195.5,-168.3231 195.5,-154.4314"/>
<polygon fill="#000000" stroke="#000000" points="199.0001,-154.2046 195.5,-144.2047 192.0001,-154.2047 199.0001,-154.2046"/>
<text text-anchor="middle" x="220.6958" y="-166.2" font-family="Courier, monospace" font-size="14.00" fill="#000000">return</text>
</g>
</g>
</svg>