<?xml version="1.0" encoding="UTF-8" standalone="no"?><!DOCTYPE svg PUBLIC "-//W3C//DTD SVG 1.1//EN" "http://www.w3.org/Graphics/SVG/1.1/DTD/svg11.dtd"><!-- Generated by graphviz version 2.40.1 (20161225.0304)
 --><!-- Title: Mir_0_3 Pages: 1 --><svg xmlns="http://www.w3.org/2000/svg" xmlns:xlink="http://www.w3.org/1999/xlink" width="1049pt" height="1795pt" viewBox="0.00 0.00 1049.00 1795.40">
<g id="graph0" class="graph" transform="scale(1 1) rotate(0) translate(4 1791.4)">
<title>Mir_0_3</title>
<polygon fill="#ffffff" stroke="transparent" points="-4,4 -4,-1791.4 1045,-1791.4 1045,4 -4,4"/>
<text text-anchor="start" x="335.7308" y="-478.6" font-family="Courier, monospace" font-size="14.00" fill="#000000">fn main() -&gt; ()</text>
<text text-anchor="start" x="335.7308" y="-461.8" font-family="Courier, monospace" font-size="14.00" fill="#000000">let mut _1: std::string::String;</text>
<text text-anchor="start" x="335.7308" y="-445" font-family="Courier, monospace" font-size="14.00" fill="#000000">let _2: &amp;std::string::String;</text>
<text text-anchor="start" x="335.7308" y="-428.2" font-family="Courier, monospace" font-size="14.00" fill="#000000">let _3: &amp;std::string::String;</text>
<text text-anchor="start" x="335.7308" y="-411.4" font-family="Courier, monospace" font-size="14.00" fill="#000000">let _4: ();</text>
<text text-anchor="start" x="335.7308" y="-394.6" font-family="Courier, monospace" font-size="14.00" fill="#000000">let mut _5: std::fmt::Arguments&lt;'_&gt;;</text>
<text text-anchor="start" x="335.7308" y="-377.8" font-family="Courier, monospace" font-size="14.00" fill="#000000">let mut _6: &amp;[&amp;str];</text>
<text text-anchor="start" x="335.7308" y="-361" font-family="Courier, monospace" font-size="14.00" fill="#000000">let mut _7: &amp;[core::fmt::rt::Argument&lt;'_&gt;];</text>
<text text-anchor="start" x="335.7308" y="-344.2" font-family="Courier, monospace" font-size="14.00" fill="#000000">let _8: &amp;[core::fmt::rt::Argument&lt;'_&gt;; 2];</text>
<text text-anchor="start" x="335.7308" y="-327.4" font-family="Courier, monospace" font-size="14.00" fill="#000000">let _9: [core::fmt::rt::Argument&lt;'_&gt;; 2];</text>
<text text-anchor="start" x="335.7308" y="-310.6" font-family="Courier, monospace" font-size="14.00" fill="#000000">let mut _10: core::fmt::rt::Argument&lt;'_&gt;;</text>
<text text-anchor="start" x="335.7308" y="-293.8" font-family="Courier, monospace" font-size="14.00" fill="#000000">let _11: &amp;&amp;std::string::String;</text>
<text text-anchor="start" x="335.7308" y="-277" font-family="Courier, monospace" font-size="14.00" fill="#000000">let mut _12: core::fmt::rt::Argument&lt;'_&gt;;</text>
<text text-anchor="start" x="335.7308" y="-260.2" font-family="Courier, monospace" font-size="14.00" fill="#000000">let _13: &amp;&amp;std::string::String;</text>
<text text-anchor="start" x="335.7308" y="-243.4" font-family="Courier, monospace" font-size="14.00" fill="#000000">let _14: &amp;mut std::string::String;</text>
<text text-anchor="start" x="335.7308" y="-226.6" font-family="Courier, monospace" font-size="14.00" fill="#000000">let _15: ();</text>
<text text-anchor="start" x="335.7308" y="-209.8" font-family="Courier, monospace" font-size="14.00" fill="#000000">let mut _16: std::fmt::Arguments&lt;'_&gt;;</text>
<text text-anchor="start" x="335.7308" y="-193" font-family="Courier, monospace" font-size="14.00" fill="#000000">let mut _17: &amp;[&amp;str];</text>
<text text-anchor="start" x="335.7308" y="-176.2" font-family="Courier, monospace" font-size="14.00" fill="#000000">let mut _18: &amp;[core::fmt::rt::Argument&lt;'_&gt;];</text>
<text text-anchor="start" x="335.7308" y="-159.4" font-family="Courier, monospace" font-size="14.00" fill="#000000">let _19: &amp;[core::fmt::rt::Argument&lt;'_&gt;; 1];</text>
<text text-anchor="start" x="335.7308" y="-142.6" font-family="Courier, monospace" font-size="14.00" fill="#000000">let _20: [core::fmt::rt::Argument&lt;'_&gt;; 1];</text>
<text text-anchor="start" x="335.7308" y="-125.8" font-family="Courier, monospace" font-size="14.00" fill="#000000">let mut _21: core::fmt::rt::Argument&lt;'_&gt;;</text>
<text text-anchor="start" x="335.7308" y="-109" font-family="Courier, monospace" font-size="14.00" fill="#000000">let _22: &amp;&amp;mut std::string::String;</text>
<text text-anchor="start" x="335.7308" y="-92.2" font-family="Courier, monospace" font-size="14.00" fill="#000000">let mut _23: &amp;[&amp;str; 2];</text>
<text text-anchor="start" x="335.7308" y="-75.4" font-family="Courier, monospace" font-size="14.00" fill="#000000">let mut _24: &amp;[&amp;str; 3];</text>
<text text-anchor="start" x="335.7308" y="-58.6" font-family="Courier, monospace" font-size="14.00" fill="#000000">debug s =&gt; _1;</text>
<text text-anchor="start" x="335.7308" y="-41.8" font-family="Courier, monospace" font-size="14.00" fill="#000000">debug r1 =&gt; _2;</text>
<text text-anchor="start" x="335.7308" y="-25" font-family="Courier, monospace" font-size="14.00" fill="#000000">debug r2 =&gt; _3;</text>
<text text-anchor="start" x="335.7308" y="-8.2" font-family="Courier, monospace" font-size="14.00" fill="#000000">debug r3 =&gt; _14;</text>
<!-- bb0__0_3 -->
<g id="node1" class="node">
<title>bb0__0_3</title>
<polygon fill="#c0c0c0" stroke="transparent" points="557.5,-1761.4 557.5,-1783.4 966.5,-1783.4 966.5,-1761.4 557.5,-1761.4"/>
<polygon fill="none" stroke="#000000" points="557.5,-1761.4 557.5,-1783.4 966.5,-1783.4 966.5,-1761.4 557.5,-1761.4"/>
<text text-anchor="start" x="757.8007" y="-1767.8" font-family="Courier, monospace" font-size="14.00" fill="#000000">0</text>
<polygon fill="none" stroke="#000000" points="557.5,-1739.4 557.5,-1761.4 966.5,-1761.4 966.5,-1739.4 557.5,-1739.4"/>
<text text-anchor="start" x="560.4336" y="-1745.8" font-family="Courier, monospace" font-size="14.00" fill="#000000">_1 = &lt;String as From&lt;&amp;str&gt;&gt;::from(const "hello")</text>
</g>
<!-- bb1__0_3 -->
<g id="node2" class="node">
<title>bb1__0_3</title>
<polygon fill="#c0c0c0" stroke="transparent" points="490.5,-1656.6 490.5,-1678.6 1033.5,-1678.6 1033.5,-1656.6 490.5,-1656.6"/>
<polygon fill="none" stroke="#000000" points="490.5,-1656.6 490.5,-1678.6 1033.5,-1678.6 1033.5,-1656.6 490.5,-1656.6"/>
<text text-anchor="start" x="757.8007" y="-1663" font-family="Courier, monospace" font-size="14.00" fill="#000000">1</text>
<polygon fill="none" stroke="#000000" points="490.5,-1566.6 490.5,-1656.6 1033.5,-1656.6 1033.5,-1566.6 490.5,-1566.6"/>
<text text-anchor="start" x="493.5" y="-1641" font-family="Courier, monospace" font-size="14.00" fill="#000000">_2 = &amp;_1</text>
<text text-anchor="start" x="493.5" y="-1624.2" font-family="Courier, monospace" font-size="14.00" fill="#000000">_3 = &amp;_1</text>
<text text-anchor="start" x="493.5" y="-1607.4" font-family="Courier, monospace" font-size="14.00" fill="#000000">_24 = const _</text>
<text text-anchor="start" x="493.5" y="-1590.6" font-family="Courier, monospace" font-size="14.00" fill="#000000">_6 = _24 as &amp;[&amp;str] (PointerCoercion(Unsize))</text>
<text text-anchor="start" x="493.5" y="-1573.8" font-family="Courier, monospace" font-size="14.00" fill="#000000">_11 = &amp;_2</text>
<polygon fill="none" stroke="#000000" points="490.5,-1544.6 490.5,-1566.6 1033.5,-1566.6 1033.5,-1544.6 490.5,-1544.6"/>
<text text-anchor="start" x="493.2448" y="-1551" font-family="Courier, monospace" font-size="14.00" fill="#000000">_10 = core::fmt::rt::Argument::&lt;'_&gt;::new_display::&lt;&amp;String&gt;(_11)</text>
</g>
<!-- bb0__0_3&#45;&gt;bb1__0_3 -->
<g id="edge1" class="edge">
<title>bb0__0_3-&gt;bb1__0_3</title>
<path fill="none" stroke="#000000" d="M761.5,-1735.3068C761.5,-1723.2733 761.5,-1708.2627 761.5,-1692.8905"/>
<polygon fill="#000000" stroke="#000000" points="765.0001,-1692.7641 761.5,-1682.7642 758.0001,-1692.7642 765.0001,-1692.7641"/>
<text text-anchor="middle" x="786.6958" y="-1704.8" font-family="Courier, monospace" font-size="14.00" fill="#000000">return</text>
</g>
<!-- bb2__0_3 -->
<g id="node3" class="node">
<title>bb2__0_3</title>
<polygon fill="#c0c0c0" stroke="transparent" points="336.5,-1461.8 336.5,-1483.8 879.5,-1483.8 879.5,-1461.8 336.5,-1461.8"/>
<polygon fill="none" stroke="#000000" points="336.5,-1461.8 336.5,-1483.8 879.5,-1483.8 879.5,-1461.8 336.5,-1461.8"/>
<text text-anchor="start" x="603.8007" y="-1468.2" font-family="Courier, monospace" font-size="14.00" fill="#000000">2</text>
<polygon fill="none" stroke="#000000" points="336.5,-1439.8 336.5,-1461.8 879.5,-1461.8 879.5,-1439.8 336.5,-1439.8"/>
<text text-anchor="start" x="339.5" y="-1446.2" font-family="Courier, monospace" font-size="14.00" fill="#000000">_13 = &amp;_3</text>
<polygon fill="none" stroke="#000000" points="336.5,-1417.8 336.5,-1439.8 879.5,-1439.8 879.5,-1417.8 336.5,-1417.8"/>
<text text-anchor="start" x="339.2448" y="-1424.2" font-family="Courier, monospace" font-size="14.00" fill="#000000">_12 = core::fmt::rt::Argument::&lt;'_&gt;::new_display::&lt;&amp;String&gt;(_13)</text>
</g>
<!-- bb1__0_3&#45;&gt;bb2__0_3 -->
<g id="edge2" class="edge">
<title>bb1__0_3-&gt;bb2__0_3</title>
<path fill="none" stroke="#000000" d="M693.0565,-1540.1343C678.5517,-1524.9891 663.6368,-1509.4156 650.405,-1495.5995"/>
<polygon fill="#000000" stroke="#000000" points="652.685,-1492.9199 643.2405,-1488.1186 647.6295,-1497.7617 652.685,-1492.9199"/>
<text text-anchor="middle" x="699.6958" y="-1510" font-family="Courier, monospace" font-size="14.00" fill="#000000">return</text>
</g>
<!-- bb10__0_3 -->
<g id="node11" class="node">
<title>bb10__0_3</title>
<polygon fill="#add8e6" stroke="transparent" points="641.5,-626 641.5,-648 747.5,-648 747.5,-626 641.5,-626"/>
<polygon fill="none" stroke="#000000" points="641.5,-626 641.5,-648 747.5,-648 747.5,-626 641.5,-626"/>
<text text-anchor="start" x="644.1084" y="-632.4" font-family="Courier, monospace" font-size="14.00" fill="#000000">10 (cleanup)</text>
<polygon fill="none" stroke="#000000" points="641.5,-604 641.5,-626 747.5,-626 747.5,-604 641.5,-604"/>
<text text-anchor="start" x="644.5" y="-610.4" font-family="Courier, monospace" font-size="14.00" fill="#000000">drop(_1)</text>
</g>
<!-- bb1__0_3&#45;&gt;bb10__0_3 -->
<g id="edge3" class="edge">
<title>bb1__0_3-&gt;bb10__0_3</title>
<path fill="none" stroke="#000000" d="M871.7817,-1540.3319C896.4662,-1515.7912 915.5,-1485.5889 915.5,-1450.8 915.5,-1450.8 915.5,-1450.8 915.5,-730.8 915.5,-697.0238 830.158,-664.7562 765.5405,-645.1653"/>
<polygon fill="#000000" stroke="#000000" points="766.3506,-641.7546 755.7673,-642.2499 764.3496,-648.4625 766.3506,-641.7546"/>
<text text-anchor="middle" x="940.6958" y="-1117.6" font-family="Courier, monospace" font-size="14.00" fill="#000000">unwind</text>
</g>
<!-- bb3__0_3 -->
<g id="node4" class="node">
<title>bb3__0_3</title>
<polygon fill="#c0c0c0" stroke="transparent" points="233.5,-1335 233.5,-1357 801.5,-1357 801.5,-1335 233.5,-1335"/>
<polygon fill="none" stroke="#000000" points="233.5,-1335 233.5,-1357 801.5,-1357 801.5,-1335 233.5,-1335"/>
<text text-anchor="start" x="513.3007" y="-1341.4" font-family="Courier, monospace" font-size="14.00" fill="#000000">3</text>
<polygon fill="none" stroke="#000000" points="233.5,-1279 233.5,-1335 801.5,-1335 801.5,-1279 233.5,-1279"/>
<text text-anchor="start" x="236.5" y="-1319.4" font-family="Courier, monospace" font-size="14.00" fill="#000000">_9 = [move _10, move _12]</text>
<text text-anchor="start" x="236.5" y="-1302.6" font-family="Courier, monospace" font-size="14.00" fill="#000000">_8 = &amp;_9</text>
<text text-anchor="start" x="236.5" y="-1285.8" font-family="Courier, monospace" font-size="14.00" fill="#000000">_7 = _8 as &amp;[core::fmt::rt::Argument&lt;'_&gt;] (PointerCoercion(Unsize))</text>
<polygon fill="none" stroke="#000000" points="233.5,-1257 233.5,-1279 801.5,-1279 801.5,-1257 233.5,-1257"/>
<text text-anchor="start" x="236.5" y="-1263.4" font-family="Courier, monospace" font-size="14.00" fill="#000000">_5 = Arguments::&lt;'_&gt;::new_v1(move _6, move _7)</text>
</g>
<!-- bb2__0_3&#45;&gt;bb3__0_3 -->
<g id="edge4" class="edge">
<title>bb2__0_3-&gt;bb3__0_3</title>
<path fill="none" stroke="#000000" d="M584.3228,-1413.7679C575.9635,-1400.4117 566.2786,-1384.9373 556.9206,-1369.9853"/>
<polygon fill="#000000" stroke="#000000" points="559.7332,-1367.882 551.461,-1361.2621 553.7995,-1371.5957 559.7332,-1367.882"/>
<text text-anchor="middle" x="596.6958" y="-1383.2" font-family="Courier, monospace" font-size="14.00" fill="#000000">return</text>
</g>
<!-- bb2__0_3&#45;&gt;bb10__0_3 -->
<g id="edge5" class="edge">
<title>bb2__0_3-&gt;bb10__0_3</title>
<path fill="none" stroke="#000000" d="M747.9174,-1413.7842C795.8034,-1392.0198 837.5,-1358.331 837.5,-1307 837.5,-1307 837.5,-1307 837.5,-730.8 837.5,-691.1021 801.2035,-664.8038 765.1834,-648.4798"/>
<polygon fill="#000000" stroke="#000000" points="766.1289,-645.0764 755.5597,-644.34 763.3628,-651.5067 766.1289,-645.0764"/>
<text text-anchor="middle" x="862.6958" y="-1028.7" font-family="Courier, monospace" font-size="14.00" fill="#000000">unwind</text>
</g>
<!-- bb4__0_3 -->
<g id="node5" class="node">
<title>bb4__0_3</title>
<polygon fill="#c0c0c0" stroke="transparent" points="431.5,-1174.2 431.5,-1196.2 604.5,-1196.2 604.5,-1174.2 431.5,-1174.2"/>
<polygon fill="none" stroke="#000000" points="431.5,-1174.2 431.5,-1196.2 604.5,-1196.2 604.5,-1174.2 431.5,-1174.2"/>
<text text-anchor="start" x="513.8007" y="-1180.6" font-family="Courier, monospace" font-size="14.00" fill="#000000">4</text>
<polygon fill="none" stroke="#000000" points="431.5,-1152.2 431.5,-1174.2 604.5,-1174.2 604.5,-1152.2 431.5,-1152.2"/>
<text text-anchor="start" x="434.014" y="-1158.6" font-family="Courier, monospace" font-size="14.00" fill="#000000">_4 = _print(move _5)</text>
</g>
<!-- bb3__0_3&#45;&gt;bb4__0_3 -->
<g id="edge6" class="edge">
<title>bb3__0_3-&gt;bb4__0_3</title>
<path fill="none" stroke="#000000" d="M517.5,-1252.9852C517.5,-1238.7063 517.5,-1223.6353 517.5,-1210.541"/>
<polygon fill="#000000" stroke="#000000" points="521.0001,-1210.5163 517.5,-1200.5164 514.0001,-1210.5164 521.0001,-1210.5163"/>
<text text-anchor="middle" x="542.6958" y="-1222.4" font-family="Courier, monospace" font-size="14.00" fill="#000000">return</text>
</g>
<!-- bb3__0_3&#45;&gt;bb10__0_3 -->
<g id="edge7" class="edge">
<title>bb3__0_3-&gt;bb10__0_3</title>
<path fill="none" stroke="#000000" d="M727.2049,-1252.8678C754.109,-1233.9787 772.5,-1208.5163 772.5,-1174.2 772.5,-1174.2 772.5,-1174.2 772.5,-730.8 772.5,-703.1685 754.8352,-678.1019 736.3186,-659.4167"/>
<polygon fill="#000000" stroke="#000000" points="738.5735,-656.7295 728.939,-652.322 733.7221,-661.7757 738.5735,-656.7295"/>
<text text-anchor="middle" x="797.6958" y="-939.8" font-family="Courier, monospace" font-size="14.00" fill="#000000">unwind</text>
</g>
<!-- bb5__0_3 -->
<g id="node6" class="node">
<title>bb5__0_3</title>
<polygon fill="#c0c0c0" stroke="transparent" points="81.5,-1068.9 81.5,-1090.9 658.5,-1090.9 658.5,-1068.9 81.5,-1068.9"/>
<polygon fill="none" stroke="#000000" points="81.5,-1068.9 81.5,-1090.9 658.5,-1090.9 658.5,-1068.9 81.5,-1068.9"/>
<text text-anchor="start" x="365.8007" y="-1075.3" font-family="Courier, monospace" font-size="14.00" fill="#000000">5</text>
<polygon fill="none" stroke="#000000" points="81.5,-995.9 81.5,-1068.9 658.5,-1068.9 658.5,-995.9 81.5,-995.9"/>
<text text-anchor="start" x="84.5" y="-1053.3" font-family="Courier, monospace" font-size="14.00" fill="#000000">_14 = &amp;mut _1</text>
<text text-anchor="start" x="84.5" y="-1036.5" font-family="Courier, monospace" font-size="14.00" fill="#000000">_23 = const _</text>
<text text-anchor="start" x="84.5" y="-1019.7" font-family="Courier, monospace" font-size="14.00" fill="#000000">_17 = _23 as &amp;[&amp;str] (PointerCoercion(Unsize))</text>
<text text-anchor="start" x="84.5" y="-1002.9" font-family="Courier, monospace" font-size="14.00" fill="#000000">_22 = &amp;_14</text>
<polygon fill="none" stroke="#000000" points="81.5,-973.9 81.5,-995.9 658.5,-995.9 658.5,-973.9 81.5,-973.9"/>
<text text-anchor="start" x="84.4476" y="-980.3" font-family="Courier, monospace" font-size="14.00" fill="#000000">_21 = core::fmt::rt::Argument::&lt;'_&gt;::new_display::&lt;&amp;mut String&gt;(_22)</text>
</g>
<!-- bb4__0_3&#45;&gt;bb5__0_3 -->
<g id="edge8" class="edge">
<title>bb4__0_3-&gt;bb5__0_3</title>
<path fill="none" stroke="#000000" d="M490.0092,-1147.9537C476.4773,-1135.0344 459.456,-1118.7837 442.5044,-1102.5995"/>
<polygon fill="#000000" stroke="#000000" points="444.9039,-1100.0514 435.2541,-1095.6774 440.0701,-1105.1144 444.9039,-1100.0514"/>
<text text-anchor="middle" x="495.6958" y="-1117.6" font-family="Courier, monospace" font-size="14.00" fill="#000000">return</text>
</g>
<!-- bb4__0_3&#45;&gt;bb10__0_3 -->
<g id="edge9" class="edge">
<title>bb4__0_3-&gt;bb10__0_3</title>
<path fill="none" stroke="#000000" d="M599.967,-1148.1595C627.2775,-1135.9574 655.7145,-1118.8121 675.5,-1095.4 694.24,-1073.2251 694.5,-1061.933 694.5,-1032.9 694.5,-1032.9 694.5,-1032.9 694.5,-730.8 694.5,-708.0243 694.5,-682.4643 694.5,-662.2887"/>
<polygon fill="#000000" stroke="#000000" points="698.0001,-662.2722 694.5,-652.2723 691.0001,-662.2723 698.0001,-662.2722"/>
<text text-anchor="middle" x="719.6958" y="-859.4" font-family="Courier, monospace" font-size="14.00" fill="#000000">unwind</text>
</g>
<!-- bb6__0_3 -->
<g id="node7" class="node">
<title>bb6__0_3</title>
<polygon fill="#c0c0c0" stroke="transparent" points="8.5,-891.6 8.5,-913.6 593.5,-913.6 593.5,-891.6 8.5,-891.6"/>
<polygon fill="none" stroke="#000000" points="8.5,-891.6 8.5,-913.6 593.5,-913.6 593.5,-891.6 8.5,-891.6"/>
<text text-anchor="start" x="296.8007" y="-898" font-family="Courier, monospace" font-size="14.00" fill="#000000">6</text>
<polygon fill="none" stroke="#000000" points="8.5,-835.6 8.5,-891.6 593.5,-891.6 593.5,-835.6 8.5,-835.6"/>
<text text-anchor="start" x="11.5" y="-876" font-family="Courier, monospace" font-size="14.00" fill="#000000">_20 = [move _21]</text>
<text text-anchor="start" x="11.5" y="-859.2" font-family="Courier, monospace" font-size="14.00" fill="#000000">_19 = &amp;_20</text>
<text text-anchor="start" x="11.5" y="-842.4" font-family="Courier, monospace" font-size="14.00" fill="#000000">_18 = _19 as &amp;[core::fmt::rt::Argument&lt;'_&gt;] (PointerCoercion(Unsize))</text>
<polygon fill="none" stroke="#000000" points="8.5,-813.6 8.5,-835.6 593.5,-835.6 593.5,-813.6 8.5,-813.6"/>
<text text-anchor="start" x="11.5" y="-820" font-family="Courier, monospace" font-size="14.00" fill="#000000">_16 = Arguments::&lt;'_&gt;::new_v1(move _17, move _18)</text>
</g>
<!-- bb5__0_3&#45;&gt;bb6__0_3 -->
<g id="edge10" class="edge">
<title>bb5__0_3-&gt;bb6__0_3</title>
<path fill="none" stroke="#000000" d="M344.003,-970.3399C338.2949,-956.3345 332.2333,-941.4616 326.5049,-927.4063"/>
<polygon fill="#000000" stroke="#000000" points="329.6162,-925.7664 322.6008,-917.827 323.1339,-928.4084 329.6162,-925.7664"/>
<text text-anchor="middle" x="360.6958" y="-939.8" font-family="Courier, monospace" font-size="14.00" fill="#000000">return</text>
</g>
<!-- bb5__0_3&#45;&gt;bb10__0_3 -->
<g id="edge11" class="edge">
<title>bb5__0_3-&gt;bb10__0_3</title>
<path fill="none" stroke="#000000" d="M552.613,-970.3441C574.861,-956.0529 595.1185,-938.6736 610.5,-917.6 648.2683,-865.8552 612.8708,-836.4995 630.1084,-774.8 641.3852,-734.4364 661.3252,-690.6919 676.0373,-661.1519"/>
<polygon fill="#000000" stroke="#000000" points="679.2334,-662.5871 680.6127,-652.0824 672.9836,-659.4342 679.2334,-662.5871"/>
<text text-anchor="middle" x="654.6958" y="-779" font-family="Courier, monospace" font-size="14.00" fill="#000000">unwind</text>
</g>
<!-- bb7__0_3 -->
<g id="node8" class="node">
<title>bb7__0_3</title>
<polygon fill="#c0c0c0" stroke="transparent" points="275.5,-730.8 275.5,-752.8 465.5,-752.8 465.5,-730.8 275.5,-730.8"/>
<polygon fill="none" stroke="#000000" points="275.5,-730.8 275.5,-752.8 465.5,-752.8 465.5,-730.8 275.5,-730.8"/>
<text text-anchor="start" x="366.3007" y="-737.2" font-family="Courier, monospace" font-size="14.00" fill="#000000">7</text>
<polygon fill="none" stroke="#000000" points="275.5,-708.8 275.5,-730.8 465.5,-730.8 465.5,-708.8 275.5,-708.8"/>
<text text-anchor="start" x="278.1154" y="-715.2" font-family="Courier, monospace" font-size="14.00" fill="#000000">_15 = _print(move _16)</text>
</g>
<!-- bb6__0_3&#45;&gt;bb7__0_3 -->
<g id="edge12" class="edge">
<title>bb6__0_3-&gt;bb7__0_3</title>
<path fill="none" stroke="#000000" d="M328.9717,-809.5852C336.7217,-794.8822 344.9146,-779.3392 351.9566,-765.9795"/>
<polygon fill="#000000" stroke="#000000" points="355.0616,-767.5947 356.6284,-757.1164 348.8692,-764.3306 355.0616,-767.5947"/>
<text text-anchor="middle" x="371.6958" y="-779" font-family="Courier, monospace" font-size="14.00" fill="#000000">return</text>
</g>
<!-- bb6__0_3&#45;&gt;bb10__0_3 -->
<g id="edge13" class="edge">
<title>bb6__0_3-&gt;bb10__0_3</title>
<path fill="none" stroke="#000000" d="M394.5338,-809.5651C422.9654,-792.9204 454.1558,-774.3518 482.5,-756.8 542.5116,-719.6385 555.0742,-706.4842 615.5,-670 622.3982,-665.835 629.706,-661.5713 636.9819,-657.416"/>
<polygon fill="#000000" stroke="#000000" points="639.1704,-660.199 646.1478,-652.2261 635.7213,-654.1077 639.1704,-660.199"/>
<text text-anchor="middle" x="585.6958" y="-726.6" font-family="Courier, monospace" font-size="14.00" fill="#000000">unwind</text>
</g>
<!-- bb8__0_3 -->
<g id="node9" class="node">
<title>bb8__0_3</title>
<polygon fill="#c0c0c0" stroke="transparent" points="334.5,-626 334.5,-648 407.5,-648 407.5,-626 334.5,-626"/>
<polygon fill="none" stroke="#000000" points="334.5,-626 334.5,-648 407.5,-648 407.5,-626 334.5,-626"/>
<text text-anchor="start" x="366.8007" y="-632.4" font-family="Courier, monospace" font-size="14.00" fill="#000000">8</text>
<polygon fill="none" stroke="#000000" points="334.5,-604 334.5,-626 407.5,-626 407.5,-604 334.5,-604"/>
<text text-anchor="start" x="337.4056" y="-610.4" font-family="Courier, monospace" font-size="14.00" fill="#000000">drop(_1)</text>
</g>
<!-- bb7__0_3&#45;&gt;bb8__0_3 -->
<g id="edge14" class="edge">
<title>bb7__0_3-&gt;bb8__0_3</title>
<path fill="none" stroke="#000000" d="M370.5,-704.6249C370.5,-691.8705 370.5,-676.3231 370.5,-662.4314"/>
<polygon fill="#000000" stroke="#000000" points="374.0001,-662.2046 370.5,-652.2047 367.0001,-662.2047 374.0001,-662.2046"/>
<text text-anchor="middle" x="395.6958" y="-674.2" font-family="Courier, monospace" font-size="14.00" fill="#000000">return</text>
</g>
<!-- bb7__0_3&#45;&gt;bb10__0_3 -->
<g id="edge15" class="edge">
<title>bb7__0_3-&gt;bb10__0_3</title>
<path fill="none" stroke="#000000" d="M407.4344,-704.7668C426.3062,-692.5652 450.0958,-678.8082 473.1084,-670 521.4924,-651.4807 578.9456,-640.3546 623.1978,-633.9246"/>
<polygon fill="#000000" stroke="#000000" points="623.8727,-637.3642 633.2881,-632.5062 622.8982,-630.4324 623.8727,-637.3642"/>
<text text-anchor="middle" x="498.6958" y="-674.2" font-family="Courier, monospace" font-size="14.00" fill="#000000">unwind</text>
</g>
<!-- bb9__0_3 -->
<g id="node10" class="node">
<title>bb9__0_3</title>
<polygon fill="#c0c0c0" stroke="transparent" points="342.5,-521.2 342.5,-543.2 398.5,-543.2 398.5,-521.2 342.5,-521.2"/>
<polygon fill="none" stroke="#000000" points="342.5,-521.2 342.5,-543.2 398.5,-543.2 398.5,-521.2 342.5,-521.2"/>
<text text-anchor="start" x="366.3007" y="-527.6" font-family="Courier, monospace" font-size="14.00" fill="#000000">9</text>
<polygon fill="none" stroke="#000000" points="342.5,-499.2 342.5,-521.2 398.5,-521.2 398.5,-499.2 342.5,-499.2"/>
<text text-anchor="start" x="345.3042" y="-505.6" font-family="Courier, monospace" font-size="14.00" fill="#000000">return</text>
</g>
<!-- bb8__0_3&#45;&gt;bb9__0_3 -->
<g id="edge16" class="edge">
<title>bb8__0_3-&gt;bb9__0_3</title>
<path fill="none" stroke="#000000" d="M370.5,-599.8249C370.5,-587.0705 370.5,-571.5231 370.5,-557.6314"/>
<polygon fill="#000000" stroke="#000000" points="374.0001,-557.4046 370.5,-547.4047 367.0001,-557.4047 374.0001,-557.4046"/>
<text text-anchor="middle" x="395.6958" y="-569.4" font-family="Courier, monospace" font-size="14.00" fill="#000000">return</text>
</g>
<!-- bb11__0_3 -->
<g id="node12" class="node">
<title>bb11__0_3</title>
<polygon fill="#add8e6" stroke="transparent" points="641.5,-521.2 641.5,-543.2 747.5,-543.2 747.5,-521.2 641.5,-521.2"/>
<polygon fill="none" stroke="#000000" points="641.5,-521.2 641.5,-543.2 747.5,-543.2 747.5,-521.2 641.5,-521.2"/>
<text text-anchor="start" x="644.1084" y="-527.6" font-family="Courier, monospace" font-size="14.00" fill="#000000">11 (cleanup)</text>
<polygon fill="none" stroke="#000000" points="641.5,-499.2 641.5,-521.2 747.5,-521.2 747.5,-499.2 641.5,-499.2"/>
<text text-anchor="start" x="644.5" y="-505.6" font-family="Courier, monospace" font-size="14.00" fill="#000000">resume</text>
</g>
<!-- bb10__0_3&#45;&gt;bb11__0_3 -->
<g id="edge17" class="edge">
<title>bb10__0_3-&gt;bb11__0_3</title>
<path fill="none" stroke="#000000" d="M694.5,-599.8249C694.5,-587.0705 694.5,-571.5231 694.5,-557.6314"/>
<polygon fill="#000000" stroke="#000000" points="698.0001,-557.4046 694.5,-547.4047 691.0001,-557.4047 698.0001,-557.4046"/>
<text text-anchor="middle" x="719.6958" y="-569.4" font-family="Courier, monospace" font-size="14.00" fill="#000000">return</text>
</g>
</g>
</svg>