<?xml version="1.0" encoding="UTF-8" standalone="no"?><!DOCTYPE svg PUBLIC "-//W3C//DTD SVG 1.1//EN" "http://www.w3.org/Graphics/SVG/1.1/DTD/svg11.dtd"><!-- Generated by graphviz version 2.40.1 (20161225.0304)
 --><!-- Title: Mir_0_3 Pages: 1 --><svg xmlns="http://www.w3.org/2000/svg" xmlns:xlink="http://www.w3.org/1999/xlink" width="1368pt" height="2406pt" viewBox="0.00 0.00 1368.00 2406.20">
<g id="graph0" class="graph" transform="scale(1 1) rotate(0) translate(4 2402.2)">
<title>Mir_0_3</title>
<polygon fill="#ffffff" stroke="transparent" points="-4,4 -4,-2402.2 1364,-2402.2 1364,4 -4,4"/>
<text text-anchor="start" x="495.2308" y="-613" font-family="Courier, monospace" font-size="14.00" fill="#000000">fn main() -&gt; ()</text>
<text text-anchor="start" x="495.2308" y="-596.2" font-family="Courier, monospace" font-size="14.00" fill="#000000">let _1: std::boxed::Box&lt;i32&gt;;</text>
<text text-anchor="start" x="495.2308" y="-579.4" font-family="Courier, monospace" font-size="14.00" fill="#000000">let _2: ();</text>
<text text-anchor="start" x="495.2308" y="-562.6" font-family="Courier, monospace" font-size="14.00" fill="#000000">let mut _3: std::fmt::Arguments&lt;'_&gt;;</text>
<text text-anchor="start" x="495.2308" y="-545.8" font-family="Courier, monospace" font-size="14.00" fill="#000000">let mut _4: &amp;[&amp;str];</text>
<text text-anchor="start" x="495.2308" y="-529" font-family="Courier, monospace" font-size="14.00" fill="#000000">let mut _5: &amp;[core::fmt::rt::Argument&lt;'_&gt;];</text>
<text text-anchor="start" x="495.2308" y="-512.2" font-family="Courier, monospace" font-size="14.00" fill="#000000">let _6: &amp;[core::fmt::rt::Argument&lt;'_&gt;; 1];</text>
<text text-anchor="start" x="495.2308" y="-495.4" font-family="Courier, monospace" font-size="14.00" fill="#000000">let _7: [core::fmt::rt::Argument&lt;'_&gt;; 1];</text>
<text text-anchor="start" x="495.2308" y="-478.6" font-family="Courier, monospace" font-size="14.00" fill="#000000">let mut _8: core::fmt::rt::Argument&lt;'_&gt;;</text>
<text text-anchor="start" x="495.2308" y="-461.8" font-family="Courier, monospace" font-size="14.00" fill="#000000">let _9: &amp;i32;</text>
<text text-anchor="start" x="495.2308" y="-445" font-family="Courier, monospace" font-size="14.00" fill="#000000">let _10: ();</text>
<text text-anchor="start" x="495.2308" y="-428.2" font-family="Courier, monospace" font-size="14.00" fill="#000000">let mut _11: std::fmt::Arguments&lt;'_&gt;;</text>
<text text-anchor="start" x="495.2308" y="-411.4" font-family="Courier, monospace" font-size="14.00" fill="#000000">let mut _12: &amp;[&amp;str];</text>
<text text-anchor="start" x="495.2308" y="-394.6" font-family="Courier, monospace" font-size="14.00" fill="#000000">let mut _13: &amp;[core::fmt::rt::Argument&lt;'_&gt;];</text>
<text text-anchor="start" x="495.2308" y="-377.8" font-family="Courier, monospace" font-size="14.00" fill="#000000">let _14: &amp;[core::fmt::rt::Argument&lt;'_&gt;; 1];</text>
<text text-anchor="start" x="495.2308" y="-361" font-family="Courier, monospace" font-size="14.00" fill="#000000">let _15: [core::fmt::rt::Argument&lt;'_&gt;; 1];</text>
<text text-anchor="start" x="495.2308" y="-344.2" font-family="Courier, monospace" font-size="14.00" fill="#000000">let mut _16: core::fmt::rt::Argument&lt;'_&gt;;</text>
<text text-anchor="start" x="495.2308" y="-327.4" font-family="Courier, monospace" font-size="14.00" fill="#000000">let _17: &amp;std::boxed::Box&lt;i32&gt;;</text>
<text text-anchor="start" x="495.2308" y="-310.6" font-family="Courier, monospace" font-size="14.00" fill="#000000">let _18: ();</text>
<text text-anchor="start" x="495.2308" y="-293.8" font-family="Courier, monospace" font-size="14.00" fill="#000000">let mut _19: std::fmt::Arguments&lt;'_&gt;;</text>
<text text-anchor="start" x="495.2308" y="-277" font-family="Courier, monospace" font-size="14.00" fill="#000000">let mut _20: &amp;[&amp;str];</text>
<text text-anchor="start" x="495.2308" y="-260.2" font-family="Courier, monospace" font-size="14.00" fill="#000000">let mut _21: &amp;[core::fmt::rt::Argument&lt;'_&gt;];</text>
<text text-anchor="start" x="495.2308" y="-243.4" font-family="Courier, monospace" font-size="14.00" fill="#000000">let _22: &amp;[core::fmt::rt::Argument&lt;'_&gt;; 1];</text>
<text text-anchor="start" x="495.2308" y="-226.6" font-family="Courier, monospace" font-size="14.00" fill="#000000">let _23: [core::fmt::rt::Argument&lt;'_&gt;; 1];</text>
<text text-anchor="start" x="495.2308" y="-209.8" font-family="Courier, monospace" font-size="14.00" fill="#000000">let mut _24: core::fmt::rt::Argument&lt;'_&gt;;</text>
<text text-anchor="start" x="495.2308" y="-193" font-family="Courier, monospace" font-size="14.00" fill="#000000">let _25: &amp;std::boxed::Box&lt;i32&gt;;</text>
<text text-anchor="start" x="495.2308" y="-176.2" font-family="Courier, monospace" font-size="14.00" fill="#000000">let mut _26: &amp;[&amp;str; 2];</text>
<text text-anchor="start" x="495.2308" y="-159.4" font-family="Courier, monospace" font-size="14.00" fill="#000000">let mut _27: &amp;[&amp;str; 2];</text>
<text text-anchor="start" x="495.2308" y="-142.6" font-family="Courier, monospace" font-size="14.00" fill="#000000">let mut _28: &amp;[&amp;str; 2];</text>
<text text-anchor="start" x="495.2308" y="-125.8" font-family="Courier, monospace" font-size="14.00" fill="#000000">let mut _29: *const i32;</text>
<text text-anchor="start" x="495.2308" y="-109" font-family="Courier, monospace" font-size="14.00" fill="#000000">let mut _30: *const ();</text>
<text text-anchor="start" x="495.2308" y="-92.2" font-family="Courier, monospace" font-size="14.00" fill="#000000">let mut _31: usize;</text>
<text text-anchor="start" x="495.2308" y="-75.4" font-family="Courier, monospace" font-size="14.00" fill="#000000">let mut _32: usize;</text>
<text text-anchor="start" x="495.2308" y="-58.6" font-family="Courier, monospace" font-size="14.00" fill="#000000">let mut _33: usize;</text>
<text text-anchor="start" x="495.2308" y="-41.8" font-family="Courier, monospace" font-size="14.00" fill="#000000">let mut _34: usize;</text>
<text text-anchor="start" x="495.2308" y="-25" font-family="Courier, monospace" font-size="14.00" fill="#000000">let mut _35: bool;</text>
<text text-anchor="start" x="495.2308" y="-8.2" font-family="Courier, monospace" font-size="14.00" fill="#000000">debug b =&gt; _1;</text>
<!-- bb0__0_3 -->
<g id="node1" class="node">
<title>bb0__0_3</title>
<polygon fill="#c0c0c0" stroke="transparent" points="792.5,-2372.2 792.5,-2394.2 1075.5,-2394.2 1075.5,-2372.2 792.5,-2372.2"/>
<polygon fill="none" stroke="#000000" points="792.5,-2372.2 792.5,-2394.2 1075.5,-2394.2 1075.5,-2372.2 792.5,-2372.2"/>
<text text-anchor="start" x="929.8007" y="-2378.6" font-family="Courier, monospace" font-size="14.00" fill="#000000">0</text>
<polygon fill="none" stroke="#000000" points="792.5,-2350.2 792.5,-2372.2 1075.5,-2372.2 1075.5,-2350.2 792.5,-2350.2"/>
<text text-anchor="start" x="795.4231" y="-2356.6" font-family="Courier, monospace" font-size="14.00" fill="#000000">_1 = Box::&lt;i32&gt;::new(const 5_i32)</text>
</g>
<!-- bb1__0_3 -->
<g id="node2" class="node">
<title>bb1__0_3</title>
<polygon fill="#c0c0c0" stroke="transparent" points="515.5,-2266.9 515.5,-2288.9 1352.5,-2288.9 1352.5,-2266.9 515.5,-2266.9"/>
<polygon fill="none" stroke="#000000" points="515.5,-2266.9 515.5,-2288.9 1352.5,-2288.9 1352.5,-2266.9 515.5,-2266.9"/>
<text text-anchor="start" x="929.8007" y="-2273.3" font-family="Courier, monospace" font-size="14.00" fill="#000000">1</text>
<polygon fill="none" stroke="#000000" points="515.5,-2109.9 515.5,-2266.9 1352.5,-2266.9 1352.5,-2109.9 515.5,-2109.9"/>
<text text-anchor="start" x="518.5" y="-2251.3" font-family="Courier, monospace" font-size="14.00" fill="#000000">_28 = const _</text>
<text text-anchor="start" x="518.5" y="-2234.5" font-family="Courier, monospace" font-size="14.00" fill="#000000">_4 = _28 as &amp;[&amp;str] (PointerCoercion(Unsize))</text>
<text text-anchor="start" x="518.5" y="-2217.7" font-family="Courier, monospace" font-size="14.00" fill="#000000">_29 = (((_1.0: std::ptr::Unique&lt;i32&gt;).0: std::ptr::NonNull&lt;i32&gt;).0: *const i32)</text>
<text text-anchor="start" x="518.5" y="-2200.9" font-family="Courier, monospace" font-size="14.00" fill="#000000">_30 = _29 as *const () (PtrToPtr)</text>
<text text-anchor="start" x="518.5" y="-2184.1" font-family="Courier, monospace" font-size="14.00" fill="#000000">_31 = _30 as usize (Transmute)</text>
<text text-anchor="start" x="518.5" y="-2167.3" font-family="Courier, monospace" font-size="14.00" fill="#000000">_32 = AlignOf(i32)</text>
<text text-anchor="start" x="518.5" y="-2150.5" font-family="Courier, monospace" font-size="14.00" fill="#000000">_33 = Sub(_32, const 1_usize)</text>
<text text-anchor="start" x="518.5" y="-2133.7" font-family="Courier, monospace" font-size="14.00" fill="#000000">_34 = BitAnd(_31, _33)</text>
<text text-anchor="start" x="518.5" y="-2116.9" font-family="Courier, monospace" font-size="14.00" fill="#000000">_35 = Eq(_34, const 0_usize)</text>
<polygon fill="none" stroke="#000000" points="515.5,-2087.9 515.5,-2109.9 1352.5,-2109.9 1352.5,-2087.9 515.5,-2087.9"/>
<text text-anchor="start" x="518.2693" y="-2094.3" font-family="Courier, monospace" font-size="14.00" fill="#000000">assert(_35, "misaligned pointer dereference: address must be a multiple of {} but is {}", _32, _31)</text>
</g>
<!-- bb0__0_3&#45;&gt;bb1__0_3 -->
<g id="edge1" class="edge">
<title>bb0__0_3-&gt;bb1__0_3</title>
<path fill="none" stroke="#000000" d="M933.5,-2345.9376C933.5,-2334.2441 933.5,-2319.5874 933.5,-2303.9573"/>
<polygon fill="#000000" stroke="#000000" points="937.0001,-2303.5668 933.5,-2293.5668 930.0001,-2303.5669 937.0001,-2303.5668"/>
<text text-anchor="middle" x="958.6958" y="-2315.6" font-family="Courier, monospace" font-size="14.00" fill="#000000">return</text>
</g>
<!-- bb14__0_3 -->
<g id="node15" class="node">
<title>bb14__0_3</title>
<polygon fill="#c0c0c0" stroke="transparent" points="687.5,-2005.6 687.5,-2027.6 1180.5,-2027.6 1180.5,-2005.6 687.5,-2005.6"/>
<polygon fill="none" stroke="#000000" points="687.5,-2005.6 687.5,-2027.6 1180.5,-2027.6 1180.5,-2005.6 687.5,-2005.6"/>
<text text-anchor="start" x="925.6014" y="-2012" font-family="Courier, monospace" font-size="14.00" fill="#000000">14</text>
<polygon fill="none" stroke="#000000" points="687.5,-1983.6 687.5,-2005.6 1180.5,-2005.6 1180.5,-1983.6 687.5,-1983.6"/>
<text text-anchor="start" x="690.5" y="-1990" font-family="Courier, monospace" font-size="14.00" fill="#000000">_9 = &amp;(*_29)</text>
<polygon fill="none" stroke="#000000" points="687.5,-1961.6 687.5,-1983.6 1180.5,-1983.6 1180.5,-1961.6 687.5,-1961.6"/>
<text text-anchor="start" x="690.4406" y="-1968" font-family="Courier, monospace" font-size="14.00" fill="#000000">_8 = core::fmt::rt::Argument::&lt;'_&gt;::new_display::&lt;i32&gt;(_9)</text>
</g>
<!-- bb1__0_3&#45;&gt;bb14__0_3 -->
<g id="edge2" class="edge">
<title>bb1__0_3-&gt;bb14__0_3</title>
<path fill="none" stroke="#000000" d="M933.5,-2084.3563C933.5,-2069.4723 933.5,-2054.8211 933.5,-2041.8111"/>
<polygon fill="#000000" stroke="#000000" points="937.0001,-2041.7559 933.5,-2031.756 930.0001,-2041.756 937.0001,-2041.7559"/>
<text text-anchor="middle" x="962.8951" y="-2053.8" font-family="Courier, monospace" font-size="14.00" fill="#000000">success</text>
</g>
<!-- bb2__0_3 -->
<g id="node3" class="node">
<title>bb2__0_3</title>
<polygon fill="#c0c0c0" stroke="transparent" points="489.5,-1878.8 489.5,-1900.8 1057.5,-1900.8 1057.5,-1878.8 489.5,-1878.8"/>
<polygon fill="none" stroke="#000000" points="489.5,-1878.8 489.5,-1900.8 1057.5,-1900.8 1057.5,-1878.8 489.5,-1878.8"/>
<text text-anchor="start" x="769.3007" y="-1885.2" font-family="Courier, monospace" font-size="14.00" fill="#000000">2</text>
<polygon fill="none" stroke="#000000" points="489.5,-1822.8 489.5,-1878.8 1057.5,-1878.8 1057.5,-1822.8 489.5,-1822.8"/>
<text text-anchor="start" x="492.5" y="-1863.2" font-family="Courier, monospace" font-size="14.00" fill="#000000">_7 = [move _8]</text>
<text text-anchor="start" x="492.5" y="-1846.4" font-family="Courier, monospace" font-size="14.00" fill="#000000">_6 = &amp;_7</text>
<text text-anchor="start" x="492.5" y="-1829.6" font-family="Courier, monospace" font-size="14.00" fill="#000000">_5 = _6 as &amp;[core::fmt::rt::Argument&lt;'_&gt;] (PointerCoercion(Unsize))</text>
<polygon fill="none" stroke="#000000" points="489.5,-1800.8 489.5,-1822.8 1057.5,-1822.8 1057.5,-1800.8 489.5,-1800.8"/>
<text text-anchor="start" x="492.5" y="-1807.2" font-family="Courier, monospace" font-size="14.00" fill="#000000">_3 = Arguments::&lt;'_&gt;::new_v1(move _4, move _5)</text>
</g>
<!-- bb3__0_3 -->
<g id="node4" class="node">
<title>bb3__0_3</title>
<polygon fill="#c0c0c0" stroke="transparent" points="687.5,-1718 687.5,-1740 860.5,-1740 860.5,-1718 687.5,-1718"/>
<polygon fill="none" stroke="#000000" points="687.5,-1718 687.5,-1740 860.5,-1740 860.5,-1718 687.5,-1718"/>
<text text-anchor="start" x="769.8007" y="-1724.4" font-family="Courier, monospace" font-size="14.00" fill="#000000">3</text>
<polygon fill="none" stroke="#000000" points="687.5,-1696 687.5,-1718 860.5,-1718 860.5,-1696 687.5,-1696"/>
<text text-anchor="start" x="690.014" y="-1702.4" font-family="Courier, monospace" font-size="14.00" fill="#000000">_2 = _print(move _3)</text>
</g>
<!-- bb2__0_3&#45;&gt;bb3__0_3 -->
<g id="edge3" class="edge">
<title>bb2__0_3-&gt;bb3__0_3</title>
<path fill="none" stroke="#000000" d="M773.5,-1796.7852C773.5,-1782.5063 773.5,-1767.4353 773.5,-1754.341"/>
<polygon fill="#000000" stroke="#000000" points="777.0001,-1754.3163 773.5,-1744.3164 770.0001,-1754.3164 777.0001,-1754.3163"/>
<text text-anchor="middle" x="798.6958" y="-1766.2" font-family="Courier, monospace" font-size="14.00" fill="#000000">return</text>
</g>
<!-- bb12__0_3 -->
<g id="node13" class="node">
<title>bb12__0_3</title>
<polygon fill="#add8e6" stroke="transparent" points="709.5,-760.4 709.5,-782.4 815.5,-782.4 815.5,-760.4 709.5,-760.4"/>
<polygon fill="none" stroke="#000000" points="709.5,-760.4 709.5,-782.4 815.5,-782.4 815.5,-760.4 709.5,-760.4"/>
<text text-anchor="start" x="712.1084" y="-766.8" font-family="Courier, monospace" font-size="14.00" fill="#000000">12 (cleanup)</text>
<polygon fill="none" stroke="#000000" points="709.5,-738.4 709.5,-760.4 815.5,-760.4 815.5,-738.4 709.5,-738.4"/>
<text text-anchor="start" x="712.5" y="-744.8" font-family="Courier, monospace" font-size="14.00" fill="#000000">drop(_1)</text>
</g>
<!-- bb2__0_3&#45;&gt;bb12__0_3 -->
<g id="edge4" class="edge">
<title>bb2__0_3-&gt;bb12__0_3</title>
<path fill="none" stroke="#000000" d="M909.8479,-1796.5148C936.5619,-1776.9119 956.5,-1751.1704 956.5,-1718 956.5,-1718 956.5,-1718 956.5,-865.2 956.5,-807.3297 888.8493,-781.2613 833.4462,-769.6157"/>
<polygon fill="#000000" stroke="#000000" points="834.1058,-766.1784 823.6165,-767.6702 832.7467,-773.0452 834.1058,-766.1784"/>
<text text-anchor="middle" x="981.6958" y="-1287.4" font-family="Courier, monospace" font-size="14.00" fill="#000000">unwind</text>
</g>
<!-- bb4__0_3 -->
<g id="node5" class="node">
<title>bb4__0_3</title>
<polygon fill="#c0c0c0" stroke="transparent" points="304.5,-1613.2 304.5,-1635.2 855.5,-1635.2 855.5,-1613.2 304.5,-1613.2"/>
<polygon fill="none" stroke="#000000" points="304.5,-1613.2 304.5,-1635.2 855.5,-1635.2 855.5,-1613.2 304.5,-1613.2"/>
<text text-anchor="start" x="575.8007" y="-1619.6" font-family="Courier, monospace" font-size="14.00" fill="#000000">4</text>
<polygon fill="none" stroke="#000000" points="304.5,-1557.2 304.5,-1613.2 855.5,-1613.2 855.5,-1557.2 304.5,-1557.2"/>
<text text-anchor="start" x="307.5" y="-1597.6" font-family="Courier, monospace" font-size="14.00" fill="#000000">_27 = const _</text>
<text text-anchor="start" x="307.5" y="-1580.8" font-family="Courier, monospace" font-size="14.00" fill="#000000">_12 = _27 as &amp;[&amp;str] (PointerCoercion(Unsize))</text>
<text text-anchor="start" x="307.5" y="-1564" font-family="Courier, monospace" font-size="14.00" fill="#000000">_17 = &amp;_1</text>
<polygon fill="none" stroke="#000000" points="304.5,-1535.2 304.5,-1557.2 855.5,-1557.2 855.5,-1535.2 304.5,-1535.2"/>
<text text-anchor="start" x="307.0455" y="-1541.6" font-family="Courier, monospace" font-size="14.00" fill="#000000">_16 = core::fmt::rt::Argument::&lt;'_&gt;::new_display::&lt;Box&lt;i32&gt;&gt;(_17)</text>
</g>
<!-- bb3__0_3&#45;&gt;bb4__0_3 -->
<g id="edge5" class="edge">
<title>bb3__0_3-&gt;bb4__0_3</title>
<path fill="none" stroke="#000000" d="M735.1718,-1691.763C715.6137,-1678.3747 690.958,-1661.4971 667.0722,-1645.1463"/>
<polygon fill="#000000" stroke="#000000" points="668.8941,-1642.152 658.6652,-1639.3914 664.94,-1647.9283 668.8941,-1642.152"/>
<text text-anchor="middle" x="730.6958" y="-1661.4" font-family="Courier, monospace" font-size="14.00" fill="#000000">return</text>
</g>
<!-- bb3__0_3&#45;&gt;bb12__0_3 -->
<g id="edge6" class="edge">
<title>bb3__0_3-&gt;bb12__0_3</title>
<path fill="none" stroke="#000000" d="M818.1107,-1691.8786C851.5263,-1668.6027 891.5,-1631.1548 891.5,-1585.2 891.5,-1585.2 891.5,-1585.2 891.5,-865.2 891.5,-830.4021 862.8732,-805.1327 832.5904,-788.1365"/>
<polygon fill="#000000" stroke="#000000" points="834.071,-784.9596 823.6,-783.3439 830.778,-791.1367 834.071,-784.9596"/>
<text text-anchor="middle" x="916.6958" y="-1235" font-family="Courier, monospace" font-size="14.00" fill="#000000">unwind</text>
</g>
<!-- bb5__0_3 -->
<g id="node6" class="node">
<title>bb5__0_3</title>
<polygon fill="#c0c0c0" stroke="transparent" points="192.5,-1452.4 192.5,-1474.4 777.5,-1474.4 777.5,-1452.4 192.5,-1452.4"/>
<polygon fill="none" stroke="#000000" points="192.5,-1452.4 192.5,-1474.4 777.5,-1474.4 777.5,-1452.4 192.5,-1452.4"/>
<text text-anchor="start" x="480.8007" y="-1458.8" font-family="Courier, monospace" font-size="14.00" fill="#000000">5</text>
<polygon fill="none" stroke="#000000" points="192.5,-1396.4 192.5,-1452.4 777.5,-1452.4 777.5,-1396.4 192.5,-1396.4"/>
<text text-anchor="start" x="195.5" y="-1436.8" font-family="Courier, monospace" font-size="14.00" fill="#000000">_15 = [move _16]</text>
<text text-anchor="start" x="195.5" y="-1420" font-family="Courier, monospace" font-size="14.00" fill="#000000">_14 = &amp;_15</text>
<text text-anchor="start" x="195.5" y="-1403.2" font-family="Courier, monospace" font-size="14.00" fill="#000000">_13 = _14 as &amp;[core::fmt::rt::Argument&lt;'_&gt;] (PointerCoercion(Unsize))</text>
<polygon fill="none" stroke="#000000" points="192.5,-1374.4 192.5,-1396.4 777.5,-1396.4 777.5,-1374.4 192.5,-1374.4"/>
<text text-anchor="start" x="195.5" y="-1380.8" font-family="Courier, monospace" font-size="14.00" fill="#000000">_11 = Arguments::&lt;'_&gt;::new_v1(move _12, move _13)</text>
</g>
<!-- bb4__0_3&#45;&gt;bb5__0_3 -->
<g id="edge7" class="edge">
<title>bb4__0_3-&gt;bb5__0_3</title>
<path fill="none" stroke="#000000" d="M547.3373,-1530.7605C539.0906,-1516.8018 530.153,-1501.6737 521.6763,-1487.3257"/>
<polygon fill="#000000" stroke="#000000" points="524.5682,-1485.3397 516.4682,-1478.5104 518.5414,-1488.9004 524.5682,-1485.3397"/>
<text text-anchor="middle" x="560.6958" y="-1500.6" font-family="Courier, monospace" font-size="14.00" fill="#000000">return</text>
</g>
<!-- bb4__0_3&#45;&gt;bb12__0_3 -->
<g id="edge8" class="edge">
<title>bb4__0_3-&gt;bb12__0_3</title>
<path fill="none" stroke="#000000" d="M738.8176,-1531.115C780.2501,-1506.5217 813.5,-1471.9671 813.5,-1424.4 813.5,-1424.4 813.5,-1424.4 813.5,-865.2 813.5,-840.1077 801.5329,-814.7339 789.1926,-795.2392"/>
<polygon fill="#000000" stroke="#000000" points="791.9837,-793.1151 783.5381,-786.718 786.151,-796.9856 791.9837,-793.1151"/>
<text text-anchor="middle" x="838.6958" y="-1154.6" font-family="Courier, monospace" font-size="14.00" fill="#000000">unwind</text>
</g>
<!-- bb6__0_3 -->
<g id="node7" class="node">
<title>bb6__0_3</title>
<polygon fill="#c0c0c0" stroke="transparent" points="389.5,-1291.6 389.5,-1313.6 579.5,-1313.6 579.5,-1291.6 389.5,-1291.6"/>
<polygon fill="none" stroke="#000000" points="389.5,-1291.6 389.5,-1313.6 579.5,-1313.6 579.5,-1291.6 389.5,-1291.6"/>
<text text-anchor="start" x="480.3007" y="-1298" font-family="Courier, monospace" font-size="14.00" fill="#000000">6</text>
<polygon fill="none" stroke="#000000" points="389.5,-1269.6 389.5,-1291.6 579.5,-1291.6 579.5,-1269.6 389.5,-1269.6"/>
<text text-anchor="start" x="392.1154" y="-1276" font-family="Courier, monospace" font-size="14.00" fill="#000000">_10 = _print(move _11)</text>
</g>
<!-- bb5__0_3&#45;&gt;bb6__0_3 -->
<g id="edge9" class="edge">
<title>bb5__0_3-&gt;bb6__0_3</title>
<path fill="none" stroke="#000000" d="M484.5,-1370.3852C484.5,-1356.1063 484.5,-1341.0353 484.5,-1327.941"/>
<polygon fill="#000000" stroke="#000000" points="488.0001,-1327.9163 484.5,-1317.9164 481.0001,-1327.9164 488.0001,-1327.9163"/>
<text text-anchor="middle" x="509.6958" y="-1339.8" font-family="Courier, monospace" font-size="14.00" fill="#000000">return</text>
</g>
<!-- bb5__0_3&#45;&gt;bb12__0_3 -->
<g id="edge10" class="edge">
<title>bb5__0_3-&gt;bb12__0_3</title>
<path fill="none" stroke="#000000" d="M554.6898,-1370.2672C601.0316,-1331.1205 659.7665,-1274.4483 696.5,-1212.8 734.9473,-1148.2755 735.0255,-1125.8921 748.5,-1052 765.0711,-961.1262 765.1431,-851.8483 763.8094,-796.43"/>
<polygon fill="#000000" stroke="#000000" points="767.3075,-796.3071 763.5381,-786.4055 760.3101,-796.4965 767.3075,-796.3071"/>
<text text-anchor="middle" x="770.6958" y="-1074.2" font-family="Courier, monospace" font-size="14.00" fill="#000000">unwind</text>
</g>
<!-- bb7__0_3 -->
<g id="node8" class="node">
<title>bb7__0_3</title>
<polygon fill="#c0c0c0" stroke="transparent" points="97.5,-1186.8 97.5,-1208.8 648.5,-1208.8 648.5,-1186.8 97.5,-1186.8"/>
<polygon fill="none" stroke="#000000" points="97.5,-1186.8 97.5,-1208.8 648.5,-1208.8 648.5,-1186.8 97.5,-1186.8"/>
<text text-anchor="start" x="368.8007" y="-1193.2" font-family="Courier, monospace" font-size="14.00" fill="#000000">7</text>
<polygon fill="none" stroke="#000000" points="97.5,-1130.8 97.5,-1186.8 648.5,-1186.8 648.5,-1130.8 97.5,-1130.8"/>
<text text-anchor="start" x="100.5" y="-1171.2" font-family="Courier, monospace" font-size="14.00" fill="#000000">_26 = const _</text>
<text text-anchor="start" x="100.5" y="-1154.4" font-family="Courier, monospace" font-size="14.00" fill="#000000">_20 = _26 as &amp;[&amp;str] (PointerCoercion(Unsize))</text>
<text text-anchor="start" x="100.5" y="-1137.6" font-family="Courier, monospace" font-size="14.00" fill="#000000">_25 = &amp;_1</text>
<polygon fill="none" stroke="#000000" points="97.5,-1108.8 97.5,-1130.8 648.5,-1130.8 648.5,-1108.8 97.5,-1108.8"/>
<text text-anchor="start" x="100.0455" y="-1115.2" font-family="Courier, monospace" font-size="14.00" fill="#000000">_24 = core::fmt::rt::Argument::&lt;'_&gt;::new_pointer::&lt;Box&lt;i32&gt;&gt;(_25)</text>
</g>
<!-- bb6__0_3&#45;&gt;bb7__0_3 -->
<g id="edge11" class="edge">
<title>bb6__0_3-&gt;bb7__0_3</title>
<path fill="none" stroke="#000000" d="M462.3724,-1265.363C451.5249,-1252.5009 437.9612,-1236.4183 424.6849,-1220.6763"/>
<polygon fill="#000000" stroke="#000000" points="427.3262,-1218.3793 418.2036,-1212.9914 421.9751,-1222.8922 427.3262,-1218.3793"/>
<text text-anchor="middle" x="470.6958" y="-1235" font-family="Courier, monospace" font-size="14.00" fill="#000000">return</text>
</g>
<!-- bb6__0_3&#45;&gt;bb12__0_3 -->
<g id="edge12" class="edge">
<title>bb6__0_3-&gt;bb12__0_3</title>
<path fill="none" stroke="#000000" d="M587.8821,-1267.1719C616.8878,-1255.387 645.6235,-1238.0861 664.5,-1212.8 736.523,-1116.3215 670.5611,-1061.203 698.1084,-944 710.4713,-891.4009 732.525,-832.8509 747.3321,-796.3233"/>
<polygon fill="#000000" stroke="#000000" points="750.7517,-797.2084 751.3022,-786.6279 744.2738,-794.5557 750.7517,-797.2084"/>
<text text-anchor="middle" x="723.6958" y="-993.8" font-family="Courier, monospace" font-size="14.00" fill="#000000">unwind</text>
</g>
<!-- bb8__0_3 -->
<g id="node9" class="node">
<title>bb8__0_3</title>
<polygon fill="#c0c0c0" stroke="transparent" points="8.5,-1026 8.5,-1048 593.5,-1048 593.5,-1026 8.5,-1026"/>
<polygon fill="none" stroke="#000000" points="8.5,-1026 8.5,-1048 593.5,-1048 593.5,-1026 8.5,-1026"/>
<text text-anchor="start" x="296.8007" y="-1032.4" font-family="Courier, monospace" font-size="14.00" fill="#000000">8</text>
<polygon fill="none" stroke="#000000" points="8.5,-970 8.5,-1026 593.5,-1026 593.5,-970 8.5,-970"/>
<text text-anchor="start" x="11.5" y="-1010.4" font-family="Courier, monospace" font-size="14.00" fill="#000000">_23 = [move _24]</text>
<text text-anchor="start" x="11.5" y="-993.6" font-family="Courier, monospace" font-size="14.00" fill="#000000">_22 = &amp;_23</text>
<text text-anchor="start" x="11.5" y="-976.8" font-family="Courier, monospace" font-size="14.00" fill="#000000">_21 = _22 as &amp;[core::fmt::rt::Argument&lt;'_&gt;] (PointerCoercion(Unsize))</text>
<polygon fill="none" stroke="#000000" points="8.5,-948 8.5,-970 593.5,-970 593.5,-948 8.5,-948"/>
<text text-anchor="start" x="11.5" y="-954.4" font-family="Courier, monospace" font-size="14.00" fill="#000000">_19 = Arguments::&lt;'_&gt;::new_v1(move _20, move _21)</text>
</g>
<!-- bb7__0_3&#45;&gt;bb8__0_3 -->
<g id="edge13" class="edge">
<title>bb7__0_3-&gt;bb8__0_3</title>
<path fill="none" stroke="#000000" d="M348.1241,-1104.3605C341.9329,-1090.5335 335.2279,-1075.559 328.8576,-1061.332"/>
<polygon fill="#000000" stroke="#000000" points="332.0096,-1059.8069 324.7285,-1052.1104 325.6208,-1062.6676 332.0096,-1059.8069"/>
<text text-anchor="middle" x="364.6958" y="-1074.2" font-family="Courier, monospace" font-size="14.00" fill="#000000">return</text>
</g>
<!-- bb7__0_3&#45;&gt;bb12__0_3 -->
<g id="edge14" class="edge">
<title>bb7__0_3-&gt;bb12__0_3</title>
<path fill="none" stroke="#000000" d="M548.1992,-1104.7175C571.7214,-1090.8464 593.2803,-1073.5421 609.5,-1052 648.0704,-1000.7727 611.4181,-970.5399 630.1084,-909.2 645.1723,-859.7615 644.7731,-841.7453 680.5,-804.4 684.6497,-800.0623 689.3223,-796.0568 694.2785,-792.3786"/>
<polygon fill="#000000" stroke="#000000" points="696.5825,-795.0422 702.8449,-786.4963 692.6201,-789.2717 696.5825,-795.0422"/>
<text text-anchor="middle" x="655.6958" y="-913.4" font-family="Courier, monospace" font-size="14.00" fill="#000000">unwind</text>
</g>
<!-- bb9__0_3 -->
<g id="node10" class="node">
<title>bb9__0_3</title>
<polygon fill="#c0c0c0" stroke="transparent" points="289.5,-865.2 289.5,-887.2 479.5,-887.2 479.5,-865.2 289.5,-865.2"/>
<polygon fill="none" stroke="#000000" points="289.5,-865.2 289.5,-887.2 479.5,-887.2 479.5,-865.2 289.5,-865.2"/>
<text text-anchor="start" x="380.3007" y="-871.6" font-family="Courier, monospace" font-size="14.00" fill="#000000">9</text>
<polygon fill="none" stroke="#000000" points="289.5,-843.2 289.5,-865.2 479.5,-865.2 479.5,-843.2 289.5,-843.2"/>
<text text-anchor="start" x="292.1154" y="-849.6" font-family="Courier, monospace" font-size="14.00" fill="#000000">_18 = _print(move _19)</text>
</g>
<!-- bb8__0_3&#45;&gt;bb9__0_3 -->
<g id="edge15" class="edge">
<title>bb8__0_3-&gt;bb9__0_3</title>
<path fill="none" stroke="#000000" d="M334.666,-943.9852C344.0555,-929.1408 353.9866,-913.4403 362.4913,-899.9947"/>
<polygon fill="#000000" stroke="#000000" points="365.4663,-901.8386 367.8541,-891.5164 359.5504,-898.0966 365.4663,-901.8386"/>
<text text-anchor="middle" x="380.6958" y="-913.4" font-family="Courier, monospace" font-size="14.00" fill="#000000">return</text>
</g>
<!-- bb8__0_3&#45;&gt;bb12__0_3 -->
<g id="edge16" class="edge">
<title>bb8__0_3-&gt;bb12__0_3</title>
<path fill="none" stroke="#000000" d="M406.7008,-943.8832C436.2956,-927.7997 468.1031,-909.5516 496.5,-891.2 528.6348,-870.4328 534.1128,-861.6321 565.1084,-839.2 587.1576,-823.2425 590.9635,-816.1802 615.5,-804.4 639.351,-792.9489 666.8206,-783.7605 691.5113,-776.8025"/>
<polygon fill="#000000" stroke="#000000" points="692.4643,-780.1705 701.182,-774.1495 690.6123,-773.4199 692.4643,-780.1705"/>
<text text-anchor="middle" x="590.6958" y="-861" font-family="Courier, monospace" font-size="14.00" fill="#000000">unwind</text>
</g>
<!-- bb10__0_3 -->
<g id="node11" class="node">
<title>bb10__0_3</title>
<polygon fill="#c0c0c0" stroke="transparent" points="348.5,-760.4 348.5,-782.4 421.5,-782.4 421.5,-760.4 348.5,-760.4"/>
<polygon fill="none" stroke="#000000" points="348.5,-760.4 348.5,-782.4 421.5,-782.4 421.5,-760.4 348.5,-760.4"/>
<text text-anchor="start" x="376.6014" y="-766.8" font-family="Courier, monospace" font-size="14.00" fill="#000000">10</text>
<polygon fill="none" stroke="#000000" points="348.5,-738.4 348.5,-760.4 421.5,-760.4 421.5,-738.4 348.5,-738.4"/>
<text text-anchor="start" x="351.4056" y="-744.8" font-family="Courier, monospace" font-size="14.00" fill="#000000">drop(_1)</text>
</g>
<!-- bb9__0_3&#45;&gt;bb10__0_3 -->
<g id="edge17" class="edge">
<title>bb9__0_3-&gt;bb10__0_3</title>
<path fill="none" stroke="#000000" d="M384.5,-839.0249C384.5,-826.2705 384.5,-810.7231 384.5,-796.8314"/>
<polygon fill="#000000" stroke="#000000" points="388.0001,-796.6046 384.5,-786.6047 381.0001,-796.6047 388.0001,-796.6046"/>
<text text-anchor="middle" x="409.6958" y="-808.6" font-family="Courier, monospace" font-size="14.00" fill="#000000">return</text>
</g>
<!-- bb9__0_3&#45;&gt;bb12__0_3 -->
<g id="edge18" class="edge">
<title>bb9__0_3-&gt;bb12__0_3</title>
<path fill="none" stroke="#000000" d="M415.3221,-838.9165C431.5145,-826.4971 452.2856,-812.6237 473.1084,-804.4 511.7057,-789.1565 618.837,-775.4547 691.3491,-767.5316"/>
<polygon fill="#000000" stroke="#000000" points="691.7741,-771.0062 701.3403,-766.4524 691.0223,-764.0466 691.7741,-771.0062"/>
<text text-anchor="middle" x="498.6958" y="-808.6" font-family="Courier, monospace" font-size="14.00" fill="#000000">unwind</text>
</g>
<!-- bb11__0_3 -->
<g id="node12" class="node">
<title>bb11__0_3</title>
<polygon fill="#c0c0c0" stroke="transparent" points="356.5,-655.6 356.5,-677.6 412.5,-677.6 412.5,-655.6 356.5,-655.6"/>
<polygon fill="none" stroke="#000000" points="356.5,-655.6 356.5,-677.6 412.5,-677.6 412.5,-655.6 356.5,-655.6"/>
<text text-anchor="start" x="376.1014" y="-662" font-family="Courier, monospace" font-size="14.00" fill="#000000">11</text>
<polygon fill="none" stroke="#000000" points="356.5,-633.6 356.5,-655.6 412.5,-655.6 412.5,-633.6 356.5,-633.6"/>
<text text-anchor="start" x="359.3042" y="-640" font-family="Courier, monospace" font-size="14.00" fill="#000000">return</text>
</g>
<!-- bb10__0_3&#45;&gt;bb11__0_3 -->
<g id="edge19" class="edge">
<title>bb10__0_3-&gt;bb11__0_3</title>
<path fill="none" stroke="#000000" d="M384.5,-734.2249C384.5,-721.4705 384.5,-705.9231 384.5,-692.0314"/>
<polygon fill="#000000" stroke="#000000" points="388.0001,-691.8046 384.5,-681.8047 381.0001,-691.8047 388.0001,-691.8046"/>
<text text-anchor="middle" x="409.6958" y="-703.8" font-family="Courier, monospace" font-size="14.00" fill="#000000">return</text>
</g>
<!-- bb13__0_3 -->
<g id="node14" class="node">
<title>bb13__0_3</title>
<polygon fill="#add8e6" stroke="transparent" points="709.5,-655.6 709.5,-677.6 815.5,-677.6 815.5,-655.6 709.5,-655.6"/>
<polygon fill="none" stroke="#000000" points="709.5,-655.6 709.5,-677.6 815.5,-677.6 815.5,-655.6 709.5,-655.6"/>
<text text-anchor="start" x="712.1084" y="-662" font-family="Courier, monospace" font-size="14.00" fill="#000000">13 (cleanup)</text>
<polygon fill="none" stroke="#000000" points="709.5,-633.6 709.5,-655.6 815.5,-655.6 815.5,-633.6 709.5,-633.6"/>
<text text-anchor="start" x="712.5" y="-640" font-family="Courier, monospace" font-size="14.00" fill="#000000">resume</text>
</g>
<!-- bb12__0_3&#45;&gt;bb13__0_3 -->
<g id="edge20" class="edge">
<title>bb12__0_3-&gt;bb13__0_3</title>
<path fill="none" stroke="#000000" d="M762.5,-734.2249C762.5,-721.4705 762.5,-705.9231 762.5,-692.0314"/>
<polygon fill="#000000" stroke="#000000" points="766.0001,-691.8046 762.5,-681.8047 759.0001,-691.8047 766.0001,-691.8046"/>
<text text-anchor="middle" x="787.6958" y="-703.8" font-family="Courier, monospace" font-size="14.00" fill="#000000">return</text>
</g>
<!-- bb14__0_3&#45;&gt;bb2__0_3 -->
<g id="edge21" class="edge">
<title>bb14__0_3-&gt;bb2__0_3</title>
<path fill="none" stroke="#000000" d="M892.296,-1957.5679C876.8795,-1943.7124 858.9269,-1927.5774 841.7179,-1912.1108"/>
<polygon fill="#000000" stroke="#000000" points="843.6523,-1909.1435 833.8751,-1905.0621 838.9731,-1914.3498 843.6523,-1909.1435"/>
<text text-anchor="middle" x="893.6958" y="-1927" font-family="Courier, monospace" font-size="14.00" fill="#000000">return</text>
</g>
<!-- bb14__0_3&#45;&gt;bb12__0_3 -->
<g id="edge22" class="edge">
<title>bb14__0_3-&gt;bb12__0_3</title>
<path fill="none" stroke="#000000" d="M1015.3748,-1957.4204C1054.7402,-1933.4291 1093.5,-1897.8584 1093.5,-1850.8 1093.5,-1850.8 1093.5,-1850.8 1093.5,-865.2 1093.5,-811.1313 930.9457,-781.3764 833.6686,-768.411"/>
<polygon fill="#000000" stroke="#000000" points="833.965,-764.9201 823.5962,-767.0972 833.0595,-771.8613 833.965,-764.9201"/>
<text text-anchor="middle" x="1118.6958" y="-1339.8" font-family="Courier, monospace" font-size="14.00" fill="#000000">unwind</text>
</g>
</g>
</svg>