<?xml version="1.0" encoding="UTF-8" standalone="no"?><!DOCTYPE svg PUBLIC "-//W3C//DTD SVG 1.1//EN" "http://www.w3.org/Graphics/SVG/1.1/DTD/svg11.dtd"><!-- Generated by graphviz version 2.40.1 (20161225.0304)
 --><!-- Title: Mir_0_3 Pages: 1 --><svg xmlns="http://www.w3.org/2000/svg" xmlns:xlink="http://www.w3.org/1999/xlink" width="1314pt" height="2874pt" viewBox="0.00 0.00 1314.00 2874.20">
<g id="graph0" class="graph" transform="scale(1 1) rotate(0) translate(4 2870.2)">
<title>Mir_0_3</title>
<polygon fill="#ffffff" stroke="transparent" points="-4,4 -4,-2870.2 1310,-2870.2 1310,4 -4,4"/>
<text text-anchor="start" x="468.2308" y="-713.8" font-family="Courier, monospace" font-size="14.00" fill="#000000">fn main() -&gt; ()</text>
<text text-anchor="start" x="468.2308" y="-697" font-family="Courier, monospace" font-size="14.00" fill="#000000">let _1: &amp;str;</text>
<text text-anchor="start" x="468.2308" y="-680.2" font-family="Courier, monospace" font-size="14.00" fill="#000000">let mut _2: &amp;str;</text>
<text text-anchor="start" x="468.2308" y="-663.4" font-family="Courier, monospace" font-size="14.00" fill="#000000">let _3: &amp;str;</text>
<text text-anchor="start" x="468.2308" y="-646.6" font-family="Courier, monospace" font-size="14.00" fill="#000000">let _4: std::string::String;</text>
<text text-anchor="start" x="468.2308" y="-629.8" font-family="Courier, monospace" font-size="14.00" fill="#000000">let _5: &amp;std::string::String;</text>
<text text-anchor="start" x="468.2308" y="-613" font-family="Courier, monospace" font-size="14.00" fill="#000000">let _6: &amp;str;</text>
<text text-anchor="start" x="468.2308" y="-596.2" font-family="Courier, monospace" font-size="14.00" fill="#000000">let _7: &amp;str;</text>
<text text-anchor="start" x="468.2308" y="-579.4" font-family="Courier, monospace" font-size="14.00" fill="#000000">let mut _8: &amp;std::string::String;</text>
<text text-anchor="start" x="468.2308" y="-562.6" font-family="Courier, monospace" font-size="14.00" fill="#000000">let mut _9: std::ops::RangeTo&lt;usize&gt;;</text>
<text text-anchor="start" x="468.2308" y="-545.8" font-family="Courier, monospace" font-size="14.00" fill="#000000">let _10: std::string::String;</text>
<text text-anchor="start" x="468.2308" y="-529" font-family="Courier, monospace" font-size="14.00" fill="#000000">let _11: &amp;str;</text>
<text text-anchor="start" x="468.2308" y="-512.2" font-family="Courier, monospace" font-size="14.00" fill="#000000">let mut _12: std::string::String;</text>
<text text-anchor="start" x="468.2308" y="-495.4" font-family="Courier, monospace" font-size="14.00" fill="#000000">let _13: &amp;str;</text>
<text text-anchor="start" x="468.2308" y="-478.6" font-family="Courier, monospace" font-size="14.00" fill="#000000">let _14: std::string::String;</text>
<text text-anchor="start" x="468.2308" y="-461.8" font-family="Courier, monospace" font-size="14.00" fill="#000000">let _15: ();</text>
<text text-anchor="start" x="468.2308" y="-445" font-family="Courier, monospace" font-size="14.00" fill="#000000">let mut _16: &amp;mut std::string::String;</text>
<text text-anchor="start" x="468.2308" y="-428.2" font-family="Courier, monospace" font-size="14.00" fill="#000000">let mut _17: &amp;str;</text>
<text text-anchor="start" x="468.2308" y="-411.4" font-family="Courier, monospace" font-size="14.00" fill="#000000">let _18: &amp;str;</text>
<text text-anchor="start" x="468.2308" y="-394.6" font-family="Courier, monospace" font-size="14.00" fill="#000000">let _19: &amp;std::string::String;</text>
<text text-anchor="start" x="468.2308" y="-377.8" font-family="Courier, monospace" font-size="14.00" fill="#000000">let _20: std::string::String;</text>
<text text-anchor="start" x="468.2308" y="-361" font-family="Courier, monospace" font-size="14.00" fill="#000000">let _21: std::string::String;</text>
<text text-anchor="start" x="468.2308" y="-344.2" font-family="Courier, monospace" font-size="14.00" fill="#000000">let mut _22: std::fmt::Arguments&lt;'_&gt;;</text>
<text text-anchor="start" x="468.2308" y="-327.4" font-family="Courier, monospace" font-size="14.00" fill="#000000">let mut _23: &amp;[&amp;str];</text>
<text text-anchor="start" x="468.2308" y="-310.6" font-family="Courier, monospace" font-size="14.00" fill="#000000">let mut _24: &amp;[core::fmt::rt::Argument&lt;'_&gt;];</text>
<text text-anchor="start" x="468.2308" y="-293.8" font-family="Courier, monospace" font-size="14.00" fill="#000000">let _25: &amp;[core::fmt::rt::Argument&lt;'_&gt;; 2];</text>
<text text-anchor="start" x="468.2308" y="-277" font-family="Courier, monospace" font-size="14.00" fill="#000000">let _26: [core::fmt::rt::Argument&lt;'_&gt;; 2];</text>
<text text-anchor="start" x="468.2308" y="-260.2" font-family="Courier, monospace" font-size="14.00" fill="#000000">let mut _27: core::fmt::rt::Argument&lt;'_&gt;;</text>
<text text-anchor="start" x="468.2308" y="-243.4" font-family="Courier, monospace" font-size="14.00" fill="#000000">let _28: &amp;std::string::String;</text>
<text text-anchor="start" x="468.2308" y="-226.6" font-family="Courier, monospace" font-size="14.00" fill="#000000">let mut _29: core::fmt::rt::Argument&lt;'_&gt;;</text>
<text text-anchor="start" x="468.2308" y="-209.8" font-family="Courier, monospace" font-size="14.00" fill="#000000">let _30: &amp;std::string::String;</text>
<text text-anchor="start" x="468.2308" y="-193" font-family="Courier, monospace" font-size="14.00" fill="#000000">let mut _31: &amp;[&amp;str; 3];</text>
<text text-anchor="start" x="468.2308" y="-176.2" font-family="Courier, monospace" font-size="14.00" fill="#000000">debug str_string =&gt; const "hello";</text>
<text text-anchor="start" x="468.2308" y="-159.4" font-family="Courier, monospace" font-size="14.00" fill="#000000">debug str_string2 =&gt; _2;</text>
<text text-anchor="start" x="468.2308" y="-142.6" font-family="Courier, monospace" font-size="14.00" fill="#000000">debug str_string =&gt; _4;</text>
<text text-anchor="start" x="468.2308" y="-125.8" font-family="Courier, monospace" font-size="14.00" fill="#000000">debug strptr_string =&gt; _5;</text>
<text text-anchor="start" x="468.2308" y="-109" font-family="Courier, monospace" font-size="14.00" fill="#000000">debug str_slice =&gt; _6;</text>
<text text-anchor="start" x="468.2308" y="-92.2" font-family="Courier, monospace" font-size="14.00" fill="#000000">debug _s =&gt; const "hell";</text>
<text text-anchor="start" x="468.2308" y="-75.4" font-family="Courier, monospace" font-size="14.00" fill="#000000">debug s0 =&gt; _10;</text>
<text text-anchor="start" x="468.2308" y="-58.6" font-family="Courier, monospace" font-size="14.00" fill="#000000">debug s =&gt; _12;</text>
<text text-anchor="start" x="468.2308" y="-41.8" font-family="Courier, monospace" font-size="14.00" fill="#000000">debug t =&gt; _14;</text>
<text text-anchor="start" x="468.2308" y="-25" font-family="Courier, monospace" font-size="14.00" fill="#000000">debug r =&gt; _20;</text>
<text text-anchor="start" x="468.2308" y="-8.2" font-family="Courier, monospace" font-size="14.00" fill="#000000">debug res =&gt; _21;</text>
<!-- bb0__0_3 -->
<g id="node1" class="node">
<title>bb0__0_3</title>
<polygon fill="#c0c0c0" stroke="transparent" points="872.5,-2839.7 872.5,-2861.7 1188.5,-2861.7 1188.5,-2839.7 872.5,-2839.7"/>
<polygon fill="none" stroke="#000000" points="872.5,-2839.7 872.5,-2861.7 1188.5,-2861.7 1188.5,-2839.7 872.5,-2839.7"/>
<text text-anchor="start" x="1026.3007" y="-2846.1" font-family="Courier, monospace" font-size="14.00" fill="#000000">0</text>
<polygon fill="none" stroke="#000000" points="872.5,-2766.7 872.5,-2839.7 1188.5,-2839.7 1188.5,-2766.7 872.5,-2766.7"/>
<text text-anchor="start" x="875.5" y="-2824.1" font-family="Courier, monospace" font-size="14.00" fill="#000000">_1 = const "hello"</text>
<text text-anchor="start" x="875.5" y="-2807.3" font-family="Courier, monospace" font-size="14.00" fill="#000000">_2 = const "wht"</text>
<text text-anchor="start" x="875.5" y="-2790.5" font-family="Courier, monospace" font-size="14.00" fill="#000000">_3 = const "mehs"</text>
<text text-anchor="start" x="875.5" y="-2773.7" font-family="Courier, monospace" font-size="14.00" fill="#000000">_2 = _3</text>
<polygon fill="none" stroke="#000000" points="872.5,-2744.7 872.5,-2766.7 1188.5,-2766.7 1188.5,-2744.7 872.5,-2744.7"/>
<text text-anchor="start" x="875.1259" y="-2751.1" font-family="Courier, monospace" font-size="14.00" fill="#000000">_4 = &lt;String as From&lt;&amp;str&gt;&gt;::from(_1)</text>
</g>
<!-- bb1__0_3 -->
<g id="node2" class="node">
<title>bb1__0_3</title>
<polygon fill="#c0c0c0" stroke="transparent" points="763.5,-2662.4 763.5,-2684.4 1298.5,-2684.4 1298.5,-2662.4 763.5,-2662.4"/>
<polygon fill="none" stroke="#000000" points="763.5,-2662.4 763.5,-2684.4 1298.5,-2684.4 1298.5,-2662.4 763.5,-2662.4"/>
<text text-anchor="start" x="1026.8007" y="-2668.8" font-family="Courier, monospace" font-size="14.00" fill="#000000">1</text>
<polygon fill="none" stroke="#000000" points="763.5,-2606.4 763.5,-2662.4 1298.5,-2662.4 1298.5,-2606.4 763.5,-2606.4"/>
<text text-anchor="start" x="766.5" y="-2646.8" font-family="Courier, monospace" font-size="14.00" fill="#000000">_5 = &amp;_4</text>
<text text-anchor="start" x="766.5" y="-2630" font-family="Courier, monospace" font-size="14.00" fill="#000000">_8 = &amp;_4</text>
<text text-anchor="start" x="766.5" y="-2613.2" font-family="Courier, monospace" font-size="14.00" fill="#000000">_9 = RangeTo::&lt;usize&gt; { end: const 2_usize }</text>
<polygon fill="none" stroke="#000000" points="763.5,-2584.4 763.5,-2606.4 1298.5,-2606.4 1298.5,-2584.4 763.5,-2584.4"/>
<text text-anchor="start" x="766.4441" y="-2590.8" font-family="Courier, monospace" font-size="14.00" fill="#000000">_7 = &lt;String as Index&lt;RangeTo&lt;usize&gt;&gt;&gt;::index(move _8, move _9)</text>
</g>
<!-- bb0__0_3&#45;&gt;bb1__0_3 -->
<g id="edge1" class="edge">
<title>bb0__0_3-&gt;bb1__0_3</title>
<path fill="none" stroke="#000000" d="M1030.5,-2741.1399C1030.5,-2727.4038 1030.5,-2712.8333 1030.5,-2699.0181"/>
<polygon fill="#000000" stroke="#000000" points="1034.0001,-2698.627 1030.5,-2688.627 1027.0001,-2698.627 1034.0001,-2698.627"/>
<text text-anchor="middle" x="1055.6958" y="-2710.6" font-family="Courier, monospace" font-size="14.00" fill="#000000">return</text>
</g>
<!-- bb2__0_3 -->
<g id="node3" class="node">
<title>bb2__0_3</title>
<polygon fill="#c0c0c0" stroke="transparent" points="728.5,-2501.1 728.5,-2523.1 1061.5,-2523.1 1061.5,-2501.1 728.5,-2501.1"/>
<polygon fill="none" stroke="#000000" points="728.5,-2501.1 728.5,-2523.1 1061.5,-2523.1 1061.5,-2501.1 728.5,-2501.1"/>
<text text-anchor="start" x="890.8007" y="-2507.5" font-family="Courier, monospace" font-size="14.00" fill="#000000">2</text>
<polygon fill="none" stroke="#000000" points="728.5,-2462.1 728.5,-2501.1 1061.5,-2501.1 1061.5,-2462.1 728.5,-2462.1"/>
<text text-anchor="start" x="731.5" y="-2485.5" font-family="Courier, monospace" font-size="14.00" fill="#000000">_6 = _7</text>
<text text-anchor="start" x="731.5" y="-2468.7" font-family="Courier, monospace" font-size="14.00" fill="#000000">_11 = const "hell"</text>
<polygon fill="none" stroke="#000000" points="728.5,-2440.1 728.5,-2462.1 1061.5,-2462.1 1061.5,-2440.1 728.5,-2440.1"/>
<text text-anchor="start" x="731.2273" y="-2446.5" font-family="Courier, monospace" font-size="14.00" fill="#000000">_10 = &lt;str as ToString&gt;::to_string(_11)</text>
</g>
<!-- bb1__0_3&#45;&gt;bb2__0_3 -->
<g id="edge2" class="edge">
<title>bb1__0_3-&gt;bb2__0_3</title>
<path fill="none" stroke="#000000" d="M982.1686,-2580.2759C969.1655,-2565.7144 955.1126,-2549.9772 942.1471,-2535.4577"/>
<polygon fill="#000000" stroke="#000000" points="944.7487,-2533.1164 935.4774,-2527.9886 939.5274,-2537.7788 944.7487,-2533.1164"/>
<text text-anchor="middle" x="987.6958" y="-2549.8" font-family="Courier, monospace" font-size="14.00" fill="#000000">return</text>
</g>
<!-- bb20__0_3 -->
<g id="node21" class="node">
<title>bb20__0_3</title>
<polygon fill="#add8e6" stroke="transparent" points="946.5,-861.2 946.5,-883.2 1052.5,-883.2 1052.5,-861.2 946.5,-861.2"/>
<polygon fill="none" stroke="#000000" points="946.5,-861.2 946.5,-883.2 1052.5,-883.2 1052.5,-861.2 946.5,-861.2"/>
<text text-anchor="start" x="949.1084" y="-867.6" font-family="Courier, monospace" font-size="14.00" fill="#000000">20 (cleanup)</text>
<polygon fill="none" stroke="#000000" points="946.5,-839.2 946.5,-861.2 1052.5,-861.2 1052.5,-839.2 946.5,-839.2"/>
<text text-anchor="start" x="949.5" y="-845.6" font-family="Courier, monospace" font-size="14.00" fill="#000000">drop(_4)</text>
</g>
<!-- bb1__0_3&#45;&gt;bb20__0_3 -->
<g id="edge3" class="edge">
<title>bb1__0_3-&gt;bb20__0_3</title>
<path fill="none" stroke="#000000" d="M1067.332,-2580.118C1082.9007,-2552.0977 1097.5,-2516.6193 1097.5,-2482.1 1097.5,-2482.1 1097.5,-2482.1 1097.5,-966 1097.5,-936.2524 1076.1745,-911.4532 1053.4195,-893.4588"/>
<polygon fill="#000000" stroke="#000000" points="1055.4384,-890.5978 1045.3437,-887.3809 1051.229,-896.1908 1055.4384,-890.5978"/>
<text text-anchor="middle" x="1122.6958" y="-1679.6" font-family="Courier, monospace" font-size="14.00" fill="#000000">unwind</text>
</g>
<!-- bb3__0_3 -->
<g id="node4" class="node">
<title>bb3__0_3</title>
<polygon fill="#c0c0c0" stroke="transparent" points="663.5,-2357.8 663.5,-2379.8 996.5,-2379.8 996.5,-2357.8 663.5,-2357.8"/>
<polygon fill="none" stroke="#000000" points="663.5,-2357.8 663.5,-2379.8 996.5,-2379.8 996.5,-2357.8 663.5,-2357.8"/>
<text text-anchor="start" x="825.8007" y="-2364.2" font-family="Courier, monospace" font-size="14.00" fill="#000000">3</text>
<polygon fill="none" stroke="#000000" points="663.5,-2335.8 663.5,-2357.8 996.5,-2357.8 996.5,-2335.8 663.5,-2335.8"/>
<text text-anchor="start" x="666.5" y="-2342.2" font-family="Courier, monospace" font-size="14.00" fill="#000000">_13 = const "hell"</text>
<polygon fill="none" stroke="#000000" points="663.5,-2313.8 663.5,-2335.8 996.5,-2335.8 996.5,-2313.8 663.5,-2313.8"/>
<text text-anchor="start" x="666.2273" y="-2320.2" font-family="Courier, monospace" font-size="14.00" fill="#000000">_12 = &lt;str as ToString&gt;::to_string(_13)</text>
</g>
<!-- bb2__0_3&#45;&gt;bb3__0_3 -->
<g id="edge4" class="edge">
<title>bb2__0_3-&gt;bb3__0_3</title>
<path fill="none" stroke="#000000" d="M872.494,-2436.2936C865.8507,-2422.4655 858.5522,-2407.2733 851.8846,-2393.3944"/>
<polygon fill="#000000" stroke="#000000" points="854.8704,-2391.5268 847.3852,-2384.0286 848.5607,-2394.5581 854.8704,-2391.5268"/>
<text text-anchor="middle" x="888.6958" y="-2406" font-family="Courier, monospace" font-size="14.00" fill="#000000">return</text>
</g>
<!-- bb2__0_3&#45;&gt;bb20__0_3 -->
<g id="edge5" class="edge">
<title>bb2__0_3-&gt;bb20__0_3</title>
<path fill="none" stroke="#000000" d="M977.5622,-2436.5926C1006.7887,-2414.1525 1032.5,-2383.8754 1032.5,-2346.8 1032.5,-2346.8 1032.5,-2346.8 1032.5,-966 1032.5,-942.2306 1024.6813,-916.7706 1016.6555,-896.8975"/>
<polygon fill="#000000" stroke="#000000" points="1019.8514,-895.4689 1012.7322,-887.6224 1013.4044,-898.1959 1019.8514,-895.4689"/>
<text text-anchor="middle" x="1057.6958" y="-1616.2" font-family="Courier, monospace" font-size="14.00" fill="#000000">unwind</text>
</g>
<!-- bb4__0_3 -->
<g id="node5" class="node">
<title>bb4__0_3</title>
<polygon fill="#c0c0c0" stroke="transparent" points="489.5,-2231 489.5,-2253 923.5,-2253 923.5,-2231 489.5,-2231"/>
<polygon fill="none" stroke="#000000" points="489.5,-2231 489.5,-2253 923.5,-2253 923.5,-2231 489.5,-2231"/>
<text text-anchor="start" x="702.3007" y="-2237.4" font-family="Courier, monospace" font-size="14.00" fill="#000000">4</text>
<polygon fill="none" stroke="#000000" points="489.5,-2209 489.5,-2231 923.5,-2231 923.5,-2209 489.5,-2209"/>
<text text-anchor="start" x="492.3357" y="-2215.4" font-family="Courier, monospace" font-size="14.00" fill="#000000">_14 = &lt;String as From&lt;&amp;str&gt;&gt;::from(const "o world")</text>
</g>
<!-- bb3__0_3&#45;&gt;bb4__0_3 -->
<g id="edge6" class="edge">
<title>bb3__0_3-&gt;bb4__0_3</title>
<path fill="none" stroke="#000000" d="M789.905,-2309.5227C774.4756,-2294.9966 756.9303,-2278.4783 741.9261,-2264.3524"/>
<polygon fill="#000000" stroke="#000000" points="744.0163,-2261.5132 734.3362,-2257.2067 739.218,-2266.6098 744.0163,-2261.5132"/>
<text text-anchor="middle" x="792.6958" y="-2279.2" font-family="Courier, monospace" font-size="14.00" fill="#000000">return</text>
</g>
<!-- bb19__0_3 -->
<g id="node20" class="node">
<title>bb19__0_3</title>
<polygon fill="#add8e6" stroke="transparent" points="848.5,-966 848.5,-988 954.5,-988 954.5,-966 848.5,-966"/>
<polygon fill="none" stroke="#000000" points="848.5,-966 848.5,-988 954.5,-988 954.5,-966 848.5,-966"/>
<text text-anchor="start" x="851.1084" y="-972.4" font-family="Courier, monospace" font-size="14.00" fill="#000000">19 (cleanup)</text>
<polygon fill="none" stroke="#000000" points="848.5,-944 848.5,-966 954.5,-966 954.5,-944 848.5,-944"/>
<text text-anchor="start" x="851.5" y="-950.4" font-family="Courier, monospace" font-size="14.00" fill="#000000">drop(_10)</text>
</g>
<!-- bb3__0_3&#45;&gt;bb19__0_3 -->
<g id="edge7" class="edge">
<title>bb3__0_3-&gt;bb19__0_3</title>
<path fill="none" stroke="#000000" d="M907.3731,-2309.7231C935.0595,-2290.7765 959.5,-2264.5499 959.5,-2231 959.5,-2231 959.5,-2231 959.5,-1070.8 959.5,-1042.6184 955.327,-1034.5564 941.5,-1010 939.6702,-1006.7503 937.5603,-1003.5416 935.2858,-1000.427"/>
<polygon fill="#000000" stroke="#000000" points="937.912,-998.1056 928.9599,-992.4389 932.4243,-1002.4513 937.912,-998.1056"/>
<text text-anchor="middle" x="984.6958" y="-1616.2" font-family="Courier, monospace" font-size="14.00" fill="#000000">unwind</text>
</g>
<!-- bb5__0_3 -->
<g id="node6" class="node">
<title>bb5__0_3</title>
<polygon fill="#c0c0c0" stroke="transparent" points="551.5,-2125.7 551.5,-2147.7 850.5,-2147.7 850.5,-2125.7 551.5,-2125.7"/>
<polygon fill="none" stroke="#000000" points="551.5,-2125.7 551.5,-2147.7 850.5,-2147.7 850.5,-2125.7 551.5,-2125.7"/>
<text text-anchor="start" x="696.8007" y="-2132.1" font-family="Courier, monospace" font-size="14.00" fill="#000000">5</text>
<polygon fill="none" stroke="#000000" points="551.5,-2086.7 551.5,-2125.7 850.5,-2125.7 850.5,-2086.7 551.5,-2086.7"/>
<text text-anchor="start" x="554.5" y="-2110.1" font-family="Courier, monospace" font-size="14.00" fill="#000000">_16 = &amp;mut _12</text>
<text text-anchor="start" x="554.5" y="-2093.3" font-family="Courier, monospace" font-size="14.00" fill="#000000">_19 = &amp;_14</text>
<polygon fill="none" stroke="#000000" points="551.5,-2064.7 551.5,-2086.7 850.5,-2086.7 850.5,-2064.7 551.5,-2064.7"/>
<text text-anchor="start" x="554.0245" y="-2071.1" font-family="Courier, monospace" font-size="14.00" fill="#000000">_18 = &lt;String as Deref&gt;::deref(_19)</text>
</g>
<!-- bb4__0_3&#45;&gt;bb5__0_3 -->
<g id="edge8" class="edge">
<title>bb4__0_3-&gt;bb5__0_3</title>
<path fill="none" stroke="#000000" d="M705.2422,-2204.9426C704.6447,-2192.5647 703.9061,-2177.2637 703.1912,-2162.4525"/>
<polygon fill="#000000" stroke="#000000" points="706.6802,-2162.1384 702.702,-2152.3188 699.6883,-2162.476 706.6802,-2162.1384"/>
<text text-anchor="middle" x="728.6958" y="-2174.4" font-family="Courier, monospace" font-size="14.00" fill="#000000">return</text>
</g>
<!-- bb18__0_3 -->
<g id="node19" class="node">
<title>bb18__0_3</title>
<polygon fill="#add8e6" stroke="transparent" points="817.5,-1070.8 817.5,-1092.8 923.5,-1092.8 923.5,-1070.8 817.5,-1070.8"/>
<polygon fill="none" stroke="#000000" points="817.5,-1070.8 817.5,-1092.8 923.5,-1092.8 923.5,-1070.8 817.5,-1070.8"/>
<text text-anchor="start" x="820.1084" y="-1077.2" font-family="Courier, monospace" font-size="14.00" fill="#000000">18 (cleanup)</text>
<polygon fill="none" stroke="#000000" points="817.5,-1048.8 817.5,-1070.8 923.5,-1070.8 923.5,-1048.8 817.5,-1048.8"/>
<text text-anchor="start" x="820.5" y="-1055.2" font-family="Courier, monospace" font-size="14.00" fill="#000000">drop(_12)</text>
</g>
<!-- bb4__0_3&#45;&gt;bb18__0_3 -->
<g id="edge9" class="edge">
<title>bb4__0_3-&gt;bb18__0_3</title>
<path fill="none" stroke="#000000" d="M797.291,-2204.9741C842.0258,-2186.0208 886.5,-2155.0257 886.5,-2106.7 886.5,-2106.7 886.5,-2106.7 886.5,-1175.6 886.5,-1152.5603 882.6743,-1126.9945 878.7644,-1106.882"/>
<polygon fill="#000000" stroke="#000000" points="882.1575,-1106.0039 876.7318,-1096.9037 875.2983,-1107.4011 882.1575,-1106.0039"/>
<text text-anchor="middle" x="911.6958" y="-1616.2" font-family="Courier, monospace" font-size="14.00" fill="#000000">unwind</text>
</g>
<!-- bb6__0_3 -->
<g id="node7" class="node">
<title>bb6__0_3</title>
<polygon fill="#c0c0c0" stroke="transparent" points="419.5,-1982.4 419.5,-2004.4 777.5,-2004.4 777.5,-1982.4 419.5,-1982.4"/>
<polygon fill="none" stroke="#000000" points="419.5,-1982.4 419.5,-2004.4 777.5,-2004.4 777.5,-1982.4 419.5,-1982.4"/>
<text text-anchor="start" x="594.3007" y="-1988.8" font-family="Courier, monospace" font-size="14.00" fill="#000000">6</text>
<polygon fill="none" stroke="#000000" points="419.5,-1960.4 419.5,-1982.4 777.5,-1982.4 777.5,-1960.4 419.5,-1960.4"/>
<text text-anchor="start" x="422.5" y="-1966.8" font-family="Courier, monospace" font-size="14.00" fill="#000000">_17 = _18</text>
<polygon fill="none" stroke="#000000" points="419.5,-1938.4 419.5,-1960.4 777.5,-1960.4 777.5,-1938.4 419.5,-1938.4"/>
<text text-anchor="start" x="422.1294" y="-1944.8" font-family="Courier, monospace" font-size="14.00" fill="#000000">_15 = String::push_str(move _16, move _17)</text>
</g>
<!-- bb5__0_3&#45;&gt;bb6__0_3 -->
<g id="edge10" class="edge">
<title>bb5__0_3-&gt;bb6__0_3</title>
<path fill="none" stroke="#000000" d="M665.9675,-2060.8936C655.242,-2046.6666 643.428,-2030.9957 632.7237,-2016.7967"/>
<polygon fill="#000000" stroke="#000000" points="635.3806,-2014.5068 626.5659,-2008.6286 629.791,-2018.7207 635.3806,-2014.5068"/>
<text text-anchor="middle" x="677.6958" y="-2030.6" font-family="Courier, monospace" font-size="14.00" fill="#000000">return</text>
</g>
<!-- bb17__0_3 -->
<g id="node18" class="node">
<title>bb17__0_3</title>
<polygon fill="#add8e6" stroke="transparent" points="654.5,-1175.6 654.5,-1197.6 760.5,-1197.6 760.5,-1175.6 654.5,-1175.6"/>
<polygon fill="none" stroke="#000000" points="654.5,-1175.6 654.5,-1197.6 760.5,-1197.6 760.5,-1175.6 654.5,-1175.6"/>
<text text-anchor="start" x="657.1084" y="-1182" font-family="Courier, monospace" font-size="14.00" fill="#000000">17 (cleanup)</text>
<polygon fill="none" stroke="#000000" points="654.5,-1153.6 654.5,-1175.6 760.5,-1175.6 760.5,-1153.6 654.5,-1153.6"/>
<text text-anchor="start" x="657.5" y="-1160" font-family="Courier, monospace" font-size="14.00" fill="#000000">drop(_14)</text>
</g>
<!-- bb5__0_3&#45;&gt;bb17__0_3 -->
<g id="edge11" class="edge">
<title>bb5__0_3-&gt;bb17__0_3</title>
<path fill="none" stroke="#000000" d="M765.2501,-2061.1137C790.4982,-2037.7412 813.5,-2006.7481 813.5,-1971.4 813.5,-1971.4 813.5,-1971.4 813.5,-1291.4 813.5,-1256.6966 787.2775,-1227.8676 760.9173,-1207.6544"/>
<polygon fill="#000000" stroke="#000000" points="762.8919,-1204.762 752.761,-1201.661 758.7468,-1210.4029 762.8919,-1204.762"/>
<text text-anchor="middle" x="838.6958" y="-1616.2" font-family="Courier, monospace" font-size="14.00" fill="#000000">unwind</text>
</g>
<!-- bb7__0_3 -->
<g id="node8" class="node">
<title>bb7__0_3</title>
<polygon fill="#c0c0c0" stroke="transparent" points="164.5,-1855.6 164.5,-1877.6 699.5,-1877.6 699.5,-1855.6 164.5,-1855.6"/>
<polygon fill="none" stroke="#000000" points="164.5,-1855.6 164.5,-1877.6 699.5,-1877.6 699.5,-1855.6 164.5,-1855.6"/>
<text text-anchor="start" x="427.8007" y="-1862" font-family="Courier, monospace" font-size="14.00" fill="#000000">7</text>
<polygon fill="none" stroke="#000000" points="164.5,-1799.6 164.5,-1855.6 699.5,-1855.6 699.5,-1799.6 164.5,-1799.6"/>
<text text-anchor="start" x="167.5" y="-1840" font-family="Courier, monospace" font-size="14.00" fill="#000000">_31 = const _</text>
<text text-anchor="start" x="167.5" y="-1823.2" font-family="Courier, monospace" font-size="14.00" fill="#000000">_23 = _31 as &amp;[&amp;str] (PointerCoercion(Unsize))</text>
<text text-anchor="start" x="167.5" y="-1806.4" font-family="Courier, monospace" font-size="14.00" fill="#000000">_28 = &amp;_10</text>
<polygon fill="none" stroke="#000000" points="164.5,-1777.6 164.5,-1799.6 699.5,-1799.6 699.5,-1777.6 164.5,-1777.6"/>
<text text-anchor="start" x="167.4441" y="-1784" font-family="Courier, monospace" font-size="14.00" fill="#000000">_27 = core::fmt::rt::Argument::&lt;'_&gt;::new_display::&lt;String&gt;(_28)</text>
</g>
<!-- bb6__0_3&#45;&gt;bb7__0_3 -->
<g id="edge12" class="edge">
<title>bb6__0_3-&gt;bb7__0_3</title>
<path fill="none" stroke="#000000" d="M555.4934,-1934.3679C539.2574,-1920.3875 520.3265,-1904.0865 502.2171,-1888.4929"/>
<polygon fill="#000000" stroke="#000000" points="504.3782,-1885.735 494.5165,-1881.8621 499.8106,-1891.0395 504.3782,-1885.735"/>
<text text-anchor="middle" x="554.6958" y="-1903.8" font-family="Courier, monospace" font-size="14.00" fill="#000000">return</text>
</g>
<!-- bb6__0_3&#45;&gt;bb17__0_3 -->
<g id="edge13" class="edge">
<title>bb6__0_3-&gt;bb17__0_3</title>
<path fill="none" stroke="#000000" d="M664.5922,-1934.336C699.6257,-1909.3671 735.5,-1872.7708 735.5,-1827.6 735.5,-1827.6 735.5,-1827.6 735.5,-1620.4 735.5,-1442.0666 740.1873,-1396.3532 716.5,-1219.6 716.1647,-1217.0981 715.7703,-1214.5252 715.337,-1211.9395"/>
<polygon fill="#000000" stroke="#000000" points="718.765,-1211.2282 713.5167,-1202.0247 711.8801,-1212.4924 718.765,-1211.2282"/>
<text text-anchor="middle" x="760.6958" y="-1535.8" font-family="Courier, monospace" font-size="14.00" fill="#000000">unwind</text>
</g>
<!-- bb8__0_3 -->
<g id="node9" class="node">
<title>bb8__0_3</title>
<polygon fill="#c0c0c0" stroke="transparent" points="109.5,-1694.8 109.5,-1716.8 644.5,-1716.8 644.5,-1694.8 109.5,-1694.8"/>
<polygon fill="none" stroke="#000000" points="109.5,-1694.8 109.5,-1716.8 644.5,-1716.8 644.5,-1694.8 109.5,-1694.8"/>
<text text-anchor="start" x="372.8007" y="-1701.2" font-family="Courier, monospace" font-size="14.00" fill="#000000">8</text>
<polygon fill="none" stroke="#000000" points="109.5,-1672.8 109.5,-1694.8 644.5,-1694.8 644.5,-1672.8 109.5,-1672.8"/>
<text text-anchor="start" x="112.5" y="-1679.2" font-family="Courier, monospace" font-size="14.00" fill="#000000">_30 = &amp;_14</text>
<polygon fill="none" stroke="#000000" points="109.5,-1650.8 109.5,-1672.8 644.5,-1672.8 644.5,-1650.8 109.5,-1650.8"/>
<text text-anchor="start" x="112.4441" y="-1657.2" font-family="Courier, monospace" font-size="14.00" fill="#000000">_29 = core::fmt::rt::Argument::&lt;'_&gt;::new_display::&lt;String&gt;(_30)</text>
</g>
<!-- bb7__0_3&#45;&gt;bb8__0_3 -->
<g id="edge14" class="edge">
<title>bb7__0_3-&gt;bb8__0_3</title>
<path fill="none" stroke="#000000" d="M410.7069,-1773.2354C405.3216,-1759.1553 399.5708,-1744.1197 394.3512,-1730.4728"/>
<polygon fill="#000000" stroke="#000000" points="397.4987,-1728.9043 390.6572,-1720.8146 390.9606,-1731.4051 397.4987,-1728.9043"/>
<text text-anchor="middle" x="427.6958" y="-1743" font-family="Courier, monospace" font-size="14.00" fill="#000000">return</text>
</g>
<!-- bb7__0_3&#45;&gt;bb17__0_3 -->
<g id="edge15" class="edge">
<title>bb7__0_3-&gt;bb17__0_3</title>
<path fill="none" stroke="#000000" d="M603.6928,-1773.526C626.2253,-1759.6603 646.6154,-1742.3554 661.5,-1720.8 729.7651,-1621.9405 668.8339,-1570.71 681.1084,-1451.2 681.9329,-1443.1719 682.594,-1441.2193 683.5,-1433.2 692.397,-1354.4472 700.4311,-1261.8773 704.5651,-1211.9506"/>
<polygon fill="#000000" stroke="#000000" points="708.0549,-1212.2177 705.387,-1201.9643 701.0785,-1211.6435 708.0549,-1212.2177"/>
<text text-anchor="middle" x="705.6958" y="-1455.4" font-family="Courier, monospace" font-size="14.00" fill="#000000">unwind</text>
</g>
<!-- bb9__0_3 -->
<g id="node10" class="node">
<title>bb9__0_3</title>
<polygon fill="#c0c0c0" stroke="transparent" points="8.5,-1568 8.5,-1590 593.5,-1590 593.5,-1568 8.5,-1568"/>
<polygon fill="none" stroke="#000000" points="8.5,-1568 8.5,-1590 593.5,-1590 593.5,-1568 8.5,-1568"/>
<text text-anchor="start" x="296.8007" y="-1574.4" font-family="Courier, monospace" font-size="14.00" fill="#000000">9</text>
<polygon fill="none" stroke="#000000" points="8.5,-1512 8.5,-1568 593.5,-1568 593.5,-1512 8.5,-1512"/>
<text text-anchor="start" x="11.5" y="-1552.4" font-family="Courier, monospace" font-size="14.00" fill="#000000">_26 = [move _27, move _29]</text>
<text text-anchor="start" x="11.5" y="-1535.6" font-family="Courier, monospace" font-size="14.00" fill="#000000">_25 = &amp;_26</text>
<text text-anchor="start" x="11.5" y="-1518.8" font-family="Courier, monospace" font-size="14.00" fill="#000000">_24 = _25 as &amp;[core::fmt::rt::Argument&lt;'_&gt;] (PointerCoercion(Unsize))</text>
<polygon fill="none" stroke="#000000" points="8.5,-1490 8.5,-1512 593.5,-1512 593.5,-1490 8.5,-1490"/>
<text text-anchor="start" x="11.5" y="-1496.4" font-family="Courier, monospace" font-size="14.00" fill="#000000">_22 = Arguments::&lt;'_&gt;::new_v1(move _23, move _24)</text>
</g>
<!-- bb8__0_3&#45;&gt;bb9__0_3 -->
<g id="edge16" class="edge">
<title>bb8__0_3-&gt;bb9__0_3</title>
<path fill="none" stroke="#000000" d="M356.9281,-1646.7679C349.9351,-1633.5365 341.8436,-1618.2264 334.0101,-1603.4047"/>
<polygon fill="#000000" stroke="#000000" points="336.9453,-1601.4679 329.1782,-1594.2621 330.7565,-1604.7388 336.9453,-1601.4679"/>
<text text-anchor="middle" x="370.6958" y="-1616.2" font-family="Courier, monospace" font-size="14.00" fill="#000000">return</text>
</g>
<!-- bb8__0_3&#45;&gt;bb17__0_3 -->
<g id="edge17" class="edge">
<title>bb8__0_3-&gt;bb17__0_3</title>
<path fill="none" stroke="#000000" d="M539.9456,-1646.7108C588.7428,-1625.3182 629.5,-1591.9121 629.5,-1540 629.5,-1540 629.5,-1540 629.5,-1291.4 629.5,-1259.7428 649.8007,-1230.2475 669.6888,-1208.9475"/>
<polygon fill="#000000" stroke="#000000" points="672.2106,-1211.3746 676.6723,-1201.7651 667.1918,-1206.4949 672.2106,-1211.3746"/>
<text text-anchor="middle" x="654.6958" y="-1403" font-family="Courier, monospace" font-size="14.00" fill="#000000">unwind</text>
</g>
<!-- bb10__0_3 -->
<g id="node11" class="node">
<title>bb10__0_3</title>
<polygon fill="#c0c0c0" stroke="transparent" points="269.5,-1407.2 269.5,-1429.2 459.5,-1429.2 459.5,-1407.2 269.5,-1407.2"/>
<polygon fill="none" stroke="#000000" points="269.5,-1407.2 269.5,-1429.2 459.5,-1429.2 459.5,-1407.2 269.5,-1407.2"/>
<text text-anchor="start" x="356.1014" y="-1413.6" font-family="Courier, monospace" font-size="14.00" fill="#000000">10</text>
<polygon fill="none" stroke="#000000" points="269.5,-1385.2 269.5,-1407.2 459.5,-1407.2 459.5,-1385.2 269.5,-1385.2"/>
<text text-anchor="start" x="272.1154" y="-1391.6" font-family="Courier, monospace" font-size="14.00" fill="#000000">_21 = format(move _22)</text>
</g>
<!-- bb9__0_3&#45;&gt;bb10__0_3 -->
<g id="edge18" class="edge">
<title>bb9__0_3-&gt;bb10__0_3</title>
<path fill="none" stroke="#000000" d="M326.5313,-1485.9852C333.5489,-1471.4236 340.9636,-1456.0381 347.36,-1442.7655"/>
<polygon fill="#000000" stroke="#000000" points="350.6289,-1444.0443 351.8174,-1433.5164 344.323,-1441.0053 350.6289,-1444.0443"/>
<text text-anchor="middle" x="367.6958" y="-1455.4" font-family="Courier, monospace" font-size="14.00" fill="#000000">return</text>
</g>
<!-- bb9__0_3&#45;&gt;bb17__0_3 -->
<g id="edge19" class="edge">
<title>bb9__0_3-&gt;bb17__0_3</title>
<path fill="none" stroke="#000000" d="M405.5736,-1485.9119C430.2517,-1470.6704 455.4618,-1452.8266 476.5,-1433.2 518.1929,-1394.3044 519.4113,-1376.1981 550.5,-1328.4 581.2119,-1281.1813 573.8728,-1257.5474 615.5,-1219.6 622.0595,-1213.6204 629.5781,-1208.2953 637.4285,-1203.5978"/>
<polygon fill="#000000" stroke="#000000" points="639.3945,-1206.508 646.3995,-1198.5594 635.9666,-1200.4047 639.3945,-1206.508"/>
<text text-anchor="middle" x="563.6958" y="-1350.6" font-family="Courier, monospace" font-size="14.00" fill="#000000">unwind</text>
</g>
<!-- bb11__0_3 -->
<g id="node12" class="node">
<title>bb11__0_3</title>
<polygon fill="#c0c0c0" stroke="transparent" points="303.5,-1302.4 303.5,-1324.4 426.5,-1324.4 426.5,-1302.4 303.5,-1302.4"/>
<polygon fill="none" stroke="#000000" points="303.5,-1302.4 303.5,-1324.4 426.5,-1324.4 426.5,-1302.4 303.5,-1302.4"/>
<text text-anchor="start" x="356.6014" y="-1308.8" font-family="Courier, monospace" font-size="14.00" fill="#000000">11</text>
<polygon fill="none" stroke="#000000" points="303.5,-1280.4 303.5,-1302.4 426.5,-1302.4 426.5,-1280.4 303.5,-1280.4"/>
<text text-anchor="start" x="306.5" y="-1286.8" font-family="Courier, monospace" font-size="14.00" fill="#000000">_20 = move _21</text>
<polygon fill="none" stroke="#000000" points="303.5,-1258.4 303.5,-1280.4 426.5,-1280.4 426.5,-1258.4 303.5,-1258.4"/>
<text text-anchor="start" x="306.5" y="-1264.8" font-family="Courier, monospace" font-size="14.00" fill="#000000">drop(_20)</text>
</g>
<!-- bb10__0_3&#45;&gt;bb11__0_3 -->
<g id="edge20" class="edge">
<title>bb10__0_3-&gt;bb11__0_3</title>
<path fill="none" stroke="#000000" d="M364.5,-1380.9232C364.5,-1368.4655 364.5,-1353.1904 364.5,-1338.8087"/>
<polygon fill="#000000" stroke="#000000" points="368.0001,-1338.5475 364.5,-1328.5476 361.0001,-1338.5476 368.0001,-1338.5475"/>
<text text-anchor="middle" x="389.6958" y="-1350.6" font-family="Courier, monospace" font-size="14.00" fill="#000000">return</text>
</g>
<!-- bb10__0_3&#45;&gt;bb17__0_3 -->
<g id="edge21" class="edge">
<title>bb10__0_3-&gt;bb17__0_3</title>
<path fill="none" stroke="#000000" d="M399.024,-1381.177C405.7494,-1375.5338 412.5518,-1369.392 418.5,-1363.2 478.5556,-1300.6829 470.7963,-1253.6936 550.5,-1219.6 584.1093,-1205.2235 597.5284,-1211.3855 636.3621,-1201.6328"/>
<polygon fill="#000000" stroke="#000000" points="637.4796,-1204.9562 646.2154,-1198.9615 635.6479,-1198.2001 637.4796,-1204.9562"/>
<text text-anchor="middle" x="521.6958" y="-1287.2" font-family="Courier, monospace" font-size="14.00" fill="#000000">unwind</text>
</g>
<!-- bb12__0_3 -->
<g id="node13" class="node">
<title>bb12__0_3</title>
<polygon fill="#c0c0c0" stroke="transparent" points="539.5,-1175.6 539.5,-1197.6 620.5,-1197.6 620.5,-1175.6 539.5,-1175.6"/>
<polygon fill="none" stroke="#000000" points="539.5,-1175.6 539.5,-1197.6 620.5,-1197.6 620.5,-1175.6 539.5,-1175.6"/>
<text text-anchor="start" x="571.6014" y="-1182" font-family="Courier, monospace" font-size="14.00" fill="#000000">12</text>
<polygon fill="none" stroke="#000000" points="539.5,-1153.6 539.5,-1175.6 620.5,-1175.6 620.5,-1153.6 539.5,-1153.6"/>
<text text-anchor="start" x="542.2063" y="-1160" font-family="Courier, monospace" font-size="14.00" fill="#000000">drop(_14)</text>
</g>
<!-- bb11__0_3&#45;&gt;bb12__0_3 -->
<g id="edge22" class="edge">
<title>bb11__0_3-&gt;bb12__0_3</title>
<path fill="none" stroke="#000000" d="M345.0488,-1254.1117C341.5351,-1242.0056 341.1458,-1229.2273 349.1084,-1219.6 370.4838,-1193.756 459.7373,-1182.9535 520.6681,-1178.5356"/>
<polygon fill="#000000" stroke="#000000" points="521.2028,-1182.0073 530.9399,-1177.8313 520.7239,-1175.0237 521.2028,-1182.0073"/>
<text text-anchor="middle" x="374.6958" y="-1223.8" font-family="Courier, monospace" font-size="14.00" fill="#000000">return</text>
</g>
<!-- bb11__0_3&#45;&gt;bb17__0_3 -->
<g id="edge23" class="edge">
<title>bb11__0_3-&gt;bb17__0_3</title>
<path fill="none" stroke="#000000" d="M385.5222,-1254.1554C394.9411,-1240.9778 407.2943,-1227.4826 422.1084,-1219.6 462.1092,-1198.3154 576.6035,-1210.4777 636.2107,-1201.2919"/>
<polygon fill="#000000" stroke="#000000" points="637.1425,-1204.6783 646.3258,-1199.3946 635.8519,-1197.7982 637.1425,-1204.6783"/>
<text text-anchor="middle" x="446.6958" y="-1223.8" font-family="Courier, monospace" font-size="14.00" fill="#000000">unwind</text>
</g>
<!-- bb13__0_3 -->
<g id="node14" class="node">
<title>bb13__0_3</title>
<polygon fill="#c0c0c0" stroke="transparent" points="702.5,-1070.8 702.5,-1092.8 783.5,-1092.8 783.5,-1070.8 702.5,-1070.8"/>
<polygon fill="none" stroke="#000000" points="702.5,-1070.8 702.5,-1092.8 783.5,-1092.8 783.5,-1070.8 702.5,-1070.8"/>
<text text-anchor="start" x="734.6014" y="-1077.2" font-family="Courier, monospace" font-size="14.00" fill="#000000">13</text>
<polygon fill="none" stroke="#000000" points="702.5,-1048.8 702.5,-1070.8 783.5,-1070.8 783.5,-1048.8 702.5,-1048.8"/>
<text text-anchor="start" x="705.2063" y="-1055.2" font-family="Courier, monospace" font-size="14.00" fill="#000000">drop(_12)</text>
</g>
<!-- bb12__0_3&#45;&gt;bb13__0_3 -->
<g id="edge24" class="edge">
<title>bb12__0_3-&gt;bb13__0_3</title>
<path fill="none" stroke="#000000" d="M601.4993,-1149.3462C612.2568,-1137.6743 625.9276,-1124.4272 640.1084,-1114.8 653.6962,-1105.5753 669.5303,-1097.6306 684.6273,-1091.1311"/>
<polygon fill="#000000" stroke="#000000" points="686.016,-1094.3443 693.9053,-1087.2725 683.328,-1087.8809 686.016,-1094.3443"/>
<text text-anchor="middle" x="664.6958" y="-1119" font-family="Courier, monospace" font-size="14.00" fill="#000000">return</text>
</g>
<!-- bb12__0_3&#45;&gt;bb18__0_3 -->
<g id="edge25" class="edge">
<title>bb12__0_3-&gt;bb18__0_3</title>
<path fill="none" stroke="#000000" d="M628.0932,-1153.4182C631.2634,-1152.0947 634.4189,-1150.8107 637.5,-1149.6 660.6536,-1140.5019 667.5432,-1141.1837 690.5,-1131.6 705.9104,-1125.1667 708.4071,-1120.4866 724.1084,-1114.8 754.2149,-1103.8963 765.284,-1106.3474 799.4453,-1096.9"/>
<polygon fill="#000000" stroke="#000000" points="800.5635,-1100.2198 809.1867,-1094.0642 798.6069,-1093.4988 800.5635,-1100.2198"/>
<text text-anchor="middle" x="748.6958" y="-1119" font-family="Courier, monospace" font-size="14.00" fill="#000000">unwind</text>
</g>
<!-- bb14__0_3 -->
<g id="node15" class="node">
<title>bb14__0_3</title>
<polygon fill="#c0c0c0" stroke="transparent" points="724.5,-966 724.5,-988 805.5,-988 805.5,-966 724.5,-966"/>
<polygon fill="none" stroke="#000000" points="724.5,-966 724.5,-988 805.5,-988 805.5,-966 724.5,-966"/>
<text text-anchor="start" x="756.6014" y="-972.4" font-family="Courier, monospace" font-size="14.00" fill="#000000">14</text>
<polygon fill="none" stroke="#000000" points="724.5,-944 724.5,-966 805.5,-966 805.5,-944 724.5,-944"/>
<text text-anchor="start" x="727.2063" y="-950.4" font-family="Courier, monospace" font-size="14.00" fill="#000000">drop(_10)</text>
</g>
<!-- bb13__0_3&#45;&gt;bb14__0_3 -->
<g id="edge26" class="edge">
<title>bb13__0_3-&gt;bb14__0_3</title>
<path fill="none" stroke="#000000" d="M742.7707,-1044.5048C743.3256,-1033.7039 744.5462,-1021.1419 747.1084,-1010 747.747,-1007.2233 748.5318,-1004.3912 749.4115,-1001.5697"/>
<polygon fill="#000000" stroke="#000000" points="752.7209,-1002.7086 752.6934,-992.1138 746.1079,-1000.4134 752.7209,-1002.7086"/>
<text text-anchor="middle" x="771.6958" y="-1014.2" font-family="Courier, monospace" font-size="14.00" fill="#000000">return</text>
</g>
<!-- bb13__0_3&#45;&gt;bb19__0_3 -->
<g id="edge27" class="edge">
<title>bb13__0_3-&gt;bb19__0_3</title>
<path fill="none" stroke="#000000" d="M778.7969,-1044.5215C794.1596,-1033.6082 812.3486,-1020.9591 829.1084,-1010 835.3708,-1005.9051 842.0031,-1001.7 848.6111,-997.5903"/>
<polygon fill="#000000" stroke="#000000" points="850.896,-1000.2932 857.5698,-992.0645 847.2211,-994.3354 850.896,-1000.2932"/>
<text text-anchor="middle" x="853.6958" y="-1014.2" font-family="Courier, monospace" font-size="14.00" fill="#000000">unwind</text>
</g>
<!-- bb15__0_3 -->
<g id="node16" class="node">
<title>bb15__0_3</title>
<polygon fill="#c0c0c0" stroke="transparent" points="728.5,-861.2 728.5,-883.2 801.5,-883.2 801.5,-861.2 728.5,-861.2"/>
<polygon fill="none" stroke="#000000" points="728.5,-861.2 728.5,-883.2 801.5,-883.2 801.5,-861.2 728.5,-861.2"/>
<text text-anchor="start" x="756.6014" y="-867.6" font-family="Courier, monospace" font-size="14.00" fill="#000000">15</text>
<polygon fill="none" stroke="#000000" points="728.5,-839.2 728.5,-861.2 801.5,-861.2 801.5,-839.2 728.5,-839.2"/>
<text text-anchor="start" x="731.4056" y="-845.6" font-family="Courier, monospace" font-size="14.00" fill="#000000">drop(_4)</text>
</g>
<!-- bb14__0_3&#45;&gt;bb15__0_3 -->
<g id="edge28" class="edge">
<title>bb14__0_3-&gt;bb15__0_3</title>
<path fill="none" stroke="#000000" d="M764.5,-939.8249C764.5,-927.0705 764.5,-911.5231 764.5,-897.6314"/>
<polygon fill="#000000" stroke="#000000" points="768.0001,-897.4046 764.5,-887.4047 761.0001,-897.4047 768.0001,-897.4046"/>
<text text-anchor="middle" x="789.6958" y="-909.4" font-family="Courier, monospace" font-size="14.00" fill="#000000">return</text>
</g>
<!-- bb14__0_3&#45;&gt;bb20__0_3 -->
<g id="edge29" class="edge">
<title>bb14__0_3-&gt;bb20__0_3</title>
<path fill="none" stroke="#000000" d="M813.0518,-941.5412C836.2089,-930.1224 864.4085,-916.5726 890.1084,-905.2 902.6109,-899.6675 916.0356,-894.0268 929.0503,-888.7111"/>
<polygon fill="#000000" stroke="#000000" points="930.4845,-891.9064 938.4355,-884.904 927.8532,-885.4197 930.4845,-891.9064"/>
<text text-anchor="middle" x="914.6958" y="-909.4" font-family="Courier, monospace" font-size="14.00" fill="#000000">unwind</text>
</g>
<!-- bb16__0_3 -->
<g id="node17" class="node">
<title>bb16__0_3</title>
<polygon fill="#c0c0c0" stroke="transparent" points="736.5,-756.4 736.5,-778.4 792.5,-778.4 792.5,-756.4 736.5,-756.4"/>
<polygon fill="none" stroke="#000000" points="736.5,-756.4 736.5,-778.4 792.5,-778.4 792.5,-756.4 736.5,-756.4"/>
<text text-anchor="start" x="756.1014" y="-762.8" font-family="Courier, monospace" font-size="14.00" fill="#000000">16</text>
<polygon fill="none" stroke="#000000" points="736.5,-734.4 736.5,-756.4 792.5,-756.4 792.5,-734.4 736.5,-734.4"/>
<text text-anchor="start" x="739.3042" y="-740.8" font-family="Courier, monospace" font-size="14.00" fill="#000000">return</text>
</g>
<!-- bb15__0_3&#45;&gt;bb16__0_3 -->
<g id="edge30" class="edge">
<title>bb15__0_3-&gt;bb16__0_3</title>
<path fill="none" stroke="#000000" d="M764.5,-835.0249C764.5,-822.2705 764.5,-806.7231 764.5,-792.8314"/>
<polygon fill="#000000" stroke="#000000" points="768.0001,-792.6046 764.5,-782.6047 761.0001,-792.6047 768.0001,-792.6046"/>
<text text-anchor="middle" x="789.6958" y="-804.6" font-family="Courier, monospace" font-size="14.00" fill="#000000">return</text>
</g>
<!-- bb17__0_3&#45;&gt;bb18__0_3 -->
<g id="edge31" class="edge">
<title>bb17__0_3-&gt;bb18__0_3</title>
<path fill="none" stroke="#000000" d="M748.2113,-1149.4249C770.4666,-1135.116 798.1892,-1117.2918 821.6096,-1102.2338"/>
<polygon fill="#000000" stroke="#000000" points="823.5068,-1105.1751 830.0254,-1096.8229 819.7211,-1099.287 823.5068,-1105.1751"/>
<text text-anchor="middle" x="823.6958" y="-1119" font-family="Courier, monospace" font-size="14.00" fill="#000000">return</text>
</g>
<!-- bb18__0_3&#45;&gt;bb19__0_3 -->
<g id="edge32" class="edge">
<title>bb18__0_3-&gt;bb19__0_3</title>
<path fill="none" stroke="#000000" d="M878.2426,-1044.6249C882.0524,-1031.7454 886.7046,-1016.018 890.8443,-1002.0233"/>
<polygon fill="#000000" stroke="#000000" points="894.2683,-1002.7867 893.7486,-992.2047 887.5558,-1000.8011 894.2683,-1002.7867"/>
<text text-anchor="middle" x="912.6958" y="-1014.2" font-family="Courier, monospace" font-size="14.00" fill="#000000">return</text>
</g>
<!-- bb19__0_3&#45;&gt;bb20__0_3 -->
<g id="edge33" class="edge">
<title>bb19__0_3-&gt;bb20__0_3</title>
<path fill="none" stroke="#000000" d="M925.9767,-939.8249C938.7221,-926.1952 954.4499,-909.376 968.0838,-894.7961"/>
<polygon fill="#000000" stroke="#000000" points="970.7219,-897.0993 974.9956,-887.4047 965.6091,-892.3182 970.7219,-897.0993"/>
<text text-anchor="middle" x="980.6958" y="-909.4" font-family="Courier, monospace" font-size="14.00" fill="#000000">return</text>
</g>
<!-- bb21__0_3 -->
<g id="node22" class="node">
<title>bb21__0_3</title>
<polygon fill="#add8e6" stroke="transparent" points="946.5,-756.4 946.5,-778.4 1052.5,-778.4 1052.5,-756.4 946.5,-756.4"/>
<polygon fill="none" stroke="#000000" points="946.5,-756.4 946.5,-778.4 1052.5,-778.4 1052.5,-756.4 946.5,-756.4"/>
<text text-anchor="start" x="949.1084" y="-762.8" font-family="Courier, monospace" font-size="14.00" fill="#000000">21 (cleanup)</text>
<polygon fill="none" stroke="#000000" points="946.5,-734.4 946.5,-756.4 1052.5,-756.4 1052.5,-734.4 946.5,-734.4"/>
<text text-anchor="start" x="949.5" y="-740.8" font-family="Courier, monospace" font-size="14.00" fill="#000000">resume</text>
</g>
<!-- bb20__0_3&#45;&gt;bb21__0_3 -->
<g id="edge34" class="edge">
<title>bb20__0_3-&gt;bb21__0_3</title>
<path fill="none" stroke="#000000" d="M999.5,-835.0249C999.5,-822.2705 999.5,-806.7231 999.5,-792.8314"/>
<polygon fill="#000000" stroke="#000000" points="1003.0001,-792.6046 999.5,-782.6047 996.0001,-792.6047 1003.0001,-792.6046"/>
<text text-anchor="middle" x="1024.6958" y="-804.6" font-family="Courier, monospace" font-size="14.00" fill="#000000">return</text>
</g>
</g>
</svg>