<?xml version="1.0" encoding="UTF-8" standalone="no"?><!DOCTYPE svg PUBLIC "-//W3C//DTD SVG 1.1//EN" "http://www.w3.org/Graphics/SVG/1.1/DTD/svg11.dtd"><!-- Generated by graphviz version 2.40.1 (20161225.0304)
 --><!-- Title: Mir_0_3 Pages: 1 --><svg xmlns="http://www.w3.org/2000/svg" xmlns:xlink="http://www.w3.org/1999/xlink" width="903pt" height="1116pt" viewBox="0.00 0.00 903.00 1116.20">
<g id="graph0" class="graph" transform="scale(1 1) rotate(0) translate(4 1112.2)">
<title>Mir_0_3</title>
<polygon fill="#ffffff" stroke="transparent" points="-4,4 -4,-1112.2 899,-1112.2 899,4 -4,4"/>
<text text-anchor="start" x="266.9301" y="-226.6" font-family="Courier, monospace" font-size="14.00" fill="#000000">fn main() -&gt; ()</text>
<text text-anchor="start" x="266.9301" y="-209.8" font-family="Courier, monospace" font-size="14.00" fill="#000000">let mut _1: i32;</text>
<text text-anchor="start" x="266.9301" y="-193" font-family="Courier, monospace" font-size="14.00" fill="#000000">let mut _2: i32;</text>
<text text-anchor="start" x="266.9301" y="-176.2" font-family="Courier, monospace" font-size="14.00" fill="#000000">let _3: ();</text>
<text text-anchor="start" x="266.9301" y="-159.4" font-family="Courier, monospace" font-size="14.00" fill="#000000">let mut _4: std::fmt::Arguments&lt;'_&gt;;</text>
<text text-anchor="start" x="266.9301" y="-142.6" font-family="Courier, monospace" font-size="14.00" fill="#000000">let mut _5: &amp;[&amp;str];</text>
<text text-anchor="start" x="266.9301" y="-125.8" font-family="Courier, monospace" font-size="14.00" fill="#000000">let mut _6: &amp;[core::fmt::rt::Argument&lt;'_&gt;];</text>
<text text-anchor="start" x="266.9301" y="-109" font-family="Courier, monospace" font-size="14.00" fill="#000000">let _7: &amp;[core::fmt::rt::Argument&lt;'_&gt;; 1];</text>
<text text-anchor="start" x="266.9301" y="-92.2" font-family="Courier, monospace" font-size="14.00" fill="#000000">let _8: [core::fmt::rt::Argument&lt;'_&gt;; 1];</text>
<text text-anchor="start" x="266.9301" y="-75.4" font-family="Courier, monospace" font-size="14.00" fill="#000000">let mut _9: core::fmt::rt::Argument&lt;'_&gt;;</text>
<text text-anchor="start" x="266.9301" y="-58.6" font-family="Courier, monospace" font-size="14.00" fill="#000000">let _10: &amp;i32;</text>
<text text-anchor="start" x="266.9301" y="-41.8" font-family="Courier, monospace" font-size="14.00" fill="#000000">let mut _11: (i32, bool);</text>
<text text-anchor="start" x="266.9301" y="-25" font-family="Courier, monospace" font-size="14.00" fill="#000000">let mut _12: &amp;[&amp;str; 2];</text>
<text text-anchor="start" x="266.9301" y="-8.2" font-family="Courier, monospace" font-size="14.00" fill="#000000">debug c =&gt; _1;</text>
<!-- bb0__0_3 -->
<g id="node1" class="node">
<title>bb0__0_3</title>
<polygon fill="#c0c0c0" stroke="transparent" points="738.5,-1082.2 738.5,-1104.2 878.5,-1104.2 878.5,-1082.2 738.5,-1082.2"/>
<polygon fill="none" stroke="#000000" points="738.5,-1082.2 738.5,-1104.2 878.5,-1104.2 878.5,-1082.2 738.5,-1082.2"/>
<text text-anchor="start" x="804.3007" y="-1088.6" font-family="Courier, monospace" font-size="14.00" fill="#000000">0</text>
<polygon fill="none" stroke="#000000" points="738.5,-1060.2 738.5,-1082.2 878.5,-1082.2 878.5,-1060.2 738.5,-1060.2"/>
<text text-anchor="start" x="741.5" y="-1066.6" font-family="Courier, monospace" font-size="14.00" fill="#000000">_1 = const 4_i32</text>
<polygon fill="none" stroke="#000000" points="738.5,-1038.2 738.5,-1060.2 878.5,-1060.2 878.5,-1038.2 738.5,-1038.2"/>
<text text-anchor="start" x="741.5" y="-1044.6" font-family="Courier, monospace" font-size="14.00" fill="#000000">goto</text>
</g>
<!-- bb1__0_3 -->
<g id="node2" class="node">
<title>bb1__0_3</title>
<polygon fill="#c0c0c0" stroke="transparent" points="730.5,-971.2 730.5,-993.2 887.5,-993.2 887.5,-971.2 730.5,-971.2"/>
<polygon fill="none" stroke="#000000" points="730.5,-971.2 730.5,-993.2 887.5,-993.2 887.5,-971.2 730.5,-971.2"/>
<text text-anchor="start" x="804.8007" y="-977.6" font-family="Courier, monospace" font-size="14.00" fill="#000000">1</text>
<polygon fill="none" stroke="#000000" points="730.5,-949.2 730.5,-971.2 887.5,-971.2 887.5,-949.2 730.5,-949.2"/>
<text text-anchor="start" x="733.5" y="-955.6" font-family="Courier, monospace" font-size="14.00" fill="#000000">_2 = _1</text>
<polygon fill="none" stroke="#000000" points="730.5,-927.2 730.5,-949.2 887.5,-949.2 887.5,-927.2 730.5,-927.2"/>
<text text-anchor="start" x="733.4126" y="-933.6" font-family="Courier, monospace" font-size="14.00" fill="#000000">switchInt(move _2)</text>
</g>
<!-- bb0__0_3&#45;&gt;bb1__0_3 -->
<g id="edge1" class="edge">
<title>bb0__0_3-&gt;bb1__0_3</title>
<path fill="none" stroke="#000000" d="M808.5,-1033.9298C808.5,-1025.5099 808.5,-1016.4603 808.5,-1007.6839"/>
<polygon fill="#000000" stroke="#000000" points="812.0001,-1007.5607 808.5,-997.5608 805.0001,-1007.5608 812.0001,-1007.5607"/>
</g>
<!-- bb2__0_3 -->
<g id="node3" class="node">
<title>bb2__0_3</title>
<polygon fill="#c0c0c0" stroke="transparent" points="244.5,-844.4 244.5,-866.4 745.5,-866.4 745.5,-844.4 244.5,-844.4"/>
<polygon fill="none" stroke="#000000" points="244.5,-844.4 244.5,-866.4 745.5,-866.4 745.5,-844.4 244.5,-844.4"/>
<text text-anchor="start" x="490.8007" y="-850.8" font-family="Courier, monospace" font-size="14.00" fill="#000000">2</text>
<polygon fill="none" stroke="#000000" points="244.5,-788.4 244.5,-844.4 745.5,-844.4 745.5,-788.4 244.5,-788.4"/>
<text text-anchor="start" x="247.5" y="-828.8" font-family="Courier, monospace" font-size="14.00" fill="#000000">_12 = const _</text>
<text text-anchor="start" x="247.5" y="-812" font-family="Courier, monospace" font-size="14.00" fill="#000000">_5 = _12 as &amp;[&amp;str] (PointerCoercion(Unsize))</text>
<text text-anchor="start" x="247.5" y="-795.2" font-family="Courier, monospace" font-size="14.00" fill="#000000">_10 = &amp;_1</text>
<polygon fill="none" stroke="#000000" points="244.5,-766.4 244.5,-788.4 745.5,-788.4 745.5,-766.4 244.5,-766.4"/>
<text text-anchor="start" x="247.2413" y="-772.8" font-family="Courier, monospace" font-size="14.00" fill="#000000">_9 = core::fmt::rt::Argument::&lt;'_&gt;::new_display::&lt;i32&gt;(_10)</text>
</g>
<!-- bb1__0_3&#45;&gt;bb2__0_3 -->
<g id="edge3" class="edge">
<title>bb1__0_3-&gt;bb2__0_3</title>
<path fill="none" stroke="#000000" d="M727.6372,-923.1679C695.5273,-908.4628 657.811,-891.1902 622.1831,-874.874"/>
<polygon fill="#000000" stroke="#000000" points="623.2366,-871.5069 612.6874,-870.5253 620.322,-877.8713 623.2366,-871.5069"/>
<text text-anchor="middle" x="718.2937" y="-892.6" font-family="Courier, monospace" font-size="14.00" fill="#000000">otherwise</text>
</g>
<!-- bb7__0_3 -->
<g id="node8" class="node">
<title>bb7__0_3</title>
<polygon fill="#c0c0c0" stroke="transparent" points="780.5,-816.4 780.5,-838.4 836.5,-838.4 836.5,-816.4 780.5,-816.4"/>
<polygon fill="none" stroke="#000000" points="780.5,-816.4 780.5,-838.4 836.5,-838.4 836.5,-816.4 780.5,-816.4"/>
<text text-anchor="start" x="804.3007" y="-822.8" font-family="Courier, monospace" font-size="14.00" fill="#000000">7</text>
<polygon fill="none" stroke="#000000" points="780.5,-794.4 780.5,-816.4 836.5,-816.4 836.5,-794.4 780.5,-794.4"/>
<text text-anchor="start" x="783.3042" y="-800.8" font-family="Courier, monospace" font-size="14.00" fill="#000000">return</text>
</g>
<!-- bb1__0_3&#45;&gt;bb7__0_3 -->
<g id="edge2" class="edge">
<title>bb1__0_3-&gt;bb7__0_3</title>
<path fill="none" stroke="#000000" d="M808.5,-923.1679C808.5,-901.4276 808.5,-874.0754 808.5,-852.4987"/>
<polygon fill="#000000" stroke="#000000" points="812.0001,-852.4202 808.5,-842.4203 805.0001,-852.4203 812.0001,-852.4202"/>
<text text-anchor="middle" x="812.6993" y="-892.6" font-family="Courier, monospace" font-size="14.00" fill="#000000">0</text>
</g>
<!-- bb3__0_3 -->
<g id="node4" class="node">
<title>bb3__0_3</title>
<polygon fill="#c0c0c0" stroke="transparent" points="203.5,-683.6 203.5,-705.6 771.5,-705.6 771.5,-683.6 203.5,-683.6"/>
<polygon fill="none" stroke="#000000" points="203.5,-683.6 203.5,-705.6 771.5,-705.6 771.5,-683.6 203.5,-683.6"/>
<text text-anchor="start" x="483.3007" y="-690" font-family="Courier, monospace" font-size="14.00" fill="#000000">3</text>
<polygon fill="none" stroke="#000000" points="203.5,-627.6 203.5,-683.6 771.5,-683.6 771.5,-627.6 203.5,-627.6"/>
<text text-anchor="start" x="206.5" y="-668" font-family="Courier, monospace" font-size="14.00" fill="#000000">_8 = [move _9]</text>
<text text-anchor="start" x="206.5" y="-651.2" font-family="Courier, monospace" font-size="14.00" fill="#000000">_7 = &amp;_8</text>
<text text-anchor="start" x="206.5" y="-634.4" font-family="Courier, monospace" font-size="14.00" fill="#000000">_6 = _7 as &amp;[core::fmt::rt::Argument&lt;'_&gt;] (PointerCoercion(Unsize))</text>
<polygon fill="none" stroke="#000000" points="203.5,-605.6 203.5,-627.6 771.5,-627.6 771.5,-605.6 203.5,-605.6"/>
<text text-anchor="start" x="206.5" y="-612" font-family="Courier, monospace" font-size="14.00" fill="#000000">_4 = Arguments::&lt;'_&gt;::new_v1(move _5, move _6)</text>
</g>
<!-- bb2__0_3&#45;&gt;bb3__0_3 -->
<g id="edge4" class="edge">
<title>bb2__0_3-&gt;bb3__0_3</title>
<path fill="none" stroke="#000000" d="M492.1301,-761.9605C491.5397,-748.3969 490.9011,-733.7291 490.2924,-719.7458"/>
<polygon fill="#000000" stroke="#000000" points="493.7872,-719.5486 489.8556,-709.7104 486.7939,-719.8531 493.7872,-719.5486"/>
<text text-anchor="middle" x="516.6958" y="-731.8" font-family="Courier, monospace" font-size="14.00" fill="#000000">return</text>
</g>
<!-- bb4__0_3 -->
<g id="node5" class="node">
<title>bb4__0_3</title>
<polygon fill="#c0c0c0" stroke="transparent" points="374.5,-522.8 374.5,-544.8 547.5,-544.8 547.5,-522.8 374.5,-522.8"/>
<polygon fill="none" stroke="#000000" points="374.5,-522.8 374.5,-544.8 547.5,-544.8 547.5,-522.8 374.5,-522.8"/>
<text text-anchor="start" x="456.8007" y="-529.2" font-family="Courier, monospace" font-size="14.00" fill="#000000">4</text>
<polygon fill="none" stroke="#000000" points="374.5,-500.8 374.5,-522.8 547.5,-522.8 547.5,-500.8 374.5,-500.8"/>
<text text-anchor="start" x="377.014" y="-507.2" font-family="Courier, monospace" font-size="14.00" fill="#000000">_3 = _print(move _4)</text>
</g>
<!-- bb3__0_3&#45;&gt;bb4__0_3 -->
<g id="edge5" class="edge">
<title>bb3__0_3-&gt;bb4__0_3</title>
<path fill="none" stroke="#000000" d="M476.5181,-601.5852C473.615,-587.3063 470.5508,-572.2353 467.8886,-559.141"/>
<polygon fill="#000000" stroke="#000000" points="471.2727,-558.2185 465.8505,-549.1164 464.4131,-559.6132 471.2727,-558.2185"/>
<text text-anchor="middle" x="497.6958" y="-571" font-family="Courier, monospace" font-size="14.00" fill="#000000">return</text>
</g>
<!-- bb5__0_3 -->
<g id="node6" class="node">
<title>bb5__0_3</title>
<polygon fill="#c0c0c0" stroke="transparent" points="8.5,-418 8.5,-440 837.5,-440 837.5,-418 8.5,-418"/>
<polygon fill="none" stroke="#000000" points="8.5,-418 8.5,-440 837.5,-440 837.5,-418 8.5,-418"/>
<text text-anchor="start" x="418.8007" y="-424.4" font-family="Courier, monospace" font-size="14.00" fill="#000000">5</text>
<polygon fill="none" stroke="#000000" points="8.5,-396 8.5,-418 837.5,-418 837.5,-396 8.5,-396"/>
<text text-anchor="start" x="11.5" y="-402.4" font-family="Courier, monospace" font-size="14.00" fill="#000000">_11 = CheckedSub(_1, const 1_i32)</text>
<polygon fill="none" stroke="#000000" points="8.5,-374 8.5,-396 837.5,-396 837.5,-374 8.5,-374"/>
<text text-anchor="start" x="11.4686" y="-380.4" font-family="Courier, monospace" font-size="14.00" fill="#000000">assert(!move (_11.1: bool), "attempt to compute `{} - {}`, which would overflow", _1, const 1_i32)</text>
</g>
<!-- bb4__0_3&#45;&gt;bb5__0_3 -->
<g id="edge6" class="edge">
<title>bb4__0_3-&gt;bb5__0_3</title>
<path fill="none" stroke="#000000" d="M451.8772,-496.5232C447.7495,-483.9445 442.6792,-468.4935 437.9199,-453.9901"/>
<polygon fill="#000000" stroke="#000000" points="441.1336,-452.5578 434.6901,-444.1476 434.4825,-454.7404 441.1336,-452.5578"/>
<text text-anchor="middle" x="471.6958" y="-466.2" font-family="Courier, monospace" font-size="14.00" fill="#000000">return</text>
</g>
<!-- bb6__0_3 -->
<g id="node7" class="node">
<title>bb6__0_3</title>
<polygon fill="#c0c0c0" stroke="transparent" points="553.5,-291.2 553.5,-313.2 743.5,-313.2 743.5,-291.2 553.5,-291.2"/>
<polygon fill="none" stroke="#000000" points="553.5,-291.2 553.5,-313.2 743.5,-313.2 743.5,-291.2 553.5,-291.2"/>
<text text-anchor="start" x="644.3007" y="-297.6" font-family="Courier, monospace" font-size="14.00" fill="#000000">6</text>
<polygon fill="none" stroke="#000000" points="553.5,-269.2 553.5,-291.2 743.5,-291.2 743.5,-269.2 553.5,-269.2"/>
<text text-anchor="start" x="556.5" y="-275.6" font-family="Courier, monospace" font-size="14.00" fill="#000000">_1 = move (_11.0: i32)</text>
<polygon fill="none" stroke="#000000" points="553.5,-247.2 553.5,-269.2 743.5,-269.2 743.5,-247.2 553.5,-247.2"/>
<text text-anchor="start" x="556.5" y="-253.6" font-family="Courier, monospace" font-size="14.00" fill="#000000">goto</text>
</g>
<!-- bb5__0_3&#45;&gt;bb6__0_3 -->
<g id="edge7" class="edge">
<title>bb5__0_3-&gt;bb6__0_3</title>
<path fill="none" stroke="#000000" d="M488.4761,-369.9833C515.1631,-355.0103 546.109,-337.6477 573.6348,-322.204"/>
<polygon fill="#000000" stroke="#000000" points="575.4334,-325.2082 582.4419,-317.2627 572.0082,-319.1034 575.4334,-325.2082"/>
<text text-anchor="middle" x="578.8951" y="-339.4" font-family="Courier, monospace" font-size="14.00" fill="#000000">success</text>
</g>
<!-- bb6__0_3&#45;&gt;bb1__0_3 -->
<g id="edge8" class="edge">
<title>bb6__0_3-&gt;bb1__0_3</title>
<path fill="none" stroke="#000000" d="M751.7807,-297.8352C810.9294,-314.5164 873.5,-346.468 873.5,-407 873.5,-816.4 873.5,-816.4 873.5,-816.4 873.5,-851.5049 857.2163,-887.4931 840.9494,-914.686"/>
<polygon fill="#000000" stroke="#000000" points="837.9713,-912.8473 835.6892,-923.1935 843.9251,-916.5286 837.9713,-912.8473"/>
</g>
</g>
</svg>