<?xml version="1.0" encoding="UTF-8" standalone="no"?><!DOCTYPE svg PUBLIC "-//W3C//DTD SVG 1.1//EN" "http://www.w3.org/Graphics/SVG/1.1/DTD/svg11.dtd"><!-- Generated by graphviz version 2.40.1 (20161225.0304)
 --><!-- Title: Mir_0_3 Pages: 1 --><svg xmlns="http://www.w3.org/2000/svg" xmlns:xlink="http://www.w3.org/1999/xlink" width="824pt" height="713pt" viewBox="0.00 0.00 824.00 712.60">
<g id="graph0" class="graph" transform="scale(1 1) rotate(0) translate(4 708.6)">
<title>Mir_0_3</title>
<polygon fill="#ffffff" stroke="transparent" points="-4,4 -4,-708.6 820,-708.6 820,4 -4,4"/>
<text text-anchor="start" x="256.8252" y="-226.6" font-family="Courier, monospace" font-size="14.00" fill="#000000">fn main() -&gt; ()</text>
<text text-anchor="start" x="256.8252" y="-209.8" font-family="Courier, monospace" font-size="14.00" fill="#000000">let _1: bool;</text>
<text text-anchor="start" x="256.8252" y="-193" font-family="Courier, monospace" font-size="14.00" fill="#000000">let _2: bool;</text>
<text text-anchor="start" x="256.8252" y="-176.2" font-family="Courier, monospace" font-size="14.00" fill="#000000">let mut _3: bool;</text>
<text text-anchor="start" x="256.8252" y="-159.4" font-family="Courier, monospace" font-size="14.00" fill="#000000">let _4: ();</text>
<text text-anchor="start" x="256.8252" y="-142.6" font-family="Courier, monospace" font-size="14.00" fill="#000000">let mut _5: std::fmt::Arguments&lt;'_&gt;;</text>
<text text-anchor="start" x="256.8252" y="-125.8" font-family="Courier, monospace" font-size="14.00" fill="#000000">let mut _6: &amp;[&amp;str];</text>
<text text-anchor="start" x="256.8252" y="-109" font-family="Courier, monospace" font-size="14.00" fill="#000000">let _7: ();</text>
<text text-anchor="start" x="256.8252" y="-92.2" font-family="Courier, monospace" font-size="14.00" fill="#000000">let mut _8: std::fmt::Arguments&lt;'_&gt;;</text>
<text text-anchor="start" x="256.8252" y="-75.4" font-family="Courier, monospace" font-size="14.00" fill="#000000">let mut _9: &amp;[&amp;str];</text>
<text text-anchor="start" x="256.8252" y="-58.6" font-family="Courier, monospace" font-size="14.00" fill="#000000">let mut _10: &amp;[&amp;str; 1];</text>
<text text-anchor="start" x="256.8252" y="-41.8" font-family="Courier, monospace" font-size="14.00" fill="#000000">let mut _11: &amp;[&amp;str; 1];</text>
<text text-anchor="start" x="256.8252" y="-25" font-family="Courier, monospace" font-size="14.00" fill="#000000">debug t =&gt; const true;</text>
<text text-anchor="start" x="256.8252" y="-8.2" font-family="Courier, monospace" font-size="14.00" fill="#000000">debug f =&gt; const false;</text>
<!-- bb0__0_3 -->
<g id="node1" class="node">
<title>bb0__0_3</title>
<polygon fill="#c0c0c0" stroke="transparent" points="329.5,-678.6 329.5,-700.6 486.5,-700.6 486.5,-678.6 329.5,-678.6"/>
<polygon fill="none" stroke="#000000" points="329.5,-678.6 329.5,-700.6 486.5,-700.6 486.5,-678.6 329.5,-678.6"/>
<text text-anchor="start" x="403.8007" y="-685" font-family="Courier, monospace" font-size="14.00" fill="#000000">0</text>
<polygon fill="none" stroke="#000000" points="329.5,-622.6 329.5,-678.6 486.5,-678.6 486.5,-622.6 329.5,-622.6"/>
<text text-anchor="start" x="332.5" y="-663" font-family="Courier, monospace" font-size="14.00" fill="#000000">_1 = const true</text>
<text text-anchor="start" x="332.5" y="-646.2" font-family="Courier, monospace" font-size="14.00" fill="#000000">_2 = const false</text>
<text text-anchor="start" x="332.5" y="-629.4" font-family="Courier, monospace" font-size="14.00" fill="#000000">_3 = Eq(_1, _2)</text>
<polygon fill="none" stroke="#000000" points="329.5,-600.6 329.5,-622.6 486.5,-622.6 486.5,-600.6 329.5,-600.6"/>
<text text-anchor="start" x="332.4126" y="-607" font-family="Courier, monospace" font-size="14.00" fill="#000000">switchInt(move _3)</text>
</g>
<!-- bb1__0_3 -->
<g id="node2" class="node">
<title>bb1__0_3</title>
<polygon fill="#c0c0c0" stroke="transparent" points="8.5,-517.3 8.5,-539.3 391.5,-539.3 391.5,-517.3 8.5,-517.3"/>
<polygon fill="none" stroke="#000000" points="8.5,-517.3 8.5,-539.3 391.5,-539.3 391.5,-517.3 8.5,-517.3"/>
<text text-anchor="start" x="195.8007" y="-523.7" font-family="Courier, monospace" font-size="14.00" fill="#000000">1</text>
<polygon fill="none" stroke="#000000" points="8.5,-478.3 8.5,-517.3 391.5,-517.3 391.5,-478.3 8.5,-478.3"/>
<text text-anchor="start" x="11.5" y="-501.7" font-family="Courier, monospace" font-size="14.00" fill="#000000">_10 = const _</text>
<text text-anchor="start" x="11.5" y="-484.9" font-family="Courier, monospace" font-size="14.00" fill="#000000">_6 = _10 as &amp;[&amp;str] (PointerCoercion(Unsize))</text>
<polygon fill="none" stroke="#000000" points="8.5,-456.3 8.5,-478.3 391.5,-478.3 391.5,-456.3 8.5,-456.3"/>
<text text-anchor="start" x="11.5" y="-462.7" font-family="Courier, monospace" font-size="14.00" fill="#000000">_5 = Arguments::&lt;'_&gt;::new_const(move _6)</text>
</g>
<!-- bb0__0_3&#45;&gt;bb1__0_3 -->
<g id="edge2" class="edge">
<title>bb0__0_3-&gt;bb1__0_3</title>
<path fill="none" stroke="#000000" d="M333.5813,-596.4759C312.9531,-581.3717 290.5973,-565.0025 270.1619,-550.0395"/>
<polygon fill="#000000" stroke="#000000" points="271.9703,-547.0257 261.8342,-543.9418 267.8348,-552.6735 271.9703,-547.0257"/>
<text text-anchor="middle" x="341.2937" y="-566" font-family="Courier, monospace" font-size="14.00" fill="#000000">otherwise</text>
</g>
<!-- bb3__0_3 -->
<g id="node4" class="node">
<title>bb3__0_3</title>
<polygon fill="#c0c0c0" stroke="transparent" points="425.5,-517.3 425.5,-539.3 808.5,-539.3 808.5,-517.3 425.5,-517.3"/>
<polygon fill="none" stroke="#000000" points="425.5,-517.3 425.5,-539.3 808.5,-539.3 808.5,-517.3 425.5,-517.3"/>
<text text-anchor="start" x="612.8007" y="-523.7" font-family="Courier, monospace" font-size="14.00" fill="#000000">3</text>
<polygon fill="none" stroke="#000000" points="425.5,-478.3 425.5,-517.3 808.5,-517.3 808.5,-478.3 425.5,-478.3"/>
<text text-anchor="start" x="428.5" y="-501.7" font-family="Courier, monospace" font-size="14.00" fill="#000000">_11 = const _</text>
<text text-anchor="start" x="428.5" y="-484.9" font-family="Courier, monospace" font-size="14.00" fill="#000000">_9 = _11 as &amp;[&amp;str] (PointerCoercion(Unsize))</text>
<polygon fill="none" stroke="#000000" points="425.5,-456.3 425.5,-478.3 808.5,-478.3 808.5,-456.3 425.5,-456.3"/>
<text text-anchor="start" x="428.5" y="-462.7" font-family="Courier, monospace" font-size="14.00" fill="#000000">_8 = Arguments::&lt;'_&gt;::new_const(move _9)</text>
</g>
<!-- bb0__0_3&#45;&gt;bb3__0_3 -->
<g id="edge1" class="edge">
<title>bb0__0_3-&gt;bb3__0_3</title>
<path fill="none" stroke="#000000" d="M481.7741,-596.4759C502.5936,-581.3045 525.1645,-564.8569 545.772,-549.84"/>
<polygon fill="#000000" stroke="#000000" points="547.8455,-552.6598 553.8661,-543.9418 543.723,-547.0025 547.8455,-552.6598"/>
<text text-anchor="middle" x="528.6993" y="-566" font-family="Courier, monospace" font-size="14.00" fill="#000000">0</text>
</g>
<!-- bb2__0_3 -->
<g id="node3" class="node">
<title>bb2__0_3</title>
<polygon fill="#c0c0c0" stroke="transparent" points="270.5,-374 270.5,-396 443.5,-396 443.5,-374 270.5,-374"/>
<polygon fill="none" stroke="#000000" points="270.5,-374 270.5,-396 443.5,-396 443.5,-374 270.5,-374"/>
<text text-anchor="start" x="352.8007" y="-380.4" font-family="Courier, monospace" font-size="14.00" fill="#000000">2</text>
<polygon fill="none" stroke="#000000" points="270.5,-352 270.5,-374 443.5,-374 443.5,-352 270.5,-352"/>
<text text-anchor="start" x="273.014" y="-358.4" font-family="Courier, monospace" font-size="14.00" fill="#000000">_4 = _print(move _5)</text>
</g>
<!-- bb1__0_3&#45;&gt;bb2__0_3 -->
<g id="edge3" class="edge">
<title>bb1__0_3-&gt;bb2__0_3</title>
<path fill="none" stroke="#000000" d="M257.0695,-452.7211C276.4979,-437.3393 297.7715,-420.4965 315.6376,-406.3516"/>
<polygon fill="#000000" stroke="#000000" points="317.9199,-409.0088 323.5877,-400.0574 313.5748,-403.5206 317.9199,-409.0088"/>
<text text-anchor="middle" x="322.6958" y="-422.2" font-family="Courier, monospace" font-size="14.00" fill="#000000">return</text>
</g>
<!-- bb5__0_3 -->
<g id="node6" class="node">
<title>bb5__0_3</title>
<polygon fill="#c0c0c0" stroke="transparent" points="431.5,-269.2 431.5,-291.2 487.5,-291.2 487.5,-269.2 431.5,-269.2"/>
<polygon fill="none" stroke="#000000" points="431.5,-269.2 431.5,-291.2 487.5,-291.2 487.5,-269.2 431.5,-269.2"/>
<text text-anchor="start" x="455.3007" y="-275.6" font-family="Courier, monospace" font-size="14.00" fill="#000000">5</text>
<polygon fill="none" stroke="#000000" points="431.5,-247.2 431.5,-269.2 487.5,-269.2 487.5,-247.2 431.5,-247.2"/>
<text text-anchor="start" x="434.3042" y="-253.6" font-family="Courier, monospace" font-size="14.00" fill="#000000">return</text>
</g>
<!-- bb2__0_3&#45;&gt;bb5__0_3 -->
<g id="edge4" class="edge">
<title>bb2__0_3-&gt;bb5__0_3</title>
<path fill="none" stroke="#000000" d="M382.2256,-347.8249C395.6212,-334.1952 412.1514,-317.376 426.4809,-302.7961"/>
<polygon fill="#000000" stroke="#000000" points="429.2321,-304.9901 433.7454,-295.4047 424.2396,-300.0834 429.2321,-304.9901"/>
<text text-anchor="middle" x="439.6958" y="-317.4" font-family="Courier, monospace" font-size="14.00" fill="#000000">return</text>
</g>
<!-- bb4__0_3 -->
<g id="node5" class="node">
<title>bb4__0_3</title>
<polygon fill="#c0c0c0" stroke="transparent" points="503.5,-374 503.5,-396 676.5,-396 676.5,-374 503.5,-374"/>
<polygon fill="none" stroke="#000000" points="503.5,-374 503.5,-396 676.5,-396 676.5,-374 503.5,-374"/>
<text text-anchor="start" x="585.8007" y="-380.4" font-family="Courier, monospace" font-size="14.00" fill="#000000">4</text>
<polygon fill="none" stroke="#000000" points="503.5,-352 503.5,-374 676.5,-374 676.5,-352 503.5,-352"/>
<text text-anchor="start" x="506.014" y="-358.4" font-family="Courier, monospace" font-size="14.00" fill="#000000">_7 = _print(move _8)</text>
</g>
<!-- bb3__0_3&#45;&gt;bb4__0_3 -->
<g id="edge5" class="edge">
<title>bb3__0_3-&gt;bb4__0_3</title>
<path fill="none" stroke="#000000" d="M606.5995,-452.7211C603.5292,-438.5864 600.191,-423.2182 597.2857,-409.8432"/>
<polygon fill="#000000" stroke="#000000" points="600.7031,-409.0865 595.1601,-400.0574 593.8626,-410.5724 600.7031,-409.0865"/>
<text text-anchor="middle" x="626.6958" y="-422.2" font-family="Courier, monospace" font-size="14.00" fill="#000000">return</text>
</g>
<!-- bb4__0_3&#45;&gt;bb5__0_3 -->
<g id="edge6" class="edge">
<title>bb4__0_3-&gt;bb5__0_3</title>
<path fill="none" stroke="#000000" d="M557.0309,-347.8249C539.8136,-333.9451 518.4934,-316.7578 500.1819,-301.9959"/>
<polygon fill="#000000" stroke="#000000" points="501.9877,-298.956 492.0058,-295.4047 497.5944,-304.4057 501.9877,-298.956"/>
<text text-anchor="middle" x="556.6958" y="-317.4" font-family="Courier, monospace" font-size="14.00" fill="#000000">return</text>
</g>
</g>
</svg>