<?xml version="1.0" encoding="UTF-8" standalone="no"?><!DOCTYPE svg PUBLIC "-//W3C//DTD SVG 1.1//EN" "http://www.w3.org/Graphics/SVG/1.1/DTD/svg11.dtd"><!-- Generated by graphviz version 2.40.1 (20161225.0304)
 --><!-- Title: __crate__ Pages: 1 --><svg xmlns="http://www.w3.org/2000/svg" xmlns:xlink="http://www.w3.org/1999/xlink" width="1579pt" height="2210pt" viewBox="0.00 0.00 1579.00 2209.60">
<g id="graph0" class="graph" transform="scale(1 1) rotate(0) translate(4 2205.6)">
<title>__crate__</title>
<polygon fill="#ffffff" stroke="transparent" points="-4,4 -4,-2205.6 1575,-2205.6 1575,4 -4,4"/>
<g id="clust1" class="cluster">
<title>cluster_Mir_0_3</title>
<polygon fill="none" stroke="#000000" points="8,-8 8,-2098.4 771,-2098.4 771,-8 8,-8"/>
<text text-anchor="start" x="15.7623" y="-2081.8" font-family="Courier, monospace" font-size="14.00" fill="#000000">fn main() -&gt; ()</text>
<text text-anchor="start" x="15.7623" y="-2065" font-family="Courier, monospace" font-size="14.00" fill="#000000">let _1: std::sync::Arc&lt;&amp;str&gt;;</text>
<text text-anchor="start" x="15.7623" y="-2048.2" font-family="Courier, monospace" font-size="14.00" fill="#000000">let mut _2: std::ops::Range&lt;i32&gt;;</text>
<text text-anchor="start" x="15.7623" y="-2031.4" font-family="Courier, monospace" font-size="14.00" fill="#000000">let mut _3: std::ops::Range&lt;i32&gt;;</text>
<text text-anchor="start" x="15.7623" y="-2014.6" font-family="Courier, monospace" font-size="14.00" fill="#000000">let mut _4: std::ops::Range&lt;i32&gt;;</text>
<text text-anchor="start" x="15.7623" y="-1997.8" font-family="Courier, monospace" font-size="14.00" fill="#000000">let mut _5: std::option::Option&lt;i32&gt;;</text>
<text text-anchor="start" x="15.7623" y="-1981" font-family="Courier, monospace" font-size="14.00" fill="#000000">let mut _6: &amp;mut std::ops::Range&lt;i32&gt;;</text>
<text text-anchor="start" x="15.7623" y="-1964.2" font-family="Courier, monospace" font-size="14.00" fill="#000000">let mut _7: isize;</text>
<text text-anchor="start" x="15.7623" y="-1947.4" font-family="Courier, monospace" font-size="14.00" fill="#000000">let _8: std::sync::Arc&lt;&amp;str&gt;;</text>
<text text-anchor="start" x="15.7623" y="-1930.6" font-family="Courier, monospace" font-size="14.00" fill="#000000">let _9: &amp;std::sync::Arc&lt;&amp;str&gt;;</text>
<text text-anchor="start" x="15.7623" y="-1913.8" font-family="Courier, monospace" font-size="14.00" fill="#000000">let _10: std::thread::JoinHandle&lt;()&gt;;</text>
<text text-anchor="start" x="15.7623" y="-1897" font-family="Courier, monospace" font-size="14.00" fill="#000000">let mut _11: [closure@arc.rs:12:33: 12:40];</text>
<text text-anchor="start" x="15.7623" y="-1880.2" font-family="Courier, monospace" font-size="14.00" fill="#000000">let _12: std::result::Result&lt;(), std::boxed::Box&lt;dyn std::any::Any + std::marker::Send&gt;&gt;;</text>
<text text-anchor="start" x="15.7623" y="-1863.4" font-family="Courier, monospace" font-size="14.00" fill="#000000">let mut _13: std::thread::JoinHandle&lt;()&gt;;</text>
<text text-anchor="start" x="15.7623" y="-1846.6" font-family="Courier, monospace" font-size="14.00" fill="#000000">debug apple =&gt; _1;</text>
<text text-anchor="start" x="15.7623" y="-1829.8" font-family="Courier, monospace" font-size="14.00" fill="#000000">debug iter =&gt; _4;</text>
<text text-anchor="start" x="15.7623" y="-1813" font-family="Courier, monospace" font-size="14.00" fill="#000000">debug apple =&gt; _8;</text>
<text text-anchor="start" x="15.7623" y="-1796.2" font-family="Courier, monospace" font-size="14.00" fill="#000000">debug tjh =&gt; _10;</text>
</g>
<g id="clust2" class="cluster">
<title>cluster_Mir_0_6</title>
<polygon fill="none" stroke="#000000" points="779,-293.6 779,-2193.6 1563,-2193.6 1563,-293.6 779,-293.6"/>
<text text-anchor="start" x="914.8427" y="-2177" font-family="Courier, monospace" font-size="14.00" fill="#000000">fn main::{closure#0}(_1: [closure@arc.rs:12:33: 12:40]) -&gt; ()</text>
<text text-anchor="start" x="914.8427" y="-2160.2" font-family="Courier, monospace" font-size="14.00" fill="#000000">let _2: ();</text>
<text text-anchor="start" x="914.8427" y="-2143.4" font-family="Courier, monospace" font-size="14.00" fill="#000000">let mut _3: std::fmt::Arguments&lt;'_&gt;;</text>
<text text-anchor="start" x="914.8427" y="-2126.6" font-family="Courier, monospace" font-size="14.00" fill="#000000">let mut _4: &amp;[&amp;str];</text>
<text text-anchor="start" x="914.8427" y="-2109.8" font-family="Courier, monospace" font-size="14.00" fill="#000000">let mut _5: &amp;[core::fmt::rt::Argument&lt;'_&gt;];</text>
<text text-anchor="start" x="914.8427" y="-2093" font-family="Courier, monospace" font-size="14.00" fill="#000000">let _6: &amp;[core::fmt::rt::Argument&lt;'_&gt;; 1];</text>
<text text-anchor="start" x="914.8427" y="-2076.2" font-family="Courier, monospace" font-size="14.00" fill="#000000">let _7: [core::fmt::rt::Argument&lt;'_&gt;; 1];</text>
<text text-anchor="start" x="914.8427" y="-2059.4" font-family="Courier, monospace" font-size="14.00" fill="#000000">let mut _8: core::fmt::rt::Argument&lt;'_&gt;;</text>
<text text-anchor="start" x="914.8427" y="-2042.6" font-family="Courier, monospace" font-size="14.00" fill="#000000">let _9: &amp;std::sync::Arc&lt;&amp;str&gt;;</text>
<text text-anchor="start" x="914.8427" y="-2025.8" font-family="Courier, monospace" font-size="14.00" fill="#000000">let _10: ();</text>
<text text-anchor="start" x="914.8427" y="-2009" font-family="Courier, monospace" font-size="14.00" fill="#000000">let mut _11: std::fmt::Arguments&lt;'_&gt;;</text>
<text text-anchor="start" x="914.8427" y="-1992.2" font-family="Courier, monospace" font-size="14.00" fill="#000000">let mut _12: &amp;[&amp;str];</text>
<text text-anchor="start" x="914.8427" y="-1975.4" font-family="Courier, monospace" font-size="14.00" fill="#000000">let mut _13: &amp;[core::fmt::rt::Argument&lt;'_&gt;];</text>
<text text-anchor="start" x="914.8427" y="-1958.6" font-family="Courier, monospace" font-size="14.00" fill="#000000">let _14: &amp;[core::fmt::rt::Argument&lt;'_&gt;; 1];</text>
<text text-anchor="start" x="914.8427" y="-1941.8" font-family="Courier, monospace" font-size="14.00" fill="#000000">let _15: [core::fmt::rt::Argument&lt;'_&gt;; 1];</text>
<text text-anchor="start" x="914.8427" y="-1925" font-family="Courier, monospace" font-size="14.00" fill="#000000">let mut _16: core::fmt::rt::Argument&lt;'_&gt;;</text>
<text text-anchor="start" x="914.8427" y="-1908.2" font-family="Courier, monospace" font-size="14.00" fill="#000000">let _17: &amp;usize;</text>
<text text-anchor="start" x="914.8427" y="-1891.4" font-family="Courier, monospace" font-size="14.00" fill="#000000">let _18: usize;</text>
<text text-anchor="start" x="914.8427" y="-1874.6" font-family="Courier, monospace" font-size="14.00" fill="#000000">let _19: &amp;std::sync::Arc&lt;&amp;str&gt;;</text>
<text text-anchor="start" x="914.8427" y="-1857.8" font-family="Courier, monospace" font-size="14.00" fill="#000000">let mut _20: &amp;[&amp;str; 2];</text>
<text text-anchor="start" x="914.8427" y="-1841" font-family="Courier, monospace" font-size="14.00" fill="#000000">let mut _21: &amp;[&amp;str; 2];</text>
<text text-anchor="start" x="914.8427" y="-1824.2" font-family="Courier, monospace" font-size="14.00" fill="#000000">debug apple =&gt; (_1.0: std::sync::Arc&lt;&amp;str&gt;);</text>
</g>
<!-- bb0__0_3 -->
<g id="node1" class="node">
<title>bb0__0_3</title>
<polygon fill="#c0c0c0" stroke="transparent" points="198,-1754 198,-1776 581,-1776 581,-1754 198,-1754"/>
<polygon fill="none" stroke="#000000" points="198,-1754 198,-1776 581,-1776 581,-1754 198,-1754"/>
<text text-anchor="start" x="385.3007" y="-1760.4" font-family="Courier, monospace" font-size="14.00" fill="#000000">0</text>
<polygon fill="none" stroke="#000000" points="198,-1732 198,-1754 581,-1754 581,-1732 198,-1732"/>
<text text-anchor="start" x="200.5315" y="-1738.4" font-family="Courier, monospace" font-size="14.00" fill="#000000">_1 = Arc::&lt;&amp;str&gt;::new(const "the same apple")</text>
</g>
<!-- bb1__0_3 -->
<g id="node2" class="node">
<title>bb1__0_3</title>
<polygon fill="#c0c0c0" stroke="transparent" points="97,-1566.2 97,-1588.2 682,-1588.2 682,-1566.2 97,-1566.2"/>
<polygon fill="none" stroke="#000000" points="97,-1566.2 97,-1588.2 682,-1588.2 682,-1566.2 97,-1566.2"/>
<text text-anchor="start" x="385.3007" y="-1572.6" font-family="Courier, monospace" font-size="14.00" fill="#000000">1</text>
<polygon fill="none" stroke="#000000" points="97,-1544.2 97,-1566.2 682,-1566.2 682,-1544.2 97,-1544.2"/>
<text text-anchor="start" x="100" y="-1550.6" font-family="Courier, monospace" font-size="14.00" fill="#000000">_3 = std::ops::Range::&lt;i32&gt; { start: const 0_i32, end: const 10_i32 }</text>
<polygon fill="none" stroke="#000000" points="97,-1522.2 97,-1544.2 682,-1544.2 682,-1522.2 97,-1522.2"/>
<text text-anchor="start" x="100" y="-1528.6" font-family="Courier, monospace" font-size="14.00" fill="#000000">_2 = &lt;std::ops::Range&lt;i32&gt; as IntoIterator&gt;::into_iter(move _3)</text>
</g>
<!-- bb0__0_3&#45;&gt;bb1__0_3 -->
<g id="edge1" class="edge">
<title>bb0__0_3-&gt;bb1__0_3</title>
<path fill="none" stroke="#000000" d="M389,-1727.6009C389,-1695.7024 389,-1641.45 389,-1602.3142"/>
<polygon fill="#000000" stroke="#000000" points="392.5001,-1602.2113 389,-1592.2113 385.5001,-1602.2114 392.5001,-1602.2113"/>
<text text-anchor="middle" x="414.1958" y="-1650.4" font-family="Courier, monospace" font-size="14.00" fill="#000000">return</text>
</g>
<!-- bb2__0_3 -->
<g id="node3" class="node">
<title>bb2__0_3</title>
<polygon fill="#c0c0c0" stroke="transparent" points="293,-1384.4 293,-1406.4 399,-1406.4 399,-1384.4 293,-1384.4"/>
<polygon fill="none" stroke="#000000" points="293,-1384.4 293,-1406.4 399,-1406.4 399,-1384.4 293,-1384.4"/>
<text text-anchor="start" x="341.8007" y="-1390.8" font-family="Courier, monospace" font-size="14.00" fill="#000000">2</text>
<polygon fill="none" stroke="#000000" points="293,-1362.4 293,-1384.4 399,-1384.4 399,-1362.4 293,-1362.4"/>
<text text-anchor="start" x="296" y="-1368.8" font-family="Courier, monospace" font-size="14.00" fill="#000000">_4 = move _2</text>
<polygon fill="none" stroke="#000000" points="293,-1340.4 293,-1362.4 399,-1362.4 399,-1340.4 293,-1340.4"/>
<text text-anchor="start" x="296" y="-1346.8" font-family="Courier, monospace" font-size="14.00" fill="#000000">goto</text>
</g>
<!-- bb1__0_3&#45;&gt;bb2__0_3 -->
<g id="edge2" class="edge">
<title>bb1__0_3-&gt;bb2__0_3</title>
<path fill="none" stroke="#000000" d="M380.1945,-1517.9714C373.5278,-1489.785 364.324,-1450.8722 357.1443,-1420.5172"/>
<polygon fill="#000000" stroke="#000000" points="360.5015,-1419.5047 354.7937,-1410.5789 353.6895,-1421.116 360.5015,-1419.5047"/>
<text text-anchor="middle" x="391.1958" y="-1451.6" font-family="Courier, monospace" font-size="14.00" fill="#000000">return</text>
</g>
<!-- bb12__0_3 -->
<g id="node13" class="node">
<title>bb12__0_3</title>
<polygon fill="#add8e6" stroke="transparent" points="428,-184.8 428,-206.8 534,-206.8 534,-184.8 428,-184.8"/>
<polygon fill="none" stroke="#000000" points="428,-184.8 428,-206.8 534,-206.8 534,-184.8 428,-184.8"/>
<text text-anchor="start" x="430.6084" y="-191.2" font-family="Courier, monospace" font-size="14.00" fill="#000000">12 (cleanup)</text>
<polygon fill="none" stroke="#000000" points="428,-162.8 428,-184.8 534,-184.8 534,-162.8 428,-162.8"/>
<text text-anchor="start" x="431" y="-169.2" font-family="Courier, monospace" font-size="14.00" fill="#000000">drop(_1)</text>
</g>
<!-- bb1__0_3&#45;&gt;bb12__0_3 -->
<g id="edge3" class="edge">
<title>bb1__0_3-&gt;bb12__0_3</title>
<path fill="none" stroke="#000000" d="M618.4148,-1518.1619C671.6089,-1503.0925 713,-1482.7182 713,-1455.8 713,-1455.8 713,-1455.8 713,-900.5 713,-844.0416 714.1018,-829.4722 724.6084,-774 732.4292,-732.7085 742.8454,-724.4269 751,-683.2 759.0236,-642.6353 761,-632.0507 761,-590.7 761,-590.7 761,-590.7 761,-256.2 761,-213.1587 635.201,-195.7386 552.2454,-188.9303"/>
<polygon fill="#000000" stroke="#000000" points="552.3448,-185.4274 542.1012,-188.1327 551.796,-192.4058 552.3448,-185.4274"/>
<text text-anchor="middle" x="749.1958" y="-823.8" font-family="Courier, monospace" font-size="14.00" fill="#000000">unwind</text>
</g>
<!-- bb3__0_3 -->
<g id="node4" class="node">
<title>bb3__0_3</title>
<polygon fill="#c0c0c0" stroke="transparent" points="45,-1202.6 45,-1224.6 462,-1224.6 462,-1202.6 45,-1202.6"/>
<polygon fill="none" stroke="#000000" points="45,-1202.6 45,-1224.6 462,-1224.6 462,-1202.6 45,-1202.6"/>
<text text-anchor="start" x="249.3007" y="-1209" font-family="Courier, monospace" font-size="14.00" fill="#000000">3</text>
<polygon fill="none" stroke="#000000" points="45,-1180.6 45,-1202.6 462,-1202.6 462,-1180.6 45,-1180.6"/>
<text text-anchor="start" x="48" y="-1187" font-family="Courier, monospace" font-size="14.00" fill="#000000">_6 = &amp;mut _4</text>
<polygon fill="none" stroke="#000000" points="45,-1158.6 45,-1180.6 462,-1180.6 462,-1158.6 45,-1158.6"/>
<text text-anchor="start" x="47.7343" y="-1165" font-family="Courier, monospace" font-size="14.00" fill="#000000">_5 = &lt;std::ops::Range&lt;i32&gt; as Iterator&gt;::next(_6)</text>
</g>
<!-- bb2__0_3&#45;&gt;bb3__0_3 -->
<g id="edge4" class="edge">
<title>bb2__0_3-&gt;bb3__0_3</title>
<path fill="none" stroke="#000000" d="M326.9556,-1336.1714C312.4115,-1307.7399 292.2844,-1268.3946 276.6988,-1237.9273"/>
<polygon fill="#000000" stroke="#000000" points="279.6891,-1236.0876 272.0189,-1228.7789 273.4572,-1239.2756 279.6891,-1236.0876"/>
</g>
<!-- bb4__0_3 -->
<g id="node5" class="node">
<title>bb4__0_3</title>
<polygon fill="#c0c0c0" stroke="transparent" points="231,-1020.8 231,-1042.8 413,-1042.8 413,-1020.8 231,-1020.8"/>
<polygon fill="none" stroke="#000000" points="231,-1020.8 231,-1042.8 413,-1042.8 413,-1020.8 231,-1020.8"/>
<text text-anchor="start" x="317.8007" y="-1027.2" font-family="Courier, monospace" font-size="14.00" fill="#000000">4</text>
<polygon fill="none" stroke="#000000" points="231,-998.8 231,-1020.8 413,-1020.8 413,-998.8 231,-998.8"/>
<text text-anchor="start" x="234" y="-1005.2" font-family="Courier, monospace" font-size="14.00" fill="#000000">_7 = discriminant(_5)</text>
<polygon fill="none" stroke="#000000" points="231,-976.8 231,-998.8 413,-998.8 413,-976.8 231,-976.8"/>
<text text-anchor="start" x="234" y="-983.2" font-family="Courier, monospace" font-size="14.00" fill="#000000">switchInt(move _7)</text>
</g>
<!-- bb3__0_3&#45;&gt;bb4__0_3 -->
<g id="edge5" class="edge">
<title>bb3__0_3-&gt;bb4__0_3</title>
<path fill="none" stroke="#000000" d="M267.1297,-1154.3714C277.874,-1126.0625 292.7249,-1086.9336 304.2673,-1056.5218"/>
<polygon fill="#000000" stroke="#000000" points="307.613,-1057.5701 307.8892,-1046.9789 301.0685,-1055.0862 307.613,-1057.5701"/>
<text text-anchor="middle" x="318.1958" y="-1088" font-family="Courier, monospace" font-size="14.00" fill="#000000">return</text>
</g>
<!-- bb3__0_3&#45;&gt;bb12__0_3 -->
<g id="edge6" class="edge">
<title>bb3__0_3-&gt;bb12__0_3</title>
<path fill="none" stroke="#000000" d="M122.4444,-1154.5927C75.5445,-1137.3347 34,-1115.4778 34,-1092.2 34,-1092.2 34,-1092.2 34,-256.2 34,-218.6493 283.1561,-197.3705 409.4335,-188.9973"/>
<polygon fill="#000000" stroke="#000000" points="410.0331,-192.4657 419.7838,-188.3216 409.577,-185.4805 410.0331,-192.4657"/>
<text text-anchor="middle" x="59.1958" y="-642" font-family="Courier, monospace" font-size="14.00" fill="#000000">unwind</text>
</g>
<!-- bb5__0_3 -->
<g id="node6" class="node">
<title>bb5__0_3</title>
<polygon fill="#c0c0c0" stroke="transparent" points="121,-839 121,-861 429,-861 429,-839 121,-839"/>
<polygon fill="none" stroke="#000000" points="121,-839 121,-861 429,-861 429,-839 121,-839"/>
<text text-anchor="start" x="270.8007" y="-845.4" font-family="Courier, monospace" font-size="14.00" fill="#000000">5</text>
<polygon fill="none" stroke="#000000" points="121,-817 121,-839 429,-839 429,-817 121,-817"/>
<text text-anchor="start" x="124" y="-823.4" font-family="Courier, monospace" font-size="14.00" fill="#000000">_9 = &amp;_1</text>
<polygon fill="none" stroke="#000000" points="121,-795 121,-817 429,-817 429,-795 121,-795"/>
<text text-anchor="start" x="123.8252" y="-801.4" font-family="Courier, monospace" font-size="14.00" fill="#000000">_8 = &lt;Arc&lt;&amp;str&gt; as Clone&gt;::clone(_9)</text>
</g>
<!-- bb4__0_3&#45;&gt;bb5__0_3 -->
<g id="edge8" class="edge">
<title>bb4__0_3-&gt;bb5__0_3</title>
<path fill="none" stroke="#000000" d="M312.3754,-972.5714C305.0885,-944.385 295.0286,-905.4722 287.181,-875.1172"/>
<polygon fill="#000000" stroke="#000000" points="290.5033,-873.9845 284.6117,-865.1789 283.7261,-875.7366 290.5033,-873.9845"/>
<text text-anchor="middle" x="306.1993" y="-923.2" font-family="Courier, monospace" font-size="14.00" fill="#000000">1</text>
</g>
<!-- bb6__0_3 -->
<g id="node7" class="node">
<title>bb6__0_3</title>
<polygon fill="#c0c0c0" stroke="transparent" points="463,-828 463,-850 561,-850 561,-828 463,-828"/>
<polygon fill="none" stroke="#000000" points="463,-828 463,-850 561,-850 561,-828 463,-828"/>
<text text-anchor="start" x="507.8007" y="-834.4" font-family="Courier, monospace" font-size="14.00" fill="#000000">6</text>
<polygon fill="none" stroke="#000000" points="463,-806 463,-828 561,-828 561,-806 463,-806"/>
<text text-anchor="start" x="465.8077" y="-812.4" font-family="Courier, monospace" font-size="14.00" fill="#000000">unreachable</text>
</g>
<!-- bb4__0_3&#45;&gt;bb6__0_3 -->
<g id="edge9" class="edge">
<title>bb4__0_3-&gt;bb6__0_3</title>
<path fill="none" stroke="#000000" d="M360.9078,-972.5714C395.0814,-939.8726 444.3421,-892.7379 477.2236,-861.2756"/>
<polygon fill="#000000" stroke="#000000" points="479.9942,-863.4687 484.7997,-854.0264 475.1547,-858.411 479.9942,-863.4687"/>
<text text-anchor="middle" x="450.7937" y="-923.2" font-family="Courier, monospace" font-size="14.00" fill="#000000">otherwise</text>
</g>
<!-- bb7__0_3 -->
<g id="node8" class="node">
<title>bb7__0_3</title>
<polygon fill="#c0c0c0" stroke="transparent" points="596,-828 596,-850 669,-850 669,-828 596,-828"/>
<polygon fill="none" stroke="#000000" points="596,-828 596,-850 669,-850 669,-828 596,-828"/>
<text text-anchor="start" x="628.3007" y="-834.4" font-family="Courier, monospace" font-size="14.00" fill="#000000">7</text>
<polygon fill="none" stroke="#000000" points="596,-806 596,-828 669,-828 669,-806 596,-806"/>
<text text-anchor="start" x="598.9056" y="-812.4" font-family="Courier, monospace" font-size="14.00" fill="#000000">drop(_1)</text>
</g>
<!-- bb4__0_3&#45;&gt;bb7__0_3 -->
<g id="edge7" class="edge">
<title>bb4__0_3-&gt;bb7__0_3</title>
<path fill="none" stroke="#000000" d="M419.7901,-972.6669C470.0745,-950.7894 530.5837,-919.9411 578,-882 585.6783,-875.856 593.4404,-868.7392 600.5931,-861.7291"/>
<polygon fill="#000000" stroke="#000000" points="603.5019,-863.7687 608.0826,-854.2152 598.5441,-858.8269 603.5019,-863.7687"/>
<text text-anchor="middle" x="528.1993" y="-923.2" font-family="Courier, monospace" font-size="14.00" fill="#000000">0</text>
</g>
<!-- bb8__0_3 -->
<g id="node9" class="node">
<title>bb8__0_3</title>
<polygon fill="#c0c0c0" stroke="transparent" points="131,-657.2 131,-679.2 624,-679.2 624,-657.2 131,-657.2"/>
<polygon fill="none" stroke="#000000" points="131,-657.2 131,-679.2 624,-679.2 624,-657.2 131,-657.2"/>
<text text-anchor="start" x="373.3007" y="-663.6" font-family="Courier, monospace" font-size="14.00" fill="#000000">8</text>
<polygon fill="none" stroke="#000000" points="131,-635.2 131,-657.2 624,-657.2 624,-635.2 131,-635.2"/>
<text text-anchor="start" x="134" y="-641.6" font-family="Courier, monospace" font-size="14.00" fill="#000000">_11 = [closure@arc.rs:12:33: 12:40] { apple: move _8 }</text>
<polygon fill="none" stroke="#000000" points="131,-613.2 131,-635.2 624,-635.2 624,-613.2 131,-613.2"/>
<text text-anchor="start" x="133.9406" y="-619.6" font-family="Courier, monospace" font-size="14.00" fill="#000000">_10 = spawn::&lt;[closure@arc.rs:12:33: 12:40], ()&gt;(move _11)</text>
</g>
<!-- bb5__0_3&#45;&gt;bb8__0_3 -->
<g id="edge10" class="edge">
<title>bb5__0_3-&gt;bb8__0_3</title>
<path fill="none" stroke="#000000" d="M295.8874,-790.7714C311.9077,-762.2174 334.1043,-722.6552 351.2286,-692.1338"/>
<polygon fill="#000000" stroke="#000000" points="354.2999,-693.8126 356.1406,-683.3789 348.1951,-690.3874 354.2999,-693.8126"/>
<text text-anchor="middle" x="359.1958" y="-724.4" font-family="Courier, monospace" font-size="14.00" fill="#000000">return</text>
</g>
<!-- bb5__0_3&#45;&gt;bb12__0_3 -->
<g id="edge11" class="edge">
<title>bb5__0_3-&gt;bb12__0_3</title>
<path fill="none" stroke="#000000" d="M387.7258,-790.8609C407.0789,-784.9278 427.0554,-779.0785 446,-774 491.0681,-761.9186 651,-775.2593 651,-728.6 651,-728.6 651,-728.6 651,-256.2 651,-233.4869 598.7637,-214.0153 552.2026,-201.1706"/>
<polygon fill="#000000" stroke="#000000" points="552.9395,-197.7446 542.3739,-198.5315 551.1241,-204.5051 552.9395,-197.7446"/>
<text text-anchor="middle" x="676.1958" y="-477.2" font-family="Courier, monospace" font-size="14.00" fill="#000000">unwind</text>
</g>
<!-- bb11__0_3 -->
<g id="node12" class="node">
<title>bb11__0_3</title>
<polygon fill="#c0c0c0" stroke="transparent" points="678,-646.2 678,-668.2 734,-668.2 734,-646.2 678,-646.2"/>
<polygon fill="none" stroke="#000000" points="678,-646.2 678,-668.2 734,-668.2 734,-646.2 678,-646.2"/>
<text text-anchor="start" x="697.6014" y="-652.6" font-family="Courier, monospace" font-size="14.00" fill="#000000">11</text>
<polygon fill="none" stroke="#000000" points="678,-624.2 678,-646.2 734,-646.2 734,-624.2 678,-624.2"/>
<text text-anchor="start" x="680.8042" y="-630.6" font-family="Courier, monospace" font-size="14.00" fill="#000000">return</text>
</g>
<!-- bb7__0_3&#45;&gt;bb11__0_3 -->
<g id="edge12" class="edge">
<title>bb7__0_3-&gt;bb11__0_3</title>
<path fill="none" stroke="#000000" d="M642.6024,-801.9525C655.4243,-770.4521 677.0712,-717.271 691.4483,-681.95"/>
<polygon fill="#000000" stroke="#000000" points="694.7688,-683.0758 695.2972,-672.4942 688.2853,-680.4367 694.7688,-683.0758"/>
<text text-anchor="middle" x="700.1958" y="-724.4" font-family="Courier, monospace" font-size="14.00" fill="#000000">return</text>
</g>
<!-- bb9__0_3 -->
<g id="node10" class="node">
<title>bb9__0_3</title>
<polygon fill="#c0c0c0" stroke="transparent" points="173,-492.4 173,-514.4 498,-514.4 498,-492.4 173,-492.4"/>
<polygon fill="none" stroke="#000000" points="173,-492.4 173,-514.4 498,-514.4 498,-492.4 173,-492.4"/>
<text text-anchor="start" x="331.3007" y="-498.8" font-family="Courier, monospace" font-size="14.00" fill="#000000">9</text>
<polygon fill="none" stroke="#000000" points="173,-470.4 173,-492.4 498,-492.4 498,-470.4 173,-470.4"/>
<text text-anchor="start" x="176" y="-476.8" font-family="Courier, monospace" font-size="14.00" fill="#000000">_13 = move _10</text>
<polygon fill="none" stroke="#000000" points="173,-448.4 173,-470.4 498,-470.4 498,-448.4 173,-448.4"/>
<text text-anchor="start" x="175.9266" y="-454.8" font-family="Courier, monospace" font-size="14.00" fill="#000000">_12 = JoinHandle::&lt;()&gt;::join(move _13)</text>
</g>
<!-- bb8__0_3&#45;&gt;bb9__0_3 -->
<g id="edge13" class="edge">
<title>bb8__0_3-&gt;bb9__0_3</title>
<path fill="none" stroke="#000000" d="M367.4695,-608.8043C361.4015,-584.9944 353.4904,-553.9528 346.9963,-528.4713"/>
<polygon fill="#000000" stroke="#000000" points="350.354,-527.4736 344.4927,-518.6477 343.5708,-529.2023 350.354,-527.4736"/>
<text text-anchor="middle" x="383.1958" y="-559.6" font-family="Courier, monospace" font-size="14.00" fill="#000000">return</text>
</g>
<!-- bb8__0_3&#45;&gt;bb12__0_3 -->
<g id="edge14" class="edge">
<title>bb8__0_3-&gt;bb12__0_3</title>
<path fill="none" stroke="#000000" d="M501.2212,-608.9612C515.4587,-597.636 525,-582.9155 525,-563.8 525,-563.8 525,-563.8 525,-256.2 525,-243.1023 519.5674,-230.3936 512.5201,-219.4176"/>
<polygon fill="#000000" stroke="#000000" points="515.2173,-217.1691 506.595,-211.0122 509.4959,-221.2022 515.2173,-217.1691"/>
<text text-anchor="middle" x="550.1958" y="-394.8" font-family="Courier, monospace" font-size="14.00" fill="#000000">unwind</text>
</g>
<!-- bb10__0_3 -->
<g id="node11" class="node">
<title>bb10__0_3</title>
<polygon fill="#c0c0c0" stroke="transparent" points="295,-327.6 295,-349.6 376,-349.6 376,-327.6 295,-327.6"/>
<polygon fill="none" stroke="#000000" points="295,-327.6 295,-349.6 376,-349.6 376,-327.6 295,-327.6"/>
<text text-anchor="start" x="327.1014" y="-334" font-family="Courier, monospace" font-size="14.00" fill="#000000">10</text>
<polygon fill="none" stroke="#000000" points="295,-305.6 295,-327.6 376,-327.6 376,-305.6 295,-305.6"/>
<text text-anchor="start" x="297.7063" y="-312" font-family="Courier, monospace" font-size="14.00" fill="#000000">drop(_12)</text>
</g>
<!-- bb9__0_3&#45;&gt;bb10__0_3 -->
<g id="edge15" class="edge">
<title>bb9__0_3-&gt;bb10__0_3</title>
<path fill="none" stroke="#000000" d="M335,-444.1693C335,-419.8527 335,-388.2487 335,-364.0834"/>
<polygon fill="#000000" stroke="#000000" points="338.5001,-363.8917 335,-353.8917 331.5001,-363.8917 338.5001,-363.8917"/>
<text text-anchor="middle" x="360.1958" y="-394.8" font-family="Courier, monospace" font-size="14.00" fill="#000000">return</text>
</g>
<!-- bb9__0_3&#45;&gt;bb12__0_3 -->
<g id="edge16" class="edge">
<title>bb9__0_3-&gt;bb12__0_3</title>
<path fill="none" stroke="#000000" d="M413.8511,-444.3104C427.8153,-432.4233 438,-417.4346 438,-399 438,-399 438,-399 438,-256.2 438,-243.1836 443.3091,-230.499 450.1963,-219.5201"/>
<polygon fill="#000000" stroke="#000000" points="453.2001,-221.3291 455.9867,-211.1073 447.4339,-217.3603 453.2001,-221.3291"/>
<text text-anchor="middle" x="463.1958" y="-323.4" font-family="Courier, monospace" font-size="14.00" fill="#000000">unwind</text>
</g>
<!-- bb10__0_3&#45;&gt;bb3__0_3 -->
<g id="edge17" class="edge">
<title>bb10__0_3-&gt;bb3__0_3</title>
<path fill="none" stroke="#000000" d="M286.3652,-332.6435C218.3354,-341.0709 103,-360.9668 103,-399 103,-590.7 103,-590.7 103,-590.7 103,-728.447 94,-762.753 94,-900.5 94,-1092.2 94,-1092.2 94,-1092.2 94,-1116.2699 107.2632,-1134.7278 126.1282,-1148.8074"/>
<polygon fill="#000000" stroke="#000000" points="124.3084,-1151.8035 134.5338,-1154.5771 128.2699,-1146.0323 124.3084,-1151.8035"/>
<text text-anchor="middle" x="124.1958" y="-724.4" font-family="Courier, monospace" font-size="14.00" fill="#000000">return</text>
</g>
<!-- bb10__0_3&#45;&gt;bb12__0_3 -->
<g id="edge18" class="edge">
<title>bb10__0_3-&gt;bb12__0_3</title>
<path fill="none" stroke="#000000" d="M346.6967,-301.4528C355.0431,-284.7777 367.4538,-263.4414 382.6084,-247.8 394.0629,-235.9776 408.1431,-225.3195 422.0332,-216.2757"/>
<polygon fill="#000000" stroke="#000000" points="424.0375,-219.1496 430.632,-210.8572 420.3056,-213.2274 424.0375,-219.1496"/>
<text text-anchor="middle" x="407.1958" y="-252" font-family="Courier, monospace" font-size="14.00" fill="#000000">unwind</text>
</g>
<!-- bb13__0_3 -->
<g id="node14" class="node">
<title>bb13__0_3</title>
<polygon fill="#add8e6" stroke="transparent" points="428,-42 428,-64 534,-64 534,-42 428,-42"/>
<polygon fill="none" stroke="#000000" points="428,-42 428,-64 534,-64 534,-42 428,-42"/>
<text text-anchor="start" x="430.6084" y="-48.4" font-family="Courier, monospace" font-size="14.00" fill="#000000">13 (cleanup)</text>
<polygon fill="none" stroke="#000000" points="428,-20 428,-42 534,-42 534,-20 428,-20"/>
<text text-anchor="start" x="431" y="-26.4" font-family="Courier, monospace" font-size="14.00" fill="#000000">resume</text>
</g>
<!-- bb12__0_3&#45;&gt;bb13__0_3 -->
<g id="edge19" class="edge">
<title>bb12__0_3-&gt;bb13__0_3</title>
<path fill="none" stroke="#000000" d="M481,-158.6083C481,-136.0633 481,-103.3026 481,-78.2422"/>
<polygon fill="#000000" stroke="#000000" points="484.5001,-78.0256 481,-68.0257 477.5001,-78.0257 484.5001,-78.0256"/>
<text text-anchor="middle" x="506.1958" y="-109.2" font-family="Courier, monospace" font-size="14.00" fill="#000000">return</text>
</g>
<!-- bb0__0_6 -->
<g id="node15" class="node">
<title>bb0__0_6</title>
<polygon fill="#c0c0c0" stroke="transparent" points="976,-1782 976,-1804 1502,-1804 1502,-1782 976,-1782"/>
<polygon fill="none" stroke="#000000" points="976,-1782 976,-1804 1502,-1804 1502,-1782 976,-1782"/>
<text text-anchor="start" x="1234.8007" y="-1788.4" font-family="Courier, monospace" font-size="14.00" fill="#000000">0</text>
<polygon fill="none" stroke="#000000" points="976,-1726 976,-1782 1502,-1782 1502,-1726 976,-1726"/>
<text text-anchor="start" x="979" y="-1766.4" font-family="Courier, monospace" font-size="14.00" fill="#000000">_21 = const _</text>
<text text-anchor="start" x="979" y="-1749.6" font-family="Courier, monospace" font-size="14.00" fill="#000000">_4 = _21 as &amp;[&amp;str] (PointerCoercion(Unsize))</text>
<text text-anchor="start" x="979" y="-1732.8" font-family="Courier, monospace" font-size="14.00" fill="#000000">_9 = &amp;(_1.0: std::sync::Arc&lt;&amp;str&gt;)</text>
<polygon fill="none" stroke="#000000" points="976,-1704 976,-1726 1502,-1726 1502,-1704 976,-1704"/>
<text text-anchor="start" x="978.6434" y="-1710.4" font-family="Courier, monospace" font-size="14.00" fill="#000000">_8 = core::fmt::rt::Argument::&lt;'_&gt;::new_debug::&lt;Arc&lt;&amp;str&gt;&gt;(_9)</text>
</g>
<!-- bb1__0_6 -->
<g id="node16" class="node">
<title>bb1__0_6</title>
<polygon fill="#c0c0c0" stroke="transparent" points="910,-1583.2 910,-1605.2 1478,-1605.2 1478,-1583.2 910,-1583.2"/>
<polygon fill="none" stroke="#000000" points="910,-1583.2 910,-1605.2 1478,-1605.2 1478,-1583.2 910,-1583.2"/>
<text text-anchor="start" x="1189.8007" y="-1589.6" font-family="Courier, monospace" font-size="14.00" fill="#000000">1</text>
<polygon fill="none" stroke="#000000" points="910,-1527.2 910,-1583.2 1478,-1583.2 1478,-1527.2 910,-1527.2"/>
<text text-anchor="start" x="913" y="-1567.6" font-family="Courier, monospace" font-size="14.00" fill="#000000">_7 = [move _8]</text>
<text text-anchor="start" x="913" y="-1550.8" font-family="Courier, monospace" font-size="14.00" fill="#000000">_6 = &amp;_7</text>
<text text-anchor="start" x="913" y="-1534" font-family="Courier, monospace" font-size="14.00" fill="#000000">_5 = _6 as &amp;[core::fmt::rt::Argument&lt;'_&gt;] (PointerCoercion(Unsize))</text>
<polygon fill="none" stroke="#000000" points="910,-1505.2 910,-1527.2 1478,-1527.2 1478,-1505.2 910,-1505.2"/>
<text text-anchor="start" x="913" y="-1511.6" font-family="Courier, monospace" font-size="14.00" fill="#000000">_3 = Arguments::&lt;'_&gt;::new_v1(move _4, move _5)</text>
</g>
<!-- bb0__0_6&#45;&gt;bb1__0_6 -->
<g id="edge20" class="edge">
<title>bb0__0_6-&gt;bb1__0_6</title>
<path fill="none" stroke="#000000" d="M1226.763,-1699.9396C1221.1089,-1674.9612 1214.3544,-1645.1212 1208.4513,-1619.0424"/>
<polygon fill="#000000" stroke="#000000" points="1211.856,-1618.2301 1206.2346,-1609.2496 1205.0287,-1619.7756 1211.856,-1618.2301"/>
<text text-anchor="middle" x="1243.1958" y="-1650.4" font-family="Courier, monospace" font-size="14.00" fill="#000000">return</text>
</g>
<!-- bb9__0_6 -->
<g id="node24" class="node">
<title>bb9__0_6</title>
<polygon fill="#add8e6" stroke="transparent" points="1428,-481.4 1428,-503.4 1526,-503.4 1526,-481.4 1428,-481.4"/>
<polygon fill="none" stroke="#000000" points="1428,-481.4 1428,-503.4 1526,-503.4 1526,-481.4 1428,-481.4"/>
<text text-anchor="start" x="1430.8077" y="-487.8" font-family="Courier, monospace" font-size="14.00" fill="#000000">9 (cleanup)</text>
<polygon fill="none" stroke="#000000" points="1428,-459.4 1428,-481.4 1526,-481.4 1526,-459.4 1428,-459.4"/>
<text text-anchor="start" x="1431" y="-465.8" font-family="Courier, monospace" font-size="14.00" fill="#000000">drop(_1)</text>
</g>
<!-- bb0__0_6&#45;&gt;bb9__0_6 -->
<g id="edge21" class="edge">
<title>bb0__0_6-&gt;bb9__0_6</title>
<path fill="none" stroke="#000000" d="M1456.8294,-1699.8776C1485.3948,-1686.8874 1505,-1671.7316 1505,-1654.6 1505,-1654.6 1505,-1654.6 1505,-1119.1 1505,-1081.4839 1537.8711,-1082.7321 1549,-1046.8 1561.1807,-1007.472 1554,-995.4711 1554,-954.3 1554,-954.3 1554,-954.3 1554,-563.8 1554,-544.2925 1542.3369,-527.4882 1528.0889,-514.2377"/>
<polygon fill="#000000" stroke="#000000" points="1530.3054,-511.5273 1520.4507,-507.6371 1525.7285,-516.8238 1530.3054,-511.5273"/>
<text text-anchor="middle" x="1545.1958" y="-1088" font-family="Courier, monospace" font-size="14.00" fill="#000000">unwind</text>
</g>
<!-- bb2__0_6 -->
<g id="node17" class="node">
<title>bb2__0_6</title>
<polygon fill="#c0c0c0" stroke="transparent" points="1131,-1373.4 1131,-1395.4 1304,-1395.4 1304,-1373.4 1131,-1373.4"/>
<polygon fill="none" stroke="#000000" points="1131,-1373.4 1131,-1395.4 1304,-1395.4 1304,-1373.4 1131,-1373.4"/>
<text text-anchor="start" x="1213.3007" y="-1379.8" font-family="Courier, monospace" font-size="14.00" fill="#000000">2</text>
<polygon fill="none" stroke="#000000" points="1131,-1351.4 1131,-1373.4 1304,-1373.4 1304,-1351.4 1131,-1351.4"/>
<text text-anchor="start" x="1133.514" y="-1357.8" font-family="Courier, monospace" font-size="14.00" fill="#000000">_2 = _print(move _3)</text>
</g>
<!-- bb1__0_6&#45;&gt;bb2__0_6 -->
<g id="edge22" class="edge">
<title>bb1__0_6-&gt;bb2__0_6</title>
<path fill="none" stroke="#000000" d="M1200.8385,-1501.1462C1204.5627,-1471.7085 1209.0721,-1436.0648 1212.3803,-1409.916"/>
<polygon fill="#000000" stroke="#000000" points="1215.8911,-1410.0499 1213.674,-1399.6896 1208.9465,-1409.1712 1215.8911,-1410.0499"/>
<text text-anchor="middle" x="1232.1958" y="-1451.6" font-family="Courier, monospace" font-size="14.00" fill="#000000">return</text>
</g>
<!-- bb1__0_6&#45;&gt;bb9__0_6 -->
<g id="edge23" class="edge">
<title>bb1__0_6-&gt;bb9__0_6</title>
<path fill="none" stroke="#000000" d="M1419.9593,-1501.0923C1448.5251,-1488.194 1468,-1473.0682 1468,-1455.8 1468,-1455.8 1468,-1455.8 1468,-1119.1 1468,-1052.67 1469.8964,-1032.7047 1498.6084,-972.8 1507.8062,-953.6097 1520.4358,-955.2814 1529,-935.8 1535.3768,-921.2943 1534,-916.3455 1534,-900.5 1534,-900.5 1534,-900.5 1534,-563.8 1534,-545.9147 1524.805,-529.1039 1513.8011,-515.3897"/>
<polygon fill="#000000" stroke="#000000" points="1516.3466,-512.9819 1507.1691,-507.6881 1511.0422,-517.5496 1516.3466,-512.9819"/>
<text text-anchor="middle" x="1523.1958" y="-1005.6" font-family="Courier, monospace" font-size="14.00" fill="#000000">unwind</text>
</g>
<!-- bb3__0_6 -->
<g id="node18" class="node">
<title>bb3__0_6</title>
<polygon fill="#c0c0c0" stroke="transparent" points="1021,-1219.6 1021,-1241.6 1413,-1241.6 1413,-1219.6 1021,-1219.6"/>
<polygon fill="none" stroke="#000000" points="1021,-1219.6 1021,-1241.6 1413,-1241.6 1413,-1219.6 1021,-1219.6"/>
<text text-anchor="start" x="1212.8007" y="-1226" font-family="Courier, monospace" font-size="14.00" fill="#000000">3</text>
<polygon fill="none" stroke="#000000" points="1021,-1163.6 1021,-1219.6 1413,-1219.6 1413,-1163.6 1021,-1163.6"/>
<text text-anchor="start" x="1024" y="-1204" font-family="Courier, monospace" font-size="14.00" fill="#000000">_20 = const _</text>
<text text-anchor="start" x="1024" y="-1187.2" font-family="Courier, monospace" font-size="14.00" fill="#000000">_12 = _20 as &amp;[&amp;str] (PointerCoercion(Unsize))</text>
<text text-anchor="start" x="1024" y="-1170.4" font-family="Courier, monospace" font-size="14.00" fill="#000000">_19 = &amp;(_1.0: std::sync::Arc&lt;&amp;str&gt;)</text>
<polygon fill="none" stroke="#000000" points="1021,-1141.6 1021,-1163.6 1413,-1163.6 1413,-1141.6 1021,-1141.6"/>
<text text-anchor="start" x="1024" y="-1148" font-family="Courier, monospace" font-size="14.00" fill="#000000">_18 = Arc::&lt;&amp;str&gt;::strong_count(_19)</text>
</g>
<!-- bb2__0_6&#45;&gt;bb3__0_6 -->
<g id="edge24" class="edge">
<title>bb2__0_6-&gt;bb3__0_6</title>
<path fill="none" stroke="#000000" d="M1217,-1347.3525C1217,-1323.5207 1217,-1287.2793 1217,-1255.7509"/>
<polygon fill="#000000" stroke="#000000" points="1220.5001,-1255.7018 1217,-1245.7018 1213.5001,-1255.7018 1220.5001,-1255.7018"/>
<text text-anchor="middle" x="1242.1958" y="-1286.8" font-family="Courier, monospace" font-size="14.00" fill="#000000">return</text>
</g>
<!-- bb2__0_6&#45;&gt;bb9__0_6 -->
<g id="edge25" class="edge">
<title>bb2__0_6-&gt;bb9__0_6</title>
<path fill="none" stroke="#000000" d="M1311.6231,-1357.3467C1375.4168,-1343.7423 1448,-1321.5506 1448,-1291 1448,-1291 1448,-1291 1448,-1065.3 1448,-998.87 1447.6376,-977.7687 1478.6084,-919 1488.5298,-900.1736 1501.4321,-901.8896 1509,-882 1529.0094,-829.412 1514,-811.7661 1514,-755.5 1514,-755.5 1514,-755.5 1514,-563.8 1514,-547.3343 1507.7756,-530.5137 1500.4327,-516.3992"/>
<polygon fill="#000000" stroke="#000000" points="1503.4246,-514.5779 1495.5,-507.5457 1497.3096,-517.9849 1503.4246,-514.5779"/>
<text text-anchor="middle" x="1503.1958" y="-923.2" font-family="Courier, monospace" font-size="14.00" fill="#000000">unwind</text>
</g>
<!-- bb4__0_6 -->
<g id="node19" class="node">
<title>bb4__0_6</title>
<polygon fill="#c0c0c0" stroke="transparent" points="875,-1020.8 875,-1042.8 1401,-1042.8 1401,-1020.8 875,-1020.8"/>
<polygon fill="none" stroke="#000000" points="875,-1020.8 875,-1042.8 1401,-1042.8 1401,-1020.8 875,-1020.8"/>
<text text-anchor="start" x="1133.8007" y="-1027.2" font-family="Courier, monospace" font-size="14.00" fill="#000000">4</text>
<polygon fill="none" stroke="#000000" points="875,-998.8 875,-1020.8 1401,-1020.8 1401,-998.8 875,-998.8"/>
<text text-anchor="start" x="878" y="-1005.2" font-family="Courier, monospace" font-size="14.00" fill="#000000">_17 = &amp;_18</text>
<polygon fill="none" stroke="#000000" points="875,-976.8 875,-998.8 1401,-998.8 1401,-976.8 875,-976.8"/>
<text text-anchor="start" x="877.6434" y="-983.2" font-family="Courier, monospace" font-size="14.00" fill="#000000">_16 = core::fmt::rt::Argument::&lt;'_&gt;::new_display::&lt;usize&gt;(_17)</text>
</g>
<!-- bb3__0_6&#45;&gt;bb4__0_6 -->
<g id="edge26" class="edge">
<title>bb3__0_6-&gt;bb4__0_6</title>
<path fill="none" stroke="#000000" d="M1193.5113,-1137.5462C1182.2592,-1111.6521 1168.9204,-1080.9561 1158.1386,-1056.1444"/>
<polygon fill="#000000" stroke="#000000" points="1161.3368,-1054.722 1154.1413,-1046.9454 1154.9167,-1057.5118 1161.3368,-1054.722"/>
<text text-anchor="middle" x="1201.1958" y="-1088" font-family="Courier, monospace" font-size="14.00" fill="#000000">return</text>
</g>
<!-- bb3__0_6&#45;&gt;bb9__0_6 -->
<g id="edge27" class="edge">
<title>bb3__0_6-&gt;bb9__0_6</title>
<path fill="none" stroke="#000000" d="M1380.3844,-1137.5619C1408.0334,-1123.685 1428,-1108.1442 1428,-1092.2 1428,-1092.2 1428,-1092.2 1428,-954.3 1428,-873.0202 1441.7739,-853.5174 1458.6084,-774 1465.4757,-741.5623 1477,-734.8567 1477,-701.7 1477,-701.7 1477,-701.7 1477,-563.8 1477,-548.8663 1477,-532.4103 1477,-518.1566"/>
<polygon fill="#000000" stroke="#000000" points="1480.5001,-517.7477 1477,-507.7477 1473.5001,-517.7478 1480.5001,-517.7477"/>
<text text-anchor="middle" x="1483.1958" y="-823.8" font-family="Courier, monospace" font-size="14.00" fill="#000000">unwind</text>
</g>
<!-- bb5__0_6 -->
<g id="node20" class="node">
<title>bb5__0_6</title>
<polygon fill="#c0c0c0" stroke="transparent" points="796,-856 796,-878 1381,-878 1381,-856 796,-856"/>
<polygon fill="none" stroke="#000000" points="796,-856 796,-878 1381,-878 1381,-856 796,-856"/>
<text text-anchor="start" x="1084.3007" y="-862.4" font-family="Courier, monospace" font-size="14.00" fill="#000000">5</text>
<polygon fill="none" stroke="#000000" points="796,-800 796,-856 1381,-856 1381,-800 796,-800"/>
<text text-anchor="start" x="799" y="-840.4" font-family="Courier, monospace" font-size="14.00" fill="#000000">_15 = [move _16]</text>
<text text-anchor="start" x="799" y="-823.6" font-family="Courier, monospace" font-size="14.00" fill="#000000">_14 = &amp;_15</text>
<text text-anchor="start" x="799" y="-806.8" font-family="Courier, monospace" font-size="14.00" fill="#000000">_13 = _14 as &amp;[core::fmt::rt::Argument&lt;'_&gt;] (PointerCoercion(Unsize))</text>
<polygon fill="none" stroke="#000000" points="796,-778 796,-800 1381,-800 1381,-778 796,-778"/>
<text text-anchor="start" x="799" y="-784.4" font-family="Courier, monospace" font-size="14.00" fill="#000000">_11 = Arguments::&lt;'_&gt;::new_v1(move _12, move _13)</text>
</g>
<!-- bb4__0_6&#45;&gt;bb5__0_6 -->
<g id="edge28" class="edge">
<title>bb4__0_6-&gt;bb5__0_6</title>
<path fill="none" stroke="#000000" d="M1127.7611,-972.5714C1121.3742,-949.3487 1112.9848,-918.8447 1105.5591,-891.8447"/>
<polygon fill="#000000" stroke="#000000" points="1108.8989,-890.7897 1102.8723,-882.0759 1102.1495,-892.646 1108.8989,-890.7897"/>
<text text-anchor="middle" x="1142.1958" y="-923.2" font-family="Courier, monospace" font-size="14.00" fill="#000000">return</text>
</g>
<!-- bb4__0_6&#45;&gt;bb9__0_6 -->
<g id="edge29" class="edge">
<title>bb4__0_6-&gt;bb9__0_6</title>
<path fill="none" stroke="#000000" d="M1350.0782,-972.7259C1383.8895,-961.0466 1408,-946.1461 1408,-927.4 1408,-927.4 1408,-927.4 1408,-563.8 1408,-544.908 1418.7934,-528.0703 1431.8425,-514.6172"/>
<polygon fill="#000000" stroke="#000000" points="1434.4712,-516.9457 1439.2698,-507.4999 1429.6281,-511.8916 1434.4712,-516.9457"/>
<text text-anchor="middle" x="1433.1958" y="-724.4" font-family="Courier, monospace" font-size="14.00" fill="#000000">unwind</text>
</g>
<!-- bb6__0_6 -->
<g id="node21" class="node">
<title>bb6__0_6</title>
<polygon fill="#c0c0c0" stroke="transparent" points="1005,-646.2 1005,-668.2 1195,-668.2 1195,-646.2 1005,-646.2"/>
<polygon fill="none" stroke="#000000" points="1005,-646.2 1005,-668.2 1195,-668.2 1195,-646.2 1005,-646.2"/>
<text text-anchor="start" x="1095.8007" y="-652.6" font-family="Courier, monospace" font-size="14.00" fill="#000000">6</text>
<polygon fill="none" stroke="#000000" points="1005,-624.2 1005,-646.2 1195,-646.2 1195,-624.2 1005,-624.2"/>
<text text-anchor="start" x="1007.6154" y="-630.6" font-family="Courier, monospace" font-size="14.00" fill="#000000">_10 = _print(move _11)</text>
</g>
<!-- bb5__0_6&#45;&gt;bb6__0_6 -->
<g id="edge30" class="edge">
<title>bb5__0_6-&gt;bb6__0_6</title>
<path fill="none" stroke="#000000" d="M1091.5679,-773.9462C1093.511,-744.5085 1095.8637,-708.8648 1097.5897,-682.716"/>
<polygon fill="#000000" stroke="#000000" points="1101.0984,-682.6985 1098.2647,-672.4896 1094.1136,-682.2373 1101.0984,-682.6985"/>
<text text-anchor="middle" x="1119.1958" y="-724.4" font-family="Courier, monospace" font-size="14.00" fill="#000000">return</text>
</g>
<!-- bb5__0_6&#45;&gt;bb9__0_6 -->
<g id="edge31" class="edge">
<title>bb5__0_6-&gt;bb9__0_6</title>
<path fill="none" stroke="#000000" d="M1243.9175,-773.9113C1271.1758,-759.8897 1291,-744.2965 1291,-728.6 1291,-728.6 1291,-728.6 1291,-563.8 1291,-536.9098 1356.8076,-512.8555 1410.1361,-497.7773"/>
<polygon fill="#000000" stroke="#000000" points="1411.2252,-501.1075 1419.9298,-495.0676 1409.3586,-494.361 1411.2252,-501.1075"/>
<text text-anchor="middle" x="1316.1958" y="-642" font-family="Courier, monospace" font-size="14.00" fill="#000000">unwind</text>
</g>
<!-- bb7__0_6 -->
<g id="node22" class="node">
<title>bb7__0_6</title>
<polygon fill="#c0c0c0" stroke="transparent" points="1064,-481.4 1064,-503.4 1137,-503.4 1137,-481.4 1064,-481.4"/>
<polygon fill="none" stroke="#000000" points="1064,-481.4 1064,-503.4 1137,-503.4 1137,-481.4 1064,-481.4"/>
<text text-anchor="start" x="1096.3007" y="-487.8" font-family="Courier, monospace" font-size="14.00" fill="#000000">7</text>
<polygon fill="none" stroke="#000000" points="1064,-459.4 1064,-481.4 1137,-481.4 1137,-459.4 1064,-459.4"/>
<text text-anchor="start" x="1066.9056" y="-465.8" font-family="Courier, monospace" font-size="14.00" fill="#000000">drop(_1)</text>
</g>
<!-- bb6__0_6&#45;&gt;bb7__0_6 -->
<g id="edge32" class="edge">
<title>bb6__0_6-&gt;bb7__0_6</title>
<path fill="none" stroke="#000000" d="M1100,-620.087C1100,-592.5643 1100,-548.9934 1100,-518.039"/>
<polygon fill="#000000" stroke="#000000" points="1103.5001,-517.6632 1100,-507.6632 1096.5001,-517.6632 1103.5001,-517.6632"/>
<text text-anchor="middle" x="1125.1958" y="-559.6" font-family="Courier, monospace" font-size="14.00" fill="#000000">return</text>
</g>
<!-- bb6__0_6&#45;&gt;bb9__0_6 -->
<g id="edge33" class="edge">
<title>bb6__0_6-&gt;bb9__0_6</title>
<path fill="none" stroke="#000000" d="M1134.0488,-620.1919C1160.6915,-600.6492 1199.2047,-574.1347 1235.6084,-555.4 1291.2141,-526.7832 1359.8152,-507.0793 1409.6561,-495.242"/>
<polygon fill="#000000" stroke="#000000" points="1410.7345,-498.5846 1419.6797,-492.9072 1409.1464,-491.7671 1410.7345,-498.5846"/>
<text text-anchor="middle" x="1260.1958" y="-559.6" font-family="Courier, monospace" font-size="14.00" fill="#000000">unwind</text>
</g>
<!-- bb8__0_6 -->
<g id="node23" class="node">
<title>bb8__0_6</title>
<polygon fill="#c0c0c0" stroke="transparent" points="1072,-327.6 1072,-349.6 1128,-349.6 1128,-327.6 1072,-327.6"/>
<polygon fill="none" stroke="#000000" points="1072,-327.6 1072,-349.6 1128,-349.6 1128,-327.6 1072,-327.6"/>
<text text-anchor="start" x="1095.8007" y="-334" font-family="Courier, monospace" font-size="14.00" fill="#000000">8</text>
<polygon fill="none" stroke="#000000" points="1072,-305.6 1072,-327.6 1128,-327.6 1128,-305.6 1072,-305.6"/>
<text text-anchor="start" x="1074.8042" y="-312" font-family="Courier, monospace" font-size="14.00" fill="#000000">return</text>
</g>
<!-- bb7__0_6&#45;&gt;bb8__0_6 -->
<g id="edge34" class="edge">
<title>bb7__0_6-&gt;bb8__0_6</title>
<path fill="none" stroke="#000000" d="M1100,-455.3099C1100,-430.2318 1100,-392.1046 1100,-364.0353"/>
<polygon fill="#000000" stroke="#000000" points="1103.5001,-363.818 1100,-353.8181 1096.5001,-363.8181 1103.5001,-363.818"/>
<text text-anchor="middle" x="1125.1958" y="-394.8" font-family="Courier, monospace" font-size="14.00" fill="#000000">return</text>
</g>
<!-- bb10__0_6 -->
<g id="node25" class="node">
<title>bb10__0_6</title>
<polygon fill="#add8e6" stroke="transparent" points="1424,-327.6 1424,-349.6 1530,-349.6 1530,-327.6 1424,-327.6"/>
<polygon fill="none" stroke="#000000" points="1424,-327.6 1424,-349.6 1530,-349.6 1530,-327.6 1424,-327.6"/>
<text text-anchor="start" x="1426.6084" y="-334" font-family="Courier, monospace" font-size="14.00" fill="#000000">10 (cleanup)</text>
<polygon fill="none" stroke="#000000" points="1424,-305.6 1424,-327.6 1530,-327.6 1530,-305.6 1424,-305.6"/>
<text text-anchor="start" x="1427" y="-312" font-family="Courier, monospace" font-size="14.00" fill="#000000">resume</text>
</g>
<!-- bb9__0_6&#45;&gt;bb10__0_6 -->
<g id="edge35" class="edge">
<title>bb9__0_6-&gt;bb10__0_6</title>
<path fill="none" stroke="#000000" d="M1477,-455.3099C1477,-430.2318 1477,-392.1046 1477,-364.0353"/>
<polygon fill="#000000" stroke="#000000" points="1480.5001,-363.818 1477,-353.8181 1473.5001,-363.8181 1480.5001,-363.818"/>
<text text-anchor="middle" x="1502.1958" y="-394.8" font-family="Courier, monospace" font-size="14.00" fill="#000000">return</text>
</g>
</g>
</svg>