<?xml version="1.0" encoding="UTF-8" standalone="no"?><!DOCTYPE svg PUBLIC "-//W3C//DTD SVG 1.1//EN" "http://www.w3.org/Graphics/SVG/1.1/DTD/svg11.dtd"><!-- Generated by graphviz version 2.40.1 (20161225.0304)
 --><!-- Title: Mir_0_3 Pages: 1 --><svg xmlns="http://www.w3.org/2000/svg" xmlns:xlink="http://www.w3.org/1999/xlink" width="349pt" height="258pt" viewBox="0.00 0.00 349.00 258.40">
<g id="graph0" class="graph" transform="scale(1 1) rotate(0) translate(4 254.4)">
<title>Mir_0_3</title>
<polygon fill="#ffffff" stroke="transparent" points="-4,4 -4,-254.4 345,-254.4 345,4 -4,4"/>
<text text-anchor="start" x="31.9231" y="-125.8" font-family="Courier, monospace" font-size="14.00" fill="#000000">fn main() -&gt; ()</text>
<text text-anchor="start" x="31.9231" y="-109" font-family="Courier, monospace" font-size="14.00" fill="#000000">let _1: std::option::Option&lt;i8&gt;;</text>
<text text-anchor="start" x="31.9231" y="-92.2" font-family="Courier, monospace" font-size="14.00" fill="#000000">let _2: std::option::Option&lt;i32&gt;;</text>
<text text-anchor="start" x="31.9231" y="-75.4" font-family="Courier, monospace" font-size="14.00" fill="#000000">let _3: std::option::Option&lt;i32&gt;;</text>
<text text-anchor="start" x="31.9231" y="-58.6" font-family="Courier, monospace" font-size="14.00" fill="#000000">debug x =&gt; const 5_i8;</text>
<text text-anchor="start" x="31.9231" y="-41.8" font-family="Courier, monospace" font-size="14.00" fill="#000000">debug y =&gt; _1;</text>
<text text-anchor="start" x="31.9231" y="-25" font-family="Courier, monospace" font-size="14.00" fill="#000000">debug nopt =&gt; _2;</text>
<text text-anchor="start" x="31.9231" y="-8.2" font-family="Courier, monospace" font-size="14.00" fill="#000000">debug opt =&gt; _3;</text>
<!-- bb0__0_3 -->
<g id="node1" class="node">
<title>bb0__0_3</title>
<polygon fill="#c0c0c0" stroke="transparent" points="8.5,-224.4 8.5,-246.4 333.5,-246.4 333.5,-224.4 8.5,-224.4"/>
<polygon fill="none" stroke="#000000" points="8.5,-224.4 8.5,-246.4 333.5,-246.4 333.5,-224.4 8.5,-224.4"/>
<text text-anchor="start" x="166.8007" y="-230.8" font-family="Courier, monospace" font-size="14.00" fill="#000000">0</text>
<polygon fill="none" stroke="#000000" points="8.5,-168.4 8.5,-224.4 333.5,-224.4 333.5,-168.4 8.5,-168.4"/>
<text text-anchor="start" x="11.5" y="-208.8" font-family="Courier, monospace" font-size="14.00" fill="#000000">_1 = Option::&lt;i8&gt;::Some(const 5_i8)</text>
<text text-anchor="start" x="11.5" y="-192" font-family="Courier, monospace" font-size="14.00" fill="#000000">_2 = Option::&lt;i32&gt;::None</text>
<text text-anchor="start" x="11.5" y="-175.2" font-family="Courier, monospace" font-size="14.00" fill="#000000">_3 = Option::&lt;i32&gt;::Some(const 10_i32)</text>
<polygon fill="none" stroke="#000000" points="8.5,-146.4 8.5,-168.4 333.5,-168.4 333.5,-146.4 8.5,-146.4"/>
<text text-anchor="start" x="11.5" y="-152.8" font-family="Courier, monospace" font-size="14.00" fill="#000000">return</text>
</g>
</g>
</svg>