<?xml version="1.0" encoding="UTF-8" standalone="no"?><!DOCTYPE svg PUBLIC "-//W3C//DTD SVG 1.1//EN" "http://www.w3.org/Graphics/SVG/1.1/DTD/svg11.dtd"><!-- Generated by graphviz version 2.40.1 (20161225.0304)
 --><!-- Title: Mir_0_3 Pages: 1 --><svg xmlns="http://www.w3.org/2000/svg" xmlns:xlink="http://www.w3.org/1999/xlink" width="1062pt" height="1423pt" viewBox="0.00 0.00 1061.50 1423.20">
<g id="graph0" class="graph" transform="scale(1 1) rotate(0) translate(4 1419.2)">
<title>Mir_0_3</title>
<polygon fill="#ffffff" stroke="transparent" points="-4,4 -4,-1419.2 1057.5,-1419.2 1057.5,4 -4,4"/>
<text text-anchor="start" x="341.9808" y="-377.8" font-family="Courier, monospace" font-size="14.00" fill="#000000">fn main() -&gt; ()</text>
<text text-anchor="start" x="341.9808" y="-361" font-family="Courier, monospace" font-size="14.00" fill="#000000">let _1: [i32; 5];</text>
<text text-anchor="start" x="341.9808" y="-344.2" font-family="Courier, monospace" font-size="14.00" fill="#000000">let mut _2: std::slice::Iter&lt;'_, i32&gt;;</text>
<text text-anchor="start" x="341.9808" y="-327.4" font-family="Courier, monospace" font-size="14.00" fill="#000000">let mut _3: std::slice::Iter&lt;'_, i32&gt;;</text>
<text text-anchor="start" x="341.9808" y="-310.6" font-family="Courier, monospace" font-size="14.00" fill="#000000">let mut _4: &amp;[i32];</text>
<text text-anchor="start" x="341.9808" y="-293.8" font-family="Courier, monospace" font-size="14.00" fill="#000000">let mut _5: &amp;[i32; 5];</text>
<text text-anchor="start" x="341.9808" y="-277" font-family="Courier, monospace" font-size="14.00" fill="#000000">let mut _6: std::slice::Iter&lt;'_, i32&gt;;</text>
<text text-anchor="start" x="341.9808" y="-260.2" font-family="Courier, monospace" font-size="14.00" fill="#000000">let mut _7: std::option::Option&lt;&amp;i32&gt;;</text>
<text text-anchor="start" x="341.9808" y="-243.4" font-family="Courier, monospace" font-size="14.00" fill="#000000">let mut _8: &amp;mut std::slice::Iter&lt;'_, i32&gt;;</text>
<text text-anchor="start" x="341.9808" y="-226.6" font-family="Courier, monospace" font-size="14.00" fill="#000000">let mut _9: isize;</text>
<text text-anchor="start" x="341.9808" y="-209.8" font-family="Courier, monospace" font-size="14.00" fill="#000000">let _10: &amp;i32;</text>
<text text-anchor="start" x="341.9808" y="-193" font-family="Courier, monospace" font-size="14.00" fill="#000000">let _11: ();</text>
<text text-anchor="start" x="341.9808" y="-176.2" font-family="Courier, monospace" font-size="14.00" fill="#000000">let mut _12: std::fmt::Arguments&lt;'_&gt;;</text>
<text text-anchor="start" x="341.9808" y="-159.4" font-family="Courier, monospace" font-size="14.00" fill="#000000">let mut _13: &amp;[&amp;str];</text>
<text text-anchor="start" x="341.9808" y="-142.6" font-family="Courier, monospace" font-size="14.00" fill="#000000">let mut _14: &amp;[core::fmt::rt::Argument&lt;'_&gt;];</text>
<text text-anchor="start" x="341.9808" y="-125.8" font-family="Courier, monospace" font-size="14.00" fill="#000000">let _15: &amp;[core::fmt::rt::Argument&lt;'_&gt;; 1];</text>
<text text-anchor="start" x="341.9808" y="-109" font-family="Courier, monospace" font-size="14.00" fill="#000000">let _16: [core::fmt::rt::Argument&lt;'_&gt;; 1];</text>
<text text-anchor="start" x="341.9808" y="-92.2" font-family="Courier, monospace" font-size="14.00" fill="#000000">let mut _17: core::fmt::rt::Argument&lt;'_&gt;;</text>
<text text-anchor="start" x="341.9808" y="-75.4" font-family="Courier, monospace" font-size="14.00" fill="#000000">let _18: &amp;&amp;i32;</text>
<text text-anchor="start" x="341.9808" y="-58.6" font-family="Courier, monospace" font-size="14.00" fill="#000000">let mut _19: &amp;[&amp;str; 2];</text>
<text text-anchor="start" x="341.9808" y="-41.8" font-family="Courier, monospace" font-size="14.00" fill="#000000">debug a =&gt; _1;</text>
<text text-anchor="start" x="341.9808" y="-25" font-family="Courier, monospace" font-size="14.00" fill="#000000">debug iter =&gt; _6;</text>
<text text-anchor="start" x="341.9808" y="-8.2" font-family="Courier, monospace" font-size="14.00" fill="#000000">debug element =&gt; _10;</text>
<!-- bb0__0_3 -->
<g id="node1" class="node">
<title>bb0__0_3</title>
<polygon fill="#c0c0c0" stroke="transparent" points="411,-1389.2 411,-1411.2 1046,-1411.2 1046,-1389.2 411,-1389.2"/>
<polygon fill="none" stroke="#000000" points="411,-1389.2 411,-1411.2 1046,-1411.2 1046,-1389.2 411,-1389.2"/>
<text text-anchor="start" x="724.3007" y="-1395.6" font-family="Courier, monospace" font-size="14.00" fill="#000000">0</text>
<polygon fill="none" stroke="#000000" points="411,-1333.2 411,-1389.2 1046,-1389.2 1046,-1333.2 411,-1333.2"/>
<text text-anchor="start" x="414" y="-1373.6" font-family="Courier, monospace" font-size="14.00" fill="#000000">_1 = [const 10_i32, const 20_i32, const 30_i32, const 40_i32, const 50_i32]</text>
<text text-anchor="start" x="414" y="-1356.8" font-family="Courier, monospace" font-size="14.00" fill="#000000">_5 = &amp;_1</text>
<text text-anchor="start" x="414" y="-1340" font-family="Courier, monospace" font-size="14.00" fill="#000000">_4 = move _5 as &amp;[i32] (PointerCoercion(Unsize))</text>
<polygon fill="none" stroke="#000000" points="411,-1311.2 411,-1333.2 1046,-1333.2 1046,-1311.2 411,-1311.2"/>
<text text-anchor="start" x="414" y="-1317.6" font-family="Courier, monospace" font-size="14.00" fill="#000000">_3 = core::slice::&lt;impl [i32]&gt;::iter(move _4)</text>
</g>
<!-- bb1__0_3 -->
<g id="node2" class="node">
<title>bb1__0_3</title>
<polygon fill="#c0c0c0" stroke="transparent" points="440,-1228.4 440,-1250.4 1017,-1250.4 1017,-1228.4 440,-1228.4"/>
<polygon fill="none" stroke="#000000" points="440,-1228.4 440,-1250.4 1017,-1250.4 1017,-1228.4 440,-1228.4"/>
<text text-anchor="start" x="724.3007" y="-1234.8" font-family="Courier, monospace" font-size="14.00" fill="#000000">1</text>
<polygon fill="none" stroke="#000000" points="440,-1206.4 440,-1228.4 1017,-1228.4 1017,-1206.4 440,-1206.4"/>
<text text-anchor="start" x="442.9476" y="-1212.8" font-family="Courier, monospace" font-size="14.00" fill="#000000">_2 = &lt;std::slice::Iter&lt;'_, i32&gt; as IntoIterator&gt;::into_iter(move _3)</text>
</g>
<!-- bb0__0_3&#45;&gt;bb1__0_3 -->
<g id="edge1" class="edge">
<title>bb0__0_3-&gt;bb1__0_3</title>
<path fill="none" stroke="#000000" d="M728,-1307.1852C728,-1292.9063 728,-1277.8353 728,-1264.741"/>
<polygon fill="#000000" stroke="#000000" points="731.5001,-1264.7163 728,-1254.7164 724.5001,-1264.7164 731.5001,-1264.7163"/>
<text text-anchor="middle" x="753.1958" y="-1276.6" font-family="Courier, monospace" font-size="14.00" fill="#000000">return</text>
</g>
<!-- bb2__0_3 -->
<g id="node3" class="node">
<title>bb2__0_3</title>
<polygon fill="#c0c0c0" stroke="transparent" points="675,-1123.6 675,-1145.6 781,-1145.6 781,-1123.6 675,-1123.6"/>
<polygon fill="none" stroke="#000000" points="675,-1123.6 675,-1145.6 781,-1145.6 781,-1123.6 675,-1123.6"/>
<text text-anchor="start" x="723.8007" y="-1130" font-family="Courier, monospace" font-size="14.00" fill="#000000">2</text>
<polygon fill="none" stroke="#000000" points="675,-1101.6 675,-1123.6 781,-1123.6 781,-1101.6 675,-1101.6"/>
<text text-anchor="start" x="678" y="-1108" font-family="Courier, monospace" font-size="14.00" fill="#000000">_6 = move _2</text>
<polygon fill="none" stroke="#000000" points="675,-1079.6 675,-1101.6 781,-1101.6 781,-1079.6 675,-1079.6"/>
<text text-anchor="start" x="678" y="-1086" font-family="Courier, monospace" font-size="14.00" fill="#000000">goto</text>
</g>
<!-- bb1__0_3&#45;&gt;bb2__0_3 -->
<g id="edge2" class="edge">
<title>bb1__0_3-&gt;bb2__0_3</title>
<path fill="none" stroke="#000000" d="M728,-1202.1232C728,-1189.6655 728,-1174.3904 728,-1160.0087"/>
<polygon fill="#000000" stroke="#000000" points="731.5001,-1159.7475 728,-1149.7476 724.5001,-1159.7476 731.5001,-1159.7475"/>
<text text-anchor="middle" x="753.1958" y="-1171.8" font-family="Courier, monospace" font-size="14.00" fill="#000000">return</text>
</g>
<!-- bb3__0_3 -->
<g id="node4" class="node">
<title>bb3__0_3</title>
<polygon fill="#c0c0c0" stroke="transparent" points="499,-1012.6 499,-1034.6 958,-1034.6 958,-1012.6 499,-1012.6"/>
<polygon fill="none" stroke="#000000" points="499,-1012.6 499,-1034.6 958,-1034.6 958,-1012.6 499,-1012.6"/>
<text text-anchor="start" x="724.3007" y="-1019" font-family="Courier, monospace" font-size="14.00" fill="#000000">3</text>
<polygon fill="none" stroke="#000000" points="499,-990.6 499,-1012.6 958,-1012.6 958,-990.6 499,-990.6"/>
<text text-anchor="start" x="502" y="-997" font-family="Courier, monospace" font-size="14.00" fill="#000000">_8 = &amp;mut _6</text>
<polygon fill="none" stroke="#000000" points="499,-968.6 499,-990.6 958,-990.6 958,-968.6 499,-968.6"/>
<text text-anchor="start" x="501.7378" y="-975" font-family="Courier, monospace" font-size="14.00" fill="#000000">_7 = &lt;std::slice::Iter&lt;'_, i32&gt; as Iterator&gt;::next(_8)</text>
</g>
<!-- bb2__0_3&#45;&gt;bb3__0_3 -->
<g id="edge3" class="edge">
<title>bb2__0_3-&gt;bb3__0_3</title>
<path fill="none" stroke="#000000" d="M728,-1075.3298C728,-1066.9099 728,-1057.8603 728,-1049.0839"/>
<polygon fill="#000000" stroke="#000000" points="731.5001,-1048.9607 728,-1038.9608 724.5001,-1048.9608 731.5001,-1048.9607"/>
</g>
<!-- bb4__0_3 -->
<g id="node5" class="node">
<title>bb4__0_3</title>
<polygon fill="#c0c0c0" stroke="transparent" points="546,-885.8 546,-907.8 728,-907.8 728,-885.8 546,-885.8"/>
<polygon fill="none" stroke="#000000" points="546,-885.8 546,-907.8 728,-907.8 728,-885.8 546,-885.8"/>
<text text-anchor="start" x="632.8007" y="-892.2" font-family="Courier, monospace" font-size="14.00" fill="#000000">4</text>
<polygon fill="none" stroke="#000000" points="546,-863.8 546,-885.8 728,-885.8 728,-863.8 546,-863.8"/>
<text text-anchor="start" x="549" y="-870.2" font-family="Courier, monospace" font-size="14.00" fill="#000000">_9 = discriminant(_7)</text>
<polygon fill="none" stroke="#000000" points="546,-841.8 546,-863.8 728,-863.8 728,-841.8 546,-841.8"/>
<text text-anchor="start" x="549" y="-848.2" font-family="Courier, monospace" font-size="14.00" fill="#000000">switchInt(move _9)</text>
</g>
<!-- bb3__0_3&#45;&gt;bb4__0_3 -->
<g id="edge4" class="edge">
<title>bb3__0_3-&gt;bb4__0_3</title>
<path fill="none" stroke="#000000" d="M701.4344,-964.5833C691.5234,-950.7733 680.1536,-934.9305 669.751,-920.4354"/>
<polygon fill="#000000" stroke="#000000" points="672.4303,-918.1659 663.7562,-912.0822 666.7432,-922.2473 672.4303,-918.1659"/>
<text text-anchor="middle" x="712.1958" y="-934" font-family="Courier, monospace" font-size="14.00" fill="#000000">return</text>
</g>
<!-- bb5__0_3 -->
<g id="node6" class="node">
<title>bb5__0_3</title>
<polygon fill="#c0c0c0" stroke="transparent" points="8,-758.5 8,-780.5 526,-780.5 526,-758.5 8,-758.5"/>
<polygon fill="none" stroke="#000000" points="8,-758.5 8,-780.5 526,-780.5 526,-758.5 8,-758.5"/>
<text text-anchor="start" x="262.8007" y="-764.9" font-family="Courier, monospace" font-size="14.00" fill="#000000">5</text>
<polygon fill="none" stroke="#000000" points="8,-685.5 8,-758.5 526,-758.5 526,-685.5 8,-685.5"/>
<text text-anchor="start" x="11" y="-742.9" font-family="Courier, monospace" font-size="14.00" fill="#000000">_10 = ((_7 as Some).0: &amp;i32)</text>
<text text-anchor="start" x="11" y="-726.1" font-family="Courier, monospace" font-size="14.00" fill="#000000">_19 = const _</text>
<text text-anchor="start" x="11" y="-709.3" font-family="Courier, monospace" font-size="14.00" fill="#000000">_13 = _19 as &amp;[&amp;str] (PointerCoercion(Unsize))</text>
<text text-anchor="start" x="11" y="-692.5" font-family="Courier, monospace" font-size="14.00" fill="#000000">_18 = &amp;_10</text>
<polygon fill="none" stroke="#000000" points="8,-663.5 8,-685.5 526,-685.5 526,-663.5 8,-663.5"/>
<text text-anchor="start" x="10.8427" y="-669.9" font-family="Courier, monospace" font-size="14.00" fill="#000000">_17 = core::fmt::rt::Argument::&lt;'_&gt;::new_display::&lt;&amp;i32&gt;(_18)</text>
</g>
<!-- bb4__0_3&#45;&gt;bb5__0_3 -->
<g id="edge6" class="edge">
<title>bb4__0_3-&gt;bb5__0_3</title>
<path fill="none" stroke="#000000" d="M546.9609,-837.738C511.24,-823.0344 469.0385,-805.6634 428.3838,-788.9291"/>
<polygon fill="#000000" stroke="#000000" points="429.4949,-785.6016 418.9154,-785.0317 426.8304,-792.0746 429.4949,-785.6016"/>
<text text-anchor="middle" x="501.1993" y="-807.2" font-family="Courier, monospace" font-size="14.00" fill="#000000">1</text>
</g>
<!-- bb6__0_3 -->
<g id="node7" class="node">
<title>bb6__0_3</title>
<polygon fill="#c0c0c0" stroke="transparent" points="560,-722.5 560,-744.5 658,-744.5 658,-722.5 560,-722.5"/>
<polygon fill="none" stroke="#000000" points="560,-722.5 560,-744.5 658,-744.5 658,-722.5 560,-722.5"/>
<text text-anchor="start" x="604.8007" y="-728.9" font-family="Courier, monospace" font-size="14.00" fill="#000000">6</text>
<polygon fill="none" stroke="#000000" points="560,-700.5 560,-722.5 658,-722.5 658,-700.5 560,-700.5"/>
<text text-anchor="start" x="562.8077" y="-706.9" font-family="Courier, monospace" font-size="14.00" fill="#000000">unreachable</text>
</g>
<!-- bb4__0_3&#45;&gt;bb6__0_3 -->
<g id="edge7" class="edge">
<title>bb4__0_3-&gt;bb6__0_3</title>
<path fill="none" stroke="#000000" d="M626.4925,-837.667C625.0003,-831.7198 623.5792,-825.6113 622.4126,-819.8 618.3817,-799.7214 615.181,-777.0676 612.9186,-758.6738"/>
<polygon fill="#000000" stroke="#000000" points="616.3846,-758.1794 611.7274,-748.663 609.4336,-759.0065 616.3846,-758.1794"/>
<text text-anchor="middle" x="659.7937" y="-807.2" font-family="Courier, monospace" font-size="14.00" fill="#000000">otherwise</text>
</g>
<!-- bb7__0_3 -->
<g id="node8" class="node">
<title>bb7__0_3</title>
<polygon fill="#c0c0c0" stroke="transparent" points="692,-722.5 692,-744.5 748,-744.5 748,-722.5 692,-722.5"/>
<polygon fill="none" stroke="#000000" points="692,-722.5 692,-744.5 748,-744.5 748,-722.5 692,-722.5"/>
<text text-anchor="start" x="715.8007" y="-728.9" font-family="Courier, monospace" font-size="14.00" fill="#000000">7</text>
<polygon fill="none" stroke="#000000" points="692,-700.5 692,-722.5 748,-722.5 748,-700.5 692,-700.5"/>
<text text-anchor="start" x="694.8042" y="-706.9" font-family="Courier, monospace" font-size="14.00" fill="#000000">return</text>
</g>
<!-- bb4__0_3&#45;&gt;bb7__0_3 -->
<g id="edge5" class="edge">
<title>bb4__0_3-&gt;bb7__0_3</title>
<path fill="none" stroke="#000000" d="M684.6326,-837.5515C689.6939,-832.0336 694.3254,-826.0756 698,-819.8 708.7802,-801.3894 714.2797,-778.1669 717.0845,-759.0266"/>
<polygon fill="#000000" stroke="#000000" points="720.5865,-759.2325 718.3819,-748.8696 713.643,-758.3455 720.5865,-759.2325"/>
<text text-anchor="middle" x="709.1993" y="-807.2" font-family="Courier, monospace" font-size="14.00" fill="#000000">0</text>
</g>
<!-- bb8__0_3 -->
<g id="node9" class="node">
<title>bb8__0_3</title>
<polygon fill="#c0c0c0" stroke="transparent" points="122,-581.2 122,-603.2 707,-603.2 707,-581.2 122,-581.2"/>
<polygon fill="none" stroke="#000000" points="122,-581.2 122,-603.2 707,-603.2 707,-581.2 122,-581.2"/>
<text text-anchor="start" x="410.3007" y="-587.6" font-family="Courier, monospace" font-size="14.00" fill="#000000">8</text>
<polygon fill="none" stroke="#000000" points="122,-525.2 122,-581.2 707,-581.2 707,-525.2 122,-525.2"/>
<text text-anchor="start" x="125" y="-565.6" font-family="Courier, monospace" font-size="14.00" fill="#000000">_16 = [move _17]</text>
<text text-anchor="start" x="125" y="-548.8" font-family="Courier, monospace" font-size="14.00" fill="#000000">_15 = &amp;_16</text>
<text text-anchor="start" x="125" y="-532" font-family="Courier, monospace" font-size="14.00" fill="#000000">_14 = _15 as &amp;[core::fmt::rt::Argument&lt;'_&gt;] (PointerCoercion(Unsize))</text>
<polygon fill="none" stroke="#000000" points="122,-503.2 122,-525.2 707,-525.2 707,-503.2 122,-503.2"/>
<text text-anchor="start" x="125" y="-509.6" font-family="Courier, monospace" font-size="14.00" fill="#000000">_12 = Arguments::&lt;'_&gt;::new_v1(move _13, move _14)</text>
</g>
<!-- bb5__0_3&#45;&gt;bb8__0_3 -->
<g id="edge8" class="edge">
<title>bb5__0_3-&gt;bb8__0_3</title>
<path fill="none" stroke="#000000" d="M321.3197,-659.9399C334.065,-645.2611 347.6377,-629.6295 360.3533,-614.9849"/>
<polygon fill="#000000" stroke="#000000" points="363.0022,-617.2726 366.9157,-607.427 357.7166,-612.6832 363.0022,-617.2726"/>
<text text-anchor="middle" x="375.1958" y="-629.4" font-family="Courier, monospace" font-size="14.00" fill="#000000">return</text>
</g>
<!-- bb9__0_3 -->
<g id="node10" class="node">
<title>bb9__0_3</title>
<polygon fill="#c0c0c0" stroke="transparent" points="508,-420.4 508,-442.4 698,-442.4 698,-420.4 508,-420.4"/>
<polygon fill="none" stroke="#000000" points="508,-420.4 508,-442.4 698,-442.4 698,-420.4 508,-420.4"/>
<text text-anchor="start" x="598.8007" y="-426.8" font-family="Courier, monospace" font-size="14.00" fill="#000000">9</text>
<polygon fill="none" stroke="#000000" points="508,-398.4 508,-420.4 698,-420.4 698,-398.4 508,-398.4"/>
<text text-anchor="start" x="510.6154" y="-404.8" font-family="Courier, monospace" font-size="14.00" fill="#000000">_11 = _print(move _12)</text>
</g>
<!-- bb8__0_3&#45;&gt;bb9__0_3 -->
<g id="edge9" class="edge">
<title>bb8__0_3-&gt;bb9__0_3</title>
<path fill="none" stroke="#000000" d="M490.8735,-499.1852C513.4978,-483.2884 537.5194,-466.4096 557.5006,-452.37"/>
<polygon fill="#000000" stroke="#000000" points="559.6307,-455.1509 565.8007,-446.5379 555.6063,-449.4234 559.6307,-455.1509"/>
<text text-anchor="middle" x="562.1958" y="-468.6" font-family="Courier, monospace" font-size="14.00" fill="#000000">return</text>
</g>
<!-- bb9__0_3&#45;&gt;bb3__0_3 -->
<g id="edge10" class="edge">
<title>bb9__0_3-&gt;bb3__0_3</title>
<path fill="none" stroke="#000000" d="M693.0718,-446.4295C741.7507,-466.6114 792,-500.2646 792,-553.2 792,-874.8 792,-874.8 792,-874.8 792,-903.772 778.5196,-932.8589 763.9323,-955.8528"/>
<polygon fill="#000000" stroke="#000000" points="760.9074,-954.0819 758.3132,-964.3542 766.7471,-957.9417 760.9074,-954.0819"/>
<text text-anchor="middle" x="817.1958" y="-718.3" font-family="Courier, monospace" font-size="14.00" fill="#000000">return</text>
</g>
</g>
</svg>