<?xml version="1.0" encoding="UTF-8" standalone="no"?><!DOCTYPE svg PUBLIC "-//W3C//DTD SVG 1.1//EN" "http://www.w3.org/Graphics/SVG/1.1/DTD/svg11.dtd"><!-- Generated by graphviz version 2.40.1 (20161225.0304)
 --><!-- Title: __crate__ Pages: 1 --><svg xmlns="http://www.w3.org/2000/svg" xmlns:xlink="http://www.w3.org/1999/xlink" width="1830pt" height="3808pt" viewBox="0.00 0.00 1830.00 3807.60">
<g id="graph0" class="graph" transform="scale(1 1) rotate(0) translate(4 3803.6)">
<title>__crate__</title>
<polygon fill="#ffffff" stroke="transparent" points="-4,4 -4,-3803.6 1826,-3803.6 1826,4 -4,4"/>
<g id="clust1" class="cluster">
<title>cluster_Mir_0_4</title>
<polygon fill="none" stroke="#000000" points="8,-2433.7 8,-3170 902,-3170 902,-2433.7 8,-2433.7"/>
<text text-anchor="start" x="291.2273" y="-3153.4" font-family="Courier, monospace" font-size="14.00" fill="#000000">fn foo(_1: &amp;std::cell::Cell&lt;u32&gt;) -&gt; ()</text>
<text text-anchor="start" x="291.2273" y="-3136.6" font-family="Courier, monospace" font-size="14.00" fill="#000000">let _2: u32;</text>
<text text-anchor="start" x="291.2273" y="-3119.8" font-family="Courier, monospace" font-size="14.00" fill="#000000">let _3: ();</text>
<text text-anchor="start" x="291.2273" y="-3103" font-family="Courier, monospace" font-size="14.00" fill="#000000">let mut _4: u32;</text>
<text text-anchor="start" x="291.2273" y="-3086.2" font-family="Courier, monospace" font-size="14.00" fill="#000000">let mut _5: u32;</text>
<text text-anchor="start" x="291.2273" y="-3069.4" font-family="Courier, monospace" font-size="14.00" fill="#000000">let mut _6: (u32, bool);</text>
<text text-anchor="start" x="291.2273" y="-3052.6" font-family="Courier, monospace" font-size="14.00" fill="#000000">debug cell =&gt; _1;</text>
<text text-anchor="start" x="291.2273" y="-3035.8" font-family="Courier, monospace" font-size="14.00" fill="#000000">debug value =&gt; _2;</text>
</g>
<g id="clust2" class="cluster">
<title>cluster_Mir_0_5</title>
<polygon fill="none" stroke="#000000" points="910,-8 910,-3791.6 1814,-3791.6 1814,-8 910,-8"/>
<text text-anchor="start" x="1177.2308" y="-3775" font-family="Courier, monospace" font-size="14.00" fill="#000000">fn main() -&gt; ()</text>
<text text-anchor="start" x="1177.2308" y="-3758.2" font-family="Courier, monospace" font-size="14.00" fill="#000000">let _1: std::cell::Cell&lt;u32&gt;;</text>
<text text-anchor="start" x="1177.2308" y="-3741.4" font-family="Courier, monospace" font-size="14.00" fill="#000000">let _2: u32;</text>
<text text-anchor="start" x="1177.2308" y="-3724.6" font-family="Courier, monospace" font-size="14.00" fill="#000000">let mut _3: u32;</text>
<text text-anchor="start" x="1177.2308" y="-3707.8" font-family="Courier, monospace" font-size="14.00" fill="#000000">let mut _4: &amp;std::cell::Cell&lt;u32&gt;;</text>
<text text-anchor="start" x="1177.2308" y="-3691" font-family="Courier, monospace" font-size="14.00" fill="#000000">let mut _5: (u32, bool);</text>
<text text-anchor="start" x="1177.2308" y="-3674.2" font-family="Courier, monospace" font-size="14.00" fill="#000000">let _6: ();</text>
<text text-anchor="start" x="1177.2308" y="-3657.4" font-family="Courier, monospace" font-size="14.00" fill="#000000">let mut _7: std::fmt::Arguments&lt;'_&gt;;</text>
<text text-anchor="start" x="1177.2308" y="-3640.6" font-family="Courier, monospace" font-size="14.00" fill="#000000">let mut _8: &amp;[&amp;str];</text>
<text text-anchor="start" x="1177.2308" y="-3623.8" font-family="Courier, monospace" font-size="14.00" fill="#000000">let mut _9: &amp;[core::fmt::rt::Argument&lt;'_&gt;];</text>
<text text-anchor="start" x="1177.2308" y="-3607" font-family="Courier, monospace" font-size="14.00" fill="#000000">let _10: &amp;[core::fmt::rt::Argument&lt;'_&gt;; 1];</text>
<text text-anchor="start" x="1177.2308" y="-3590.2" font-family="Courier, monospace" font-size="14.00" fill="#000000">let _11: [core::fmt::rt::Argument&lt;'_&gt;; 1];</text>
<text text-anchor="start" x="1177.2308" y="-3573.4" font-family="Courier, monospace" font-size="14.00" fill="#000000">let mut _12: core::fmt::rt::Argument&lt;'_&gt;;</text>
<text text-anchor="start" x="1177.2308" y="-3556.6" font-family="Courier, monospace" font-size="14.00" fill="#000000">let _13: &amp;u32;</text>
<text text-anchor="start" x="1177.2308" y="-3539.8" font-family="Courier, monospace" font-size="14.00" fill="#000000">let _14: u32;</text>
<text text-anchor="start" x="1177.2308" y="-3523" font-family="Courier, monospace" font-size="14.00" fill="#000000">let mut _15: &amp;std::cell::Cell&lt;u32&gt;;</text>
<text text-anchor="start" x="1177.2308" y="-3506.2" font-family="Courier, monospace" font-size="14.00" fill="#000000">let _16: ();</text>
<text text-anchor="start" x="1177.2308" y="-3489.4" font-family="Courier, monospace" font-size="14.00" fill="#000000">let _17: &amp;std::cell::Cell&lt;u32&gt;;</text>
<text text-anchor="start" x="1177.2308" y="-3472.6" font-family="Courier, monospace" font-size="14.00" fill="#000000">let _18: ();</text>
<text text-anchor="start" x="1177.2308" y="-3455.8" font-family="Courier, monospace" font-size="14.00" fill="#000000">let mut _19: std::fmt::Arguments&lt;'_&gt;;</text>
<text text-anchor="start" x="1177.2308" y="-3439" font-family="Courier, monospace" font-size="14.00" fill="#000000">let mut _20: &amp;[&amp;str];</text>
<text text-anchor="start" x="1177.2308" y="-3422.2" font-family="Courier, monospace" font-size="14.00" fill="#000000">let mut _21: &amp;[core::fmt::rt::Argument&lt;'_&gt;];</text>
<text text-anchor="start" x="1177.2308" y="-3405.4" font-family="Courier, monospace" font-size="14.00" fill="#000000">let _22: &amp;[core::fmt::rt::Argument&lt;'_&gt;; 1];</text>
<text text-anchor="start" x="1177.2308" y="-3388.6" font-family="Courier, monospace" font-size="14.00" fill="#000000">let _23: [core::fmt::rt::Argument&lt;'_&gt;; 1];</text>
<text text-anchor="start" x="1177.2308" y="-3371.8" font-family="Courier, monospace" font-size="14.00" fill="#000000">let mut _24: core::fmt::rt::Argument&lt;'_&gt;;</text>
<text text-anchor="start" x="1177.2308" y="-3355" font-family="Courier, monospace" font-size="14.00" fill="#000000">let _25: &amp;u32;</text>
<text text-anchor="start" x="1177.2308" y="-3338.2" font-family="Courier, monospace" font-size="14.00" fill="#000000">let _26: u32;</text>
<text text-anchor="start" x="1177.2308" y="-3321.4" font-family="Courier, monospace" font-size="14.00" fill="#000000">let mut _27: &amp;std::cell::Cell&lt;u32&gt;;</text>
<text text-anchor="start" x="1177.2308" y="-3304.6" font-family="Courier, monospace" font-size="14.00" fill="#000000">let _28: ();</text>
<text text-anchor="start" x="1177.2308" y="-3287.8" font-family="Courier, monospace" font-size="14.00" fill="#000000">let mut _29: &amp;std::cell::Cell&lt;u32&gt;;</text>
<text text-anchor="start" x="1177.2308" y="-3271" font-family="Courier, monospace" font-size="14.00" fill="#000000">let _30: ();</text>
<text text-anchor="start" x="1177.2308" y="-3254.2" font-family="Courier, monospace" font-size="14.00" fill="#000000">let mut _31: std::fmt::Arguments&lt;'_&gt;;</text>
<text text-anchor="start" x="1177.2308" y="-3237.4" font-family="Courier, monospace" font-size="14.00" fill="#000000">let mut _32: &amp;[&amp;str];</text>
<text text-anchor="start" x="1177.2308" y="-3220.6" font-family="Courier, monospace" font-size="14.00" fill="#000000">let mut _33: &amp;[core::fmt::rt::Argument&lt;'_&gt;];</text>
<text text-anchor="start" x="1177.2308" y="-3203.8" font-family="Courier, monospace" font-size="14.00" fill="#000000">let _34: &amp;[core::fmt::rt::Argument&lt;'_&gt;; 1];</text>
<text text-anchor="start" x="1177.2308" y="-3187" font-family="Courier, monospace" font-size="14.00" fill="#000000">let _35: [core::fmt::rt::Argument&lt;'_&gt;; 1];</text>
<text text-anchor="start" x="1177.2308" y="-3170.2" font-family="Courier, monospace" font-size="14.00" fill="#000000">let mut _36: core::fmt::rt::Argument&lt;'_&gt;;</text>
<text text-anchor="start" x="1177.2308" y="-3153.4" font-family="Courier, monospace" font-size="14.00" fill="#000000">let _37: &amp;u32;</text>
<text text-anchor="start" x="1177.2308" y="-3136.6" font-family="Courier, monospace" font-size="14.00" fill="#000000">let _38: u32;</text>
<text text-anchor="start" x="1177.2308" y="-3119.8" font-family="Courier, monospace" font-size="14.00" fill="#000000">let mut _39: &amp;std::cell::Cell&lt;u32&gt;;</text>
<text text-anchor="start" x="1177.2308" y="-3103" font-family="Courier, monospace" font-size="14.00" fill="#000000">let mut _40: &amp;[&amp;str; 2];</text>
<text text-anchor="start" x="1177.2308" y="-3086.2" font-family="Courier, monospace" font-size="14.00" fill="#000000">let mut _41: &amp;[&amp;str; 2];</text>
<text text-anchor="start" x="1177.2308" y="-3069.4" font-family="Courier, monospace" font-size="14.00" fill="#000000">let mut _42: &amp;[&amp;str; 2];</text>
<text text-anchor="start" x="1177.2308" y="-3052.6" font-family="Courier, monospace" font-size="14.00" fill="#000000">debug cell =&gt; _1;</text>
<text text-anchor="start" x="1177.2308" y="-3035.8" font-family="Courier, monospace" font-size="14.00" fill="#000000">debug new_value =&gt; _2;</text>
</g>
<!-- bb0__0_4 -->
<g id="node1" class="node">
<title>bb0__0_4</title>
<polygon fill="#c0c0c0" stroke="transparent" points="348,-2993.6 348,-3015.6 563,-3015.6 563,-2993.6 348,-2993.6"/>
<polygon fill="none" stroke="#000000" points="348,-2993.6 348,-3015.6 563,-3015.6 563,-2993.6 348,-2993.6"/>
<text text-anchor="start" x="451.3007" y="-3000" font-family="Courier, monospace" font-size="14.00" fill="#000000">0</text>
<polygon fill="none" stroke="#000000" points="348,-2971.6 348,-2993.6 563,-2993.6 563,-2971.6 348,-2971.6"/>
<text text-anchor="start" x="350.5175" y="-2978" font-family="Courier, monospace" font-size="14.00" fill="#000000">_2 = Cell::&lt;u32&gt;::get(_1)</text>
</g>
<!-- bb1__0_4 -->
<g id="node2" class="node">
<title>bb1__0_4</title>
<polygon fill="#c0c0c0" stroke="transparent" points="24,-2850.3 24,-2872.3 886,-2872.3 886,-2850.3 24,-2850.3"/>
<polygon fill="none" stroke="#000000" points="24,-2850.3 24,-2872.3 886,-2872.3 886,-2850.3 24,-2850.3"/>
<text text-anchor="start" x="450.8007" y="-2856.7" font-family="Courier, monospace" font-size="14.00" fill="#000000">1</text>
<polygon fill="none" stroke="#000000" points="24,-2811.3 24,-2850.3 886,-2850.3 886,-2811.3 24,-2811.3"/>
<text text-anchor="start" x="27" y="-2834.7" font-family="Courier, monospace" font-size="14.00" fill="#000000">_5 = _2</text>
<text text-anchor="start" x="27" y="-2817.9" font-family="Courier, monospace" font-size="14.00" fill="#000000">_6 = CheckedMul(_5, const 2_u32)</text>
<polygon fill="none" stroke="#000000" points="24,-2789.3 24,-2811.3 886,-2811.3 886,-2789.3 24,-2789.3"/>
<text text-anchor="start" x="26.6714" y="-2795.7" font-family="Courier, monospace" font-size="14.00" fill="#000000">assert(!move (_6.1: bool), "attempt to compute `{} * {}`, which would overflow", move _5, const 2_u32)</text>
</g>
<!-- bb0__0_4&#45;&gt;bb1__0_4 -->
<g id="edge1" class="edge">
<title>bb0__0_4-&gt;bb1__0_4</title>
<path fill="none" stroke="#000000" d="M455,-2967.5237C455,-2945.9118 455,-2914.4324 455,-2887.1779"/>
<polygon fill="#000000" stroke="#000000" points="458.5001,-2886.9685 455,-2876.9685 451.5001,-2886.9686 458.5001,-2886.9685"/>
<text text-anchor="middle" x="480.1958" y="-2918" font-family="Courier, monospace" font-size="14.00" fill="#000000">return</text>
</g>
<!-- bb2__0_4 -->
<g id="node3" class="node">
<title>bb2__0_4</title>
<polygon fill="#c0c0c0" stroke="transparent" points="310,-2669 310,-2691 601,-2691 601,-2669 310,-2669"/>
<polygon fill="none" stroke="#000000" points="310,-2669 310,-2691 601,-2691 601,-2669 310,-2669"/>
<text text-anchor="start" x="451.3007" y="-2675.4" font-family="Courier, monospace" font-size="14.00" fill="#000000">2</text>
<polygon fill="none" stroke="#000000" points="310,-2647 310,-2669 601,-2669 601,-2647 310,-2647"/>
<text text-anchor="start" x="313" y="-2653.4" font-family="Courier, monospace" font-size="14.00" fill="#000000">_4 = move (_6.0: u32)</text>
<polygon fill="none" stroke="#000000" points="310,-2625 310,-2647 601,-2647 601,-2625 310,-2625"/>
<text text-anchor="start" x="312.7238" y="-2631.4" font-family="Courier, monospace" font-size="14.00" fill="#000000">_3 = Cell::&lt;u32&gt;::set(_1, move _4)</text>
</g>
<!-- bb1__0_4&#45;&gt;bb2__0_4 -->
<g id="edge2" class="edge">
<title>bb1__0_4-&gt;bb2__0_4</title>
<path fill="none" stroke="#000000" d="M455,-2785.7675C455,-2760.9117 455,-2730.1798 455,-2705.0854"/>
<polygon fill="#000000" stroke="#000000" points="458.5001,-2705.0642 455,-2695.0642 451.5001,-2705.0643 458.5001,-2705.0642"/>
<text text-anchor="middle" x="484.3951" y="-2736.2" font-family="Courier, monospace" font-size="14.00" fill="#000000">success</text>
</g>
<!-- bb3__0_4 -->
<g id="node4" class="node">
<title>bb3__0_4</title>
<polygon fill="#c0c0c0" stroke="transparent" points="427,-2467.7 427,-2489.7 483,-2489.7 483,-2467.7 427,-2467.7"/>
<polygon fill="none" stroke="#000000" points="427,-2467.7 427,-2489.7 483,-2489.7 483,-2467.7 427,-2467.7"/>
<text text-anchor="start" x="450.8007" y="-2474.1" font-family="Courier, monospace" font-size="14.00" fill="#000000">3</text>
<polygon fill="none" stroke="#000000" points="427,-2445.7 427,-2467.7 483,-2467.7 483,-2445.7 427,-2445.7"/>
<text text-anchor="start" x="429.8042" y="-2452.1" font-family="Courier, monospace" font-size="14.00" fill="#000000">return</text>
</g>
<!-- bb2__0_4&#45;&gt;bb3__0_4 -->
<g id="edge3" class="edge">
<title>bb2__0_4-&gt;bb3__0_4</title>
<path fill="none" stroke="#000000" d="M455,-2620.8565C455,-2587.086 455,-2537.5514 455,-2504.0354"/>
<polygon fill="#000000" stroke="#000000" points="458.5001,-2503.7567 455,-2493.7567 451.5001,-2503.7568 458.5001,-2503.7567"/>
<text text-anchor="middle" x="480.1958" y="-2571.4" font-family="Courier, monospace" font-size="14.00" fill="#000000">return</text>
</g>
<!-- bb0__0_5 -->
<g id="node5" class="node">
<title>bb0__0_5</title>
<polygon fill="#c0c0c0" stroke="transparent" points="1217,-2993.6 1217,-3015.6 1508,-3015.6 1508,-2993.6 1217,-2993.6"/>
<polygon fill="none" stroke="#000000" points="1217,-2993.6 1217,-3015.6 1508,-3015.6 1508,-2993.6 1217,-2993.6"/>
<text text-anchor="start" x="1358.3007" y="-3000" font-family="Courier, monospace" font-size="14.00" fill="#000000">0</text>
<polygon fill="none" stroke="#000000" points="1217,-2971.6 1217,-2993.6 1508,-2993.6 1508,-2971.6 1217,-2971.6"/>
<text text-anchor="start" x="1219.7238" y="-2978" font-family="Courier, monospace" font-size="14.00" fill="#000000">_1 = Cell::&lt;u32&gt;::new(const 1_u32)</text>
</g>
<!-- bb1__0_5 -->
<g id="node6" class="node">
<title>bb1__0_5</title>
<polygon fill="#c0c0c0" stroke="transparent" points="1234,-2842.3 1234,-2864.3 1491,-2864.3 1491,-2842.3 1234,-2842.3"/>
<polygon fill="none" stroke="#000000" points="1234,-2842.3 1234,-2864.3 1491,-2864.3 1491,-2842.3 1234,-2842.3"/>
<text text-anchor="start" x="1358.3007" y="-2848.7" font-family="Courier, monospace" font-size="14.00" fill="#000000">1</text>
<polygon fill="none" stroke="#000000" points="1234,-2820.3 1234,-2842.3 1491,-2842.3 1491,-2820.3 1234,-2820.3"/>
<text text-anchor="start" x="1237" y="-2826.7" font-family="Courier, monospace" font-size="14.00" fill="#000000">_4 = &amp;_1</text>
<polygon fill="none" stroke="#000000" points="1234,-2798.3 1234,-2820.3 1491,-2820.3 1491,-2798.3 1234,-2798.3"/>
<text text-anchor="start" x="1236.521" y="-2804.7" font-family="Courier, monospace" font-size="14.00" fill="#000000">_3 = Cell::&lt;u32&gt;::get(move _4)</text>
</g>
<!-- bb0__0_5&#45;&gt;bb1__0_5 -->
<g id="edge4" class="edge">
<title>bb0__0_5-&gt;bb1__0_5</title>
<path fill="none" stroke="#000000" d="M1362,-2967.5237C1362,-2943.6618 1362,-2907.771 1362,-2878.819"/>
<polygon fill="#000000" stroke="#000000" points="1365.5001,-2878.5015 1362,-2868.5015 1358.5001,-2878.5015 1365.5001,-2878.5015"/>
<text text-anchor="middle" x="1387.1958" y="-2918" font-family="Courier, monospace" font-size="14.00" fill="#000000">return</text>
</g>
<!-- bb2__0_5 -->
<g id="node7" class="node">
<title>bb2__0_5</title>
<polygon fill="#c0c0c0" stroke="transparent" points="927,-2669 927,-2691 1798,-2691 1798,-2669 927,-2669"/>
<polygon fill="none" stroke="#000000" points="927,-2669 927,-2691 1798,-2691 1798,-2669 927,-2669"/>
<text text-anchor="start" x="1358.3007" y="-2675.4" font-family="Courier, monospace" font-size="14.00" fill="#000000">2</text>
<polygon fill="none" stroke="#000000" points="927,-2647 927,-2669 1798,-2669 1798,-2647 927,-2647"/>
<text text-anchor="start" x="930" y="-2653.4" font-family="Courier, monospace" font-size="14.00" fill="#000000">_5 = CheckedAdd(_3, const 10_u32)</text>
<polygon fill="none" stroke="#000000" points="927,-2625 927,-2647 1798,-2647 1798,-2625 927,-2625"/>
<text text-anchor="start" x="929.9721" y="-2631.4" font-family="Courier, monospace" font-size="14.00" fill="#000000">assert(!move (_5.1: bool), "attempt to compute `{} + {}`, which would overflow", move _3, const 10_u32)</text>
</g>
<!-- bb1__0_5&#45;&gt;bb2__0_5 -->
<g id="edge5" class="edge">
<title>bb1__0_5-&gt;bb2__0_5</title>
<path fill="none" stroke="#000000" d="M1362,-2794.1228C1362,-2768.1952 1362,-2733.3803 1362,-2705.4502"/>
<polygon fill="#000000" stroke="#000000" points="1365.5001,-2705.1157 1362,-2695.1157 1358.5001,-2705.1157 1365.5001,-2705.1157"/>
<text text-anchor="middle" x="1387.1958" y="-2736.2" font-family="Courier, monospace" font-size="14.00" fill="#000000">return</text>
</g>
<!-- bb3__0_5 -->
<g id="node8" class="node">
<title>bb3__0_5</title>
<polygon fill="#c0c0c0" stroke="transparent" points="1171,-2503.7 1171,-2525.7 1554,-2525.7 1554,-2503.7 1171,-2503.7"/>
<polygon fill="none" stroke="#000000" points="1171,-2503.7 1171,-2525.7 1554,-2525.7 1554,-2503.7 1171,-2503.7"/>
<text text-anchor="start" x="1358.3007" y="-2510.1" font-family="Courier, monospace" font-size="14.00" fill="#000000">3</text>
<polygon fill="none" stroke="#000000" points="1171,-2430.7 1171,-2503.7 1554,-2503.7 1554,-2430.7 1171,-2430.7"/>
<text text-anchor="start" x="1174" y="-2488.1" font-family="Courier, monospace" font-size="14.00" fill="#000000">_2 = move (_5.0: u32)</text>
<text text-anchor="start" x="1174" y="-2471.3" font-family="Courier, monospace" font-size="14.00" fill="#000000">_42 = const _</text>
<text text-anchor="start" x="1174" y="-2454.5" font-family="Courier, monospace" font-size="14.00" fill="#000000">_8 = _42 as &amp;[&amp;str] (PointerCoercion(Unsize))</text>
<text text-anchor="start" x="1174" y="-2437.7" font-family="Courier, monospace" font-size="14.00" fill="#000000">_15 = &amp;_1</text>
<polygon fill="none" stroke="#000000" points="1171,-2408.7 1171,-2430.7 1554,-2430.7 1554,-2408.7 1171,-2408.7"/>
<text text-anchor="start" x="1174" y="-2415.1" font-family="Courier, monospace" font-size="14.00" fill="#000000">_14 = Cell::&lt;u32&gt;::get(move _15)</text>
</g>
<!-- bb2__0_5&#45;&gt;bb3__0_5 -->
<g id="edge6" class="edge">
<title>bb2__0_5-&gt;bb3__0_5</title>
<path fill="none" stroke="#000000" d="M1362,-2620.8565C1362,-2598.0293 1362,-2567.9994 1362,-2540.5827"/>
<polygon fill="#000000" stroke="#000000" points="1365.5001,-2540.2234 1362,-2530.2234 1358.5001,-2540.2234 1365.5001,-2540.2234"/>
<text text-anchor="middle" x="1391.3951" y="-2571.4" font-family="Courier, monospace" font-size="14.00" fill="#000000">success</text>
</g>
<!-- bb4__0_5 -->
<g id="node9" class="node">
<title>bb4__0_5</title>
<polygon fill="#c0c0c0" stroke="transparent" points="1108,-2288.4 1108,-2310.4 1617,-2310.4 1617,-2288.4 1108,-2288.4"/>
<polygon fill="none" stroke="#000000" points="1108,-2288.4 1108,-2310.4 1617,-2310.4 1617,-2288.4 1108,-2288.4"/>
<text text-anchor="start" x="1358.3007" y="-2294.8" font-family="Courier, monospace" font-size="14.00" fill="#000000">4</text>
<polygon fill="none" stroke="#000000" points="1108,-2266.4 1108,-2288.4 1617,-2288.4 1617,-2266.4 1108,-2266.4"/>
<text text-anchor="start" x="1111" y="-2272.8" font-family="Courier, monospace" font-size="14.00" fill="#000000">_13 = &amp;_14</text>
<polygon fill="none" stroke="#000000" points="1108,-2244.4 1108,-2266.4 1617,-2266.4 1617,-2244.4 1108,-2244.4"/>
<text text-anchor="start" x="1110.542" y="-2250.8" font-family="Courier, monospace" font-size="14.00" fill="#000000">_12 = core::fmt::rt::Argument::&lt;'_&gt;::new_display::&lt;u32&gt;(_13)</text>
</g>
<!-- bb3__0_5&#45;&gt;bb4__0_5 -->
<g id="edge7" class="edge">
<title>bb3__0_5-&gt;bb4__0_5</title>
<path fill="none" stroke="#000000" d="M1362,-2405.1251C1362,-2378.8685 1362,-2348.8483 1362,-2324.5118"/>
<polygon fill="#000000" stroke="#000000" points="1365.5001,-2324.4573 1362,-2314.4573 1358.5001,-2324.4574 1365.5001,-2324.4573"/>
<text text-anchor="middle" x="1387.1958" y="-2355.6" font-family="Courier, monospace" font-size="14.00" fill="#000000">return</text>
</g>
<!-- bb5__0_5 -->
<g id="node10" class="node">
<title>bb5__0_5</title>
<polygon fill="#c0c0c0" stroke="transparent" points="1074,-2123.6 1074,-2145.6 1651,-2145.6 1651,-2123.6 1074,-2123.6"/>
<polygon fill="none" stroke="#000000" points="1074,-2123.6 1074,-2145.6 1651,-2145.6 1651,-2123.6 1074,-2123.6"/>
<text text-anchor="start" x="1358.3007" y="-2130" font-family="Courier, monospace" font-size="14.00" fill="#000000">5</text>
<polygon fill="none" stroke="#000000" points="1074,-2067.6 1074,-2123.6 1651,-2123.6 1651,-2067.6 1074,-2067.6"/>
<text text-anchor="start" x="1077" y="-2108" font-family="Courier, monospace" font-size="14.00" fill="#000000">_11 = [move _12]</text>
<text text-anchor="start" x="1077" y="-2091.2" font-family="Courier, monospace" font-size="14.00" fill="#000000">_10 = &amp;_11</text>
<text text-anchor="start" x="1077" y="-2074.4" font-family="Courier, monospace" font-size="14.00" fill="#000000">_9 = _10 as &amp;[core::fmt::rt::Argument&lt;'_&gt;] (PointerCoercion(Unsize))</text>
<polygon fill="none" stroke="#000000" points="1074,-2045.6 1074,-2067.6 1651,-2067.6 1651,-2045.6 1074,-2045.6"/>
<text text-anchor="start" x="1077" y="-2052" font-family="Courier, monospace" font-size="14.00" fill="#000000">_7 = Arguments::&lt;'_&gt;::new_v1(move _8, move _9)</text>
</g>
<!-- bb4__0_5&#45;&gt;bb5__0_5 -->
<g id="edge8" class="edge">
<title>bb4__0_5-&gt;bb5__0_5</title>
<path fill="none" stroke="#000000" d="M1362,-2240.1714C1362,-2217.0505 1362,-2186.7122 1362,-2159.8002"/>
<polygon fill="#000000" stroke="#000000" points="1365.5001,-2159.6758 1362,-2149.6759 1358.5001,-2159.6759 1365.5001,-2159.6758"/>
<text text-anchor="middle" x="1387.1958" y="-2190.8" font-family="Courier, monospace" font-size="14.00" fill="#000000">return</text>
</g>
<!-- bb6__0_5 -->
<g id="node11" class="node">
<title>bb6__0_5</title>
<polygon fill="#c0c0c0" stroke="transparent" points="1276,-1924.8 1276,-1946.8 1449,-1946.8 1449,-1924.8 1276,-1924.8"/>
<polygon fill="none" stroke="#000000" points="1276,-1924.8 1276,-1946.8 1449,-1946.8 1449,-1924.8 1276,-1924.8"/>
<text text-anchor="start" x="1358.3007" y="-1931.2" font-family="Courier, monospace" font-size="14.00" fill="#000000">6</text>
<polygon fill="none" stroke="#000000" points="1276,-1902.8 1276,-1924.8 1449,-1924.8 1449,-1902.8 1276,-1902.8"/>
<text text-anchor="start" x="1278.514" y="-1909.2" font-family="Courier, monospace" font-size="14.00" fill="#000000">_6 = _print(move _7)</text>
</g>
<!-- bb5__0_5&#45;&gt;bb6__0_5 -->
<g id="edge9" class="edge">
<title>bb5__0_5-&gt;bb6__0_5</title>
<path fill="none" stroke="#000000" d="M1362,-2041.5578C1362,-2015.2846 1362,-1984.413 1362,-1961.0149"/>
<polygon fill="#000000" stroke="#000000" points="1365.5001,-1960.8337 1362,-1950.8337 1358.5001,-1960.8338 1365.5001,-1960.8337"/>
<text text-anchor="middle" x="1387.1958" y="-1992" font-family="Courier, monospace" font-size="14.00" fill="#000000">return</text>
</g>
<!-- bb7__0_5 -->
<g id="node12" class="node">
<title>bb7__0_5</title>
<polygon fill="#c0c0c0" stroke="transparent" points="1301,-1782 1301,-1804 1424,-1804 1424,-1782 1301,-1782"/>
<polygon fill="none" stroke="#000000" points="1301,-1782 1301,-1804 1424,-1804 1424,-1782 1301,-1782"/>
<text text-anchor="start" x="1358.3007" y="-1788.4" font-family="Courier, monospace" font-size="14.00" fill="#000000">7</text>
<polygon fill="none" stroke="#000000" points="1301,-1760 1301,-1782 1424,-1782 1424,-1760 1301,-1760"/>
<text text-anchor="start" x="1304" y="-1766.4" font-family="Courier, monospace" font-size="14.00" fill="#000000">_17 = &amp;_1</text>
<polygon fill="none" stroke="#000000" points="1301,-1738 1301,-1760 1424,-1760 1424,-1738 1301,-1738"/>
<text text-anchor="start" x="1303.7098" y="-1744.4" font-family="Courier, monospace" font-size="14.00" fill="#000000">_16 = foo(_17)</text>
</g>
<!-- bb6__0_5&#45;&gt;bb7__0_5 -->
<g id="edge10" class="edge">
<title>bb6__0_5-&gt;bb7__0_5</title>
<path fill="none" stroke="#000000" d="M1362,-1898.7099C1362,-1876.7687 1362,-1844.8386 1362,-1818.3952"/>
<polygon fill="#000000" stroke="#000000" points="1365.5001,-1818.1908 1362,-1808.1908 1358.5001,-1818.1909 1365.5001,-1818.1908"/>
<text text-anchor="middle" x="1387.1958" y="-1849.2" font-family="Courier, monospace" font-size="14.00" fill="#000000">return</text>
</g>
<!-- bb8__0_5 -->
<g id="node13" class="node">
<title>bb8__0_5</title>
<polygon fill="#c0c0c0" stroke="transparent" points="1166,-1617.2 1166,-1639.2 1558,-1639.2 1558,-1617.2 1166,-1617.2"/>
<polygon fill="none" stroke="#000000" points="1166,-1617.2 1166,-1639.2 1558,-1639.2 1558,-1617.2 1166,-1617.2"/>
<text text-anchor="start" x="1357.8007" y="-1623.6" font-family="Courier, monospace" font-size="14.00" fill="#000000">8</text>
<polygon fill="none" stroke="#000000" points="1166,-1561.2 1166,-1617.2 1558,-1617.2 1558,-1561.2 1166,-1561.2"/>
<text text-anchor="start" x="1169" y="-1601.6" font-family="Courier, monospace" font-size="14.00" fill="#000000">_41 = const _</text>
<text text-anchor="start" x="1169" y="-1584.8" font-family="Courier, monospace" font-size="14.00" fill="#000000">_20 = _41 as &amp;[&amp;str] (PointerCoercion(Unsize))</text>
<text text-anchor="start" x="1169" y="-1568" font-family="Courier, monospace" font-size="14.00" fill="#000000">_27 = &amp;_1</text>
<polygon fill="none" stroke="#000000" points="1166,-1539.2 1166,-1561.2 1558,-1561.2 1558,-1539.2 1166,-1539.2"/>
<text text-anchor="start" x="1169" y="-1545.6" font-family="Courier, monospace" font-size="14.00" fill="#000000">_26 = Cell::&lt;u32&gt;::get(move _27)</text>
</g>
<!-- bb7__0_5&#45;&gt;bb8__0_5 -->
<g id="edge11" class="edge">
<title>bb7__0_5-&gt;bb8__0_5</title>
<path fill="none" stroke="#000000" d="M1362,-1733.7714C1362,-1710.6505 1362,-1680.3122 1362,-1653.4002"/>
<polygon fill="#000000" stroke="#000000" points="1365.5001,-1653.2758 1362,-1643.2759 1358.5001,-1653.2759 1365.5001,-1653.2758"/>
<text text-anchor="middle" x="1387.1958" y="-1684.4" font-family="Courier, monospace" font-size="14.00" fill="#000000">return</text>
</g>
<!-- bb9__0_5 -->
<g id="node14" class="node">
<title>bb9__0_5</title>
<polygon fill="#c0c0c0" stroke="transparent" points="1108,-1418.4 1108,-1440.4 1617,-1440.4 1617,-1418.4 1108,-1418.4"/>
<polygon fill="none" stroke="#000000" points="1108,-1418.4 1108,-1440.4 1617,-1440.4 1617,-1418.4 1108,-1418.4"/>
<text text-anchor="start" x="1358.3007" y="-1424.8" font-family="Courier, monospace" font-size="14.00" fill="#000000">9</text>
<polygon fill="none" stroke="#000000" points="1108,-1396.4 1108,-1418.4 1617,-1418.4 1617,-1396.4 1108,-1396.4"/>
<text text-anchor="start" x="1111" y="-1402.8" font-family="Courier, monospace" font-size="14.00" fill="#000000">_25 = &amp;_26</text>
<polygon fill="none" stroke="#000000" points="1108,-1374.4 1108,-1396.4 1617,-1396.4 1617,-1374.4 1108,-1374.4"/>
<text text-anchor="start" x="1110.542" y="-1380.8" font-family="Courier, monospace" font-size="14.00" fill="#000000">_24 = core::fmt::rt::Argument::&lt;'_&gt;::new_display::&lt;u32&gt;(_25)</text>
</g>
<!-- bb8__0_5&#45;&gt;bb9__0_5 -->
<g id="edge12" class="edge">
<title>bb8__0_5-&gt;bb9__0_5</title>
<path fill="none" stroke="#000000" d="M1362,-1535.1462C1362,-1509.5943 1362,-1479.3666 1362,-1454.7311"/>
<polygon fill="#000000" stroke="#000000" points="1365.5001,-1454.5454 1362,-1444.5454 1358.5001,-1454.5454 1365.5001,-1454.5454"/>
<text text-anchor="middle" x="1387.1958" y="-1485.6" font-family="Courier, monospace" font-size="14.00" fill="#000000">return</text>
</g>
<!-- bb10__0_5 -->
<g id="node15" class="node">
<title>bb10__0_5</title>
<polygon fill="#c0c0c0" stroke="transparent" points="1070,-1253.6 1070,-1275.6 1655,-1275.6 1655,-1253.6 1070,-1253.6"/>
<polygon fill="none" stroke="#000000" points="1070,-1253.6 1070,-1275.6 1655,-1275.6 1655,-1253.6 1070,-1253.6"/>
<text text-anchor="start" x="1354.1014" y="-1260" font-family="Courier, monospace" font-size="14.00" fill="#000000">10</text>
<polygon fill="none" stroke="#000000" points="1070,-1197.6 1070,-1253.6 1655,-1253.6 1655,-1197.6 1070,-1197.6"/>
<text text-anchor="start" x="1073" y="-1238" font-family="Courier, monospace" font-size="14.00" fill="#000000">_23 = [move _24]</text>
<text text-anchor="start" x="1073" y="-1221.2" font-family="Courier, monospace" font-size="14.00" fill="#000000">_22 = &amp;_23</text>
<text text-anchor="start" x="1073" y="-1204.4" font-family="Courier, monospace" font-size="14.00" fill="#000000">_21 = _22 as &amp;[core::fmt::rt::Argument&lt;'_&gt;] (PointerCoercion(Unsize))</text>
<polygon fill="none" stroke="#000000" points="1070,-1175.6 1070,-1197.6 1655,-1197.6 1655,-1175.6 1070,-1175.6"/>
<text text-anchor="start" x="1073" y="-1182" font-family="Courier, monospace" font-size="14.00" fill="#000000">_19 = Arguments::&lt;'_&gt;::new_v1(move _20, move _21)</text>
</g>
<!-- bb9__0_5&#45;&gt;bb10__0_5 -->
<g id="edge13" class="edge">
<title>bb9__0_5-&gt;bb10__0_5</title>
<path fill="none" stroke="#000000" d="M1362,-1370.1714C1362,-1347.0505 1362,-1316.7122 1362,-1289.8002"/>
<polygon fill="#000000" stroke="#000000" points="1365.5001,-1289.6758 1362,-1279.6759 1358.5001,-1289.6759 1365.5001,-1289.6758"/>
<text text-anchor="middle" x="1387.1958" y="-1320.8" font-family="Courier, monospace" font-size="14.00" fill="#000000">return</text>
</g>
<!-- bb11__0_5 -->
<g id="node16" class="node">
<title>bb11__0_5</title>
<polygon fill="#c0c0c0" stroke="transparent" points="1267,-1054.8 1267,-1076.8 1457,-1076.8 1457,-1054.8 1267,-1054.8"/>
<polygon fill="none" stroke="#000000" points="1267,-1054.8 1267,-1076.8 1457,-1076.8 1457,-1054.8 1267,-1054.8"/>
<text text-anchor="start" x="1353.6014" y="-1061.2" font-family="Courier, monospace" font-size="14.00" fill="#000000">11</text>
<polygon fill="none" stroke="#000000" points="1267,-1032.8 1267,-1054.8 1457,-1054.8 1457,-1032.8 1267,-1032.8"/>
<text text-anchor="start" x="1269.6154" y="-1039.2" font-family="Courier, monospace" font-size="14.00" fill="#000000">_18 = _print(move _19)</text>
</g>
<!-- bb10__0_5&#45;&gt;bb11__0_5 -->
<g id="edge14" class="edge">
<title>bb10__0_5-&gt;bb11__0_5</title>
<path fill="none" stroke="#000000" d="M1362,-1171.5578C1362,-1145.2846 1362,-1114.413 1362,-1091.0149"/>
<polygon fill="#000000" stroke="#000000" points="1365.5001,-1090.8337 1362,-1080.8337 1358.5001,-1090.8338 1365.5001,-1090.8337"/>
<text text-anchor="middle" x="1387.1958" y="-1122" font-family="Courier, monospace" font-size="14.00" fill="#000000">return</text>
</g>
<!-- bb12__0_5 -->
<g id="node17" class="node">
<title>bb12__0_5</title>
<polygon fill="#c0c0c0" stroke="transparent" points="1208,-912 1208,-934 1516,-934 1516,-912 1208,-912"/>
<polygon fill="none" stroke="#000000" points="1208,-912 1208,-934 1516,-934 1516,-912 1208,-912"/>
<text text-anchor="start" x="1353.6014" y="-918.4" font-family="Courier, monospace" font-size="14.00" fill="#000000">12</text>
<polygon fill="none" stroke="#000000" points="1208,-890 1208,-912 1516,-912 1516,-890 1208,-890"/>
<text text-anchor="start" x="1211" y="-896.4" font-family="Courier, monospace" font-size="14.00" fill="#000000">_29 = &amp;_1</text>
<polygon fill="none" stroke="#000000" points="1208,-868 1208,-890 1516,-890 1516,-868 1208,-868"/>
<text text-anchor="start" x="1210.8252" y="-874.4" font-family="Courier, monospace" font-size="14.00" fill="#000000">_28 = Cell::&lt;u32&gt;::set(move _29, _2)</text>
</g>
<!-- bb11__0_5&#45;&gt;bb12__0_5 -->
<g id="edge15" class="edge">
<title>bb11__0_5-&gt;bb12__0_5</title>
<path fill="none" stroke="#000000" d="M1362,-1028.7099C1362,-1006.7687 1362,-974.8386 1362,-948.3952"/>
<polygon fill="#000000" stroke="#000000" points="1365.5001,-948.1908 1362,-938.1908 1358.5001,-948.1909 1365.5001,-948.1908"/>
<text text-anchor="middle" x="1387.1958" y="-979.2" font-family="Courier, monospace" font-size="14.00" fill="#000000">return</text>
</g>
<!-- bb13__0_5 -->
<g id="node18" class="node">
<title>bb13__0_5</title>
<polygon fill="#c0c0c0" stroke="transparent" points="1166,-747.2 1166,-769.2 1558,-769.2 1558,-747.2 1166,-747.2"/>
<polygon fill="none" stroke="#000000" points="1166,-747.2 1166,-769.2 1558,-769.2 1558,-747.2 1166,-747.2"/>
<text text-anchor="start" x="1353.6014" y="-753.6" font-family="Courier, monospace" font-size="14.00" fill="#000000">13</text>
<polygon fill="none" stroke="#000000" points="1166,-691.2 1166,-747.2 1558,-747.2 1558,-691.2 1166,-691.2"/>
<text text-anchor="start" x="1169" y="-731.6" font-family="Courier, monospace" font-size="14.00" fill="#000000">_40 = const _</text>
<text text-anchor="start" x="1169" y="-714.8" font-family="Courier, monospace" font-size="14.00" fill="#000000">_32 = _40 as &amp;[&amp;str] (PointerCoercion(Unsize))</text>
<text text-anchor="start" x="1169" y="-698" font-family="Courier, monospace" font-size="14.00" fill="#000000">_39 = &amp;_1</text>
<polygon fill="none" stroke="#000000" points="1166,-669.2 1166,-691.2 1558,-691.2 1558,-669.2 1166,-669.2"/>
<text text-anchor="start" x="1169" y="-675.6" font-family="Courier, monospace" font-size="14.00" fill="#000000">_38 = Cell::&lt;u32&gt;::get(move _39)</text>
</g>
<!-- bb12__0_5&#45;&gt;bb13__0_5 -->
<g id="edge16" class="edge">
<title>bb12__0_5-&gt;bb13__0_5</title>
<path fill="none" stroke="#000000" d="M1362,-863.7714C1362,-840.6505 1362,-810.3122 1362,-783.4002"/>
<polygon fill="#000000" stroke="#000000" points="1365.5001,-783.2758 1362,-773.2759 1358.5001,-783.2759 1365.5001,-783.2758"/>
<text text-anchor="middle" x="1387.1958" y="-814.4" font-family="Courier, monospace" font-size="14.00" fill="#000000">return</text>
</g>
<!-- bb14__0_5 -->
<g id="node19" class="node">
<title>bb14__0_5</title>
<polygon fill="#c0c0c0" stroke="transparent" points="1108,-548.4 1108,-570.4 1617,-570.4 1617,-548.4 1108,-548.4"/>
<polygon fill="none" stroke="#000000" points="1108,-548.4 1108,-570.4 1617,-570.4 1617,-548.4 1108,-548.4"/>
<text text-anchor="start" x="1354.1014" y="-554.8" font-family="Courier, monospace" font-size="14.00" fill="#000000">14</text>
<polygon fill="none" stroke="#000000" points="1108,-526.4 1108,-548.4 1617,-548.4 1617,-526.4 1108,-526.4"/>
<text text-anchor="start" x="1111" y="-532.8" font-family="Courier, monospace" font-size="14.00" fill="#000000">_37 = &amp;_38</text>
<polygon fill="none" stroke="#000000" points="1108,-504.4 1108,-526.4 1617,-526.4 1617,-504.4 1108,-504.4"/>
<text text-anchor="start" x="1110.542" y="-510.8" font-family="Courier, monospace" font-size="14.00" fill="#000000">_36 = core::fmt::rt::Argument::&lt;'_&gt;::new_display::&lt;u32&gt;(_37)</text>
</g>
<!-- bb13__0_5&#45;&gt;bb14__0_5 -->
<g id="edge17" class="edge">
<title>bb13__0_5-&gt;bb14__0_5</title>
<path fill="none" stroke="#000000" d="M1362,-665.1462C1362,-639.5943 1362,-609.3666 1362,-584.7311"/>
<polygon fill="#000000" stroke="#000000" points="1365.5001,-584.5454 1362,-574.5454 1358.5001,-584.5454 1365.5001,-584.5454"/>
<text text-anchor="middle" x="1387.1958" y="-615.6" font-family="Courier, monospace" font-size="14.00" fill="#000000">return</text>
</g>
<!-- bb15__0_5 -->
<g id="node20" class="node">
<title>bb15__0_5</title>
<polygon fill="#c0c0c0" stroke="transparent" points="1070,-383.6 1070,-405.6 1655,-405.6 1655,-383.6 1070,-383.6"/>
<polygon fill="none" stroke="#000000" points="1070,-383.6 1070,-405.6 1655,-405.6 1655,-383.6 1070,-383.6"/>
<text text-anchor="start" x="1354.1014" y="-390" font-family="Courier, monospace" font-size="14.00" fill="#000000">15</text>
<polygon fill="none" stroke="#000000" points="1070,-327.6 1070,-383.6 1655,-383.6 1655,-327.6 1070,-327.6"/>
<text text-anchor="start" x="1073" y="-368" font-family="Courier, monospace" font-size="14.00" fill="#000000">_35 = [move _36]</text>
<text text-anchor="start" x="1073" y="-351.2" font-family="Courier, monospace" font-size="14.00" fill="#000000">_34 = &amp;_35</text>
<text text-anchor="start" x="1073" y="-334.4" font-family="Courier, monospace" font-size="14.00" fill="#000000">_33 = _34 as &amp;[core::fmt::rt::Argument&lt;'_&gt;] (PointerCoercion(Unsize))</text>
<polygon fill="none" stroke="#000000" points="1070,-305.6 1070,-327.6 1655,-327.6 1655,-305.6 1070,-305.6"/>
<text text-anchor="start" x="1073" y="-312" font-family="Courier, monospace" font-size="14.00" fill="#000000">_31 = Arguments::&lt;'_&gt;::new_v1(move _32, move _33)</text>
</g>
<!-- bb14__0_5&#45;&gt;bb15__0_5 -->
<g id="edge18" class="edge">
<title>bb14__0_5-&gt;bb15__0_5</title>
<path fill="none" stroke="#000000" d="M1362,-500.1714C1362,-477.0505 1362,-446.7122 1362,-419.8002"/>
<polygon fill="#000000" stroke="#000000" points="1365.5001,-419.6758 1362,-409.6759 1358.5001,-419.6759 1365.5001,-419.6758"/>
<text text-anchor="middle" x="1387.1958" y="-450.8" font-family="Courier, monospace" font-size="14.00" fill="#000000">return</text>
</g>
<!-- bb16__0_5 -->
<g id="node21" class="node">
<title>bb16__0_5</title>
<polygon fill="#c0c0c0" stroke="transparent" points="1267,-184.8 1267,-206.8 1457,-206.8 1457,-184.8 1267,-184.8"/>
<polygon fill="none" stroke="#000000" points="1267,-184.8 1267,-206.8 1457,-206.8 1457,-184.8 1267,-184.8"/>
<text text-anchor="start" x="1353.6014" y="-191.2" font-family="Courier, monospace" font-size="14.00" fill="#000000">16</text>
<polygon fill="none" stroke="#000000" points="1267,-162.8 1267,-184.8 1457,-184.8 1457,-162.8 1267,-162.8"/>
<text text-anchor="start" x="1269.6154" y="-169.2" font-family="Courier, monospace" font-size="14.00" fill="#000000">_30 = _print(move _31)</text>
</g>
<!-- bb15__0_5&#45;&gt;bb16__0_5 -->
<g id="edge19" class="edge">
<title>bb15__0_5-&gt;bb16__0_5</title>
<path fill="none" stroke="#000000" d="M1362,-301.5578C1362,-275.2846 1362,-244.413 1362,-221.0149"/>
<polygon fill="#000000" stroke="#000000" points="1365.5001,-220.8337 1362,-210.8337 1358.5001,-220.8338 1365.5001,-220.8337"/>
<text text-anchor="middle" x="1387.1958" y="-252" font-family="Courier, monospace" font-size="14.00" fill="#000000">return</text>
</g>
<!-- bb17__0_5 -->
<g id="node22" class="node">
<title>bb17__0_5</title>
<polygon fill="#c0c0c0" stroke="transparent" points="1334,-42 1334,-64 1390,-64 1390,-42 1334,-42"/>
<polygon fill="none" stroke="#000000" points="1334,-42 1334,-64 1390,-64 1390,-42 1334,-42"/>
<text text-anchor="start" x="1353.6014" y="-48.4" font-family="Courier, monospace" font-size="14.00" fill="#000000">17</text>
<polygon fill="none" stroke="#000000" points="1334,-20 1334,-42 1390,-42 1390,-20 1334,-20"/>
<text text-anchor="start" x="1336.8042" y="-26.4" font-family="Courier, monospace" font-size="14.00" fill="#000000">return</text>
</g>
<!-- bb16__0_5&#45;&gt;bb17__0_5 -->
<g id="edge20" class="edge">
<title>bb16__0_5-&gt;bb17__0_5</title>
<path fill="none" stroke="#000000" d="M1362,-158.6083C1362,-136.0633 1362,-103.3026 1362,-78.2422"/>
<polygon fill="#000000" stroke="#000000" points="1365.5001,-78.0256 1362,-68.0257 1358.5001,-78.0257 1365.5001,-78.0256"/>
<text text-anchor="middle" x="1387.1958" y="-109.2" font-family="Courier, monospace" font-size="14.00" fill="#000000">return</text>
</g>
</g>
</svg>