<?xml version="1.0" encoding="UTF-8" standalone="no"?><!DOCTYPE svg PUBLIC "-//W3C//DTD SVG 1.1//EN" "http://www.w3.org/Graphics/SVG/1.1/DTD/svg11.dtd"><!-- Generated by graphviz version 2.40.1 (20161225.0304)
 --><!-- Title: __crate__ Pages: 1 --><svg xmlns="http://www.w3.org/2000/svg" xmlns:xlink="http://www.w3.org/1999/xlink" width="1870pt" height="1042pt" viewBox="0.00 0.00 1870.00 1042.20">
<g id="graph0" class="graph" transform="scale(1 1) rotate(0) translate(4 1038.2)">
<title>__crate__</title>
<polygon fill="#ffffff" stroke="transparent" points="-4,4 -4,-1038.2 1866,-1038.2 1866,4 -4,4"/>
<g id="clust1" class="cluster">
<title>cluster_Mir_0_12</title>
<polygon fill="none" stroke="#000000" points="8,-799 8,-908.6 217,-908.6 217,-799 8,-799"/>
<text text-anchor="start" x="15.9161" y="-892" font-family="Courier, monospace" font-size="14.00" fill="#000000">fn reg_fn(_1: S) -&gt; ()</text>
<text text-anchor="start" x="15.9161" y="-875.2" font-family="Courier, monospace" font-size="14.00" fill="#000000">debug _s =&gt; const S(A);</text>
</g>
<g id="clust2" class="cluster">
<title>cluster_Mir_0_13</title>
<polygon fill="none" stroke="#000000" points="225,-799 225,-908.6 509,-908.6 509,-799 225,-799"/>
<text text-anchor="start" x="232.6224" y="-892" font-family="Courier, monospace" font-size="14.00" fill="#000000">fn gen_spec_t(_1: SGen&lt;A&gt;) -&gt; ()</text>
<text text-anchor="start" x="232.6224" y="-875.2" font-family="Courier, monospace" font-size="14.00" fill="#000000">debug _s =&gt; const SGen::&lt;A&gt;(A);</text>
</g>
<g id="clust3" class="cluster">
<title>cluster_Mir_0_14</title>
<polygon fill="none" stroke="#000000" points="517,-799 517,-908.6 835,-908.6 835,-799 517,-799"/>
<text text-anchor="start" x="524.8252" y="-892" font-family="Courier, monospace" font-size="14.00" fill="#000000">fn gen_spec_i32(_1: SGen&lt;i32&gt;) -&gt; ()</text>
<text text-anchor="start" x="524.8252" y="-875.2" font-family="Courier, monospace" font-size="14.00" fill="#000000">debug _s =&gt; _1;</text>
</g>
<g id="clust4" class="cluster">
<title>cluster_Mir_0_15</title>
<polygon fill="none" stroke="#000000" points="843,-645.2 843,-908.6 1102,-908.6 1102,-645.2 843,-645.2"/>
<text text-anchor="start" x="850.7203" y="-892" font-family="Courier, monospace" font-size="14.00" fill="#000000">fn generic(_1: SGen&lt;T&gt;) -&gt; ()</text>
<text text-anchor="start" x="850.7203" y="-875.2" font-family="Courier, monospace" font-size="14.00" fill="#000000">debug _s =&gt; _1;</text>
</g>
<g id="clust5" class="cluster">
<title>cluster_Mir_0_17</title>
<polygon fill="none" stroke="#000000" points="1110,-8 1110,-1026.2 1442,-1026.2 1442,-8 1110,-8"/>
<text text-anchor="start" x="1179.4161" y="-1009.6" font-family="Courier, monospace" font-size="14.00" fill="#000000">fn main() -&gt; ()</text>
<text text-anchor="start" x="1179.4161" y="-992.8" font-family="Courier, monospace" font-size="14.00" fill="#000000">let _1: ();</text>
<text text-anchor="start" x="1179.4161" y="-976" font-family="Courier, monospace" font-size="14.00" fill="#000000">let _2: ();</text>
<text text-anchor="start" x="1179.4161" y="-959.2" font-family="Courier, monospace" font-size="14.00" fill="#000000">let _3: ();</text>
<text text-anchor="start" x="1179.4161" y="-942.4" font-family="Courier, monospace" font-size="14.00" fill="#000000">let mut _4: SGen&lt;i32&gt;;</text>
<text text-anchor="start" x="1179.4161" y="-925.6" font-family="Courier, monospace" font-size="14.00" fill="#000000">let _5: ();</text>
<text text-anchor="start" x="1179.4161" y="-908.8" font-family="Courier, monospace" font-size="14.00" fill="#000000">let mut _6: SGen&lt;char&gt;;</text>
<text text-anchor="start" x="1179.4161" y="-892" font-family="Courier, monospace" font-size="14.00" fill="#000000">let _7: ();</text>
<text text-anchor="start" x="1179.4161" y="-875.2" font-family="Courier, monospace" font-size="14.00" fill="#000000">let mut _8: SGen&lt;char&gt;;</text>
</g>
<g id="clust6" class="cluster">
<title>cluster_Mir_0_6</title>
<polygon fill="none" stroke="#000000" points="1450,-788 1450,-902.8 1614,-902.8 1614,-788 1450,-788"/>
<text text-anchor="start" x="1464.8112" y="-886.2" font-family="Courier, monospace" font-size="14.00" fill="#000000">fn S(_1: A) -&gt; S</text>
</g>
<g id="clust7" class="cluster">
<title>cluster_Mir_0_9</title>
<polygon fill="none" stroke="#000000" points="1622,-788 1622,-902.8 1854,-902.8 1854,-788 1622,-788"/>
<text text-anchor="start" x="1633.0175" y="-886.2" font-family="Courier, monospace" font-size="14.00" fill="#000000">fn SGen(_1: T) -&gt; SGen&lt;T&gt;</text>
</g>
<!-- bb0__0_12 -->
<g id="node1" class="node">
<title>bb0__0_12</title>
<polygon fill="#c0c0c0" stroke="transparent" points="84,-833 84,-855 140,-855 140,-833 84,-833"/>
<polygon fill="none" stroke="#000000" points="84,-833 84,-855 140,-855 140,-833 84,-833"/>
<text text-anchor="start" x="107.8007" y="-839.4" font-family="Courier, monospace" font-size="14.00" fill="#000000">0</text>
<polygon fill="none" stroke="#000000" points="84,-811 84,-833 140,-833 140,-811 84,-811"/>
<text text-anchor="start" x="86.8042" y="-817.4" font-family="Courier, monospace" font-size="14.00" fill="#000000">return</text>
</g>
<!-- bb0__0_13 -->
<g id="node2" class="node">
<title>bb0__0_13</title>
<polygon fill="#c0c0c0" stroke="transparent" points="339,-833 339,-855 395,-855 395,-833 339,-833"/>
<polygon fill="none" stroke="#000000" points="339,-833 339,-855 395,-855 395,-833 339,-833"/>
<text text-anchor="start" x="362.8007" y="-839.4" font-family="Courier, monospace" font-size="14.00" fill="#000000">0</text>
<polygon fill="none" stroke="#000000" points="339,-811 339,-833 395,-833 395,-811 339,-811"/>
<text text-anchor="start" x="341.8042" y="-817.4" font-family="Courier, monospace" font-size="14.00" fill="#000000">return</text>
</g>
<!-- bb0__0_14 -->
<g id="node3" class="node">
<title>bb0__0_14</title>
<polygon fill="#c0c0c0" stroke="transparent" points="648,-833 648,-855 704,-855 704,-833 648,-833"/>
<polygon fill="none" stroke="#000000" points="648,-833 648,-855 704,-855 704,-833 648,-833"/>
<text text-anchor="start" x="671.8007" y="-839.4" font-family="Courier, monospace" font-size="14.00" fill="#000000">0</text>
<polygon fill="none" stroke="#000000" points="648,-811 648,-833 704,-833 704,-811 648,-811"/>
<text text-anchor="start" x="650.8042" y="-817.4" font-family="Courier, monospace" font-size="14.00" fill="#000000">return</text>
</g>
<!-- bb0__0_15 -->
<g id="node4" class="node">
<title>bb0__0_15</title>
<polygon fill="#c0c0c0" stroke="transparent" points="933,-833 933,-855 1006,-855 1006,-833 933,-833"/>
<polygon fill="none" stroke="#000000" points="933,-833 933,-855 1006,-855 1006,-833 933,-833"/>
<text text-anchor="start" x="965.3007" y="-839.4" font-family="Courier, monospace" font-size="14.00" fill="#000000">0</text>
<polygon fill="none" stroke="#000000" points="933,-811 933,-833 1006,-833 1006,-811 933,-811"/>
<text text-anchor="start" x="935.9056" y="-817.4" font-family="Courier, monospace" font-size="14.00" fill="#000000">drop(_1)</text>
</g>
<!-- bb1__0_15 -->
<g id="node5" class="node">
<title>bb1__0_15</title>
<polygon fill="#c0c0c0" stroke="transparent" points="941,-679.2 941,-701.2 997,-701.2 997,-679.2 941,-679.2"/>
<polygon fill="none" stroke="#000000" points="941,-679.2 941,-701.2 997,-701.2 997,-679.2 941,-679.2"/>
<text text-anchor="start" x="964.8007" y="-685.6" font-family="Courier, monospace" font-size="14.00" fill="#000000">1</text>
<polygon fill="none" stroke="#000000" points="941,-657.2 941,-679.2 997,-679.2 997,-657.2 941,-657.2"/>
<text text-anchor="start" x="943.8042" y="-663.6" font-family="Courier, monospace" font-size="14.00" fill="#000000">return</text>
</g>
<!-- bb0__0_15&#45;&gt;bb1__0_15 -->
<g id="edge1" class="edge">
<title>bb0__0_15-&gt;bb1__0_15</title>
<path fill="none" stroke="#000000" d="M969,-806.9099C969,-781.8318 969,-743.7046 969,-715.6353"/>
<polygon fill="#000000" stroke="#000000" points="972.5001,-715.418 969,-705.4181 965.5001,-715.4181 972.5001,-715.418"/>
<text text-anchor="middle" x="994.1958" y="-746.4" font-family="Courier, monospace" font-size="14.00" fill="#000000">return</text>
</g>
<!-- bb0__0_17 -->
<g id="node6" class="node">
<title>bb0__0_17</title>
<polygon fill="#c0c0c0" stroke="transparent" points="1177,-833 1177,-855 1376,-855 1376,-833 1177,-833"/>
<polygon fill="none" stroke="#000000" points="1177,-833 1177,-855 1376,-855 1376,-833 1177,-833"/>
<text text-anchor="start" x="1272.3007" y="-839.4" font-family="Courier, monospace" font-size="14.00" fill="#000000">0</text>
<polygon fill="none" stroke="#000000" points="1177,-811 1177,-833 1376,-833 1376,-811 1177,-811"/>
<text text-anchor="start" x="1179.9161" y="-817.4" font-family="Courier, monospace" font-size="14.00" fill="#000000">_1 = reg_fn(const S(A))</text>
</g>
<!-- bb1__0_17 -->
<g id="node7" class="node">
<title>bb1__0_17</title>
<polygon fill="#c0c0c0" stroke="transparent" points="1127,-679.2 1127,-701.2 1426,-701.2 1426,-679.2 1127,-679.2"/>
<polygon fill="none" stroke="#000000" points="1127,-679.2 1127,-701.2 1426,-701.2 1426,-679.2 1127,-679.2"/>
<text text-anchor="start" x="1272.3007" y="-685.6" font-family="Courier, monospace" font-size="14.00" fill="#000000">1</text>
<polygon fill="none" stroke="#000000" points="1127,-657.2 1127,-679.2 1426,-679.2 1426,-657.2 1127,-657.2"/>
<text text-anchor="start" x="1129.5245" y="-663.6" font-family="Courier, monospace" font-size="14.00" fill="#000000">_2 = gen_spec_t(const SGen::&lt;A&gt;(A))</text>
</g>
<!-- bb0__0_17&#45;&gt;bb1__0_17 -->
<g id="edge2" class="edge">
<title>bb0__0_17-&gt;bb1__0_17</title>
<path fill="none" stroke="#000000" d="M1276,-806.9099C1276,-781.8318 1276,-743.7046 1276,-715.6353"/>
<polygon fill="#000000" stroke="#000000" points="1279.5001,-715.418 1276,-705.4181 1272.5001,-715.4181 1279.5001,-715.418"/>
<text text-anchor="middle" x="1301.1958" y="-746.4" font-family="Courier, monospace" font-size="14.00" fill="#000000">return</text>
</g>
<!-- bb2__0_17 -->
<g id="node8" class="node">
<title>bb2__0_17</title>
<polygon fill="#c0c0c0" stroke="transparent" points="1152,-536.4 1152,-558.4 1401,-558.4 1401,-536.4 1152,-536.4"/>
<polygon fill="none" stroke="#000000" points="1152,-536.4 1152,-558.4 1401,-558.4 1401,-536.4 1152,-536.4"/>
<text text-anchor="start" x="1272.3007" y="-542.8" font-family="Courier, monospace" font-size="14.00" fill="#000000">2</text>
<polygon fill="none" stroke="#000000" points="1152,-514.4 1152,-536.4 1401,-536.4 1401,-514.4 1152,-514.4"/>
<text text-anchor="start" x="1155" y="-520.8" font-family="Courier, monospace" font-size="14.00" fill="#000000">_4 = SGen::&lt;i32&gt;(const 6_i32)</text>
<polygon fill="none" stroke="#000000" points="1152,-492.4 1152,-514.4 1401,-514.4 1401,-492.4 1152,-492.4"/>
<text text-anchor="start" x="1155" y="-498.8" font-family="Courier, monospace" font-size="14.00" fill="#000000">_3 = gen_spec_i32(move _4)</text>
</g>
<!-- bb1__0_17&#45;&gt;bb2__0_17 -->
<g id="edge3" class="edge">
<title>bb1__0_17-&gt;bb2__0_17</title>
<path fill="none" stroke="#000000" d="M1276,-653.1099C1276,-631.1687 1276,-599.2386 1276,-572.7952"/>
<polygon fill="#000000" stroke="#000000" points="1279.5001,-572.5908 1276,-562.5908 1272.5001,-572.5909 1279.5001,-572.5908"/>
<text text-anchor="middle" x="1301.1958" y="-603.6" font-family="Courier, monospace" font-size="14.00" fill="#000000">return</text>
</g>
<!-- bb3__0_17 -->
<g id="node9" class="node">
<title>bb3__0_17</title>
<polygon fill="#c0c0c0" stroke="transparent" points="1152,-371.6 1152,-393.6 1401,-393.6 1401,-371.6 1152,-371.6"/>
<polygon fill="none" stroke="#000000" points="1152,-371.6 1152,-393.6 1401,-393.6 1401,-371.6 1152,-371.6"/>
<text text-anchor="start" x="1272.3007" y="-378" font-family="Courier, monospace" font-size="14.00" fill="#000000">3</text>
<polygon fill="none" stroke="#000000" points="1152,-349.6 1152,-371.6 1401,-371.6 1401,-349.6 1152,-349.6"/>
<text text-anchor="start" x="1155" y="-356" font-family="Courier, monospace" font-size="14.00" fill="#000000">_6 = SGen::&lt;char&gt;(const 'a')</text>
<polygon fill="none" stroke="#000000" points="1152,-327.6 1152,-349.6 1401,-349.6 1401,-327.6 1152,-327.6"/>
<text text-anchor="start" x="1154.7203" y="-334" font-family="Courier, monospace" font-size="14.00" fill="#000000">_5 = generic::&lt;char&gt;(move _6)</text>
</g>
<!-- bb2__0_17&#45;&gt;bb3__0_17 -->
<g id="edge4" class="edge">
<title>bb2__0_17-&gt;bb3__0_17</title>
<path fill="none" stroke="#000000" d="M1276,-488.0043C1276,-464.2998 1276,-433.4273 1276,-408.0099"/>
<polygon fill="#000000" stroke="#000000" points="1279.5001,-407.8476 1276,-397.8477 1272.5001,-407.8477 1279.5001,-407.8476"/>
<text text-anchor="middle" x="1301.1958" y="-438.8" font-family="Courier, monospace" font-size="14.00" fill="#000000">return</text>
</g>
<!-- bb4__0_17 -->
<g id="node10" class="node">
<title>bb4__0_17</title>
<polygon fill="#c0c0c0" stroke="transparent" points="1152,-206.8 1152,-228.8 1401,-228.8 1401,-206.8 1152,-206.8"/>
<polygon fill="none" stroke="#000000" points="1152,-206.8 1152,-228.8 1401,-228.8 1401,-206.8 1152,-206.8"/>
<text text-anchor="start" x="1272.3007" y="-213.2" font-family="Courier, monospace" font-size="14.00" fill="#000000">4</text>
<polygon fill="none" stroke="#000000" points="1152,-184.8 1152,-206.8 1401,-206.8 1401,-184.8 1152,-184.8"/>
<text text-anchor="start" x="1155" y="-191.2" font-family="Courier, monospace" font-size="14.00" fill="#000000">_8 = SGen::&lt;char&gt;(const 'c')</text>
<polygon fill="none" stroke="#000000" points="1152,-162.8 1152,-184.8 1401,-184.8 1401,-162.8 1152,-162.8"/>
<text text-anchor="start" x="1154.7203" y="-169.2" font-family="Courier, monospace" font-size="14.00" fill="#000000">_7 = generic::&lt;char&gt;(move _8)</text>
</g>
<!-- bb3__0_17&#45;&gt;bb4__0_17 -->
<g id="edge5" class="edge">
<title>bb3__0_17-&gt;bb4__0_17</title>
<path fill="none" stroke="#000000" d="M1276,-323.2043C1276,-299.4998 1276,-268.6273 1276,-243.2099"/>
<polygon fill="#000000" stroke="#000000" points="1279.5001,-243.0476 1276,-233.0477 1272.5001,-243.0477 1279.5001,-243.0476"/>
<text text-anchor="middle" x="1301.1958" y="-274" font-family="Courier, monospace" font-size="14.00" fill="#000000">return</text>
</g>
<!-- bb5__0_17 -->
<g id="node11" class="node">
<title>bb5__0_17</title>
<polygon fill="#c0c0c0" stroke="transparent" points="1248,-42 1248,-64 1304,-64 1304,-42 1248,-42"/>
<polygon fill="none" stroke="#000000" points="1248,-42 1248,-64 1304,-64 1304,-42 1248,-42"/>
<text text-anchor="start" x="1271.8007" y="-48.4" font-family="Courier, monospace" font-size="14.00" fill="#000000">5</text>
<polygon fill="none" stroke="#000000" points="1248,-20 1248,-42 1304,-42 1304,-20 1248,-20"/>
<text text-anchor="start" x="1250.8042" y="-26.4" font-family="Courier, monospace" font-size="14.00" fill="#000000">return</text>
</g>
<!-- bb4__0_17&#45;&gt;bb5__0_17 -->
<g id="edge6" class="edge">
<title>bb4__0_17-&gt;bb5__0_17</title>
<path fill="none" stroke="#000000" d="M1276,-158.5693C1276,-134.2527 1276,-102.6487 1276,-78.4834"/>
<polygon fill="#000000" stroke="#000000" points="1279.5001,-78.2917 1276,-68.2917 1272.5001,-78.2917 1279.5001,-78.2917"/>
<text text-anchor="middle" x="1301.1958" y="-109.2" font-family="Courier, monospace" font-size="14.00" fill="#000000">return</text>
</g>
<!-- bb0__0_6 -->
<g id="node12" class="node">
<title>bb0__0_6</title>
<polygon fill="#c0c0c0" stroke="transparent" points="1467,-844 1467,-866 1598,-866 1598,-844 1467,-844"/>
<polygon fill="none" stroke="#000000" points="1467,-844 1467,-866 1598,-866 1598,-844 1467,-844"/>
<text text-anchor="start" x="1528.3007" y="-850.4" font-family="Courier, monospace" font-size="14.00" fill="#000000">0</text>
<polygon fill="none" stroke="#000000" points="1467,-822 1467,-844 1598,-844 1598,-822 1467,-822"/>
<text text-anchor="start" x="1470" y="-828.4" font-family="Courier, monospace" font-size="14.00" fill="#000000">_0 = S(move _1)</text>
<polygon fill="none" stroke="#000000" points="1467,-800 1467,-822 1598,-822 1598,-800 1467,-800"/>
<text text-anchor="start" x="1470" y="-806.4" font-family="Courier, monospace" font-size="14.00" fill="#000000">return</text>
</g>
<!-- bb0__0_9 -->
<g id="node13" class="node">
<title>bb0__0_9</title>
<polygon fill="#c0c0c0" stroke="transparent" points="1639,-844 1639,-866 1838,-866 1838,-844 1639,-844"/>
<polygon fill="none" stroke="#000000" points="1639,-844 1639,-866 1838,-866 1838,-844 1639,-844"/>
<text text-anchor="start" x="1734.3007" y="-850.4" font-family="Courier, monospace" font-size="14.00" fill="#000000">0</text>
<polygon fill="none" stroke="#000000" points="1639,-822 1639,-844 1838,-844 1838,-822 1639,-822"/>
<text text-anchor="start" x="1642" y="-828.4" font-family="Courier, monospace" font-size="14.00" fill="#000000">_0 = SGen::&lt;T&gt;(move _1)</text>
<polygon fill="none" stroke="#000000" points="1639,-800 1639,-822 1838,-822 1838,-800 1639,-800"/>
<text text-anchor="start" x="1642" y="-806.4" font-family="Courier, monospace" font-size="14.00" fill="#000000">return</text>
</g>
</g>
</svg>