<?xml version="1.0" encoding="UTF-8" standalone="no"?><!DOCTYPE svg PUBLIC "-//W3C//DTD SVG 1.1//EN" "http://www.w3.org/Graphics/SVG/1.1/DTD/svg11.dtd"><!-- Generated by graphviz version 2.40.1 (20161225.0304)
 --><!-- Title: __crate__ Pages: 1 --><svg xmlns="http://www.w3.org/2000/svg" xmlns:xlink="http://www.w3.org/1999/xlink" width="1527pt" height="2495pt" viewBox="0.00 0.00 1527.00 2494.80">
<g id="graph0" class="graph" transform="scale(1 1) rotate(0) translate(4 2490.8)">
<title>__crate__</title>
<polygon fill="#ffffff" stroke="transparent" points="-4,4 -4,-2490.8 1523,-2490.8 1523,4 -4,4"/>
<g id="clust1" class="cluster">
<title>cluster_Mir_0_3</title>
<polygon fill="none" stroke="#000000" points="8,-8 8,-2478.8 838,-2478.8 838,-8 8,-8"/>
<text text-anchor="start" x="238.2308" y="-2462.2" font-family="Courier, monospace" font-size="14.00" fill="#000000">fn main() -&gt; ()</text>
<text text-anchor="start" x="238.2308" y="-2445.4" font-family="Courier, monospace" font-size="14.00" fill="#000000">let _1: std::string::String;</text>
<text text-anchor="start" x="238.2308" y="-2428.6" font-family="Courier, monospace" font-size="14.00" fill="#000000">let _2: std::string::String;</text>
<text text-anchor="start" x="238.2308" y="-2411.8" font-family="Courier, monospace" font-size="14.00" fill="#000000">let _3: std::string::String;</text>
<text text-anchor="start" x="238.2308" y="-2395" font-family="Courier, monospace" font-size="14.00" fill="#000000">let mut _4: std::string::String;</text>
<text text-anchor="start" x="238.2308" y="-2378.2" font-family="Courier, monospace" font-size="14.00" fill="#000000">let mut _5: &amp;str;</text>
<text text-anchor="start" x="238.2308" y="-2361.4" font-family="Courier, monospace" font-size="14.00" fill="#000000">let _6: &amp;str;</text>
<text text-anchor="start" x="238.2308" y="-2344.6" font-family="Courier, monospace" font-size="14.00" fill="#000000">let _7: &amp;std::string::String;</text>
<text text-anchor="start" x="238.2308" y="-2327.8" font-family="Courier, monospace" font-size="14.00" fill="#000000">let mut _8: &amp;str;</text>
<text text-anchor="start" x="238.2308" y="-2311" font-family="Courier, monospace" font-size="14.00" fill="#000000">let _9: &amp;str;</text>
<text text-anchor="start" x="238.2308" y="-2294.2" font-family="Courier, monospace" font-size="14.00" fill="#000000">let _10: &amp;std::string::String;</text>
<text text-anchor="start" x="238.2308" y="-2277.4" font-family="Courier, monospace" font-size="14.00" fill="#000000">let _11: ();</text>
<text text-anchor="start" x="238.2308" y="-2260.6" font-family="Courier, monospace" font-size="14.00" fill="#000000">let mut _12: std::fmt::Arguments&lt;'_&gt;;</text>
<text text-anchor="start" x="238.2308" y="-2243.8" font-family="Courier, monospace" font-size="14.00" fill="#000000">let mut _13: &amp;[&amp;str];</text>
<text text-anchor="start" x="238.2308" y="-2227" font-family="Courier, monospace" font-size="14.00" fill="#000000">let mut _14: &amp;[core::fmt::rt::Argument&lt;'_&gt;];</text>
<text text-anchor="start" x="238.2308" y="-2210.2" font-family="Courier, monospace" font-size="14.00" fill="#000000">let _15: &amp;[core::fmt::rt::Argument&lt;'_&gt;; 1];</text>
<text text-anchor="start" x="238.2308" y="-2193.4" font-family="Courier, monospace" font-size="14.00" fill="#000000">let _16: [core::fmt::rt::Argument&lt;'_&gt;; 1];</text>
<text text-anchor="start" x="238.2308" y="-2176.6" font-family="Courier, monospace" font-size="14.00" fill="#000000">let mut _17: core::fmt::rt::Argument&lt;'_&gt;;</text>
<text text-anchor="start" x="238.2308" y="-2159.8" font-family="Courier, monospace" font-size="14.00" fill="#000000">let _18: &amp;std::string::String;</text>
<text text-anchor="start" x="238.2308" y="-2143" font-family="Courier, monospace" font-size="14.00" fill="#000000">let mut _19: &amp;[&amp;str; 2];</text>
<text text-anchor="start" x="238.2308" y="-2126.2" font-family="Courier, monospace" font-size="14.00" fill="#000000">let mut _20: bool;</text>
<text text-anchor="start" x="238.2308" y="-2109.4" font-family="Courier, monospace" font-size="14.00" fill="#000000">debug x =&gt; _1;</text>
<text text-anchor="start" x="238.2308" y="-2092.6" font-family="Courier, monospace" font-size="14.00" fill="#000000">debug z =&gt; _2;</text>
<text text-anchor="start" x="238.2308" y="-2075.8" font-family="Courier, monospace" font-size="14.00" fill="#000000">debug y =&gt; _3;</text>
</g>
<g id="clust2" class="cluster">
<title>cluster_Mir_0_4</title>
<polygon fill="none" stroke="#000000" points="846,-1334.4 846,-2165.4 1511,-2165.4 1511,-1334.4 846,-1334.4"/>
<text text-anchor="start" x="913.9441" y="-2148.8" font-family="Courier, monospace" font-size="14.00" fill="#000000">fn outliving_longest(_1: &amp;str, _2: &amp;str) -&gt; std::string::String</text>
<text text-anchor="start" x="913.9441" y="-2132" font-family="Courier, monospace" font-size="14.00" fill="#000000">let mut _3: bool;</text>
<text text-anchor="start" x="913.9441" y="-2115.2" font-family="Courier, monospace" font-size="14.00" fill="#000000">let mut _4: usize;</text>
<text text-anchor="start" x="913.9441" y="-2098.4" font-family="Courier, monospace" font-size="14.00" fill="#000000">let mut _5: usize;</text>
<text text-anchor="start" x="913.9441" y="-2081.6" font-family="Courier, monospace" font-size="14.00" fill="#000000">debug x =&gt; _1;</text>
<text text-anchor="start" x="913.9441" y="-2064.8" font-family="Courier, monospace" font-size="14.00" fill="#000000">debug y =&gt; _2;</text>
</g>
<!-- bb0__0_3 -->
<g id="node1" class="node">
<title>bb0__0_3</title>
<polygon fill="#c0c0c0" stroke="transparent" points="424,-2033.6 424,-2055.6 807,-2055.6 807,-2033.6 424,-2033.6"/>
<polygon fill="none" stroke="#000000" points="424,-2033.6 424,-2055.6 807,-2055.6 807,-2033.6 424,-2033.6"/>
<text text-anchor="start" x="611.3007" y="-2040" font-family="Courier, monospace" font-size="14.00" fill="#000000">0</text>
<polygon fill="none" stroke="#000000" points="424,-2011.6 424,-2033.6 807,-2033.6 807,-2011.6 424,-2011.6"/>
<text text-anchor="start" x="427" y="-2018" font-family="Courier, monospace" font-size="14.00" fill="#000000">_20 = const false</text>
<polygon fill="none" stroke="#000000" points="424,-1989.6 424,-2011.6 807,-2011.6 807,-1989.6 424,-1989.6"/>
<text text-anchor="start" x="426.5315" y="-1996" font-family="Courier, monospace" font-size="14.00" fill="#000000">_1 = &lt;String as From&lt;&amp;str&gt;&gt;::from(const "hi")</text>
</g>
<!-- bb1__0_3 -->
<g id="node2" class="node">
<title>bb1__0_3</title>
<polygon fill="#c0c0c0" stroke="transparent" points="411,-1868.8 411,-1890.8 820,-1890.8 820,-1868.8 411,-1868.8"/>
<polygon fill="none" stroke="#000000" points="411,-1868.8 411,-1890.8 820,-1890.8 820,-1868.8 411,-1868.8"/>
<text text-anchor="start" x="611.3007" y="-1875.2" font-family="Courier, monospace" font-size="14.00" fill="#000000">1</text>
<polygon fill="none" stroke="#000000" points="411,-1846.8 411,-1868.8 820,-1868.8 820,-1846.8 411,-1846.8"/>
<text text-anchor="start" x="413.9336" y="-1853.2" font-family="Courier, monospace" font-size="14.00" fill="#000000">_3 = &lt;String as From&lt;&amp;str&gt;&gt;::from(const "there")</text>
</g>
<!-- bb0__0_3&#45;&gt;bb1__0_3 -->
<g id="edge1" class="edge">
<title>bb0__0_3-&gt;bb1__0_3</title>
<path fill="none" stroke="#000000" d="M615,-1985.3693C615,-1961.0527 615,-1929.4487 615,-1905.2834"/>
<polygon fill="#000000" stroke="#000000" points="618.5001,-1905.0917 615,-1895.0917 611.5001,-1905.0917 618.5001,-1905.0917"/>
<text text-anchor="middle" x="640.1958" y="-1936" font-family="Courier, monospace" font-size="14.00" fill="#000000">return</text>
</g>
<!-- bb2__0_3 -->
<g id="node3" class="node">
<title>bb2__0_3</title>
<polygon fill="#c0c0c0" stroke="transparent" points="470,-1726 470,-1748 753,-1748 753,-1726 470,-1726"/>
<polygon fill="none" stroke="#000000" points="470,-1726 470,-1748 753,-1748 753,-1726 470,-1726"/>
<text text-anchor="start" x="607.3007" y="-1732.4" font-family="Courier, monospace" font-size="14.00" fill="#000000">2</text>
<polygon fill="none" stroke="#000000" points="470,-1704 470,-1726 753,-1726 753,-1704 470,-1704"/>
<text text-anchor="start" x="473" y="-1710.4" font-family="Courier, monospace" font-size="14.00" fill="#000000">_7 = &amp;_1</text>
<polygon fill="none" stroke="#000000" points="470,-1682 470,-1704 753,-1704 753,-1682 470,-1682"/>
<text text-anchor="start" x="472.9231" y="-1688.4" font-family="Courier, monospace" font-size="14.00" fill="#000000">_6 = &lt;String as Deref&gt;::deref(_7)</text>
</g>
<!-- bb1__0_3&#45;&gt;bb2__0_3 -->
<g id="edge2" class="edge">
<title>bb1__0_3-&gt;bb2__0_3</title>
<path fill="none" stroke="#000000" d="M614.3215,-1842.7099C613.7508,-1820.7687 612.9204,-1788.8386 612.2326,-1762.3952"/>
<polygon fill="#000000" stroke="#000000" points="615.7262,-1762.0964 611.9673,-1752.1908 608.7285,-1762.2785 615.7262,-1762.0964"/>
<text text-anchor="middle" x="638.1958" y="-1793.2" font-family="Courier, monospace" font-size="14.00" fill="#000000">return</text>
</g>
<!-- bb16__0_3 -->
<g id="node17" class="node">
<title>bb16__0_3</title>
<polygon fill="#add8e6" stroke="transparent" points="557,-492.4 557,-514.4 680,-514.4 680,-492.4 557,-492.4"/>
<polygon fill="none" stroke="#000000" points="557,-492.4 557,-514.4 680,-514.4 680,-492.4 557,-492.4"/>
<text text-anchor="start" x="568.1084" y="-498.8" font-family="Courier, monospace" font-size="14.00" fill="#000000">16 (cleanup)</text>
<polygon fill="none" stroke="#000000" points="557,-470.4 557,-492.4 680,-492.4 680,-470.4 557,-470.4"/>
<text text-anchor="start" x="559.7098" y="-476.8" font-family="Courier, monospace" font-size="14.00" fill="#000000">switchInt(_20)</text>
</g>
<!-- bb1__0_3&#45;&gt;bb16__0_3 -->
<g id="edge3" class="edge">
<title>bb1__0_3-&gt;bb16__0_3</title>
<path fill="none" stroke="#000000" d="M713.8389,-1842.7023C748.9794,-1830.4473 780,-1814.7231 780,-1797.4 780,-1797.4 780,-1797.4 780,-1259.1 780,-1024.4871 829,-968.1129 829,-733.5 829,-733.5 829,-733.5 829,-563.8 829,-534.9515 757.335,-515.4776 697.5363,-504.2497"/>
<polygon fill="#000000" stroke="#000000" points="698.1398,-500.8021 687.6741,-502.451 696.8838,-507.6885 698.1398,-500.8021"/>
<text text-anchor="middle" x="809.1958" y="-1190.9" font-family="Courier, monospace" font-size="14.00" fill="#000000">unwind</text>
</g>
<!-- bb3__0_3 -->
<g id="node4" class="node">
<title>bb3__0_3</title>
<polygon fill="#c0c0c0" stroke="transparent" points="394,-1560.7 394,-1582.7 685,-1582.7 685,-1560.7 394,-1560.7"/>
<polygon fill="none" stroke="#000000" points="394,-1560.7 394,-1582.7 685,-1582.7 685,-1560.7 394,-1560.7"/>
<text text-anchor="start" x="535.3007" y="-1567.1" font-family="Courier, monospace" font-size="14.00" fill="#000000">3</text>
<polygon fill="none" stroke="#000000" points="394,-1521.7 394,-1560.7 685,-1560.7 685,-1521.7 394,-1521.7"/>
<text text-anchor="start" x="397" y="-1545.1" font-family="Courier, monospace" font-size="14.00" fill="#000000">_5 = _6</text>
<text text-anchor="start" x="397" y="-1528.3" font-family="Courier, monospace" font-size="14.00" fill="#000000">_10 = &amp;_3</text>
<polygon fill="none" stroke="#000000" points="394,-1499.7 394,-1521.7 685,-1521.7 685,-1499.7 394,-1499.7"/>
<text text-anchor="start" x="396.7238" y="-1506.1" font-family="Courier, monospace" font-size="14.00" fill="#000000">_9 = &lt;String as Deref&gt;::deref(_10)</text>
</g>
<!-- bb2__0_3&#45;&gt;bb3__0_3 -->
<g id="edge4" class="edge">
<title>bb2__0_3-&gt;bb3__0_3</title>
<path fill="none" stroke="#000000" d="M595.5542,-1677.8228C585.7652,-1654.2612 572.9269,-1623.3602 561.957,-1596.9563"/>
<polygon fill="#000000" stroke="#000000" points="565.078,-1595.3458 558.0091,-1587.4539 558.6137,-1598.0315 565.078,-1595.3458"/>
<text text-anchor="middle" x="604.1958" y="-1628.4" font-family="Courier, monospace" font-size="14.00" fill="#000000">return</text>
</g>
<!-- bb12__0_3 -->
<g id="node13" class="node">
<title>bb12__0_3</title>
<polygon fill="#add8e6" stroke="transparent" points="610,-1195.1 610,-1217.1 716,-1217.1 716,-1195.1 610,-1195.1"/>
<polygon fill="none" stroke="#000000" points="610,-1195.1 610,-1217.1 716,-1217.1 716,-1195.1 610,-1195.1"/>
<text text-anchor="start" x="612.6084" y="-1201.5" font-family="Courier, monospace" font-size="14.00" fill="#000000">12 (cleanup)</text>
<polygon fill="none" stroke="#000000" points="610,-1173.1 610,-1195.1 716,-1195.1 716,-1173.1 610,-1173.1"/>
<text text-anchor="start" x="613" y="-1179.5" font-family="Courier, monospace" font-size="14.00" fill="#000000">drop(_3)</text>
</g>
<!-- bb2__0_3&#45;&gt;bb12__0_3 -->
<g id="edge5" class="edge">
<title>bb2__0_3-&gt;bb12__0_3</title>
<path fill="none" stroke="#000000" d="M687.0475,-1677.8927C700.8647,-1665.9459 711,-1650.934 711,-1632.6 711,-1632.6 711,-1632.6 711,-1286 711,-1265.973 701.7766,-1246.037 691.416,-1229.9605"/>
<polygon fill="#000000" stroke="#000000" points="694.1292,-1227.7278 685.5945,-1221.4501 688.3516,-1231.6799 694.1292,-1227.7278"/>
<text text-anchor="middle" x="736.1958" y="-1446.6" font-family="Courier, monospace" font-size="14.00" fill="#000000">unwind</text>
</g>
<!-- bb4__0_3 -->
<g id="node5" class="node">
<title>bb4__0_3</title>
<polygon fill="#c0c0c0" stroke="transparent" points="257,-1379.4 257,-1401.4 598,-1401.4 598,-1379.4 257,-1379.4"/>
<polygon fill="none" stroke="#000000" points="257,-1379.4 257,-1401.4 598,-1401.4 598,-1379.4 257,-1379.4"/>
<text text-anchor="start" x="423.3007" y="-1385.8" font-family="Courier, monospace" font-size="14.00" fill="#000000">4</text>
<polygon fill="none" stroke="#000000" points="257,-1357.4 257,-1379.4 598,-1379.4 598,-1357.4 257,-1357.4"/>
<text text-anchor="start" x="260" y="-1363.8" font-family="Courier, monospace" font-size="14.00" fill="#000000">_8 = _9</text>
<polygon fill="none" stroke="#000000" points="257,-1335.4 257,-1357.4 598,-1357.4 598,-1335.4 257,-1335.4"/>
<text text-anchor="start" x="259.528" y="-1341.8" font-family="Courier, monospace" font-size="14.00" fill="#000000">_4 = outliving_longest(move _5, move _8)</text>
</g>
<!-- bb3__0_3&#45;&gt;bb4__0_3 -->
<g id="edge6" class="edge">
<title>bb3__0_3-&gt;bb4__0_3</title>
<path fill="none" stroke="#000000" d="M509.5733,-1496.1675C493.224,-1470.8698 472.9408,-1439.4852 456.5688,-1414.1524"/>
<polygon fill="#000000" stroke="#000000" points="459.3213,-1411.9632 450.9538,-1405.4642 453.4422,-1415.7627 459.3213,-1411.9632"/>
<text text-anchor="middle" x="509.1958" y="-1446.6" font-family="Courier, monospace" font-size="14.00" fill="#000000">return</text>
</g>
<!-- bb3__0_3&#45;&gt;bb12__0_3 -->
<g id="edge7" class="edge">
<title>bb3__0_3-&gt;bb12__0_3</title>
<path fill="none" stroke="#000000" d="M621.1564,-1495.9558C633.3936,-1483.4898 642,-1468.4488 642,-1450.8 642,-1450.8 642,-1450.8 642,-1286 642,-1267.6241 646.1245,-1247.6825 650.7178,-1231.1721"/>
<polygon fill="#000000" stroke="#000000" points="654.1338,-1231.9617 653.6056,-1221.3801 647.4197,-1229.9816 654.1338,-1231.9617"/>
<text text-anchor="middle" x="667.1958" y="-1364.2" font-family="Courier, monospace" font-size="14.00" fill="#000000">unwind</text>
</g>
<!-- bb5__0_3 -->
<g id="node6" class="node">
<title>bb5__0_3</title>
<polygon fill="#c0c0c0" stroke="transparent" points="357,-1214.1 357,-1236.1 497,-1236.1 497,-1214.1 357,-1214.1"/>
<polygon fill="none" stroke="#000000" points="357,-1214.1 357,-1236.1 497,-1236.1 497,-1214.1 357,-1214.1"/>
<text text-anchor="start" x="422.8007" y="-1220.5" font-family="Courier, monospace" font-size="14.00" fill="#000000">5</text>
<polygon fill="none" stroke="#000000" points="357,-1175.1 357,-1214.1 497,-1214.1 497,-1175.1 357,-1175.1"/>
<text text-anchor="start" x="360" y="-1198.5" font-family="Courier, monospace" font-size="14.00" fill="#000000">_20 = const true</text>
<text text-anchor="start" x="360" y="-1181.7" font-family="Courier, monospace" font-size="14.00" fill="#000000">_2 = move _4</text>
<polygon fill="none" stroke="#000000" points="357,-1153.1 357,-1175.1 497,-1175.1 497,-1153.1 357,-1153.1"/>
<text text-anchor="start" x="360" y="-1159.5" font-family="Courier, monospace" font-size="14.00" fill="#000000">drop(_3)</text>
</g>
<!-- bb4__0_3&#45;&gt;bb5__0_3 -->
<g id="edge8" class="edge">
<title>bb4__0_3-&gt;bb5__0_3</title>
<path fill="none" stroke="#000000" d="M427,-1331.2228C427,-1307.8678 427,-1277.3017 427,-1251.0521"/>
<polygon fill="#000000" stroke="#000000" points="430.5001,-1250.8539 427,-1240.8539 423.5001,-1250.8539 430.5001,-1250.8539"/>
<text text-anchor="middle" x="452.1958" y="-1281.8" font-family="Courier, monospace" font-size="14.00" fill="#000000">return</text>
</g>
<!-- bb4__0_3&#45;&gt;bb12__0_3 -->
<g id="edge9" class="edge">
<title>bb4__0_3-&gt;bb12__0_3</title>
<path fill="none" stroke="#000000" d="M477.6279,-1331.2228C519.734,-1300.3034 579.0517,-1256.7451 619.155,-1227.2963"/>
<polygon fill="#000000" stroke="#000000" points="621.4192,-1229.976 627.4079,-1221.2361 617.276,-1224.3338 621.4192,-1229.976"/>
<text text-anchor="middle" x="573.1958" y="-1281.8" font-family="Courier, monospace" font-size="14.00" fill="#000000">unwind</text>
</g>
<!-- bb6__0_3 -->
<g id="node7" class="node">
<title>bb6__0_3</title>
<polygon fill="#c0c0c0" stroke="transparent" points="112,-1032.8 112,-1054.8 647,-1054.8 647,-1032.8 112,-1032.8"/>
<polygon fill="none" stroke="#000000" points="112,-1032.8 112,-1054.8 647,-1054.8 647,-1032.8 112,-1032.8"/>
<text text-anchor="start" x="375.3007" y="-1039.2" font-family="Courier, monospace" font-size="14.00" fill="#000000">6</text>
<polygon fill="none" stroke="#000000" points="112,-976.8 112,-1032.8 647,-1032.8 647,-976.8 112,-976.8"/>
<text text-anchor="start" x="115" y="-1017.2" font-family="Courier, monospace" font-size="14.00" fill="#000000">_19 = const _</text>
<text text-anchor="start" x="115" y="-1000.4" font-family="Courier, monospace" font-size="14.00" fill="#000000">_13 = _19 as &amp;[&amp;str] (PointerCoercion(Unsize))</text>
<text text-anchor="start" x="115" y="-983.6" font-family="Courier, monospace" font-size="14.00" fill="#000000">_18 = &amp;_2</text>
<polygon fill="none" stroke="#000000" points="112,-954.8 112,-976.8 647,-976.8 647,-954.8 112,-954.8"/>
<text text-anchor="start" x="114.9441" y="-961.2" font-family="Courier, monospace" font-size="14.00" fill="#000000">_17 = core::fmt::rt::Argument::&lt;'_&gt;::new_display::&lt;String&gt;(_18)</text>
</g>
<!-- bb5__0_3&#45;&gt;bb6__0_3 -->
<g id="edge10" class="edge">
<title>bb5__0_3-&gt;bb6__0_3</title>
<path fill="none" stroke="#000000" d="M415.5028,-1149.5184C409.4283,-1125.4354 401.8712,-1095.4746 395.2114,-1069.0716"/>
<polygon fill="#000000" stroke="#000000" points="398.5475,-1067.9866 392.7079,-1059.1463 391.76,-1069.6986 398.5475,-1067.9866"/>
<text text-anchor="middle" x="430.1958" y="-1100" font-family="Courier, monospace" font-size="14.00" fill="#000000">return</text>
</g>
<!-- bb5__0_3&#45;&gt;bb16__0_3 -->
<g id="edge11" class="edge">
<title>bb5__0_3-&gt;bb16__0_3</title>
<path fill="none" stroke="#000000" d="M505.1523,-1174.0495C577.5156,-1153.4159 674,-1122.4775 674,-1104.2 674,-1104.2 674,-1104.2 674,-878.5 674,-789.9836 686,-768.2164 686,-679.7 686,-679.7 686,-679.7 686,-563.8 686,-549.0571 678.3036,-536.1527 668.0893,-525.5185"/>
<polygon fill="#000000" stroke="#000000" points="670.354,-522.8432 660.6793,-518.5244 665.5491,-527.9337 670.354,-522.8432"/>
<text text-anchor="middle" x="707.1958" y="-801.8" font-family="Courier, monospace" font-size="14.00" fill="#000000">unwind</text>
</g>
<!-- bb7__0_3 -->
<g id="node8" class="node">
<title>bb7__0_3</title>
<polygon fill="#c0c0c0" stroke="transparent" points="25,-834 25,-856 610,-856 610,-834 25,-834"/>
<polygon fill="none" stroke="#000000" points="25,-834 25,-856 610,-856 610,-834 25,-834"/>
<text text-anchor="start" x="313.3007" y="-840.4" font-family="Courier, monospace" font-size="14.00" fill="#000000">7</text>
<polygon fill="none" stroke="#000000" points="25,-778 25,-834 610,-834 610,-778 25,-778"/>
<text text-anchor="start" x="28" y="-818.4" font-family="Courier, monospace" font-size="14.00" fill="#000000">_16 = [move _17]</text>
<text text-anchor="start" x="28" y="-801.6" font-family="Courier, monospace" font-size="14.00" fill="#000000">_15 = &amp;_16</text>
<text text-anchor="start" x="28" y="-784.8" font-family="Courier, monospace" font-size="14.00" fill="#000000">_14 = _15 as &amp;[core::fmt::rt::Argument&lt;'_&gt;] (PointerCoercion(Unsize))</text>
<polygon fill="none" stroke="#000000" points="25,-756 25,-778 610,-778 610,-756 25,-756"/>
<text text-anchor="start" x="28" y="-762.4" font-family="Courier, monospace" font-size="14.00" fill="#000000">_12 = Arguments::&lt;'_&gt;::new_v1(move _13, move _14)</text>
</g>
<!-- bb6__0_3&#45;&gt;bb7__0_3 -->
<g id="edge12" class="edge">
<title>bb6__0_3-&gt;bb7__0_3</title>
<path fill="none" stroke="#000000" d="M362.1401,-950.7396C354.3501,-925.7612 345.0438,-895.9212 336.9106,-869.8424"/>
<polygon fill="#000000" stroke="#000000" points="340.1751,-868.5541 333.8565,-860.0496 333.4926,-870.6382 340.1751,-868.5541"/>
<text text-anchor="middle" x="375.1958" y="-901.2" font-family="Courier, monospace" font-size="14.00" fill="#000000">return</text>
</g>
<!-- bb6__0_3&#45;&gt;bb16__0_3 -->
<g id="edge13" class="edge">
<title>bb6__0_3-&gt;bb16__0_3</title>
<path fill="none" stroke="#000000" d="M527.441,-950.7379C566.7523,-928.8541 604.4729,-899.2388 627,-860 666.9586,-790.3982 617,-759.9565 617,-679.7 617,-679.7 617,-679.7 617,-563.8 617,-552.4325 617.1283,-540.048 617.293,-528.8334"/>
<polygon fill="#000000" stroke="#000000" points="620.7976,-528.5662 617.459,-518.5111 613.7985,-528.4535 620.7976,-528.5662"/>
<text text-anchor="middle" x="645.1958" y="-702.4" font-family="Courier, monospace" font-size="14.00" fill="#000000">unwind</text>
</g>
<!-- bb8__0_3 -->
<g id="node9" class="node">
<title>bb8__0_3</title>
<polygon fill="#c0c0c0" stroke="transparent" points="245,-635.2 245,-657.2 435,-657.2 435,-635.2 245,-635.2"/>
<polygon fill="none" stroke="#000000" points="245,-635.2 245,-657.2 435,-657.2 435,-635.2 245,-635.2"/>
<text text-anchor="start" x="335.8007" y="-641.6" font-family="Courier, monospace" font-size="14.00" fill="#000000">8</text>
<polygon fill="none" stroke="#000000" points="245,-613.2 245,-635.2 435,-635.2 435,-613.2 245,-613.2"/>
<text text-anchor="start" x="247.6154" y="-619.6" font-family="Courier, monospace" font-size="14.00" fill="#000000">_11 = _print(move _12)</text>
</g>
<!-- bb7__0_3&#45;&gt;bb8__0_3 -->
<g id="edge14" class="edge">
<title>bb7__0_3-&gt;bb8__0_3</title>
<path fill="none" stroke="#000000" d="M324.2773,-751.9578C327.8153,-725.6846 331.9725,-694.813 335.1233,-671.4149"/>
<polygon fill="#000000" stroke="#000000" points="338.6283,-671.6114 336.4943,-661.2337 331.691,-670.6772 338.6283,-671.6114"/>
<text text-anchor="middle" x="356.1958" y="-702.4" font-family="Courier, monospace" font-size="14.00" fill="#000000">return</text>
</g>
<!-- bb7__0_3&#45;&gt;bb16__0_3 -->
<g id="edge15" class="edge">
<title>bb7__0_3-&gt;bb16__0_3</title>
<path fill="none" stroke="#000000" d="M498.3401,-751.7147C509.2924,-739.5873 516,-724.7508 516,-706.6 516,-706.6 516,-706.6 516,-563.8 516,-546.4533 526.0233,-532.9659 539.7857,-522.6228"/>
<polygon fill="#000000" stroke="#000000" points="541.945,-525.388 548.2734,-516.8908 538.0274,-519.5869 541.945,-525.388"/>
<text text-anchor="middle" x="541.1958" y="-631" font-family="Courier, monospace" font-size="14.00" fill="#000000">unwind</text>
</g>
<!-- bb9__0_3 -->
<g id="node10" class="node">
<title>bb9__0_3</title>
<polygon fill="#c0c0c0" stroke="transparent" points="304,-492.4 304,-514.4 377,-514.4 377,-492.4 304,-492.4"/>
<polygon fill="none" stroke="#000000" points="304,-492.4 304,-514.4 377,-514.4 377,-492.4 304,-492.4"/>
<text text-anchor="start" x="336.3007" y="-498.8" font-family="Courier, monospace" font-size="14.00" fill="#000000">9</text>
<polygon fill="none" stroke="#000000" points="304,-470.4 304,-492.4 377,-492.4 377,-470.4 304,-470.4"/>
<text text-anchor="start" x="306.9056" y="-476.8" font-family="Courier, monospace" font-size="14.00" fill="#000000">drop(_2)</text>
</g>
<!-- bb8__0_3&#45;&gt;bb9__0_3 -->
<g id="edge16" class="edge">
<title>bb8__0_3-&gt;bb9__0_3</title>
<path fill="none" stroke="#000000" d="M340,-609.0083C340,-586.4633 340,-553.7026 340,-528.6422"/>
<polygon fill="#000000" stroke="#000000" points="343.5001,-528.4256 340,-518.4257 336.5001,-528.4257 343.5001,-528.4256"/>
<text text-anchor="middle" x="365.1958" y="-559.6" font-family="Courier, monospace" font-size="14.00" fill="#000000">return</text>
</g>
<!-- bb8__0_3&#45;&gt;bb16__0_3 -->
<g id="edge17" class="edge">
<title>bb8__0_3-&gt;bb16__0_3</title>
<path fill="none" stroke="#000000" d="M375.2403,-609.1129C398.6868,-592.4624 430.5851,-571.131 460.6084,-555.4 485.3441,-542.4395 513.3639,-530.4322 538.8358,-520.4518"/>
<polygon fill="#000000" stroke="#000000" points="540.3976,-523.6005 548.4613,-516.7282 537.872,-517.0719 540.3976,-523.6005"/>
<text text-anchor="middle" x="485.1958" y="-559.6" font-family="Courier, monospace" font-size="14.00" fill="#000000">unwind</text>
</g>
<!-- bb10__0_3 -->
<g id="node11" class="node">
<title>bb10__0_3</title>
<polygon fill="#c0c0c0" stroke="transparent" points="263,-349.6 263,-371.6 411,-371.6 411,-349.6 263,-349.6"/>
<polygon fill="none" stroke="#000000" points="263,-349.6 263,-371.6 411,-371.6 411,-349.6 263,-349.6"/>
<text text-anchor="start" x="328.6014" y="-356" font-family="Courier, monospace" font-size="14.00" fill="#000000">10</text>
<polygon fill="none" stroke="#000000" points="263,-327.6 263,-349.6 411,-349.6 411,-327.6 263,-327.6"/>
<text text-anchor="start" x="266" y="-334" font-family="Courier, monospace" font-size="14.00" fill="#000000">_20 = const false</text>
<polygon fill="none" stroke="#000000" points="263,-305.6 263,-327.6 411,-327.6 411,-305.6 263,-305.6"/>
<text text-anchor="start" x="266" y="-312" font-family="Courier, monospace" font-size="14.00" fill="#000000">drop(_1)</text>
</g>
<!-- bb9__0_3&#45;&gt;bb10__0_3 -->
<g id="edge18" class="edge">
<title>bb9__0_3-&gt;bb10__0_3</title>
<path fill="none" stroke="#000000" d="M339.4911,-466.3099C339.0631,-444.3687 338.4403,-412.4386 337.9245,-385.9952"/>
<polygon fill="#000000" stroke="#000000" points="341.4199,-385.7207 337.7254,-375.7908 334.4212,-385.8572 341.4199,-385.7207"/>
<text text-anchor="middle" x="363.1958" y="-416.8" font-family="Courier, monospace" font-size="14.00" fill="#000000">return</text>
</g>
<!-- bb13__0_3 -->
<g id="node14" class="node">
<title>bb13__0_3</title>
<polygon fill="#add8e6" stroke="transparent" points="488,-184.8 488,-206.8 594,-206.8 594,-184.8 488,-184.8"/>
<polygon fill="none" stroke="#000000" points="488,-184.8 488,-206.8 594,-206.8 594,-184.8 488,-184.8"/>
<text text-anchor="start" x="490.6084" y="-191.2" font-family="Courier, monospace" font-size="14.00" fill="#000000">13 (cleanup)</text>
<polygon fill="none" stroke="#000000" points="488,-162.8 488,-184.8 594,-184.8 594,-162.8 488,-162.8"/>
<text text-anchor="start" x="491" y="-169.2" font-family="Courier, monospace" font-size="14.00" fill="#000000">drop(_1)</text>
</g>
<!-- bb9__0_3&#45;&gt;bb13__0_3 -->
<g id="edge19" class="edge">
<title>bb9__0_3-&gt;bb13__0_3</title>
<path fill="none" stroke="#000000" d="M384.7913,-483.3787C417.0814,-473.9603 455,-455.5456 455,-421 455,-421 455,-421 455,-256.2 455,-240.5997 463.4807,-227.7563 475.1157,-217.4767"/>
<polygon fill="#000000" stroke="#000000" points="477.5053,-220.0484 483.1596,-211.0885 473.152,-214.5667 477.5053,-220.0484"/>
<text text-anchor="middle" x="480.1958" y="-334.4" font-family="Courier, monospace" font-size="14.00" fill="#000000">unwind</text>
</g>
<!-- bb11__0_3 -->
<g id="node12" class="node">
<title>bb11__0_3</title>
<polygon fill="#c0c0c0" stroke="transparent" points="309,-184.8 309,-206.8 365,-206.8 365,-184.8 309,-184.8"/>
<polygon fill="none" stroke="#000000" points="309,-184.8 309,-206.8 365,-206.8 365,-184.8 309,-184.8"/>
<text text-anchor="start" x="328.6014" y="-191.2" font-family="Courier, monospace" font-size="14.00" fill="#000000">11</text>
<polygon fill="none" stroke="#000000" points="309,-162.8 309,-184.8 365,-184.8 365,-162.8 309,-162.8"/>
<text text-anchor="start" x="311.8042" y="-169.2" font-family="Courier, monospace" font-size="14.00" fill="#000000">return</text>
</g>
<!-- bb10__0_3&#45;&gt;bb11__0_3 -->
<g id="edge20" class="edge">
<title>bb10__0_3-&gt;bb11__0_3</title>
<path fill="none" stroke="#000000" d="M337,-301.3693C337,-277.0527 337,-245.4487 337,-221.2834"/>
<polygon fill="#000000" stroke="#000000" points="340.5001,-221.0917 337,-211.0917 333.5001,-221.0917 340.5001,-221.0917"/>
<text text-anchor="middle" x="362.1958" y="-252" font-family="Courier, monospace" font-size="14.00" fill="#000000">return</text>
</g>
<!-- bb12__0_3&#45;&gt;bb16__0_3 -->
<g id="edge21" class="edge">
<title>bb12__0_3-&gt;bb16__0_3</title>
<path fill="none" stroke="#000000" d="M715.7578,-1169.0335C738.5085,-1153.7797 760,-1132.0103 760,-1104.2 760,-1104.2 760,-1104.2 760,-563.8 760,-531.2765 729.8991,-513.5661 697.4148,-503.9229"/>
<polygon fill="#000000" stroke="#000000" points="698.3199,-500.542 687.752,-501.2965 696.4839,-507.2969 698.3199,-500.542"/>
<text text-anchor="middle" x="785.1958" y="-801.8" font-family="Courier, monospace" font-size="14.00" fill="#000000">return</text>
</g>
<!-- bb14__0_3 -->
<g id="node15" class="node">
<title>bb14__0_3</title>
<polygon fill="#add8e6" stroke="transparent" points="488,-42 488,-64 594,-64 594,-42 488,-42"/>
<polygon fill="none" stroke="#000000" points="488,-42 488,-64 594,-64 594,-42 488,-42"/>
<text text-anchor="start" x="490.6084" y="-48.4" font-family="Courier, monospace" font-size="14.00" fill="#000000">14 (cleanup)</text>
<polygon fill="none" stroke="#000000" points="488,-20 488,-42 594,-42 594,-20 488,-20"/>
<text text-anchor="start" x="491" y="-26.4" font-family="Courier, monospace" font-size="14.00" fill="#000000">resume</text>
</g>
<!-- bb13__0_3&#45;&gt;bb14__0_3 -->
<g id="edge22" class="edge">
<title>bb13__0_3-&gt;bb14__0_3</title>
<path fill="none" stroke="#000000" d="M541,-158.6083C541,-136.0633 541,-103.3026 541,-78.2422"/>
<polygon fill="#000000" stroke="#000000" points="544.5001,-78.0256 541,-68.0257 537.5001,-78.0257 544.5001,-78.0256"/>
<text text-anchor="middle" x="566.1958" y="-109.2" font-family="Courier, monospace" font-size="14.00" fill="#000000">return</text>
</g>
<!-- bb15__0_3 -->
<g id="node16" class="node">
<title>bb15__0_3</title>
<polygon fill="#add8e6" stroke="transparent" points="575,-338.6 575,-360.6 681,-360.6 681,-338.6 575,-338.6"/>
<polygon fill="none" stroke="#000000" points="575,-338.6 575,-360.6 681,-360.6 681,-338.6 575,-338.6"/>
<text text-anchor="start" x="577.6084" y="-345" font-family="Courier, monospace" font-size="14.00" fill="#000000">15 (cleanup)</text>
<polygon fill="none" stroke="#000000" points="575,-316.6 575,-338.6 681,-338.6 681,-316.6 575,-316.6"/>
<text text-anchor="start" x="578" y="-323" font-family="Courier, monospace" font-size="14.00" fill="#000000">drop(_2)</text>
</g>
<!-- bb15__0_3&#45;&gt;bb13__0_3 -->
<g id="edge23" class="edge">
<title>bb15__0_3-&gt;bb13__0_3</title>
<path fill="none" stroke="#000000" d="M613.2416,-312.5099C598.8057,-286.9899 576.7259,-247.9569 560.7763,-219.7609"/>
<polygon fill="#000000" stroke="#000000" points="563.8008,-217.9988 555.8308,-211.0181 557.708,-221.4453 563.8008,-217.9988"/>
<text text-anchor="middle" x="610.1958" y="-252" font-family="Courier, monospace" font-size="14.00" fill="#000000">return</text>
</g>
<!-- bb16__0_3&#45;&gt;bb13__0_3 -->
<g id="edge24" class="edge">
<title>bb16__0_3-&gt;bb13__0_3</title>
<path fill="none" stroke="#000000" d="M567.9309,-466.16C553.2239,-454.7075 541,-439.5954 541,-421 541,-421 541,-421 541,-256.2 541,-244.8336 541,-232.4494 541,-221.2348"/>
<polygon fill="#000000" stroke="#000000" points="544.5001,-220.9123 541,-210.9124 537.5001,-220.9124 544.5001,-220.9123"/>
<text text-anchor="middle" x="545.1993" y="-334.4" font-family="Courier, monospace" font-size="14.00" fill="#000000">0</text>
</g>
<!-- bb16__0_3&#45;&gt;bb15__0_3 -->
<g id="edge25" class="edge">
<title>bb16__0_3-&gt;bb15__0_3</title>
<path fill="none" stroke="#000000" d="M619.6964,-466.3099C621.3269,-441.2318 623.8059,-403.1046 625.631,-375.0353"/>
<polygon fill="#000000" stroke="#000000" points="629.139,-375.0241 626.2953,-364.8181 622.1538,-374.5699 629.139,-375.0241"/>
<text text-anchor="middle" x="660.7937" y="-416.8" font-family="Courier, monospace" font-size="14.00" fill="#000000">otherwise</text>
</g>
<!-- bb0__0_4 -->
<g id="node18" class="node">
<title>bb0__0_4</title>
<polygon fill="#c0c0c0" stroke="transparent" points="974,-2022.6 974,-2044.6 1273,-2044.6 1273,-2022.6 974,-2022.6"/>
<polygon fill="none" stroke="#000000" points="974,-2022.6 974,-2044.6 1273,-2044.6 1273,-2022.6 974,-2022.6"/>
<text text-anchor="start" x="1119.3007" y="-2029" font-family="Courier, monospace" font-size="14.00" fill="#000000">0</text>
<polygon fill="none" stroke="#000000" points="974,-2000.6 974,-2022.6 1273,-2022.6 1273,-2000.6 974,-2000.6"/>
<text text-anchor="start" x="976.5245" y="-2007" font-family="Courier, monospace" font-size="14.00" fill="#000000">_4 = core::str::&lt;impl str&gt;::len(_1)</text>
</g>
<!-- bb1__0_4 -->
<g id="node19" class="node">
<title>bb1__0_4</title>
<polygon fill="#c0c0c0" stroke="transparent" points="974,-1868.8 974,-1890.8 1273,-1890.8 1273,-1868.8 974,-1868.8"/>
<polygon fill="none" stroke="#000000" points="974,-1868.8 974,-1890.8 1273,-1890.8 1273,-1868.8 974,-1868.8"/>
<text text-anchor="start" x="1119.3007" y="-1875.2" font-family="Courier, monospace" font-size="14.00" fill="#000000">1</text>
<polygon fill="none" stroke="#000000" points="974,-1846.8 974,-1868.8 1273,-1868.8 1273,-1846.8 974,-1846.8"/>
<text text-anchor="start" x="976.5245" y="-1853.2" font-family="Courier, monospace" font-size="14.00" fill="#000000">_5 = core::str::&lt;impl str&gt;::len(_2)</text>
</g>
<!-- bb0__0_4&#45;&gt;bb1__0_4 -->
<g id="edge26" class="edge">
<title>bb0__0_4-&gt;bb1__0_4</title>
<path fill="none" stroke="#000000" d="M1123,-1996.5099C1123,-1971.4318 1123,-1933.3046 1123,-1905.2353"/>
<polygon fill="#000000" stroke="#000000" points="1126.5001,-1905.018 1123,-1895.0181 1119.5001,-1905.0181 1126.5001,-1905.018"/>
<text text-anchor="middle" x="1148.1958" y="-1936" font-family="Courier, monospace" font-size="14.00" fill="#000000">return</text>
</g>
<!-- bb2__0_4 -->
<g id="node20" class="node">
<title>bb2__0_4</title>
<polygon fill="#c0c0c0" stroke="transparent" points="1016,-1726 1016,-1748 1231,-1748 1231,-1726 1016,-1726"/>
<polygon fill="none" stroke="#000000" points="1016,-1726 1016,-1748 1231,-1748 1231,-1726 1016,-1726"/>
<text text-anchor="start" x="1119.3007" y="-1732.4" font-family="Courier, monospace" font-size="14.00" fill="#000000">2</text>
<polygon fill="none" stroke="#000000" points="1016,-1704 1016,-1726 1231,-1726 1231,-1704 1016,-1704"/>
<text text-anchor="start" x="1019" y="-1710.4" font-family="Courier, monospace" font-size="14.00" fill="#000000">_3 = Gt(move _4, move _5)</text>
<polygon fill="none" stroke="#000000" points="1016,-1682 1016,-1704 1231,-1704 1231,-1682 1016,-1682"/>
<text text-anchor="start" x="1019" y="-1688.4" font-family="Courier, monospace" font-size="14.00" fill="#000000">switchInt(move _3)</text>
</g>
<!-- bb1__0_4&#45;&gt;bb2__0_4 -->
<g id="edge27" class="edge">
<title>bb1__0_4-&gt;bb2__0_4</title>
<path fill="none" stroke="#000000" d="M1123,-1842.7099C1123,-1820.7687 1123,-1788.8386 1123,-1762.3952"/>
<polygon fill="#000000" stroke="#000000" points="1126.5001,-1762.1908 1123,-1752.1908 1119.5001,-1762.1909 1126.5001,-1762.1908"/>
<text text-anchor="middle" x="1148.1958" y="-1793.2" font-family="Courier, monospace" font-size="14.00" fill="#000000">return</text>
</g>
<!-- bb3__0_4 -->
<g id="node21" class="node">
<title>bb3__0_4</title>
<polygon fill="#c0c0c0" stroke="transparent" points="863,-1541.7 863,-1563.7 1162,-1563.7 1162,-1541.7 863,-1541.7"/>
<polygon fill="none" stroke="#000000" points="863,-1541.7 863,-1563.7 1162,-1563.7 1162,-1541.7 863,-1541.7"/>
<text text-anchor="start" x="1008.3007" y="-1548.1" font-family="Courier, monospace" font-size="14.00" fill="#000000">3</text>
<polygon fill="none" stroke="#000000" points="863,-1519.7 863,-1541.7 1162,-1541.7 1162,-1519.7 863,-1519.7"/>
<text text-anchor="start" x="865.5245" y="-1526.1" font-family="Courier, monospace" font-size="14.00" fill="#000000">_0 = &lt;str as ToOwned&gt;::to_owned(_1)</text>
</g>
<!-- bb2__0_4&#45;&gt;bb3__0_4 -->
<g id="edge29" class="edge">
<title>bb2__0_4-&gt;bb3__0_4</title>
<path fill="none" stroke="#000000" d="M1099.1877,-1677.8228C1079.9636,-1647.809 1053.1115,-1605.8858 1034.3022,-1576.5195"/>
<polygon fill="#000000" stroke="#000000" points="1037.0812,-1574.3691 1028.7404,-1567.8361 1031.1867,-1578.1446 1037.0812,-1574.3691"/>
<text text-anchor="middle" x="1111.7937" y="-1628.4" font-family="Courier, monospace" font-size="14.00" fill="#000000">otherwise</text>
</g>
<!-- bb4__0_4 -->
<g id="node22" class="node">
<title>bb4__0_4</title>
<polygon fill="#c0c0c0" stroke="transparent" points="1196,-1541.7 1196,-1563.7 1495,-1563.7 1495,-1541.7 1196,-1541.7"/>
<polygon fill="none" stroke="#000000" points="1196,-1541.7 1196,-1563.7 1495,-1563.7 1495,-1541.7 1196,-1541.7"/>
<text text-anchor="start" x="1341.3007" y="-1548.1" font-family="Courier, monospace" font-size="14.00" fill="#000000">4</text>
<polygon fill="none" stroke="#000000" points="1196,-1519.7 1196,-1541.7 1495,-1541.7 1495,-1519.7 1196,-1519.7"/>
<text text-anchor="start" x="1198.5245" y="-1526.1" font-family="Courier, monospace" font-size="14.00" fill="#000000">_0 = &lt;str as ToOwned&gt;::to_owned(_2)</text>
</g>
<!-- bb2__0_4&#45;&gt;bb4__0_4 -->
<g id="edge28" class="edge">
<title>bb2__0_4-&gt;bb4__0_4</title>
<path fill="none" stroke="#000000" d="M1170.6246,-1677.8228C1210.0671,-1647.0328 1265.565,-1603.7094 1303.2815,-1574.2667"/>
<polygon fill="#000000" stroke="#000000" points="1305.7904,-1576.7484 1311.5193,-1567.8361 1301.483,-1571.2306 1305.7904,-1576.7484"/>
<text text-anchor="middle" x="1241.1993" y="-1628.4" font-family="Courier, monospace" font-size="14.00" fill="#000000">0</text>
</g>
<!-- bb5__0_4 -->
<g id="node23" class="node">
<title>bb5__0_4</title>
<polygon fill="#c0c0c0" stroke="transparent" points="1151,-1368.4 1151,-1390.4 1207,-1390.4 1207,-1368.4 1151,-1368.4"/>
<polygon fill="none" stroke="#000000" points="1151,-1368.4 1151,-1390.4 1207,-1390.4 1207,-1368.4 1151,-1368.4"/>
<text text-anchor="start" x="1174.8007" y="-1374.8" font-family="Courier, monospace" font-size="14.00" fill="#000000">5</text>
<polygon fill="none" stroke="#000000" points="1151,-1346.4 1151,-1368.4 1207,-1368.4 1207,-1346.4 1151,-1346.4"/>
<text text-anchor="start" x="1153.8042" y="-1352.8" font-family="Courier, monospace" font-size="14.00" fill="#000000">return</text>
</g>
<!-- bb3__0_4&#45;&gt;bb5__0_4 -->
<g id="edge30" class="edge">
<title>bb3__0_4-&gt;bb5__0_4</title>
<path fill="none" stroke="#000000" d="M1037.3637,-1515.3795C1066.7148,-1484.9211 1115.0917,-1434.7192 1147.0024,-1401.6047"/>
<polygon fill="#000000" stroke="#000000" points="1149.5261,-1404.0298 1153.9448,-1394.4004 1144.4855,-1399.1725 1149.5261,-1404.0298"/>
<text text-anchor="middle" x="1131.1958" y="-1446.6" font-family="Courier, monospace" font-size="14.00" fill="#000000">return</text>
</g>
<!-- bb4__0_4&#45;&gt;bb5__0_4 -->
<g id="edge31" class="edge">
<title>bb4__0_4-&gt;bb5__0_4</title>
<path fill="none" stroke="#000000" d="M1319.7882,-1515.3795C1290.7354,-1485.049 1242.9294,-1435.1408 1211.2067,-1402.023"/>
<polygon fill="#000000" stroke="#000000" points="1213.3501,-1399.2009 1203.9052,-1394.4004 1208.295,-1404.043 1213.3501,-1399.2009"/>
<text text-anchor="middle" x="1289.1958" y="-1446.6" font-family="Courier, monospace" font-size="14.00" fill="#000000">return</text>
</g>
</g>
</svg>