<?xml version="1.0" encoding="UTF-8" standalone="no"?><!DOCTYPE svg PUBLIC "-//W3C//DTD SVG 1.1//EN" "http://www.w3.org/Graphics/SVG/1.1/DTD/svg11.dtd"><!-- Generated by graphviz version 2.40.1 (20161225.0304)
 --><!-- Title: Mir_0_3 Pages: 1 --><svg xmlns="http://www.w3.org/2000/svg" xmlns:xlink="http://www.w3.org/1999/xlink" width="1006pt" height="849pt" viewBox="0.00 0.00 1005.50 849.40">
<g id="graph0" class="graph" transform="scale(1 1) rotate(0) translate(4 845.4)">
<title>Mir_0_3</title>
<polygon fill="#ffffff" stroke="transparent" points="-4,4 -4,-845.4 1001.5,-845.4 1001.5,4 -4,4"/>
<text text-anchor="start" x="347.5752" y="-142.6" font-family="Courier, monospace" font-size="14.00" fill="#000000">fn main() -&gt; ()</text>
<text text-anchor="start" x="347.5752" y="-125.8" font-family="Courier, monospace" font-size="14.00" fill="#000000">let mut _1: i32;</text>
<text text-anchor="start" x="347.5752" y="-109" font-family="Courier, monospace" font-size="14.00" fill="#000000">let _2: ();</text>
<text text-anchor="start" x="347.5752" y="-92.2" font-family="Courier, monospace" font-size="14.00" fill="#000000">let mut _3: std::fmt::Arguments&lt;'_&gt;;</text>
<text text-anchor="start" x="347.5752" y="-75.4" font-family="Courier, monospace" font-size="14.00" fill="#000000">let mut _4: &amp;[&amp;str];</text>
<text text-anchor="start" x="347.5752" y="-58.6" font-family="Courier, monospace" font-size="14.00" fill="#000000">let mut _5: (i32, bool);</text>
<text text-anchor="start" x="347.5752" y="-41.8" font-family="Courier, monospace" font-size="14.00" fill="#000000">let mut _6: i32;</text>
<text text-anchor="start" x="347.5752" y="-25" font-family="Courier, monospace" font-size="14.00" fill="#000000">let mut _7: &amp;[&amp;str; 1];</text>
<text text-anchor="start" x="347.5752" y="-8.2" font-family="Courier, monospace" font-size="14.00" fill="#000000">debug c =&gt; _1;</text>
<!-- bb0__0_3 -->
<g id="node1" class="node">
<title>bb0__0_3</title>
<polygon fill="#c0c0c0" stroke="transparent" points="732,-815.4 732,-837.4 872,-837.4 872,-815.4 732,-815.4"/>
<polygon fill="none" stroke="#000000" points="732,-815.4 732,-837.4 872,-837.4 872,-815.4 732,-815.4"/>
<text text-anchor="start" x="797.8007" y="-821.8" font-family="Courier, monospace" font-size="14.00" fill="#000000">0</text>
<polygon fill="none" stroke="#000000" points="732,-793.4 732,-815.4 872,-815.4 872,-793.4 732,-793.4"/>
<text text-anchor="start" x="735" y="-799.8" font-family="Courier, monospace" font-size="14.00" fill="#000000">_1 = const 0_i32</text>
<polygon fill="none" stroke="#000000" points="732,-771.4 732,-793.4 872,-793.4 872,-771.4 732,-771.4"/>
<text text-anchor="start" x="735" y="-777.8" font-family="Courier, monospace" font-size="14.00" fill="#000000">goto</text>
</g>
<!-- bb1__0_3 -->
<g id="node2" class="node">
<title>bb1__0_3</title>
<polygon fill="#c0c0c0" stroke="transparent" points="615,-703.9 615,-725.9 990,-725.9 990,-703.9 615,-703.9"/>
<polygon fill="none" stroke="#000000" points="615,-703.9 615,-725.9 990,-725.9 990,-703.9 615,-703.9"/>
<text text-anchor="start" x="798.3007" y="-710.3" font-family="Courier, monospace" font-size="14.00" fill="#000000">1</text>
<polygon fill="none" stroke="#000000" points="615,-664.9 615,-703.9 990,-703.9 990,-664.9 615,-664.9"/>
<text text-anchor="start" x="618" y="-688.3" font-family="Courier, monospace" font-size="14.00" fill="#000000">_7 = const _</text>
<text text-anchor="start" x="618" y="-671.5" font-family="Courier, monospace" font-size="14.00" fill="#000000">_4 = _7 as &amp;[&amp;str] (PointerCoercion(Unsize))</text>
<polygon fill="none" stroke="#000000" points="615,-642.9 615,-664.9 990,-664.9 990,-642.9 615,-642.9"/>
<text text-anchor="start" x="618" y="-649.3" font-family="Courier, monospace" font-size="14.00" fill="#000000">_3 = Arguments::&lt;'_&gt;::new_const(move _4)</text>
</g>
<!-- bb0__0_3&#45;&gt;bb1__0_3 -->
<g id="edge1" class="edge">
<title>bb0__0_3-&gt;bb1__0_3</title>
<path fill="none" stroke="#000000" d="M802,-767.2445C802,-758.7819 802,-749.6101 802,-740.5638"/>
<polygon fill="#000000" stroke="#000000" points="805.5001,-740.448 802,-730.448 798.5001,-740.4481 805.5001,-740.448"/>
</g>
<!-- bb2__0_3 -->
<g id="node3" class="node">
<title>bb2__0_3</title>
<polygon fill="#c0c0c0" stroke="transparent" points="574,-560.6 574,-582.6 747,-582.6 747,-560.6 574,-560.6"/>
<polygon fill="none" stroke="#000000" points="574,-560.6 574,-582.6 747,-582.6 747,-560.6 574,-560.6"/>
<text text-anchor="start" x="656.3007" y="-567" font-family="Courier, monospace" font-size="14.00" fill="#000000">2</text>
<polygon fill="none" stroke="#000000" points="574,-538.6 574,-560.6 747,-560.6 747,-538.6 574,-538.6"/>
<text text-anchor="start" x="576.514" y="-545" font-family="Courier, monospace" font-size="14.00" fill="#000000">_2 = _print(move _3)</text>
</g>
<!-- bb1__0_3&#45;&gt;bb2__0_3 -->
<g id="edge2" class="edge">
<title>bb1__0_3-&gt;bb2__0_3</title>
<path fill="none" stroke="#000000" d="M749.9308,-639.3211C732.5169,-624.0778 713.4641,-607.3999 697.3959,-593.3345"/>
<polygon fill="#000000" stroke="#000000" points="699.5976,-590.6104 689.7679,-586.6574 694.987,-595.8775 699.5976,-590.6104"/>
<text text-anchor="middle" x="752.1958" y="-608.8" font-family="Courier, monospace" font-size="14.00" fill="#000000">return</text>
</g>
<!-- bb3__0_3 -->
<g id="node4" class="node">
<title>bb3__0_3</title>
<polygon fill="#c0c0c0" stroke="transparent" points="8,-455.8 8,-477.8 828,-477.8 828,-455.8 8,-455.8"/>
<polygon fill="none" stroke="#000000" points="8,-455.8 8,-477.8 828,-477.8 828,-455.8 8,-455.8"/>
<text text-anchor="start" x="413.8007" y="-462.2" font-family="Courier, monospace" font-size="14.00" fill="#000000">3</text>
<polygon fill="none" stroke="#000000" points="8,-433.8 8,-455.8 828,-455.8 828,-433.8 8,-433.8"/>
<text text-anchor="start" x="11" y="-440.2" font-family="Courier, monospace" font-size="14.00" fill="#000000">_5 = CheckedAdd(_1, const 1_i32)</text>
<polygon fill="none" stroke="#000000" points="8,-411.8 8,-433.8 828,-433.8 828,-411.8 8,-411.8"/>
<text text-anchor="start" x="10.6679" y="-418.2" font-family="Courier, monospace" font-size="14.00" fill="#000000">assert(!move (_5.1: bool), "attempt to compute `{} + {}`, which would overflow", _1, const 1_i32)</text>
</g>
<!-- bb2__0_3&#45;&gt;bb3__0_3 -->
<g id="edge3" class="edge">
<title>bb2__0_3-&gt;bb3__0_3</title>
<path fill="none" stroke="#000000" d="M605.3887,-534.4678C575.6987,-520.2608 538.285,-502.3578 504.7104,-486.292"/>
<polygon fill="#000000" stroke="#000000" points="505.8834,-482.9732 495.3521,-481.8139 502.8618,-489.2876 505.8834,-482.9732"/>
<text text-anchor="middle" x="593.1958" y="-504" font-family="Courier, monospace" font-size="14.00" fill="#000000">return</text>
</g>
<!-- bb4__0_3 -->
<g id="node5" class="node">
<title>bb4__0_3</title>
<polygon fill="#c0c0c0" stroke="transparent" points="550,-328.5 550,-350.5 732,-350.5 732,-328.5 550,-328.5"/>
<polygon fill="none" stroke="#000000" points="550,-328.5 550,-350.5 732,-350.5 732,-328.5 550,-328.5"/>
<text text-anchor="start" x="636.8007" y="-334.9" font-family="Courier, monospace" font-size="14.00" fill="#000000">4</text>
<polygon fill="none" stroke="#000000" points="550,-289.5 550,-328.5 732,-328.5 732,-289.5 550,-289.5"/>
<text text-anchor="start" x="553" y="-312.9" font-family="Courier, monospace" font-size="14.00" fill="#000000">_1 = move (_5.0: i32)</text>
<text text-anchor="start" x="553" y="-296.1" font-family="Courier, monospace" font-size="14.00" fill="#000000">_6 = _1</text>
<polygon fill="none" stroke="#000000" points="550,-267.5 550,-289.5 732,-289.5 732,-267.5 550,-267.5"/>
<text text-anchor="start" x="553" y="-273.9" font-family="Courier, monospace" font-size="14.00" fill="#000000">switchInt(move _6)</text>
</g>
<!-- bb3__0_3&#45;&gt;bb4__0_3 -->
<g id="edge4" class="edge">
<title>bb3__0_3-&gt;bb4__0_3</title>
<path fill="none" stroke="#000000" d="M479.2307,-407.6497C503.3262,-393.0303 531.383,-376.0075 557.2995,-360.2833"/>
<polygon fill="#000000" stroke="#000000" points="559.2638,-363.1854 565.9977,-355.0059 555.6327,-357.2008 559.2638,-363.1854"/>
<text text-anchor="middle" x="566.3951" y="-377.2" font-family="Courier, monospace" font-size="14.00" fill="#000000">success</text>
</g>
<!-- bb4__0_3&#45;&gt;bb1__0_3 -->
<g id="edge6" class="edge">
<title>bb4__0_3-&gt;bb1__0_3</title>
<path fill="none" stroke="#000000" d="M740.0595,-332.5236C779.7908,-347.1436 821.6304,-370.5978 845,-407.8 887.6485,-475.6923 857.628,-570.9121 830.7866,-630.2009"/>
<polygon fill="#000000" stroke="#000000" points="827.5531,-628.8541 826.5177,-639.3983 833.9025,-631.8013 827.5531,-628.8541"/>
<text text-anchor="middle" x="904.7937" y="-504" font-family="Courier, monospace" font-size="14.00" fill="#000000">otherwise</text>
</g>
<!-- bb5__0_3 -->
<g id="node6" class="node">
<title>bb5__0_3</title>
<polygon fill="#c0c0c0" stroke="transparent" points="613,-185.2 613,-207.2 669,-207.2 669,-185.2 613,-185.2"/>
<polygon fill="none" stroke="#000000" points="613,-185.2 613,-207.2 669,-207.2 669,-185.2 613,-185.2"/>
<text text-anchor="start" x="636.8007" y="-191.6" font-family="Courier, monospace" font-size="14.00" fill="#000000">5</text>
<polygon fill="none" stroke="#000000" points="613,-163.2 613,-185.2 669,-185.2 669,-163.2 613,-163.2"/>
<text text-anchor="start" x="615.8042" y="-169.6" font-family="Courier, monospace" font-size="14.00" fill="#000000">return</text>
</g>
<!-- bb4__0_3&#45;&gt;bb5__0_3 -->
<g id="edge5" class="edge">
<title>bb4__0_3-&gt;bb5__0_3</title>
<path fill="none" stroke="#000000" d="M641,-263.9211C641,-249.925 641,-234.7194 641,-221.4372"/>
<polygon fill="#000000" stroke="#000000" points="644.5001,-221.2573 641,-211.2574 637.5001,-221.2574 644.5001,-221.2573"/>
<text text-anchor="middle" x="645.1993" y="-233.4" font-family="Courier, monospace" font-size="14.00" fill="#000000">4</text>
</g>
</g>
</svg>