<?xml version="1.0" encoding="UTF-8" standalone="no"?><!DOCTYPE svg PUBLIC "-//W3C//DTD SVG 1.1//EN" "http://www.w3.org/Graphics/SVG/1.1/DTD/svg11.dtd"><!-- Generated by graphviz version 2.40.1 (20161225.0304)
 --><!-- Title: Mir_0_3 Pages: 1 --><svg xmlns="http://www.w3.org/2000/svg" xmlns:xlink="http://www.w3.org/1999/xlink" width="1247pt" height="2048pt" viewBox="0.00 0.00 1247.00 2048.40">
<g id="graph0" class="graph" transform="scale(1 1) rotate(0) translate(4 2044.4)">
<title>Mir_0_3</title>
<polygon fill="#ffffff" stroke="transparent" points="-4,4 -4,-2044.4 1243,-2044.4 1243,4 -4,4"/>
<text text-anchor="start" x="455.7273" y="-411.4" font-family="Courier, monospace" font-size="14.00" fill="#000000">fn main() -&gt; ()</text>
<text text-anchor="start" x="455.7273" y="-394.6" font-family="Courier, monospace" font-size="14.00" fill="#000000">let mut _1: std::vec::Vec&lt;i32&gt;;</text>
<text text-anchor="start" x="455.7273" y="-377.8" font-family="Courier, monospace" font-size="14.00" fill="#000000">let _2: ();</text>
<text text-anchor="start" x="455.7273" y="-361" font-family="Courier, monospace" font-size="14.00" fill="#000000">let mut _3: &amp;mut std::vec::Vec&lt;i32&gt;;</text>
<text text-anchor="start" x="455.7273" y="-344.2" font-family="Courier, monospace" font-size="14.00" fill="#000000">let _4: ();</text>
<text text-anchor="start" x="455.7273" y="-327.4" font-family="Courier, monospace" font-size="14.00" fill="#000000">let mut _5: &amp;mut std::vec::Vec&lt;i32&gt;;</text>
<text text-anchor="start" x="455.7273" y="-310.6" font-family="Courier, monospace" font-size="14.00" fill="#000000">let _6: ();</text>
<text text-anchor="start" x="455.7273" y="-293.8" font-family="Courier, monospace" font-size="14.00" fill="#000000">let mut _7: &amp;mut std::vec::Vec&lt;i32&gt;;</text>
<text text-anchor="start" x="455.7273" y="-277" font-family="Courier, monospace" font-size="14.00" fill="#000000">let _8: ();</text>
<text text-anchor="start" x="455.7273" y="-260.2" font-family="Courier, monospace" font-size="14.00" fill="#000000">let mut _9: &amp;mut std::vec::Vec&lt;i32&gt;;</text>
<text text-anchor="start" x="455.7273" y="-243.4" font-family="Courier, monospace" font-size="14.00" fill="#000000">let _10: std::option::Option&lt;i32&gt;;</text>
<text text-anchor="start" x="455.7273" y="-226.6" font-family="Courier, monospace" font-size="14.00" fill="#000000">let mut _11: &amp;mut std::vec::Vec&lt;i32&gt;;</text>
<text text-anchor="start" x="455.7273" y="-209.8" font-family="Courier, monospace" font-size="14.00" fill="#000000">let _12: &amp;i32;</text>
<text text-anchor="start" x="455.7273" y="-193" font-family="Courier, monospace" font-size="14.00" fill="#000000">let mut _13: std::option::Option&lt;&amp;i32&gt;;</text>
<text text-anchor="start" x="455.7273" y="-176.2" font-family="Courier, monospace" font-size="14.00" fill="#000000">let mut _14: &amp;[i32];</text>
<text text-anchor="start" x="455.7273" y="-159.4" font-family="Courier, monospace" font-size="14.00" fill="#000000">let _15: &amp;[i32];</text>
<text text-anchor="start" x="455.7273" y="-142.6" font-family="Courier, monospace" font-size="14.00" fill="#000000">let mut _16: &amp;std::vec::Vec&lt;i32&gt;;</text>
<text text-anchor="start" x="455.7273" y="-125.8" font-family="Courier, monospace" font-size="14.00" fill="#000000">let _17: &amp;i32;</text>
<text text-anchor="start" x="455.7273" y="-109" font-family="Courier, monospace" font-size="14.00" fill="#000000">let mut _18: std::option::Option&lt;&amp;i32&gt;;</text>
<text text-anchor="start" x="455.7273" y="-92.2" font-family="Courier, monospace" font-size="14.00" fill="#000000">let mut _19: &amp;[i32];</text>
<text text-anchor="start" x="455.7273" y="-75.4" font-family="Courier, monospace" font-size="14.00" fill="#000000">let _20: &amp;[i32];</text>
<text text-anchor="start" x="455.7273" y="-58.6" font-family="Courier, monospace" font-size="14.00" fill="#000000">let mut _21: &amp;std::vec::Vec&lt;i32&gt;;</text>
<text text-anchor="start" x="455.7273" y="-41.8" font-family="Courier, monospace" font-size="14.00" fill="#000000">debug v =&gt; _1;</text>
<text text-anchor="start" x="455.7273" y="-25" font-family="Courier, monospace" font-size="14.00" fill="#000000">debug n =&gt; _12;</text>
<text text-anchor="start" x="455.7273" y="-8.2" font-family="Courier, monospace" font-size="14.00" fill="#000000">debug nn =&gt; _17;</text>
<!-- bb0__0_3 -->
<g id="node1" class="node">
<title>bb0__0_3</title>
<polygon fill="#c0c0c0" stroke="transparent" points="952.5,-2014.4 952.5,-2036.4 1142.5,-2036.4 1142.5,-2014.4 952.5,-2014.4"/>
<polygon fill="none" stroke="#000000" points="952.5,-2014.4 952.5,-2036.4 1142.5,-2036.4 1142.5,-2014.4 952.5,-2014.4"/>
<text text-anchor="start" x="1043.3007" y="-2020.8" font-family="Courier, monospace" font-size="14.00" fill="#000000">0</text>
<polygon fill="none" stroke="#000000" points="952.5,-1992.4 952.5,-2014.4 1142.5,-2014.4 1142.5,-1992.4 952.5,-1992.4"/>
<text text-anchor="start" x="955.1154" y="-1998.8" font-family="Courier, monospace" font-size="14.00" fill="#000000">_1 = Vec::&lt;i32&gt;::new()</text>
</g>
<!-- bb1__0_3 -->
<g id="node2" class="node">
<title>bb1__0_3</title>
<polygon fill="#c0c0c0" stroke="transparent" points="864.5,-1909.6 864.5,-1931.6 1231.5,-1931.6 1231.5,-1909.6 864.5,-1909.6"/>
<polygon fill="none" stroke="#000000" points="864.5,-1909.6 864.5,-1931.6 1231.5,-1931.6 1231.5,-1909.6 864.5,-1909.6"/>
<text text-anchor="start" x="1043.8007" y="-1916" font-family="Courier, monospace" font-size="14.00" fill="#000000">1</text>
<polygon fill="none" stroke="#000000" points="864.5,-1887.6 864.5,-1909.6 1231.5,-1909.6 1231.5,-1887.6 864.5,-1887.6"/>
<text text-anchor="start" x="867.5" y="-1894" font-family="Courier, monospace" font-size="14.00" fill="#000000">_3 = &amp;mut _1</text>
<polygon fill="none" stroke="#000000" points="864.5,-1865.6 864.5,-1887.6 1231.5,-1887.6 1231.5,-1865.6 864.5,-1865.6"/>
<text text-anchor="start" x="867.4301" y="-1872" font-family="Courier, monospace" font-size="14.00" fill="#000000">_2 = Vec::&lt;i32&gt;::push(move _3, const 5_i32)</text>
</g>
<!-- bb0__0_3&#45;&gt;bb1__0_3 -->
<g id="edge1" class="edge">
<title>bb0__0_3-&gt;bb1__0_3</title>
<path fill="none" stroke="#000000" d="M1047.5,-1988.1232C1047.5,-1975.6655 1047.5,-1960.3904 1047.5,-1946.0087"/>
<polygon fill="#000000" stroke="#000000" points="1051.0001,-1945.7475 1047.5,-1935.7476 1044.0001,-1945.7476 1051.0001,-1945.7475"/>
<text text-anchor="middle" x="1072.6958" y="-1957.8" font-family="Courier, monospace" font-size="14.00" fill="#000000">return</text>
</g>
<!-- bb2__0_3 -->
<g id="node3" class="node">
<title>bb2__0_3</title>
<polygon fill="#c0c0c0" stroke="transparent" points="755.5,-1782.8 755.5,-1804.8 1122.5,-1804.8 1122.5,-1782.8 755.5,-1782.8"/>
<polygon fill="none" stroke="#000000" points="755.5,-1782.8 755.5,-1804.8 1122.5,-1804.8 1122.5,-1782.8 755.5,-1782.8"/>
<text text-anchor="start" x="934.8007" y="-1789.2" font-family="Courier, monospace" font-size="14.00" fill="#000000">2</text>
<polygon fill="none" stroke="#000000" points="755.5,-1760.8 755.5,-1782.8 1122.5,-1782.8 1122.5,-1760.8 755.5,-1760.8"/>
<text text-anchor="start" x="758.5" y="-1767.2" font-family="Courier, monospace" font-size="14.00" fill="#000000">_5 = &amp;mut _1</text>
<polygon fill="none" stroke="#000000" points="755.5,-1738.8 755.5,-1760.8 1122.5,-1760.8 1122.5,-1738.8 755.5,-1738.8"/>
<text text-anchor="start" x="758.4301" y="-1745.2" font-family="Courier, monospace" font-size="14.00" fill="#000000">_4 = Vec::&lt;i32&gt;::push(move _5, const 5_i32)</text>
</g>
<!-- bb1__0_3&#45;&gt;bb2__0_3 -->
<g id="edge2" class="edge">
<title>bb1__0_3-&gt;bb2__0_3</title>
<path fill="none" stroke="#000000" d="M1015.6797,-1861.5833C1003.6973,-1847.6442 989.9348,-1831.6342 977.3802,-1817.0294"/>
<polygon fill="#000000" stroke="#000000" points="979.7215,-1814.3839 970.5486,-1809.0822 974.4132,-1818.9471 979.7215,-1814.3839"/>
<text text-anchor="middle" x="1024.6958" y="-1831" font-family="Courier, monospace" font-size="14.00" fill="#000000">return</text>
</g>
<!-- bb14__0_3 -->
<g id="node15" class="node">
<title>bb14__0_3</title>
<polygon fill="#add8e6" stroke="transparent" points="754.5,-558.8 754.5,-580.8 860.5,-580.8 860.5,-558.8 754.5,-558.8"/>
<polygon fill="none" stroke="#000000" points="754.5,-558.8 754.5,-580.8 860.5,-580.8 860.5,-558.8 754.5,-558.8"/>
<text text-anchor="start" x="757.1084" y="-565.2" font-family="Courier, monospace" font-size="14.00" fill="#000000">14 (cleanup)</text>
<polygon fill="none" stroke="#000000" points="754.5,-536.8 754.5,-558.8 860.5,-558.8 860.5,-536.8 754.5,-536.8"/>
<text text-anchor="start" x="757.5" y="-543.2" font-family="Courier, monospace" font-size="14.00" fill="#000000">drop(_1)</text>
</g>
<!-- bb1__0_3&#45;&gt;bb14__0_3 -->
<g id="edge3" class="edge">
<title>bb1__0_3-&gt;bb14__0_3</title>
<path fill="none" stroke="#000000" d="M1104.4332,-1861.5888C1131.274,-1839.314 1157.5,-1808.2288 1157.5,-1771.8 1157.5,-1771.8 1157.5,-1771.8 1157.5,-663.6 1157.5,-605.9746 981.1825,-577.3555 878.835,-565.5971"/>
<polygon fill="#000000" stroke="#000000" points="879.1939,-562.1155 868.8659,-564.4781 878.413,-569.0718 879.1939,-562.1155"/>
<text text-anchor="middle" x="1182.6958" y="-1197" font-family="Courier, monospace" font-size="14.00" fill="#000000">unwind</text>
</g>
<!-- bb3__0_3 -->
<g id="node4" class="node">
<title>bb3__0_3</title>
<polygon fill="#c0c0c0" stroke="transparent" points="677.5,-1656 677.5,-1678 1044.5,-1678 1044.5,-1656 677.5,-1656"/>
<polygon fill="none" stroke="#000000" points="677.5,-1656 677.5,-1678 1044.5,-1678 1044.5,-1656 677.5,-1656"/>
<text text-anchor="start" x="856.8007" y="-1662.4" font-family="Courier, monospace" font-size="14.00" fill="#000000">3</text>
<polygon fill="none" stroke="#000000" points="677.5,-1634 677.5,-1656 1044.5,-1656 1044.5,-1634 677.5,-1634"/>
<text text-anchor="start" x="680.5" y="-1640.4" font-family="Courier, monospace" font-size="14.00" fill="#000000">_7 = &amp;mut _1</text>
<polygon fill="none" stroke="#000000" points="677.5,-1612 677.5,-1634 1044.5,-1634 1044.5,-1612 677.5,-1612"/>
<text text-anchor="start" x="680.4301" y="-1618.4" font-family="Courier, monospace" font-size="14.00" fill="#000000">_6 = Vec::&lt;i32&gt;::push(move _7, const 6_i32)</text>
</g>
<!-- bb2__0_3&#45;&gt;bb3__0_3 -->
<g id="edge4" class="edge">
<title>bb2__0_3-&gt;bb3__0_3</title>
<path fill="none" stroke="#000000" d="M915.7295,-1734.7833C907.3138,-1721.1024 897.6709,-1705.4265 888.8225,-1691.0422"/>
<polygon fill="#000000" stroke="#000000" points="891.6545,-1688.9659 883.4339,-1682.2822 885.6922,-1692.6336 891.6545,-1688.9659"/>
<text text-anchor="middle" x="928.6958" y="-1704.2" font-family="Courier, monospace" font-size="14.00" fill="#000000">return</text>
</g>
<!-- bb2__0_3&#45;&gt;bb14__0_3 -->
<g id="edge5" class="edge">
<title>bb2__0_3-&gt;bb14__0_3</title>
<path fill="none" stroke="#000000" d="M1017.6553,-1734.5837C1049.796,-1713.5688 1079.5,-1683.683 1079.5,-1645 1079.5,-1645 1079.5,-1645 1079.5,-663.6 1079.5,-620.6895 1043.1297,-621.483 1004.5,-602.8 965.259,-583.8213 917.6434,-572.8979 879.0552,-566.6824"/>
<polygon fill="#000000" stroke="#000000" points="879.3549,-563.1874 868.939,-565.1265 878.2907,-570.1061 879.3549,-563.1874"/>
<text text-anchor="middle" x="1104.6958" y="-1133.6" font-family="Courier, monospace" font-size="14.00" fill="#000000">unwind</text>
</g>
<!-- bb4__0_3 -->
<g id="node5" class="node">
<title>bb4__0_3</title>
<polygon fill="#c0c0c0" stroke="transparent" points="612.5,-1529.2 612.5,-1551.2 979.5,-1551.2 979.5,-1529.2 612.5,-1529.2"/>
<polygon fill="none" stroke="#000000" points="612.5,-1529.2 612.5,-1551.2 979.5,-1551.2 979.5,-1529.2 612.5,-1529.2"/>
<text text-anchor="start" x="791.8007" y="-1535.6" font-family="Courier, monospace" font-size="14.00" fill="#000000">4</text>
<polygon fill="none" stroke="#000000" points="612.5,-1507.2 612.5,-1529.2 979.5,-1529.2 979.5,-1507.2 612.5,-1507.2"/>
<text text-anchor="start" x="615.5" y="-1513.6" font-family="Courier, monospace" font-size="14.00" fill="#000000">_9 = &amp;mut _1</text>
<polygon fill="none" stroke="#000000" points="612.5,-1485.2 612.5,-1507.2 979.5,-1507.2 979.5,-1485.2 612.5,-1485.2"/>
<text text-anchor="start" x="615.4301" y="-1491.6" font-family="Courier, monospace" font-size="14.00" fill="#000000">_8 = Vec::&lt;i32&gt;::push(move _9, const 5_i32)</text>
</g>
<!-- bb3__0_3&#45;&gt;bb4__0_3 -->
<g id="edge6" class="edge">
<title>bb3__0_3-&gt;bb4__0_3</title>
<path fill="none" stroke="#000000" d="M841.5246,-1607.9833C834.5776,-1594.4314 826.6273,-1578.9221 819.3109,-1564.6496"/>
<polygon fill="#000000" stroke="#000000" points="822.288,-1562.7845 814.6115,-1555.4822 816.0587,-1565.9778 822.288,-1562.7845"/>
<text text-anchor="middle" x="856.6958" y="-1577.4" font-family="Courier, monospace" font-size="14.00" fill="#000000">return</text>
</g>
<!-- bb3__0_3&#45;&gt;bb14__0_3 -->
<g id="edge7" class="edge">
<title>bb3__0_3-&gt;bb14__0_3</title>
<path fill="none" stroke="#000000" d="M949.6365,-1607.9523C983.6928,-1587.4028 1014.5,-1557.8546 1014.5,-1518.2 1014.5,-1518.2 1014.5,-1518.2 1014.5,-663.6 1014.5,-601.2474 938.816,-575.9827 878.9754,-565.7518"/>
<polygon fill="#000000" stroke="#000000" points="879.1932,-562.2423 868.7666,-564.1228 878.0902,-569.1549 879.1932,-562.2423"/>
<text text-anchor="middle" x="1039.6958" y="-1070.2" font-family="Courier, monospace" font-size="14.00" fill="#000000">unwind</text>
</g>
<!-- bb5__0_3 -->
<g id="node6" class="node">
<title>bb5__0_3</title>
<polygon fill="#c0c0c0" stroke="transparent" points="634.5,-1402.4 634.5,-1424.4 900.5,-1424.4 900.5,-1402.4 634.5,-1402.4"/>
<polygon fill="none" stroke="#000000" points="634.5,-1402.4 634.5,-1424.4 900.5,-1424.4 900.5,-1402.4 634.5,-1402.4"/>
<text text-anchor="start" x="763.3007" y="-1408.8" font-family="Courier, monospace" font-size="14.00" fill="#000000">5</text>
<polygon fill="none" stroke="#000000" points="634.5,-1380.4 634.5,-1402.4 900.5,-1402.4 900.5,-1380.4 634.5,-1380.4"/>
<text text-anchor="start" x="637.5" y="-1386.8" font-family="Courier, monospace" font-size="14.00" fill="#000000">_11 = &amp;mut _1</text>
<polygon fill="none" stroke="#000000" points="634.5,-1358.4 634.5,-1380.4 900.5,-1380.4 900.5,-1358.4 634.5,-1358.4"/>
<text text-anchor="start" x="637.3217" y="-1364.8" font-family="Courier, monospace" font-size="14.00" fill="#000000">_10 = Vec::&lt;i32&gt;::pop(move _11)</text>
</g>
<!-- bb4__0_3&#45;&gt;bb5__0_3 -->
<g id="edge8" class="edge">
<title>bb4__0_3-&gt;bb5__0_3</title>
<path fill="none" stroke="#000000" d="M787.326,-1481.1833C784.3904,-1467.8896 781.039,-1452.7122 777.9374,-1438.6665"/>
<polygon fill="#000000" stroke="#000000" points="781.3067,-1437.6923 775.7327,-1428.6822 774.4713,-1439.2017 781.3067,-1437.6923"/>
<text text-anchor="middle" x="807.6958" y="-1450.6" font-family="Courier, monospace" font-size="14.00" fill="#000000">return</text>
</g>
<!-- bb4__0_3&#45;&gt;bb14__0_3 -->
<g id="edge9" class="edge">
<title>bb4__0_3-&gt;bb14__0_3</title>
<path fill="none" stroke="#000000" d="M874.6553,-1480.9837C906.796,-1459.9688 936.5,-1430.083 936.5,-1391.4 936.5,-1391.4 936.5,-1391.4 936.5,-663.6 936.5,-628.8021 907.8732,-603.5327 877.5904,-586.5365"/>
<polygon fill="#000000" stroke="#000000" points="879.071,-583.3596 868.6,-581.7439 875.778,-589.5367 879.071,-583.3596"/>
<text text-anchor="middle" x="961.6958" y="-1017.8" font-family="Courier, monospace" font-size="14.00" fill="#000000">unwind</text>
</g>
<!-- bb6__0_3 -->
<g id="node7" class="node">
<title>bb6__0_3</title>
<polygon fill="#c0c0c0" stroke="transparent" points="477.5,-1275.6 477.5,-1297.6 835.5,-1297.6 835.5,-1275.6 477.5,-1275.6"/>
<polygon fill="none" stroke="#000000" points="477.5,-1275.6 477.5,-1297.6 835.5,-1297.6 835.5,-1275.6 477.5,-1275.6"/>
<text text-anchor="start" x="652.3007" y="-1282" font-family="Courier, monospace" font-size="14.00" fill="#000000">6</text>
<polygon fill="none" stroke="#000000" points="477.5,-1253.6 477.5,-1275.6 835.5,-1275.6 835.5,-1253.6 477.5,-1253.6"/>
<text text-anchor="start" x="480.5" y="-1260" font-family="Courier, monospace" font-size="14.00" fill="#000000">_16 = &amp;_1</text>
<polygon fill="none" stroke="#000000" points="477.5,-1231.6 477.5,-1253.6 835.5,-1253.6 835.5,-1231.6 477.5,-1231.6"/>
<text text-anchor="start" x="480.1294" y="-1238" font-family="Courier, monospace" font-size="14.00" fill="#000000">_15 = &lt;Vec&lt;i32&gt; as Deref&gt;::deref(move _16)</text>
</g>
<!-- bb5__0_3&#45;&gt;bb6__0_3 -->
<g id="edge10" class="edge">
<title>bb5__0_3-&gt;bb6__0_3</title>
<path fill="none" stroke="#000000" d="M735.0958,-1354.3833C722.7806,-1340.3152 708.6189,-1324.1376 695.7387,-1309.4241"/>
<polygon fill="#000000" stroke="#000000" points="698.3569,-1307.1012 689.1366,-1301.8822 693.0899,-1311.7119 698.3569,-1307.1012"/>
<text text-anchor="middle" x="743.6958" y="-1323.8" font-family="Courier, monospace" font-size="14.00" fill="#000000">return</text>
</g>
<!-- bb5__0_3&#45;&gt;bb14__0_3 -->
<g id="edge11" class="edge">
<title>bb5__0_3-&gt;bb14__0_3</title>
<path fill="none" stroke="#000000" d="M820.7187,-1354.2669C846.3062,-1331.7515 871.5,-1300.4738 871.5,-1264.6 871.5,-1264.6 871.5,-1264.6 871.5,-1022 871.5,-994.9764 870.4525,-988.1728 872.1084,-961.2 875.3535,-908.3418 885.5,-895.7577 885.5,-842.8 885.5,-842.8 885.5,-842.8 885.5,-663.6 885.5,-635.9685 867.8352,-610.9019 849.3186,-592.2167"/>
<polygon fill="#000000" stroke="#000000" points="851.5735,-589.5295 841.939,-585.122 846.7221,-594.5757 851.5735,-589.5295"/>
<text text-anchor="middle" x="896.6958" y="-965.4" font-family="Courier, monospace" font-size="14.00" fill="#000000">unwind</text>
</g>
<!-- bb7__0_3 -->
<g id="node8" class="node">
<title>bb7__0_3</title>
<polygon fill="#c0c0c0" stroke="transparent" points="179.5,-1148.8 179.5,-1170.8 772.5,-1170.8 772.5,-1148.8 179.5,-1148.8"/>
<polygon fill="none" stroke="#000000" points="179.5,-1148.8 179.5,-1170.8 772.5,-1170.8 772.5,-1148.8 179.5,-1148.8"/>
<text text-anchor="start" x="471.8007" y="-1155.2" font-family="Courier, monospace" font-size="14.00" fill="#000000">7</text>
<polygon fill="none" stroke="#000000" points="179.5,-1126.8 179.5,-1148.8 772.5,-1148.8 772.5,-1126.8 179.5,-1126.8"/>
<text text-anchor="start" x="182.5" y="-1133.2" font-family="Courier, monospace" font-size="14.00" fill="#000000">_14 = _15</text>
<polygon fill="none" stroke="#000000" points="179.5,-1104.8 179.5,-1126.8 772.5,-1126.8 772.5,-1104.8 179.5,-1104.8"/>
<text text-anchor="start" x="182.049" y="-1111.2" font-family="Courier, monospace" font-size="14.00" fill="#000000">_13 = core::slice::&lt;impl [i32]&gt;::get::&lt;usize&gt;(move _14, const 0_usize)</text>
</g>
<!-- bb6__0_3&#45;&gt;bb7__0_3 -->
<g id="edge12" class="edge">
<title>bb6__0_3-&gt;bb7__0_3</title>
<path fill="none" stroke="#000000" d="M603.6607,-1227.5833C582.6576,-1212.8696 558.3607,-1195.8483 536.606,-1180.608"/>
<polygon fill="#000000" stroke="#000000" points="538.6033,-1177.7338 528.4049,-1174.8627 534.5869,-1183.467 538.6033,-1177.7338"/>
<text text-anchor="middle" x="602.6958" y="-1197" font-family="Courier, monospace" font-size="14.00" fill="#000000">return</text>
</g>
<!-- bb6__0_3&#45;&gt;bb14__0_3 -->
<g id="edge13" class="edge">
<title>bb6__0_3-&gt;bb14__0_3</title>
<path fill="none" stroke="#000000" d="M743.4624,-1227.4019C777.0286,-1206.7533 807.5,-1177.1672 807.5,-1137.8 807.5,-1137.8 807.5,-1137.8 807.5,-663.6 807.5,-640.8243 807.5,-615.2643 807.5,-595.0887"/>
<polygon fill="#000000" stroke="#000000" points="811.0001,-595.0722 807.5,-585.0723 804.0001,-595.0723 811.0001,-595.0722"/>
<text text-anchor="middle" x="832.6958" y="-902" font-family="Courier, monospace" font-size="14.00" fill="#000000">unwind</text>
</g>
<!-- bb8__0_3 -->
<g id="node9" class="node">
<title>bb8__0_3</title>
<polygon fill="#c0c0c0" stroke="transparent" points="313.5,-1022 313.5,-1044 638.5,-1044 638.5,-1022 313.5,-1022"/>
<polygon fill="none" stroke="#000000" points="313.5,-1022 313.5,-1044 638.5,-1044 638.5,-1022 313.5,-1022"/>
<text text-anchor="start" x="471.8007" y="-1028.4" font-family="Courier, monospace" font-size="14.00" fill="#000000">8</text>
<polygon fill="none" stroke="#000000" points="313.5,-1000 313.5,-1022 638.5,-1022 638.5,-1000 313.5,-1000"/>
<text text-anchor="start" x="316.4266" y="-1006.4" font-family="Courier, monospace" font-size="14.00" fill="#000000">_12 = Option::&lt;&amp;i32&gt;::unwrap(move _13)</text>
</g>
<!-- bb7__0_3&#45;&gt;bb8__0_3 -->
<g id="edge14" class="edge">
<title>bb7__0_3-&gt;bb8__0_3</title>
<path fill="none" stroke="#000000" d="M475.5,-1100.5227C475.5,-1087.0627 475.5,-1071.8923 475.5,-1058.4996"/>
<polygon fill="#000000" stroke="#000000" points="479.0001,-1058.2067 475.5,-1048.2067 472.0001,-1058.2068 479.0001,-1058.2067"/>
<text text-anchor="middle" x="500.6958" y="-1070.2" font-family="Courier, monospace" font-size="14.00" fill="#000000">return</text>
</g>
<!-- bb7__0_3&#45;&gt;bb14__0_3 -->
<g id="edge15" class="edge">
<title>bb7__0_3-&gt;bb14__0_3</title>
<path fill="none" stroke="#000000" d="M581.0433,-1100.5909C607.9159,-1087.245 634.967,-1069.9187 655.5,-1048 690.0361,-1011.1332 680.3245,-989.9355 699.5,-943.2 719.2748,-895.0039 718.4964,-880.3146 743.1084,-834.4 747.697,-825.8398 751.8121,-825.385 755.5,-816.4 792.1135,-727.1978 770.3872,-696.4129 793.5,-602.8 794.1443,-600.1904 794.86,-597.5096 795.6174,-594.8209"/>
<polygon fill="#000000" stroke="#000000" points="798.9936,-595.7463 798.4891,-585.1635 792.284,-593.751 798.9936,-595.7463"/>
<text text-anchor="middle" x="767.6958" y="-838.6" font-family="Courier, monospace" font-size="14.00" fill="#000000">unwind</text>
</g>
<!-- bb9__0_3 -->
<g id="node10" class="node">
<title>bb9__0_3</title>
<polygon fill="#c0c0c0" stroke="transparent" points="296.5,-917.2 296.5,-939.2 654.5,-939.2 654.5,-917.2 296.5,-917.2"/>
<polygon fill="none" stroke="#000000" points="296.5,-917.2 296.5,-939.2 654.5,-939.2 654.5,-917.2 296.5,-917.2"/>
<text text-anchor="start" x="471.3007" y="-923.6" font-family="Courier, monospace" font-size="14.00" fill="#000000">9</text>
<polygon fill="none" stroke="#000000" points="296.5,-895.2 296.5,-917.2 654.5,-917.2 654.5,-895.2 296.5,-895.2"/>
<text text-anchor="start" x="299.5" y="-901.6" font-family="Courier, monospace" font-size="14.00" fill="#000000">_21 = &amp;_1</text>
<polygon fill="none" stroke="#000000" points="296.5,-873.2 296.5,-895.2 654.5,-895.2 654.5,-873.2 296.5,-873.2"/>
<text text-anchor="start" x="299.1294" y="-879.6" font-family="Courier, monospace" font-size="14.00" fill="#000000">_20 = &lt;Vec&lt;i32&gt; as Deref&gt;::deref(move _21)</text>
</g>
<!-- bb8__0_3&#45;&gt;bb9__0_3 -->
<g id="edge16" class="edge">
<title>bb8__0_3-&gt;bb9__0_3</title>
<path fill="none" stroke="#000000" d="M475.5,-995.7232C475.5,-983.2655 475.5,-967.9904 475.5,-953.6087"/>
<polygon fill="#000000" stroke="#000000" points="479.0001,-953.3475 475.5,-943.3476 472.0001,-953.3476 479.0001,-953.3475"/>
<text text-anchor="middle" x="500.6958" y="-965.4" font-family="Courier, monospace" font-size="14.00" fill="#000000">return</text>
</g>
<!-- bb8__0_3&#45;&gt;bb14__0_3 -->
<g id="edge17" class="edge">
<title>bb8__0_3-&gt;bb14__0_3</title>
<path fill="none" stroke="#000000" d="M595.1339,-995.9097C623.9622,-984.2446 652.024,-967.4234 671.5,-943.2 728.1985,-872.6807 682.1852,-829.9341 705.1084,-742.4 721.8191,-678.5889 717.8485,-656.9615 755.5,-602.8 758.0756,-599.095 761.0387,-595.5169 764.2164,-592.1103"/>
<polygon fill="#000000" stroke="#000000" points="766.8091,-594.4685 771.449,-584.9437 761.8821,-589.4961 766.8091,-594.4685"/>
<text text-anchor="middle" x="729.6958" y="-775.2" font-family="Courier, monospace" font-size="14.00" fill="#000000">unwind</text>
</g>
<!-- bb10__0_3 -->
<g id="node11" class="node">
<title>bb10__0_3</title>
<polygon fill="#c0c0c0" stroke="transparent" points="8.5,-790.4 8.5,-812.4 601.5,-812.4 601.5,-790.4 8.5,-790.4"/>
<polygon fill="none" stroke="#000000" points="8.5,-790.4 8.5,-812.4 601.5,-812.4 601.5,-790.4 8.5,-790.4"/>
<text text-anchor="start" x="296.6014" y="-796.8" font-family="Courier, monospace" font-size="14.00" fill="#000000">10</text>
<polygon fill="none" stroke="#000000" points="8.5,-768.4 8.5,-790.4 601.5,-790.4 601.5,-768.4 8.5,-768.4"/>
<text text-anchor="start" x="11.5" y="-774.8" font-family="Courier, monospace" font-size="14.00" fill="#000000">_19 = _20</text>
<polygon fill="none" stroke="#000000" points="8.5,-746.4 8.5,-768.4 601.5,-768.4 601.5,-746.4 8.5,-746.4"/>
<text text-anchor="start" x="11.049" y="-752.8" font-family="Courier, monospace" font-size="14.00" fill="#000000">_18 = core::slice::&lt;impl [i32]&gt;::get::&lt;usize&gt;(move _19, const 2_usize)</text>
</g>
<!-- bb9__0_3&#45;&gt;bb10__0_3 -->
<g id="edge18" class="edge">
<title>bb9__0_3-&gt;bb10__0_3</title>
<path fill="none" stroke="#000000" d="M425.58,-869.1833C405.9122,-854.5992 383.187,-837.7481 362.7738,-822.6112"/>
<polygon fill="#000000" stroke="#000000" points="364.5993,-819.6076 354.482,-816.4627 360.4299,-825.2304 364.5993,-819.6076"/>
<text text-anchor="middle" x="425.6958" y="-838.6" font-family="Courier, monospace" font-size="14.00" fill="#000000">return</text>
</g>
<!-- bb9__0_3&#45;&gt;bb14__0_3 -->
<g id="edge19" class="edge">
<title>bb9__0_3-&gt;bb14__0_3</title>
<path fill="none" stroke="#000000" d="M559.0638,-869.1336C581.1774,-855.544 602.9192,-838.0547 617.5,-816.4 644.9428,-775.6434 621.9673,-754.3435 637.1084,-707.6 653.0347,-658.4326 649.2304,-637.535 687.5,-602.8 701.3635,-590.2169 719.124,-581.1486 736.7067,-574.6451"/>
<polygon fill="#000000" stroke="#000000" points="738.1192,-577.8603 746.4307,-571.29 735.836,-571.2432 738.1192,-577.8603"/>
<text text-anchor="middle" x="661.6958" y="-711.8" font-family="Courier, monospace" font-size="14.00" fill="#000000">unwind</text>
</g>
<!-- bb11__0_3 -->
<g id="node12" class="node">
<title>bb11__0_3</title>
<polygon fill="#c0c0c0" stroke="transparent" points="177.5,-663.6 177.5,-685.6 502.5,-685.6 502.5,-663.6 177.5,-663.6"/>
<polygon fill="none" stroke="#000000" points="177.5,-663.6 177.5,-685.6 502.5,-685.6 502.5,-663.6 177.5,-663.6"/>
<text text-anchor="start" x="331.6014" y="-670" font-family="Courier, monospace" font-size="14.00" fill="#000000">11</text>
<polygon fill="none" stroke="#000000" points="177.5,-641.6 177.5,-663.6 502.5,-663.6 502.5,-641.6 177.5,-641.6"/>
<text text-anchor="start" x="180.4266" y="-648" font-family="Courier, monospace" font-size="14.00" fill="#000000">_17 = Option::&lt;&amp;i32&gt;::unwrap(move _18)</text>
</g>
<!-- bb10__0_3&#45;&gt;bb11__0_3 -->
<g id="edge20" class="edge">
<title>bb10__0_3-&gt;bb11__0_3</title>
<path fill="none" stroke="#000000" d="M315.7669,-742.1227C319.8754,-728.5294 324.5111,-713.1917 328.5882,-699.7023"/>
<polygon fill="#000000" stroke="#000000" points="332.0362,-700.3917 331.5791,-689.8067 325.3356,-698.3664 332.0362,-700.3917"/>
<text text-anchor="middle" x="351.6958" y="-711.8" font-family="Courier, monospace" font-size="14.00" fill="#000000">return</text>
</g>
<!-- bb10__0_3&#45;&gt;bb14__0_3 -->
<g id="edge21" class="edge">
<title>bb10__0_3-&gt;bb14__0_3</title>
<path fill="none" stroke="#000000" d="M414.6147,-742.3309C449.2542,-728.3139 486.7297,-710.5851 518.5,-689.6 546.1968,-671.3055 546.4507,-658.659 572.1084,-637.6 593.1472,-620.3321 597.636,-613.872 622.5,-602.8 658.3214,-586.8486 700.7269,-576.2274 735.8959,-569.4241"/>
<polygon fill="#000000" stroke="#000000" points="736.8992,-572.7972 746.0859,-567.5195 735.613,-565.9164 736.8992,-572.7972"/>
<text text-anchor="middle" x="597.6958" y="-659.4" font-family="Courier, monospace" font-size="14.00" fill="#000000">unwind</text>
</g>
<!-- bb12__0_3 -->
<g id="node13" class="node">
<title>bb12__0_3</title>
<polygon fill="#c0c0c0" stroke="transparent" points="303.5,-558.8 303.5,-580.8 376.5,-580.8 376.5,-558.8 303.5,-558.8"/>
<polygon fill="none" stroke="#000000" points="303.5,-558.8 303.5,-580.8 376.5,-580.8 376.5,-558.8 303.5,-558.8"/>
<text text-anchor="start" x="331.6014" y="-565.2" font-family="Courier, monospace" font-size="14.00" fill="#000000">12</text>
<polygon fill="none" stroke="#000000" points="303.5,-536.8 303.5,-558.8 376.5,-558.8 376.5,-536.8 303.5,-536.8"/>
<text text-anchor="start" x="306.4056" y="-543.2" font-family="Courier, monospace" font-size="14.00" fill="#000000">drop(_1)</text>
</g>
<!-- bb11__0_3&#45;&gt;bb12__0_3 -->
<g id="edge22" class="edge">
<title>bb11__0_3-&gt;bb12__0_3</title>
<path fill="none" stroke="#000000" d="M339.5,-637.4249C339.5,-624.6705 339.5,-609.1231 339.5,-595.2314"/>
<polygon fill="#000000" stroke="#000000" points="343.0001,-595.0046 339.5,-585.0047 336.0001,-595.0047 343.0001,-595.0046"/>
<text text-anchor="middle" x="364.6958" y="-607" font-family="Courier, monospace" font-size="14.00" fill="#000000">return</text>
</g>
<!-- bb11__0_3&#45;&gt;bb14__0_3 -->
<g id="edge23" class="edge">
<title>bb11__0_3-&gt;bb14__0_3</title>
<path fill="none" stroke="#000000" d="M393.7569,-637.5526C421.421,-625.2709 455.939,-611.4483 488.1084,-602.8 571.6145,-580.3506 670.646,-568.9726 736.0553,-563.479"/>
<polygon fill="#000000" stroke="#000000" points="736.5744,-566.9484 746.2568,-562.6471 736.0054,-559.9716 736.5744,-566.9484"/>
<text text-anchor="middle" x="513.6958" y="-607" font-family="Courier, monospace" font-size="14.00" fill="#000000">unwind</text>
</g>
<!-- bb13__0_3 -->
<g id="node14" class="node">
<title>bb13__0_3</title>
<polygon fill="#c0c0c0" stroke="transparent" points="311.5,-454 311.5,-476 367.5,-476 367.5,-454 311.5,-454"/>
<polygon fill="none" stroke="#000000" points="311.5,-454 311.5,-476 367.5,-476 367.5,-454 311.5,-454"/>
<text text-anchor="start" x="331.1014" y="-460.4" font-family="Courier, monospace" font-size="14.00" fill="#000000">13</text>
<polygon fill="none" stroke="#000000" points="311.5,-432 311.5,-454 367.5,-454 367.5,-432 311.5,-432"/>
<text text-anchor="start" x="314.3042" y="-438.4" font-family="Courier, monospace" font-size="14.00" fill="#000000">return</text>
</g>
<!-- bb12__0_3&#45;&gt;bb13__0_3 -->
<g id="edge24" class="edge">
<title>bb12__0_3-&gt;bb13__0_3</title>
<path fill="none" stroke="#000000" d="M339.5,-532.6249C339.5,-519.8705 339.5,-504.3231 339.5,-490.4314"/>
<polygon fill="#000000" stroke="#000000" points="343.0001,-490.2046 339.5,-480.2047 336.0001,-490.2047 343.0001,-490.2046"/>
<text text-anchor="middle" x="364.6958" y="-502.2" font-family="Courier, monospace" font-size="14.00" fill="#000000">return</text>
</g>
<!-- bb15__0_3 -->
<g id="node16" class="node">
<title>bb15__0_3</title>
<polygon fill="#add8e6" stroke="transparent" points="754.5,-454 754.5,-476 860.5,-476 860.5,-454 754.5,-454"/>
<polygon fill="none" stroke="#000000" points="754.5,-454 754.5,-476 860.5,-476 860.5,-454 754.5,-454"/>
<text text-anchor="start" x="757.1084" y="-460.4" font-family="Courier, monospace" font-size="14.00" fill="#000000">15 (cleanup)</text>
<polygon fill="none" stroke="#000000" points="754.5,-432 754.5,-454 860.5,-454 860.5,-432 754.5,-432"/>
<text text-anchor="start" x="757.5" y="-438.4" font-family="Courier, monospace" font-size="14.00" fill="#000000">resume</text>
</g>
<!-- bb14__0_3&#45;&gt;bb15__0_3 -->
<g id="edge25" class="edge">
<title>bb14__0_3-&gt;bb15__0_3</title>
<path fill="none" stroke="#000000" d="M807.5,-532.6249C807.5,-519.8705 807.5,-504.3231 807.5,-490.4314"/>
<polygon fill="#000000" stroke="#000000" points="811.0001,-490.2046 807.5,-480.2047 804.0001,-490.2047 811.0001,-490.2046"/>
<text text-anchor="middle" x="832.6958" y="-502.2" font-family="Courier, monospace" font-size="14.00" fill="#000000">return</text>
</g>
</g>
</svg>